<svg width="286.9" height="283.5" viewBox="0 0 286.9 283.5" role="img" focusable="false" aria-labelledby="npeu-device--title" xmlns="http://www.w3.org/2000/svg" xmlns:xlink="http://www.w3.org/1999/xlink"><title id="npeu-device--title">NPEU: National Perinatal Epidemiology Unit</title><g><path d="M178.8,77.3c0-42.7-34.6-77.3-77.3-77.3C58.9,0,24.3,34.6,24.3,77.3s34.6,77.3,77.3,77.3 C144.2,154.7,178.8,120.1,178.8,77.3" fill="#604877"  /><path d="M283.4,65.4c5.8-14.8-1.4-31.4-16.1-37.2s-31.4,1.4-37.2,16.1s1.4,31.4,16.1,37.2 C261,87.3,277.7,80.1,283.4,65.4" fill="#BC945C"  /><path d="M158.8,191c8.6,1.1,36.5,4.3,74.1-18.1c27.8-16.7,46-41.1,47.8-55.6c1.6-11.7-6.5-22.6-18.2-24.2 c-5-0.7-9.1,0.2-13.8,2.7c-14.5,7.7-18.1,34.5-31.8,54.5c-20.2,29.5-45.4,30.8-57.4,31.1c-2.6,0-4.8,2.1-4.8,4.8 C154.5,188.8,156.4,190.8,158.8,191" fill="#BC945C"  /><path d="M275.9,153.9c-12.8,15.6-51,50-97.4,50c-46.5,0-69.5-23.3-104.2-37.7c-27.2-11.4-58.5,1.4-70.1,28.5 c-8.4,20.1-3.7,42.5,10.4,57.4c23.7,26,71.8,44.8,150.1,18.9c78.1-26,116.1-100.8,121.6-110.6c1.5-3,0.2-6.5-2.7-8.1 C280.8,150.8,277.6,151.6,275.9,153.9" fill="#604877"  />
    
    
    
    
  </g></svg>