<svg width="834.8" height="283.5" viewBox="0 0 834.8 283.5" role="img" focusable="false" aria-labelledby="staff-area--title" xmlns="http://www.w3.org/2000/svg" xmlns:xlink="http://www.w3.org/1999/xlink"><title id="staff-area--title">NPEU: Staff Area</title><g fill="#BC955C" ><path d="M347.4 281.3c-3-.9-5.4-2.2-7.2-3.8-.8-.7-1.2-1.6-1.2-2.7 0-.8.2-1.5.7-2 .4-.5 1-.8 1.6-.8.6 0 1.4.3 2.2.9 3.9 2.9 8.3 4.3 13.3 4.3 3.5 0 6.2-.7 8.1-2 1.9-1.3 2.8-3.2 2.8-5.6 0-1.9-.9-3.4-2.6-4.3-1.7-1-4.5-1.9-8.4-2.8-3.7-.8-6.7-1.7-9-2.7-2.4-1-4.2-2.4-5.5-4.1-1.3-1.7-2-3.9-2-6.6 0-2.7.7-5 2.2-7.1 1.5-2.1 3.5-3.7 6.1-4.9 2.6-1.2 5.6-1.7 9-1.7 3.1 0 6 .4 8.6 1.3 2.6.9 4.9 2.2 6.7 3.9.9.7 1.3 1.6 1.3 2.7 0 .7-.2 1.4-.7 2-.5.6-1 .9-1.6.9-.6 0-1.3-.3-2.2-.9-2-1.5-3.9-2.6-5.7-3.3-1.8-.7-3.9-1-6.4-1-3.4 0-6 .7-7.9 2.1-1.9 1.4-2.8 3.3-2.8 5.7 0 2.1.8 3.7 2.5 4.8 1.7 1.1 4.3 2 8 2.9 3.8.9 7 1.8 9.3 2.7 2.4.9 4.3 2.2 5.7 3.9 1.4 1.6 2.1 3.7 2.1 6.3 0 2.6-.7 5-2.2 7-1.5 2-3.5 3.6-6.2 4.7-2.6 1.1-5.7 1.7-9.1 1.7-3.4-.1-6.5-.6-9.5-1.5zM399.7 278.2c.4.4.6 1 .6 1.7 0 .9-.3 1.5-1 2s-1.7.6-3 .6l-1.8-.1c-3.5-.3-6.2-1.3-7.9-3.2-1.7-1.9-2.6-4.7-2.6-8.4v-15.4h-4c-1.9 0-2.9-.9-2.9-2.6 0-.8.3-1.4.8-1.9s1.2-.7 2.1-.7h3.9v-6.8c0-1 .3-1.8.9-2.4.6-.6 1.4-.9 2.4-.9s1.8.3 2.4.9c.6.6.9 1.4.9 2.4v6.8h6.5c.9 0 1.6.2 2.1.7.5.5.8 1.1.8 1.9 0 .8-.3 1.5-.8 1.9-.5.4-1.2.7-2.1.7h-6.5v15.9c0 2.1.4 3.6 1.3 4.5.9 1 2.2 1.5 3.9 1.6l1.8.1c1.1 0 1.7.3 2.2.7zM428 252.6c2.1 2.1 3.1 5.4 3.1 9.8v17c0 1-.3 1.8-.9 2.3-.6.5-1.4.8-2.4.8s-1.7-.3-2.3-.9c-.6-.6-.9-1.3-.9-2.3v-2.4c-.8 1.8-2.1 3.2-3.7 4.2s-3.6 1.5-5.7 1.5-4-.4-5.8-1.3c-1.7-.9-3.1-2-4.1-3.6s-1.5-3.2-1.5-5.1c0-2.3.6-4.1 1.8-5.5 1.2-1.3 3.2-2.3 6-2.9 2.8-.6 6.6-.9 11.4-.9h1.5v-1.9c0-2.4-.5-4.2-1.5-5.3-1-1.1-2.6-1.6-4.9-1.6-1.5 0-3 .2-4.3.6-1.4.4-2.8 1-4.5 1.7-1.2.7-2 1-2.5 1-.7 0-1.2-.2-1.6-.7-.4-.5-.6-1.1-.6-1.8s.2-1.2.6-1.7c.4-.5 1-1 1.8-1.5 1.5-.8 3.3-1.5 5.4-2 2.1-.5 4-.8 6-.8 4.4.1 7.5 1.1 9.6 3.3zm-5.6 22.6c1.5-1.6 2.3-3.7 2.3-6.3v-1.7h-1.2c-3.4 0-6 .2-7.9.5-1.8.3-3.1.8-3.9 1.5-.8.7-1.2 1.8-1.2 3.1 0 1.6.6 2.9 1.7 3.9s2.6 1.5 4.3 1.5c2.4 0 4.3-.8 5.9-2.5zM450.4 243c-1 1.2-1.6 3-1.6 5.3v1.8h6.5c.9 0 1.6.2 2.1.7.5.5.8 1.1.8 1.9 0 .8-.3 1.4-.8 1.9s-1.2.7-2.1.7h-6.5v24c0 1.1-.3 1.8-1 2.4-.6.5-1.4.8-2.4.8s-1.7-.3-2.4-.8c-.6-.5-.9-1.3-.9-2.4v-24h-3.9c-.9 0-1.6-.2-2.1-.7-.5-.5-.8-1.1-.8-1.9 0-.8.3-1.4.8-1.9s1.2-.7 2.1-.7h3.9v-.9c0-4 1-7.2 3.1-9.5s5-3.6 8.7-3.8l1.7-.1c1.4-.1 2.4.1 3.1.5.6.4 1 1 1 1.9 0 1.5-.9 2.4-2.8 2.6l-1.7.1c-2.2.2-3.8.9-4.8 2.1z" /><path d="M472.8 243c-1 1.2-1.6 3-1.6 5.3v1.8h6.5c.9 0 1.6.2 2.1.7.5.5.8 1.1.8 1.9 0 .8-.3 1.4-.8 1.9s-1.2.7-2.1.7h-6.5v24c0 1.1-.3 1.8-1 2.4-.6.5-1.4.8-2.4.8s-1.7-.3-2.4-.8c-.6-.5-.9-1.3-.9-2.4v-24h-3.9c-.9 0-1.6-.2-2.1-.7-.5-.5-.8-1.1-.8-1.9 0-.8.3-1.4.8-1.9s1.2-.7 2.1-.7h3.9v-.9c0-4 1-7.2 3.1-9.5s5-3.6 8.7-3.8l1.7-.1c1.4-.1 2.4.1 3.1.5.6.4 1 1 1 1.9 0 1.5-.9 2.4-2.8 2.6l-1.7.1c-2.1.2-3.7.9-4.8 2.1zM544.2 279.5c0 .8-.3 1.5-1 2.1-.7.6-1.4.9-2.3.9-.6 0-1.1-.2-1.6-.5s-.9-.8-1.1-1.4l-4.3-9.8h-24l-4.3 9.8c-.3.6-.7 1.1-1.2 1.4-.5.3-1.1.5-1.6.5-.9 0-1.6-.3-2.3-.9-.7-.6-1-1.3-1-2.1 0-.3.1-.8.3-1.3l18.5-40.5c.3-.7.8-1.2 1.5-1.6.7-.4 1.4-.6 2.1-.6.7 0 1.5.2 2.1.6.7.4 1.2.9 1.5 1.6l18.5 40.5c.1.5.2 1 .2 1.3zm-31.9-14.1h19.2l-9.6-21.7-9.6 21.7zM570.4 252.2c0 1-.2 1.7-.7 2.2-.5.5-1.3.8-2.5.9l-2 .2c-2.8.3-4.8 1.2-6.1 2.9-1.3 1.7-2 3.7-2 6v15c0 1-.3 1.8-.9 2.4-.6.5-1.4.8-2.4.8s-1.8-.3-2.4-.8c-.6-.5-.9-1.3-.9-2.4v-26.7c0-1 .3-1.8.9-2.3.6-.5 1.4-.8 2.4-.8.9 0 1.6.3 2.2.8.6.5.9 1.3.9 2.3v3.1c.9-1.9 2.1-3.4 3.8-4.4 1.7-1 3.5-1.6 5.6-1.8l.9-.1c2.2-.1 3.2.8 3.2 2.7zM601 274.8c.4.5.6 1.1.6 1.8 0 1.3-.8 2.3-2.4 3.2-1.5.9-3.2 1.6-5 2-1.8.5-3.6.7-5.2.7-5.1 0-9.1-1.5-12-4.4-2.9-3-4.4-7-4.4-12.1 0-3.3.6-6.2 1.9-8.7 1.3-2.5 3.1-4.5 5.4-5.9 2.3-1.4 5-2.1 8-2.1 4.3 0 7.7 1.4 10.2 4.1 2.5 2.8 3.7 6.5 3.7 11.1 0 1.7-.8 2.6-2.4 2.6h-20.3c.4 6.8 3.7 10.2 9.8 10.2 1.6 0 3-.2 4.2-.7 1.2-.4 2.4-1 3.7-1.7.1-.1.5-.3 1.1-.6.6-.3 1.1-.4 1.5-.4.7.2 1.2.4 1.6.9zm-19-18.2c-1.5 1.6-2.5 3.9-2.8 6.8h16.9c-.1-3-.9-5.3-2.3-6.9-1.4-1.6-3.3-2.4-5.8-2.4-2.4.1-4.5.9-6 2.5zM632.1 252.6c2.1 2.1 3.1 5.4 3.1 9.8v17c0 1-.3 1.8-.9 2.3-.6.5-1.4.8-2.4.8s-1.7-.3-2.3-.9c-.6-.6-.9-1.3-.9-2.3v-2.4c-.8 1.8-2.1 3.2-3.7 4.2s-3.6 1.5-5.7 1.5-4-.4-5.8-1.3c-1.7-.9-3.1-2-4.1-3.6-1-1.5-1.5-3.2-1.5-5.1 0-2.3.6-4.1 1.8-5.5 1.2-1.3 3.2-2.3 6-2.9 2.8-.6 6.6-.9 11.4-.9h1.5v-1.9c0-2.4-.5-4.2-1.5-5.3-1-1.1-2.6-1.6-4.9-1.6-1.5 0-3 .2-4.3.6-1.4.4-2.8 1-4.5 1.7-1.2.7-2 1-2.5 1-.7 0-1.2-.2-1.6-.7-.4-.5-.6-1.1-.6-1.8s.2-1.2.6-1.7c.4-.5 1-1 1.8-1.5 1.5-.8 3.3-1.5 5.4-2 2.1-.5 4-.8 6-.8 4.3.1 7.5 1.1 9.6 3.3zm-5.6 22.6c1.5-1.6 2.3-3.7 2.3-6.3v-1.7h-1.2c-3.4 0-6 .2-7.9.5-1.8.3-3.1.8-3.9 1.5-.8.7-1.2 1.8-1.2 3.1 0 1.6.6 2.9 1.7 3.9s2.6 1.5 4.3 1.5c2.4 0 4.3-.8 5.9-2.5z" />
    
    
  </g><path d="M335 202.1c0-2.3 1.9-4.2 4.2-4.2h491.4c2.3 0 4.2 1.9 4.2 4.2 0 2.3-1.9 4.2-4.2 4.2H339.2c-2.3 0-4.2-1.9-4.2-4.2" fill="#BC955C"  /><path d="M178.8 77.3c0-42.7-34.6-77.3-77.3-77.3-42.8 0-77.4 34.6-77.4 77.3 0 42.7 34.6 77.3 77.3 77.3 42.8.1 77.4-34.5 77.4-77.3" fill="#5F6DB2"  /><path d="M283.4 65.4c5.8-14.7-1.4-31.4-16.1-37.2-14.7-5.8-31.4 1.4-37.2 16.1-5.8 14.7 1.4 31.4 16.1 37.2 14.8 5.9 31.4-1.3 37.2-16.1M158.7 191.1c8.6 1.1 36.5 4.4 74-18.2 27.8-16.7 46-41.1 47.8-55.6 1.7-11.7-6.5-22.6-18.2-24.2-5-.7-9.1.3-13.8 2.7-14.6 7.6-18.1 34.5-31.7 54.5-20.2 29.6-45.4 30.7-57.5 31.2-2.6 0-4.8 2.1-4.8 4.8 0 2.5 1.9 4.5 4.2 4.8" fill="#BC955C"  /><path d="M275.9 153.9c-12.7 15.7-51 50-97.4 50-46.5 0-69.5-23.3-104.2-37.7-27.2-11.5-58.6 1.3-70.1 28.5-8.5 20.1-3.7 42.5 10.4 57.4 23.7 26 71.9 44.8 150.1 18.8 78.2-26 116.1-100.9 121.5-110.7 1.5-3 .2-6.5-2.8-8-2.7-1.3-5.8-.5-7.5 1.7" fill="#5F6DB2"  /><g fill="#5F6DB2" ><path d="M447 28.7c1.8 1.9 2.6 4.3 2.6 7.4v119.8c0 3-.9 5.5-2.7 7.4-1.8 1.9-4.2 2.8-7.1 2.8-3.4 0-6-1.3-7.8-3.9L355.1 60.8v95.1c0 3-.9 5.5-2.6 7.4-1.8 1.9-4.1 2.8-7 2.8-2.9 0-5.2-.9-6.9-2.7-1.7-1.8-2.5-4.3-2.5-7.4V36.1c0-3 .9-5.5 2.7-7.4 1.8-1.9 4.2-2.8 7.1-2.8 3.4 0 6 1.3 7.8 3.9l76.8 101.6V36.1c0-3 .9-5.5 2.6-7.4 1.7-1.9 4-2.8 6.9-2.8 2.9 0 5.2.9 7 2.8zM484.1 163.3c-1.8-1.8-2.7-4.3-2.7-7.4V36.7c0-3 .9-5.4 2.6-7.2 1.8-1.8 4.2-2.6 7.3-2.6h47.2c14.6 0 26 3.6 34.1 10.8 8.1 7.2 12.2 17.4 12.2 30.6 0 13.1-4.1 23.3-12.2 30.6-8.1 7.3-19.5 11-34.1 11h-37.1V156c0 3.1-.9 5.6-2.6 7.4-1.8 1.8-4.3 2.7-7.5 2.7-2.9-.1-5.3-1-7.2-2.8zm52.4-69.8c19.3 0 29-8.4 29-25.3 0-16.7-9.7-25.1-29-25.1h-34.9v50.4h34.9zM611.5 162.4c-1.8-1.8-2.6-4.1-2.6-7.2V36.7c0-3 .9-5.4 2.6-7.2 1.8-1.8 4.2-2.6 7.3-2.6h72.1c3 0 5.3.7 7 2.2 1.6 1.4 2.4 3.5 2.4 6.1 0 2.6-.8 4.6-2.4 6-1.6 1.4-4 2.1-7 2.1h-62.3v43.5H687c3 0 5.3.7 7 2.2 1.6 1.4 2.5 3.5 2.5 6.1 0 2.6-.8 4.6-2.5 6.1-1.6 1.4-4 2.2-7 2.2h-58.4v45.7h62.3c6.3 0 9.4 2.7 9.4 8 0 2.6-.8 4.6-2.4 6.1-1.6 1.4-4 2.2-7 2.2h-72.1c-3.1-.3-5.6-1.2-7.3-3zM736.4 152.3c-9.5-9.5-14.3-23.6-14.3-42.1V36.1c0-3.1.9-5.6 2.7-7.4 1.8-1.8 4.2-2.7 7.3-2.7 3 0 5.4.9 7.3 2.7 1.8 1.8 2.7 4.3 2.7 7.4v75.5c0 12.7 3 22.3 9.1 28.8s15.1 9.8 27.1 9.8c11.9 0 20.9-3.3 27.1-9.8 6.1-6.5 9.2-16.1 9.2-28.8V36.1c0-3 .9-5.5 2.7-7.4 1.8-1.9 4.2-2.8 7.3-2.8 3 0 5.4.9 7.3 2.7 1.8 1.8 2.7 4.3 2.7 7.4v74.1c0 18.4-4.8 32.4-14.4 42.1-9.6 9.6-23.6 14.4-41.9 14.4-18.3 0-32.3-4.7-41.9-14.3z" />
    
  </g></svg>