<svg viewBox="0 0 510.9 177.3" role="img" focusable="false" aria-labelledby="csor--title" xmlns="http://www.w3.org/2000/svg" xmlns:xlink="http://www.w3.org/1999/xlink"><title id="csor--title">CSOR</title><path d="  M66.4,87c4.5-4.6,8.3-9.9,11.3-15.9C75.2,63,87.9,54.3,85,66.3c2.4-0.1,4.1,0.3,5.2,0.8l-0.6,7.3c-2.6,2-6.7,2.6-9.8-1.4  c-3.2,6.6-7.6,12.1-12.5,17L66.4,87z" fill-rule="evenodd"  clip-rule="evenodd"  fill="#3C3C3B"  stroke="#3C3C3B"  stroke-width="1.2634"  stroke-miterlimit="10"  /><path d="M88.1,73.6c4.4-1.7,1.4-9.5-4-7.4C78,68.5,84.2,75.1,88.1,73.6z" fill="#FFFFFF"  /><g><path d="M38,145.2c-1.2,0-2.3-0.9-2.5-2.1l-6.2-36.9c-1-5.9-4.3-11.1-9.2-14.6S9.2,86.7,3.3,87.7l-0.4,0.1   C1.5,88,0.2,87.1,0,85.7c-0.2-1.4,0.7-2.7,2.1-2.9l0.4-0.1c7.2-1.2,14.5,0.5,20.6,4.8c6,4.3,10,10.6,11.2,17.9l6.2,36.9   c0.2,1.4-0.7,2.7-2.1,2.9C38.3,145.2,38.1,145.2,38,145.2z" fill="#3C3C3B"  />
	
</g><path d="M273.2,37.5c-1.1,0.4-1.2,1.7-1,3.1c0.7-1.1,0.5-2.8,1.6-3.6  c1.3-0.4,1,1.3,1.9,1.5c-0.5,1.3-1.1,2.5-1.2,4.2c1-1.5,1-3.8,2.4-5c1.4-0.4,1.6,0.7,2.2,1.4c0.9-0.4,0.3-0.5,0.2-1.4  c1-0.1,2.1-0.4,2.7,0c0.2,0.7,0.1,1-0.5,1.1c0.7,0.8,2.7-0.2,3.1,1c-1.7,1.5,1.2,1.9-0.6,3.1c0.2,0.8,1.6-1.5,2.3-0.3  c0.9-1.2,0.7-3.3,2.2-4c1.1,0,1.6,0.8,2.5,1c-0.5,1.4,0.6,3.1-1.2,3.8c0.6,0.5,2,0,2.4,0.7c-1.1,1,0.5,2.2,1.9,2.1  c-0.7,4,0.2,4.8-0.6,9.1c-1,0.3-1.4-0.2-1.8-0.8c-1.1,2.1-1.7,2.8-1.6,5.9c-3.1-0.7-2.8,1.9-5.2,1.3c0.4-4.9,2.8-9.8,1.9-14.7  c-0.7,2.2-0.9,4.1-2,5.3c0.5,4-1.9,6.3-1.7,11c-1.2,0.1-0.6,1.7-1.4,2.2c-1.8,0.4-2.6-0.5-3.8-0.9c0.2-1-0.4-2.7,1-2.8  c0.6-5.8,1.2-10.4,3.8-15.9c-0.4-0.4-1-0.6-1.4-0.8c-1,4.7-3.1,8.4-3.3,13.9c-2.2,2.3-0.6,6.1-3.8,7.2c-0.8-0.6-0.2-1.5,0.1-2  c-0.4-1.2-1.3,0.2-2.7,0c-0.6-4.7,1.9-7.2,1.8-10c-0.3-0.7-0.9,0.9-1.6,0.9c0.9,1.2,0.2,3.2-1.2,3.5c1.6,2-1,3.1-1,5.8  c-1.6,0.5-2.3-0.1-2.8-1c0,0.5-0.3,1.5-0.7,2.4c-1,0.4-1.2-0.2-2-0.1c1-2.8,0.4-5.6,2.3-8.7c-2.5,0.7-2.1,5.4-3.2,7.1  c-0.8,0.1-1-0.5-2-0.1c-0.2-2.6,1.2-3.8,1.6-5.9c-0.7,0.6-1.9,0.7-1.4,2.2c-0.8,0.2-1.2,0.7-2.3,0.6c-0.1-2-0.6-4.8,1.3-6.2  c0-0.9-1.3-0.1-1.2-1.2c0.3,0,0.7-0.1,1-0.1c-1-4.3,2.3-8.3,4.3-11.6c1.6-0.3,1.9,0.9,3.4,0.6c0.8-1.5,2.8-3.2,2.1-5  c0.7-0.5,1.1-1.4,2.5-1.3C272.5,36.9,273.4,36.6,273.2,37.5z M270.6,43.2c1.2,0.1,1.4-0.5,1.5-1.2c-0.4,0-0.5-0.4-1-0.2  C271.4,42.7,270.5,42.5,270.6,43.2z M287.4,46.5c1.3,0.3-0.1-1.5,1.2-1.2c-0.3-0.8,0.1-2.5-0.7-2.6  C288.2,44.9,287.8,44.7,287.4,46.5z M261.7,50.3c1.5,0.7,1.7-1.9,2.7-2.7c-1,0.4-0.7-0.8-1.7-0.5C262.8,48.5,262.7,49.3,261.7,50.3z   M276.5,52.9c-0.2,0.7-1.2,1.5-1.4,2.2c-0.1,0.6,0.5,1,0.5,1.3c-0.3,2.2-2.2,4.4-2.2,7c2.8-4.4,2.7-11,5.1-15.8  C276,48.3,276.8,51.4,276.5,52.9z M261.7,53c0.1-0.8,1.2-0.9,0.7-2.1c-0.4,0.1-0.9,0.1-1.3,0.2C261.8,51.8,261.3,52.9,261.7,53z   M260.9,57.5c0.2-0.7,1.6-1.8,0.1-2C261.4,56.3,259.9,57.2,260.9,57.5z M266.7,63.2c1.2-0.6,1.3-1.7,1.4-2.5  C266.9,61,266.3,61.7,266.7,63.2z" fill-rule="evenodd"  clip-rule="evenodd"  fill="#F8E8D8"  /><path d="M292.8,81.7c-1.3,2.1,1.8,2.5,0.2,4.3c0.1,0.6,1.2-0.7,1.7,0.1  c-0.5,0.7,0.1,0.4,0.2,1.3c-0.4,0.1-0.9,0.1-1.3,0.2c2.1,1.3,0.1,3.8,2.1,5.8l-21.2,8c-1.5-0.3-4.3-0.7-6.2-1.6  c-0.1-2.1,3.2-1.5,4-2.8c-0.1-0.6-1.5,0.7-2-0.1c-0.3-0.8-0.3-1.5-0.7-2.9c1.1-0.1,2.2-0.3,3.3-0.4c-1.3-0.3-4.1-0.4-3.4-2.9  c2.3-0.7,3.7-0.1,4.5-1.9c-1.4,0-2.4,0.9-4.6,1.2c0.5-5.4,9.1-2.9,12-6.2c-3.7,0.1-6.3,2.1-11.1,2.7c-0.2-0.6-0.8-0.7-0.9-1.6  c1,0.1,1.2-0.5,1.9-0.6c-0.7-0.6-2.6,0.2-2.5-1.4c3.1-1.7,7.7-2.4,10.9-4c-3-1.1-5.6,1.7-8.4,0.4c0.2-0.6-0.3-0.8-0.5-1.8  c0.1-1.5,1.1-2,0.1-3.9c3-0.3,5.1,0.1,6.5-1.5c0.6,0.5,1.2,1,1.6,1.8c3.8-0.8,7.8-3.9,11.7-0.9c0.2,0.7,0.9,0.7,0.4,0.8  c0.2,0.7-0.3,0.6,0.2,0.8c-0.2,1,0.1,1.3-0.9,1.6c0.9,0.6,1,1.6-0.1,2c0.2,0.7,1.5-0.1,1.7,0.5c0.2,1-2.1,1.7-0.4,2.1L292.8,81.7z   M279.6,87c0.7,0.1,1,0.7,2.1,0.4c0.1-1.1,1.7-1.1,2.9-1.4c-0.1-0.9-1-0.7-1.5-1.2C283,86.5,280.4,86,279.6,87z M274.5,89  c1-0.3,2.5-0.2,2.5-1.3C275.5,87.6,274.9,88.2,274.5,89z M282.8,91c1.7-0.9,6.1-0.5,7.4-2.9C288.7,89.2,286.4,87.2,282.8,91z   M276.9,92.1c1.9,0.3,3.5-0.7,5.2-1.3c-0.3,0-0.4-0.2-0.4-0.6C280.2,91.6,278.6,91,276.9,92.1z" fill-rule="evenodd"  clip-rule="evenodd"  fill="#5F6DB2"  /><path d="  M294.8,88.1c1.6,7.1,3.6,15.8,4.3,22.9c-0.4,1.5-2.5,1.6-4.1,2.1l-19,3.6c-2.3,0.2-3,0.8-4.7,0.2c-2.2-13.3-2.4-31.4-2.2-43.9  c3-0.6,5.1-0.1,8-0.6c0.2-1.2-0.9-4.1-1.1-6c-8.4-0.1-17.3-3.4-17.4-12.9c-0.1-3.9,2.4-10.7,5.1-13c4.7-4,16.1-6.7,22.8-3.4  c3.1,1.6,7.3,6.4,7.5,11.1c0.3,7.9-6.9,16.8-15.5,17.8c0.5,1.9,0.7,4.3,1.4,6c3.7,0.8,8.1-1.7,10.9-1.6c1,1.1,1.2,3.3,1.6,5  L294.8,88.1z M269.1,41.7c0.1,1.6,1.1,3.9-1.2,3.7c-1.1-0.4-0.9-2.4-1.2-3.8c-3.5,1.7-6,7.1-5.9,11.4c0,13,20.6,14.3,27.2,4.9  c4.4-6.4,4.3-14.9-2.4-18.9c-2.2,0.1-3.2-1.3-5.5-1c-0.5,0.8-0.1,2.2-1.4,2.4c-1.4-0.3-0.8-3.2-3.3-2.2c-0.6,0.9,2,3.3-0.5,3.6  c-1.8-0.2-1.4-4.4-3.7-2.8c-0.7,1.3,2.5,3.5,0.9,4.8C269.8,45.1,268.7,39.1,269.1,41.7z M292.2,86.1c-1.2-4.3-1.8-9.2-3-13.3  c-5.3,1.9-12.2,1.9-17.9,2.1c-0.4,1.5,0,3.5-0.4,4.9l0.4,2.9c0.5,10.7,0.9,21.3,1.4,32c8.9-0.9,16.9-2.5,24.3-4.5  c-1.6-7.2-2.6-15-4.5-21.9L292.2,86.1z" fill-rule="evenodd"  clip-rule="evenodd"  fill="#3C3C3B"  stroke="#3C3C3B"  stroke-width="1.2634"  stroke-miterlimit="10"  /><path d="  M290.2,71.1c6-5.3,10.7-11.6,13.8-19.2c-2.5-6.6,7.6-14.5,5.8-4.4c12.6-1.3,2.9,13.5-4,5.9c-3.3,8-8.6,14.4-14.6,20.3 M306.8,47.9  c0.5-0.9,1.1-1.8,1.3-2.9C307,45.3,306.2,47.3,306.8,47.9z M307.3,51.6c1.5,0.9,2.8,2,5.5,1.3c0.5-0.8,1.1-1.6,1-2.8  C311.8,49.3,308.3,50,307.3,51.6z" fill-rule="evenodd"  clip-rule="evenodd"  fill="#3C3C3B"  stroke="#3C3C3B"  stroke-width="1.2634"  stroke-miterlimit="10"  /><rect x="253.1" y="95.9" transform="matrix(0.9946 -0.104 0.104 0.9946 -9.3548 29.3565)" width="47.4" height="16.9" fill-rule="evenodd"  clip-rule="evenodd"  fill="#FFFFFF"  /><path d="M276.3,46.8c3.5-1.8,3.9,4.5,1.3,4.9  C275.1,52.1,273.8,48.1,276.3,46.8z" fill-rule="evenodd"  clip-rule="evenodd"  fill="#3C3C3B"  /><path d="M270.4,47.9c3.4-1.8,4.1,4,1.9,4.8  C269.8,53.7,267.4,49.4,270.4,47.9z" fill-rule="evenodd"  clip-rule="evenodd"  fill="#3C3C3B"  /><path d="M280.4,52.7c0.3,0.1,0.6,0.3,1,0.2c2.9,7.1-10.5,10.2-10.4,2.6  c2.5-1.2,2.5,2.3,4.7,2.4C278.8,58.2,278.8,55.1,280.4,52.7z" fill-rule="evenodd"  clip-rule="evenodd"  fill="#3C3C3B"  /><path d="  M269.2,76.3c-7.3-4.3-14-9.1-19.1-16.1c-4.8,9.1-17.8-2.9-5.3-4.7c-4.1-9.4,7.6-4.2,6.7,2.9c4.8,6.6,10.9,11.5,18,15.3 M245.7,52.7  c0.5,1,1.3,1.7,2,2.4C248.2,54.4,246.9,52.6,245.7,52.7z M241.5,58.9c0.2,1.2,1,1.8,1.7,2.5c2.8,0,3.8-1.4,5.1-2.6  C246.8,57.4,243.2,57.7,241.5,58.9z" fill-rule="evenodd"  clip-rule="evenodd"  fill="#3C3C3B"  stroke="#3C3C3B"  stroke-width="1.2634"  stroke-miterlimit="10"  /><path d="M44.2,125c-0.4-1.2,0.6-1.6-0.1-3.7c2.2-2.2,5.7-2,8.4-4.2  c-1.5-0.4-5.7,2.3-8.6,1.8c-1.5-3.4,0.1-2.6,0-4.7l-0.6-4.2c-0.2-0.7-1.7,1.1-2.4,0.2c-0.5-0.9-0.6-1.8-1.3-3.4  c1.3-0.3,2.6-0.6,3.9-1c-1.6-0.1-4.9,0.1-4.5-3c2.6-1.1,4.4-0.7,5-2.9c-1.7,0.2-2.7,1.5-5.2,2.1c-0.2-6.6,10.4-4.7,13.4-9.1  c-4.4,0.7-7.2,3.4-12.8,4.9c-0.4-0.7-1.1-0.8-1.3-1.7c1.3,0,1.3-0.8,2.2-1c-1-0.6-0.8-1.1-1-3c3.5-2.5,6.6-2.2,10.2-4.7  c-3.7-0.9-6.4,2.8-9.9,1.7c0.2-0.8-0.5-2.1,0.7-2.2c-2.4-0.8-0.5-2.3-1.9-4.5c3.5-0.8,6-0.6,7.6-2.7c0.8,0.6,1.3-0.2,1.9,0.7  c4.4-1.5,10.5-4.7,15.6-1.8c0.4,0.8-0.4,0.9-1,1.1c0.3,0.8,1.2,0.5,1.8,0.8c-0.1,1.2,0,1.4-1.1,2l1.1,3c0.3,1.2,0.3,1.3-0.2,2.5  l1.5,0.9c-1.3,2.7,2.5,2.7,0.9,5.1c0.2,0.7,1.3-1,2-0.1c-0.5,0.9,0.2,0.5,0.4,1.6c-0.5,0.1-1,0.3-1.6,0.4c2.7,1.3,0.7,4.5,3.3,6.6  c-4.4,3.3-9.4,3.9-13.5,7.1c5.3,0.7,10.6-6.5,13.9-3.9c-0.3,0.7-0.2,0.7,0.1,1.7c0.6,1.3,0-0.1,1.6-0.1c0.5,1.4,1,0.9,1.7,2  c0.8,3.1-1-0.5-1.2,2c-3.6-0.8-7.8,5.3-10.6,6.4c3.1,0.1,7.4-3.5,10.7-1.9c0.5,0.9-0.1,1.8,1.4,2.2l1.2,3.7L72,124  c-3.5,1.1-5.2,4.7-9.2,4.4c-0.4,0.2-0.2,0.8-0.1,1.3c-4,0-6.8,2.4-10.9,1.1c-0.7-1.2,1.1-0.9,0.8-1.8c-1.8,1.1-4,1.2-5.9,1.1  c-0.1-0.5-0.3-1-0.4-1.6c3-1.1,6.3-2.2,9.1-3.1c-1.3-0.9-4.9,0-5.4,1.4c-1.4,0.1-2.3-0.5-3.8-0.3L44.2,125z M50.7,96.9  c0.9,0,1.3,0.7,2.5,0.2c-0.1-1.4,1.8-1.5,3.2-2c-0.2-1.1-1.3-0.7-1.9-1.2C54.6,95.7,51.5,95.6,50.7,96.9z M44.9,100  c1.1-0.5,3-0.6,2.8-1.9C45.9,98.2,45.2,99,44.9,100z M55.1,101.2c1.9-1.4,7.2-1.5,8.3-4.6C61,98.9,57.4,98,55.1,101.2z M48.2,103.3  c2.3,0.1,4-1.4,6-2.3c-0.3,0-0.5-0.2-0.6-0.7C52.1,102.2,50.1,101.8,48.2,103.3z M48.7,113.5c0.9-1.8,6.9-1.8,8.1-4.1  C53.4,111.5,46.5,110.9,48.7,113.5z M64.7,109.9c1.3-0.5,2.2-0.4,3.2-0.4c-0.1-0.8,0.5-1.2,0.8-1.8  C66.5,107.9,65.6,108.9,64.7,109.9z" fill-rule="evenodd"  clip-rule="evenodd"  fill="#00A98F"  /><path d="  M69.9,127.2c-5.6,1.2-9.7,3.5-15.3,4.7c3.5,4.1,10.6,7,15.2,11.1c0.4,6.6,0.2,12.9-2.1,17.9c4.3,0.1,8.5-0.9,9.3,2.6  c1.9,7.8-21.5,5.7-12.2-1.1c1.4-5.5,2.8-11.1,2.6-17.6c-4.9-4.8-11.5-6.5-15.8-12.1c-2.7,0.6-3.4,1.4-5.5,1  c-4.6-16-7.6-38.4-9.4-53.8c3.5-1.2,6-0.9,9.4-2l3.1-0.8c4.5,0.4,9.4-3.3,12.7-3.6c1.4,1.2,1.9,3.8,2.7,5.9c0.1,0.3,0.4,1.2,1.1,2.6  c0.9,3.6,2.2,6.7,3.3,9.9l0.7,2.7c3,8.5,6.7,18.9,8.6,27.6c-0.2,1.8-2.7,2.4-4.6,3.2 M72.5,113l-6.4-20.4c-2-5.1-3.5-11-5.6-15.9  c-6,3.1-14.2,4.1-21,5.3c-0.2,1.9,0.5,4.3,0.3,6.1l0.9,3.5c2.2,13.1,4.3,26.1,6.5,39.2c10.5-2.4,19.8-5.5,28.2-9.2 M74.2,164.1  c-1.9-1.1-6.4-0.6-8.8,1C67.7,165.4,72.4,166.4,74.2,164.1z" fill-rule="evenodd"  clip-rule="evenodd"  fill="#3C3C3B"  stroke="#3C3C3B"  stroke-width="1.2634"  stroke-miterlimit="10"  /><polygon points="243.4,119.1 211.6,174.2 275.2,174.2" fill="none"  stroke="#3C3C3B"  stroke-width="5.0535"  stroke-linecap="round"  stroke-linejoin="round"  stroke-miterlimit="10"  /><line x1="252.3" y1="161.6" x2="252.3" y2="161.6" fill="none"  stroke="#FF9E18"  stroke-width="6.3169"  stroke-linecap="round"  stroke-linejoin="round"  stroke-miterlimit="10"  /><polyline points="243.4,146.2 234.5,161.6 243.4,161.6" fill="none"  stroke="#EA6852"  stroke-width="6.3169"  stroke-linecap="round"  stroke-linejoin="round"  stroke-miterlimit="10"  /><line x1="49.8" y1="174.2" x2="436.6" y2="174.2" fill="none"  stroke="#3C3C3B"  stroke-width="5.0535"  stroke-linecap="round"  stroke-linejoin="round"  stroke-miterlimit="10"  /><g><path d="   M194.6,100.9c-1.9-6.3-3.6-12.8-12.7-15l1.3,2.7c6.3,1.8,7.8,7.8,9.4,12.7c-1.6,4.8-1.8,10.9,3.2,10.3c1.3-1.2,1.5-3.6,1-5.1   L194.6,100.9z" fill-rule="evenodd"  clip-rule="evenodd"  fill="#3C3C3B"  stroke="#3C3C3B"  stroke-width="1.2634"  stroke-miterlimit="10"  />
	
</g><g><path d="   M145.3,109.1c-0.4,1.5,0.2,3.9,1.5,4.9c5.1,0.1,4.2-5.9,2.2-10.6c1-5,1.9-11,7.7-13.5c-0.1-1.1-0.1-1.1-0.3-2.3   c-7.3,3.3-8.3,9.5-9.4,15.6L145.3,109.1" fill-rule="evenodd"  clip-rule="evenodd"  fill="#3C3C3B"  stroke="#3C3C3B"  stroke-width="1.2634"  stroke-miterlimit="10"  />
	
</g><g><path d="M198.7,116.5c-5.3,0-10.4-1-15.3-3.1c-6.7-2.8-10.2-6.1-10.6-9.9c-0.2-1.7,0.2-3.2,1.2-4.4   c1-1.3,2.4-2,4.1-2.2c0.2,0,0.4,0,0.6,0c1.4,0,2.9,0.5,4.6,1.4c1.6,0.9,3.2,1.9,4.7,3.1c1.2,0.9,3.1,1.7,5.6,2.4   c1.7,0.5,3.6,0.7,5.5,0.7c0.9,0,1.8,0,2.7-0.1c5.1-0.5,9-2.3,12-5.5c2.9-3.1,4.1-6.8,3.7-11.5c-0.3-3-1.9-5.6-4.8-8   c-3.1-2.6-6.8-4.8-11.1-6.7c-4.4-1.9-8.9-4-13.4-6.1c-4.6-2.1-8.7-4.9-12.2-8.3c-3.6-3.5-5.7-7.7-6.2-12.3   c-0.6-6.1,1.5-11.8,6.2-16.7c4.7-4.9,10.6-7.7,17.4-8.5c1.9-0.2,3.7-0.3,5.4-0.3c4.5,0,8.6,0.7,12.2,2c5.5,2,8.5,4.8,8.8,8.3   c0.2,1.8-0.2,3.3-1.3,4.5c-1,1.2-2.3,1.8-4,2c-0.3,0-0.6,0-0.9,0c-1.2,0-2.5-0.3-3.7-0.8c-1.3-0.6-2.6-1.3-3.8-2.1   c-0.9-0.6-2.2-1.1-4.1-1.5c-1-0.2-2.3-0.3-3.8-0.3c-1.2,0-2.5,0.1-3.9,0.2c-3,0.3-5.8,1.7-8.4,4c-2.4,2.2-3.5,4.6-3.2,7.2   c0.3,2.7,1.8,5.1,4.6,7.2c3.1,2.3,6.8,4.4,11.1,6.3c4.5,2,9,4.1,13.4,6.2c4.7,2.3,8.8,5.3,12.3,9c3.6,3.8,5.7,8.3,6.2,13.2   c0.8,7.7-1.4,14.5-6.6,20.3c-5.1,5.8-12.2,9.1-21,10.1C201.6,116.5,200.1,116.5,198.7,116.5z" fill="#EA6852"  /><path d="M198.9,22.4c4.3,0,8.2,0.6,11.6,1.9c4.8,1.7,7.3,4,7.6,6.7c0.1,1.3-0.1,2.3-0.8,3.1   c-0.7,0.8-1.6,1.2-2.8,1.4c-0.2,0-0.4,0-0.7,0c-1,0-2-0.2-3-0.7c-1.2-0.5-2.4-1.2-3.5-1.9c-1.1-0.7-2.7-1.3-4.8-1.8   c-1.2-0.3-2.6-0.4-4.2-0.4c-1.2,0-2.6,0.1-4.1,0.2c-3.4,0.4-6.6,1.9-9.5,4.5s-4.2,5.6-3.8,8.8c0.3,3.3,2.1,6.1,5.3,8.5   s7.1,4.6,11.5,6.5c4.4,2,8.9,4,13.4,6.2s8.4,5.1,11.7,8.6s5.3,7.6,5.7,12.1c0.7,7.1-1.3,13.4-6.1,18.8c-4.8,5.4-11.4,8.6-19.8,9.4   c-1.4,0.1-2.8,0.2-4.1,0.2c-5,0-9.9-1-14.6-3c-6-2.5-9.1-5.3-9.4-8.3c-0.1-1.2,0.1-2.2,0.8-3.1c0.7-0.9,1.6-1.4,2.8-1.5   c0.1,0,0.3,0,0.4,0c1.1,0,2.3,0.4,3.7,1.1c1.6,0.9,3,1.8,4.5,2.9c1.4,1.1,3.5,2,6.2,2.7c1.9,0.5,3.9,0.8,6,0.8c1,0,1.9-0.1,2.9-0.2   c5.5-0.6,9.9-2.6,13.2-6.1s4.7-7.8,4.2-13c-0.4-3.4-2.2-6.5-5.4-9.2c-3.3-2.7-7.1-5-11.6-7c-4.4-2-8.9-4-13.4-6   c-4.5-2.1-8.3-4.7-11.6-7.9s-5.2-6.9-5.6-11.2c-0.6-5.6,1.3-10.6,5.7-15.2s9.8-7.2,16.2-7.9C195.5,22.5,197.3,22.4,198.9,22.4    M198.9,18.6c-1.8,0-3.7,0.1-5.6,0.3c-7.3,0.8-13.6,3.8-18.6,9c-5.2,5.4-7.5,11.5-6.8,18.2c0.5,5.1,2.8,9.7,6.8,13.5   c3.6,3.5,7.9,6.4,12.7,8.7c4.5,2.1,9,4.1,13.4,6.1c4.1,1.8,7.7,4,10.7,6.4c2.5,2.1,3.8,4.3,4.1,6.7c0.4,4.1-0.6,7.3-3.1,10   c-2.7,2.8-6.3,4.4-10.9,4.9c-0.9,0.1-1.7,0.1-2.5,0.1c-1.8,0-3.4-0.2-5-0.6c-2.8-0.8-4.2-1.6-4.9-2.1c-1.6-1.2-3.2-2.3-4.9-3.2   c-2-1.1-3.8-1.6-5.5-1.6c-0.3,0-0.6,0-0.8,0c-2.2,0.2-4.1,1.2-5.4,2.9c-1.3,1.6-1.8,3.6-1.6,5.8c0.5,4.6,4.3,8.3,11.7,11.4   c5.1,2.2,10.5,3.3,16.1,3.3c1.5,0,3-0.1,4.5-0.2c9.3-1,16.8-4.6,22.3-10.7c5.5-6.2,7.9-13.5,7.1-21.7c-0.6-5.4-2.8-10.2-6.7-14.3   c-3.6-3.8-7.9-7-12.8-9.4c-4.5-2.2-9-4.3-13.5-6.3c-4.2-1.8-7.8-3.9-10.8-6.1c-2.4-1.8-3.6-3.7-3.8-5.8c-0.1-1.3,0-3.3,2.6-5.6   c2.3-2.1,4.7-3.3,7.3-3.5c1.4-0.1,2.6-0.2,3.7-0.2c1.3,0,2.4,0.1,3.4,0.3c2.1,0.5,3.1,0.9,3.4,1.2c1.3,0.8,2.6,1.6,4.1,2.2   c1.5,0.7,3,1,4.5,1c0.3,0,0.7,0,1-0.1c2.1-0.2,4-1.1,5.3-2.7c0.9-1.1,2-3,1.7-5.9c-0.4-4.3-3.8-7.6-10.1-9.9   C208,19.3,203.6,18.6,198.9,18.6L198.9,18.6z" fill="#3C3C3B"  />
	
	
</g><g><path d="M279.3,108c-9.8,0-18.7-3.8-26.3-11.3c-8.6-8.4-13.7-19.4-15.1-32.5c-1.4-13.1,1.3-24.9,8.1-34.9   c6.8-10.1,16.1-15.9,27.7-17.1c1.4-0.2,2.9-0.2,4.3-0.2c9.8,0,18.7,3.8,26.3,11.2c8.6,8.4,13.6,19.3,15,32.5s-1.3,24.9-8.1,35   c-6.8,10.2-16.1,15.9-27.7,17.1C282.1,107.9,280.7,108,279.3,108z M277.5,24.5c-0.9,0-1.8,0-2.7,0.1c-7.8,0.8-13.8,4.8-18.4,12.3   S250,53.1,251,62.6s4.6,17.7,10.7,24.3c5.4,5.8,11.2,8.6,17.9,8.6c0.8,0,1.7,0,2.5-0.1c7.8-0.8,13.7-4.9,18.3-12.6   c4.6-7.7,6.4-16.5,5.4-26s-4.5-17.6-10.6-24C290.1,27.2,284.3,24.5,277.5,24.5z" fill="#FF9E18"  /><path d="M278,13.9c9.4,0,17.7,3.5,24.9,10.6c8.3,8.1,13.1,18.5,14.4,31.3s-1.3,24-7.8,33.7s-15.3,15.2-26.3,16.3   c-1.4,0.1-2.7,0.2-4,0.2c-9.4,0-17.7-3.6-25-10.7c-8.3-8.2-13.2-18.6-14.5-31.4c-1.3-12.7,1.3-24,7.8-33.6   c6.5-9.7,15.3-15.1,26.4-16.3C275.3,14,276.7,13.9,278,13.9 M279.7,97.5c0.9,0,1.8,0,2.7-0.1c8.3-0.9,14.9-5.4,19.7-13.5   c4.8-8.1,6.7-17.2,5.7-27.2s-4.7-18.4-11.1-25.1c-5.6-6-12-9-19.2-9c-0.9,0-1.9,0.1-2.9,0.2c-8.4,0.9-15,5.3-19.8,13.2   s-6.7,16.9-5.6,26.9s4.8,18.5,11.2,25.4C266.1,94.4,272.5,97.5,279.7,97.5 M278,10.1L278,10.1c-1.5,0-3,0.1-4.5,0.2   c-12.2,1.3-22,7.3-29.1,17.9c-7,10.4-9.8,22.5-8.4,36.1c1.4,13.6,6.7,24.9,15.6,33.7c8,7.8,17.3,11.8,27.7,11.8   c1.4,0,2.9-0.1,4.4-0.2c12.1-1.3,21.9-7.3,29-18c7-10.4,9.8-22.6,8.4-36.3c-1.4-13.6-6.7-24.9-15.6-33.6   C297.6,14.1,288.3,10.1,278,10.1L278,10.1z M279.7,93.7c-6.1,0-11.6-2.6-16.5-8c-5.9-6.4-9.2-14-10.2-23.2s0.7-17.3,5.1-24.5   c4.2-6.9,9.7-10.6,16.9-11.4c0.8-0.1,1.7-0.1,2.5-0.1c6.2,0,11.6,2.5,16.5,7.8c5.8,6.2,9.1,13.7,10.1,22.9c1,9.1-0.8,17.5-5.2,24.8   c-4.2,7.1-9.7,10.9-16.8,11.6C281.3,93.6,280.5,93.7,279.7,93.7L279.7,93.7z" fill="#3C3C3B"  />
	
	
</g><g><path d="M345.1,100.6c-1.7,0-3.1-0.6-4.4-1.9c-1.4-1.4-2.2-2.9-2.3-4.5c-0.1-1.3-0.3-3.8-0.6-7.6   c-0.8-11.1-1.7-20.9-2.6-29.1c-0.8-8-1.6-14.5-2.1-19.4c-0.6-4.7-1-8.3-1.4-11c-0.2-1.1-0.3-2.1-0.4-2.8c0,0,0,0-0.1,0   c-0.3,0-0.5,0-0.8,0c-1.4,0-4.7-0.5-5.2-5.2c-0.4-4.1,2.8-7.7,9.7-10.5c6.1-2.5,11.8-4.1,16.8-4.6c2.2-0.2,4.3-0.3,6.4-0.3   c8.2,0,15,1.9,20.1,5.8c6.4,4.8,10.1,11.2,10.9,19.1c0.6,5.4-0.6,10.8-3.5,16c-2.6,4.7-6.3,8.5-11,11.4   c10.6,18.9,16.6,24.6,19.8,26c1.1,0.5,1.7,0.5,1.9,0.5c0.1,0,0.1,0,0.1,0h0.1c0.6-0.1,1.1-0.2,1.6-0.2c1.9,0,3.2,1.2,3.4,3   c0.3,2.7-0.4,5.1-2,7c-1.6,2-3.6,3.1-5.9,3.3c-0.3,0-0.6,0-0.8,0c-3.4,0-6.9-2-10.8-6.2c-5.3-6.2-11.7-15.7-19.1-28.3   c-3.3,0.9-6.7,1.5-10,1.9h-0.1l-4.7-0.1l3.6,29.1c0.2,2.2-0.2,4.1-1.3,5.7c-1.1,1.7-2.7,2.7-4.6,2.9   C345.5,100.6,345.3,100.6,345.1,100.6z M343.4,18.4c0.2,4,0.8,10,1.6,17.8c0.6,6.1,1.1,10.5,1.4,13.1c2.9-0.9,5.9-1.5,8.9-1.9   c1.7-0.2,3.4-0.3,5-0.3c1.8,0,3.6,0.1,5.2,0.3c2.9-1,5.6-3.2,7.9-6.4c2.5-3.4,3.5-6.8,3.1-10.5c-0.5-5-2.7-8.8-6.6-11.6   c-3.2-2.3-7.2-3.4-11.8-3.4c-1,0-2.2,0.1-3.3,0.2C348.5,16.4,345.1,17.4,343.4,18.4z" fill="#00A98F"  /><path d="M358,5.6c7.8,0,14.2,1.8,19,5.4c6,4.5,9.4,10.4,10.2,17.8c0.5,5-0.6,10-3.3,14.9   c-2.7,4.9-6.7,8.8-11.9,11.6c9.2,16.7,16.4,26.2,21.6,28.4c1.1,0.5,2,0.7,2.7,0.7c0.3,0,0.5,0,0.7-0.1c0.4-0.1,0.8-0.2,1.1-0.2   c0.9,0,1.4,0.4,1.5,1.3c0.2,2.2-0.3,4.1-1.6,5.6c-1.3,1.6-2.8,2.4-4.6,2.6c-0.2,0-0.4,0-0.6,0c-2.8,0-6-1.9-9.5-5.6   c-5.4-6.3-11.9-16-19.6-29.2c-3.7,1.1-7.4,1.8-11.1,2.2l-6.8-0.1l3.9,31.2c0.2,1.7-0.1,3.2-1,4.4c-0.8,1.2-1.9,1.9-3.2,2.1   c-0.2,0-0.3,0-0.5,0c-1.1,0-2.2-0.5-3.1-1.4c-1.1-1-1.7-2.2-1.8-3.4c-0.1-1.2-0.3-3.7-0.5-7.5c-0.9-11.2-1.7-20.9-2.6-29.2   s-1.6-14.7-2.1-19.4c-0.6-4.7-1-8.3-1.5-11c-0.4-2.7-0.6-4.3-0.7-4.9c-0.9,0.3-1.5,0.4-1.9,0.4c-0.2,0-0.4,0-0.6,0   c-2,0-3.1-1.2-3.3-3.5c-0.3-3.2,2.5-6.1,8.5-8.6s11.4-4,16.3-4.5C354,5.7,356,5.6,358,5.6 M344.8,51.8c3.4-1.3,7-2.2,10.7-2.5   c1.7-0.2,3.3-0.3,4.8-0.3c1.9,0,3.7,0.1,5.4,0.4c3.5-1.1,6.6-3.5,9.3-7.2c2.7-3.7,3.9-7.7,3.5-11.8c-0.6-5.6-3.1-9.9-7.4-13   c-3.6-2.5-7.9-3.8-12.9-3.8c-1.1,0-2.3,0.1-3.5,0.2c-6.5,0.7-11,1.9-13.2,3.5c0.2,4.1,0.7,10.4,1.6,19   C344,44.9,344.6,50,344.8,51.8 M358,1.8c-2.1,0-4.3,0.1-6.6,0.4c-5.2,0.5-11,2.1-17.4,4.8c-7.7,3.2-11.3,7.4-10.8,12.5   c0.5,4.7,3.5,6.6,6.3,6.9c0.1,0.4,0.1,0.8,0.2,1.2c0.4,2.6,0.9,6.3,1.4,10.9c0.6,4.8,1.3,11.3,2.1,19.3c0.8,8.1,1.7,17.9,2.6,29   c0.2,3.8,0.4,6.3,0.6,7.6c0.2,2.1,1.2,4,2.9,5.7c1.6,1.6,3.6,2.5,5.8,2.5c0.3,0,0.6,0,0.9,0c2.5-0.3,4.5-1.5,6-3.7   c1.3-2,1.9-4.3,1.6-6.9l0,0l0,0l-3.3-26.9h2.4h0.2h0.2c2.9-0.3,5.9-0.8,8.9-1.6c7.1,12.1,13.3,21.3,18.5,27.3l0,0l0,0   c4.3,4.6,8.3,6.8,12.2,6.8c0.3,0,0.7,0,1-0.1c2.8-0.3,5.3-1.7,7.2-4c1.9-2.3,2.7-5.2,2.4-8.4c-0.3-2.8-2.4-4.7-5.3-4.7   c-0.6,0-1.2,0.1-1.9,0.2c-0.2,0-0.5-0.1-1.1-0.4c-2.3-1-7.7-5.4-18-23.6c4.3-3,7.7-6.7,10.2-11.2c3.1-5.6,4.3-11.3,3.7-17.1   c-0.9-8.4-4.8-15.3-11.7-20.4C373.7,3.8,366.6,1.8,358,1.8L358,1.8z M345.4,19.5c1.7-0.7,4.6-1.4,9.7-1.9c1.1-0.1,2.1-0.2,3.1-0.2   c4.3,0,7.8,1,10.7,3.1c3.5,2.4,5.4,5.8,5.8,10.3C375,34,374.1,37,372,40c-2,2.8-4.3,4.6-6.6,5.6c-1.6-0.2-3.3-0.3-5-0.3   s-3.4,0.1-5.2,0.3c-2.4,0.3-4.8,0.7-7.1,1.3c-0.3-2.6-0.7-6.3-1.2-10.9C346.1,29,345.6,23.5,345.4,19.5L345.4,19.5z" fill="#3C3C3B"  />
	
	
</g><path d="  M69.2,167.3c-1.7-1.4-6.2-1.8-8.9-0.7C62.6,167.3,67,169.2,69.2,167.3z" fill-rule="evenodd"  clip-rule="evenodd"  fill="#FFFFFF"  stroke="#FFFFFF"  stroke-width="0.6317"  stroke-linejoin="round"  stroke-miterlimit="10"  /><g><path d="M126.6,123.8c-9.8,0-18.5-3.8-26-11.3c-8.4-8.4-13.4-19.4-14.8-32.6c-1.4-13.2,1.3-25,7.8-34.9   c6.7-10.1,15.9-15.8,27.4-17c1.8-0.2,3.5-0.3,5.2-0.3c4.8,0,9.3,0.7,13.5,2.2c6.2,2.1,9.5,5.2,9.9,9c0.2,1.8-0.2,3.3-1.3,4.5   c-1,1.2-2.4,1.8-4.2,2c-0.2,0-0.4,0-0.6,0c-1.6,0-3.3-0.5-5.3-1.7c-1.8-1-4.1-2-6.8-3c-1.8-0.6-3.9-1-6.2-1c-0.9,0-1.9,0.1-3,0.2   c-7.8,0.8-13.7,4.9-18.1,12.3C99.7,59.8,98,68.5,99,78.1c1,9.6,4.5,17.9,10.4,24.6c5.2,5.9,11,8.8,17.7,8.8l0,0   c0.8,0,1.7,0,2.5-0.1c3.7-0.4,7-1.1,9.8-2.2c2.8-1.1,4.9-2.1,6.3-3.1c1.5-1.1,2.8-2.1,4.1-3.1c1.6-1.2,2.8-1.8,3.9-1.9   c0.3,0,0.5,0,0.8,0c2.7,0,4.5,1.7,4.8,4.5c0.3,3.3-2.3,6.8-8.3,11c-5.5,3.8-12.3,6.2-20.1,7C129.3,123.7,127.9,123.8,126.6,123.8z" fill="#5F6DB2"  /><path d="M126.3,29.6c4.6,0,8.9,0.7,12.9,2.1c5.4,1.9,8.3,4.4,8.6,7.4c0.1,1.3-0.1,2.3-0.8,3.1   c-0.7,0.8-1.7,1.2-2.9,1.4c-0.1,0-0.3,0-0.4,0c-1.2,0-2.7-0.5-4.3-1.4c-1.9-1.1-4.3-2.1-7.1-3.1c-2-0.7-4.3-1.1-6.9-1.1   c-1,0-2.1,0.1-3.2,0.2c-8.4,0.9-14.9,5.3-19.5,13.3s-6.4,17-5.4,27.1c1.1,10.1,4.7,18.6,10.9,25.7c5.5,6.3,11.9,9.4,19.1,9.4   c0.9,0,1.8,0,2.7-0.1c3.8-0.4,7.3-1.2,10.3-2.3s5.2-2.3,6.7-3.4c1.5-1.1,2.8-2.1,4.1-3.1s2.2-1.5,2.9-1.6c0.2,0,0.4,0,0.6,0   c1.7,0,2.7,0.9,2.9,2.8c0.3,2.5-2.3,5.6-7.5,9.2c-5.3,3.6-11.7,5.9-19.2,6.6c-1.4,0.1-2.7,0.2-4,0.2c-9.3,0-17.5-3.6-24.7-10.7   c-8.1-8.1-12.9-18.6-14.2-31.4c-1.3-12.8,1.2-24,7.5-33.7c6.4-9.6,15-15,26-16.2C122.9,29.7,124.6,29.6,126.3,29.6 M126.3,25.8   c-1.8,0-3.6,0.1-5.4,0.3c-12.1,1.3-21.8,7.3-28.8,17.8C85.3,54.2,82.5,66.4,84,80c1.4,13.6,6.6,25,15.3,33.7   c7.8,7.8,17,11.8,27.4,11.8c1.4,0,2.9-0.1,4.4-0.2c8.1-0.8,15.2-3.3,21-7.3c4.2-2.9,9.7-7.4,9.2-12.7c-0.4-3.7-3-6.2-6.7-6.2   c-0.3,0-0.7,0-1,0.1c-1.5,0.2-3,0.9-4.9,2.3c-1.2,1-2.6,2-4,3.1c-0.8,0.6-2.5,1.6-5.8,2.9c-2.7,1-5.8,1.7-9.3,2.1   c-0.8,0.1-1.6,0.1-2.3,0.1c-6.1,0-11.4-2.7-16.2-8.1c-5.6-6.4-9-14.3-10-23.6c-1-9.2,0.7-17.5,4.9-24.8c4-6.9,9.5-10.7,16.7-11.4   c1-0.1,1.9-0.2,2.8-0.2c2.1,0,4,0.3,5.6,0.9c2.6,0.9,4.8,1.9,6.5,2.9c2.3,1.3,4.3,1.9,6.2,1.9c0.3,0,0.6,0,0.8,0   c2.8-0.3,4.5-1.6,5.4-2.7s2-3,1.7-5.9c-0.5-4.6-4.2-8.2-11.1-10.6C136,26.6,131.2,25.8,126.3,25.8L126.3,25.8z" fill="#3C3C3B"  />
	
	
</g><path d="M181.9,66.6c-0.3-0.6-1-0.6-1.1-1.6c-0.9,1-0.9,2.8-0.1,4.1  c-1.4,0.5,0.4,2-1.1,2.8c-0.7,0.3-1.3,0.2-1.4-0.6c-0.4,1.2-0.6,3.3-2.5,2.3c0.3-4.6,0.7-7.8,0.6-11.5c-0.2,0.2-0.4,0.4-0.8,0.5  c0.3,2,0.4,5.5-1.1,7.2c1.2,0.5,0.7,2.6-0.7,3c-0.4-0.3-0.6-0.9-0.8-1.7c-1.7,1.3,1.1,3.9-1.9,4.6c-0.7-0.4-0.9-1.8-0.3-2.1  c-0.3-0.2-0.8-0.1-0.8-0.7c-1,0.6,0.1,0.9,0.2,1.8c-1.1,0.5-1.4,0.7-2.4,0.4c-0.3-2.9,0.8-3.5,0-6.6c-2,0.8,0.4,5.2-2.8,4.6  c-0.8-1.5,0.6-1.6-0.2-3.1c-1.8,1.6-2.5-0.5-4.6,0.3c-0.1-1.6-1.1-1.5-1.8-2c0-0.4,0.5-0.4,0.8-0.5c-0.2-0.7-1.3-0.1-1.5-0.8  c-0.1-5.1,0.5-8,0.3-12.7c0.7-0.1,1.1-0.4,1.4-0.7c-0.2-0.6-1,0.8-1.5,0.1c0.2-0.3,0.1-0.7,0-1.2c1.1-0.2,1.5-0.8,2.2-1.2  c-1.9-3.2,3.6-3.2,4.4-4.7c1.1-0.6,1.2,0.4,2,0.4c0.3-0.4-0.3-0.4,0.3-1c1-0.6,1,0.5,1.9,0.1c-0.6,1.5-0.1,2.2-0.5,3.9  c0.3,0.2,0.7,0.3,1,0.3c0.3-1-0.2-1.2,0.5-2.7c0.8-0.1,1.3,0.2,1.8,0.8c0.8-0.4-0.5-1.8-0.3-2.4l7.2-0.1l2.8,1.4l3.8,6.8  c-0.1,1,0.1,1.5,1.1,1.6c-0.9,1.4,0.7,3-1.1,4.1c0.1,0.8,1.2-0.1,1.2,0.9c-0.7,0.2-0.1,1.6-0.8,1.8L181.9,66.6 M165.3,49.8  c1,0,1-2.7,0-2.2C166,48.7,164.7,48.8,165.3,49.8z M170.8,59.3c0.5-0.3,1.2-0.5,0.9-1.2c-0.4,0.1-0.7,0-1,0  C171,58.6,170.6,58.8,170.8,59.3z M170.4,67c1.2-0.4,0.6-1.8,0.8-2.7c-0.4,0.1-0.7,0-1,0C170.7,65.3,170,65.9,170.4,67z M167.9,68.3  c-0.2-0.9,0.9-2.4-0.4-2.4C167.4,66.9,167.2,67.6,167.9,68.3z M164.8,69.5c0.3-0.4-0.2-1.1-0.7-1.4  C163.6,68.9,163.8,69.4,164.8,69.5z" fill-rule="evenodd"  clip-rule="evenodd"  fill="#C9AA9C"  /><path d="M157.4,100.8c-0.5-0.6-0.3-0.3-0.5-1.7c1.1,0,1.1-0.7,1.6-1.1  c-0.7-0.4-1.9,0.2-2.6-0.2c-0.1-1,0.6-1.5,1.3-1.9c-0.6-0.8-0.5-1.1-0.2-1.8c2.1-0.8,6-1.9,8.7-1.5c-1.6-1.8-4.6,0-6.5,0.2  c-1.7,0.2-1.9,0.1-3.2,0c0.2-2.6,3.1-1.5,4.3-2.5c-1.5-0.1-2.9-0.5-4.5-0.3c-0.1-0.4,1-3.3,0.9-3.7c5.2-3,11.9-1.1,18.3-2.9  c2.3-0.7,4.6-2,6.7-0.9c-0.6,0.3,0.1,1.4-0.8,1.5c0.4,0.8,1.2,1,1.3,2.5c-0.7,0-0.6,0.9-0.9,0.3c-0.3,0.3,0.5,1.1,0.2,1.8  c1.1,0.3,1.6-0.7,2.3,0.3c-0.3,0.9-0.7,1.7-1.9,2.1c1,0.4,1.6,0,3,0.4c0.3,1.3,0.1,2.4-1.5,2.6c-0.6,0.8,0.6,1.4,0,2.2  c0.5,0.3,1.7-1.2,0.8-1.8c4.6-0.7,0.6,4.3,2,6.1c-0.8,0.2-0.4,1.1-1.2,1.3c0.5,0.7,1.1,2-0.3,2.3c0.8,0.9,1.8,2.1,1.1,2.9  c0.1,0.5-0.7,0.5-0.6,1.1c0.9,0,0.6-0.6,1.4-0.7c-1.8-0.5,0.8-0.6,0.1-1.9c1.2-0.6,0.1,0.5,0.8,0.7c-0.3,2.7-0.9,5.7,1.3,8.2  c-1.1,1.3,0.1,4-2.2,4.7c1,0.7,0.8,1.2,0.6,2.3c-1,0.2-2.2,0.7-2.4-0.6c-1.3,0.9,0.6,2.6-2,3.1c-1.4-0.5-0.3-1.6-0.2-3.1  c0.1-1.8-0.8-3.4,0.7-4l-2.4-0.9c1.1,2.6-0.5,4-0.6,6.8c-0.9,0.3-1.1-0.7-1.8-0.8c0-2.7,1.4-5.7,0.6-8l-2.3,6.6  c0.1,0.5,0.5,0.5,0.6,1.1c-1.6,1.6-1.2,3.5-1.9,4.6c-1.3,0.3-0.6-0.6-1.2-0.9c-0.4,1-1.5,2.8-3,1.8c0.8-1.1,0-1.5,0.5-2.7  c-0.6,0.3-1.3,1-2,0.6c0.4-5,1.3-9.3,2.4-13.3l-1.2-1.9c-0.3,1.3-0.4,2.7-0.3,3.9c-0.3,0.1-0.6,0.2-0.9,0.2c0.1,3.2-1.8,7.2-2,10.9  c-0.5,0.1-1,0.3-1.5,0.4c-0.7-3.2-0.3-6.1,1.5-8.3c-0.7-2.4,1-5.5,1.2-8.2c-1.7-0.1,0.3,1.8-1.4,1.7c0.2,0.2,0.4,0.5,0.7,0.4  c-0.1,0.5-0.6,0.8-1.3,1c0.1,2.5-0.2,5.1-1.9,8.1c0.3,1.2,0.3,2.1-0.9,2.5c0.1,0.5,0.3,1,0.4,1.5c-1.1,0.5-1.7,0.1-2.3-0.3  c-0.2,0.6-0.4,1.2-0.4,2c-1.1,0.7-1.4-0.1-2.2,0c0.2-2.3,0.9-4.3,1.4-6.4c-1.5,0-0.4,3.7-2.6,4.2c-0.3-0.2-0.4-0.8-0.8-0.7  c0.7-3.4,1.6-5.5,2.4-8.5c-1.8-0.2-0.9,3-1.9,4.3c-0.4,0.5-2.6,1.5-1.4,1.9c-1.7,2.3-1.9-2-0.6-3.6L157.4,100.8z M169.1,91.9  c-0.1-1.2,1.4-0.7,2-0.6c-0.1-1.5,2.2-0.7,2.9-0.8c-0.4-0.8,2.5-1,1.1-1.6c-2.1,1.5-4.8,0.7-6.9,2.2C168.8,91.1,168.7,92,169.1,91.9  z" fill-rule="evenodd"  clip-rule="evenodd"  fill="#FF9E18"  /><path d="  M164.8,127.1c-2.3-1.1-6.3,0.7-8.7-0.2c-1.1-5.1-1.2-10.7-1.1-15.9c0.1-9,0.6-18,0.9-26.7c4-2.3,8-0.8,12.1-1.7c0.5-2,0-4.6,0.4-6.7  c-5.3-1.4-11.5-2.3-14.1-8c-2.9-6.3,0-12.6,1.7-17.7c6.1-6.2,16.1-9.1,23.2-5.8c1.6,0.7,4.2,2.5,5.4,3.8c6.6,7.7,1.5,21.6-6.8,25.4  c-2.1,0.9-4.2,0.9-6.7,1.9c-1.1,1.7-0.5,4.4-0.4,6.7c3.3,0.5,8.3-2.2,10.6,0l1.3,2.3c0.6,1.1,1.1,2.4,1.4,3.9l0.9,2.1  c2.3,8.3,2.6,18.6,5.4,26.6c0.6,1.7,2,2.8,1.3,4.6c-1.4,1.3-5.3,1.8-7.7,2.1l-2.8,0.5c-4.6,0.6-9.2,1.4-13.7,1.8L164.8,127.1z   M164.8,50.8c-0.1-0.2-0.4-0.3-0.7-0.1c-0.8-1.6,0.2-2.1,0.1-3.3c-10.3,3.9-11.9,19.2-3.5,24.1c12.1,7.1,26.2-4.6,24.6-16.1  c-1-6.9-6.1-8.5-10.7-9.9c0.4,1,2.1,2.4,0.5,3.2c-2.5,0.4-2.3-3.9-5.1-2.9c-0.5,0.7,2.7,3.7,0.6,4.5c-2.3,0.5-2.1-4.2-2.8-4.2  C165.7,46,167.1,50.1,164.8,50.8z M181.9,89.7c-0.3-2.7-1.7-3.7-2.3-6c-7.4,1-14.4,1-21.9,2.1c0.4,13.2-0.4,25.8-0.1,39  c10.1-0.7,20.6-2,31.8-4.5c-4.2-8.4-4.1-20-6.9-28.5L181.9,89.7z" fill-rule="evenodd"  clip-rule="evenodd"  fill="#3C3C3B"  stroke="#3C3C3B"  stroke-width="1.2634"  stroke-miterlimit="10"  /><g><path d="M173.5,55.9c1.5,2,1,4.8-0.7,5.2C169,62.2,167.8,54.2,173.5,55.9z   " fill-rule="evenodd"  clip-rule="evenodd"  fill="#3C3C3B"  /><path d="M165.6,66c2.4-0.6,3.4,2.2,5.6,1.9c2.4-0.3,2.3-2.6,4.9-2.6   C176.8,71.7,164.9,70.6,165.6,66z" fill-rule="evenodd"  clip-rule="evenodd"  fill="#3C3C3B"  /><path d="M164.1,57.3c6.4-4.7,2.8,9.5-0.8,4   C162.4,59.9,162.6,58.4,164.1,57.3z" fill-rule="evenodd"  clip-rule="evenodd"  fill="#3C3C3B"  />
	
	
	
</g><path d="  M183.3,121.2c1.8,3.7,6.5,7.1,9.1,10.9c-0.9,4.9-2.2,9.5-4.9,12.7c3.1,0.9,6.4,0.9,6.4,3.6c-0.1,6.1-16.9,0.2-8.8-3  c2.1-3.8,4.1-7.7,5.2-12.4c-2.7-4.4-7.3-6.9-9.4-11.8H183.3z" fill-rule="evenodd"  clip-rule="evenodd"  fill="#3C3C3B"  stroke="#3C3C3B"  stroke-width="1.2634"  stroke-miterlimit="10"  /><path d="  M191.8,148.4c-1.2-1.1-4.6-1.7-6.7-0.9C186.7,148.2,190,149.8,191.8,148.4z" fill-rule="evenodd"  clip-rule="evenodd"  fill="#FFFFFF"  stroke="#FFFFFF"  stroke-width="0.6317"  stroke-linejoin="round"  stroke-miterlimit="10"  /><path d="  M167.4,121.2c-2.1,4.9-6.7,7.4-9.4,11.8c1.1,4.8,3.1,8.6,5.2,12.4c8.1,3.2-8.7,9.1-8.8,3c0-2.8,3.3-2.8,6.4-3.6  c-2.6-3.3-3.9-7.8-4.9-12.7c2.6-3.8,7.3-7.3,9.1-10.9H167.4z" fill-rule="evenodd"  clip-rule="evenodd"  fill="#3C3C3B"  stroke="#3C3C3B"  stroke-width="1.2634"  stroke-miterlimit="10"  /><path d="  M163.1,147.5c-2.1-0.7-5.5-0.2-6.7,0.9C158.2,149.8,161.5,148.2,163.1,147.5z" fill-rule="evenodd"  clip-rule="evenodd"  fill="#FFFFFF"  stroke="#FFFFFF"  stroke-width="0.6317"  stroke-linejoin="round"  stroke-miterlimit="10"  /><g><path d="M49.2,143.4c-2.9,0-5.3-2.2-5.6-5.1c-0.3-3.1,1.9-5.9,5.1-6.2l388.9-40.7c3.1-0.3,5.9,1.9,6.2,5.1   c0.3,3.1-1.9,5.9-5.1,6.2L49.8,143.4C49.6,143.4,49.4,143.4,49.2,143.4z" fill="#3C3C3B"  />
	
</g><ellipse transform="matrix(0.1602 -0.9871 0.9871 0.1602 89.1487 338.8809)" cx="243.7" cy="117" rx="17.1" ry="17.1" fill="#FFFFFF"  stroke="#3C3C3B"  stroke-width="5.0535"  stroke-linecap="round"  stroke-linejoin="round"  stroke-miterlimit="10"  /><circle cx="243.7" cy="117" r="7.7" fill="#00A98F"  /><polyline points="402.7,100.3 399.8,72.9 417.8,70.4" fill="none"  stroke="#3C3C3B"  stroke-width="6.3169"  stroke-linecap="round"  stroke-linejoin="round"  stroke-miterlimit="10"  /><path d="  M79.8,124.8c-0.3,1.8-2.8,2.3-4.6,3.1c7,5,15.1,12.8,21.4,20.7c2.5-2,2.3-3.8,4.7-4.7c15.5-6.3,6.9,20.3-3.9,11.9  c-0.6-0.9-1-2.3-1.3-3.8c-7.8-8.1-14.5-17.9-24.6-22.4 M99.3,153.7c4.1,2.3,9.6-3.5,7.4-7.4C102,145.1,97.9,149,99.3,153.7z" fill-rule="evenodd"  clip-rule="evenodd"  fill="#3C3C3B"  stroke="#3C3C3B"  stroke-width="1.2634"  stroke-miterlimit="10"  /><circle cx="53.5" cy="138.9" r="35.8" fill="#FFFFFF"  stroke="#3C3C3B"  stroke-width="5.0535"  stroke-miterlimit="10"  /><circle cx="53.5" cy="138.9" r="7.2" fill="#3C3C3B"  /><polyline points="44.5,86.8 48.2,105.8 64,115.3" fill="none"  stroke="#3C3C3B"  stroke-width="3.7901"  stroke-linecap="round"  stroke-linejoin="round"  stroke-miterlimit="10"  /><path d="  M63.2,116.1c1.8-4.4,6.7-8.8,10.8-5.1c0.5,1.9-1.6,3.5-2.9,4.1c2.3,2.7,5.1,4.8,4,8.8c-2.4,8.6-16.7,4.3-13.4-5.4L63.2,116.1z   M68.9,126.2c4.7-0.1,4.6-8.5-1.2-8.3C61.2,118.1,64.8,126.3,68.9,126.2z" fill-rule="evenodd"  clip-rule="evenodd"  fill="#3C3C3B"  stroke="#3C3C3B"  stroke-width="1.2634"  stroke-miterlimit="10"  /><path d="M45.1,46.9c-0.4,0.2-0.9,0.4-1.4,0.6c0.3,0.8,1.2-0.1,1.5,0.5  c0.4-0.8-0.3-2-0.1-2.8c1-0.7,1.7-0.5,2.5-0.8c0.3,0.9,0.7,1.7,1.3,1.9c0.2-0.7,1.3-1,2.2-1.4c0.6,0.2,1,1,0.8,1.7  c1.5-1-1.5-3.9,2.3-4.8c0.7,1.4,1.4,2.8,0.4,3.5c1.5,1.1,3.2,1.4,4.2,3.8c0.9-0.4,1.8-0.8,2.7-1.3c2.3,3.2,1.5,6,3.4,9.1  c-2,0.6-4.4-1.7-2.9-2.7c-3.3,1.4,2.2,8.5-1.6,10.6c-2.2-2.2-0.5-5.2-2.5-7.1c1.4-2-0.6-1.8,0.3-3.8c-0.3,0.2-1,0.5-1,0.5  s1.5,8.8,1,12.7c-2-0.8-2.5-0.4-4.4,1.2c-2.3-1.3,0-4.6-2.3-5.9c-0.3,0.5,1.5,3.3-0.6,4c1,1.2,0.6,1.4,1.4,3c-1,0.4-2.1,1.2-2.9,0.9  c-0.4-1.1,0.5-1.7-0.6-3c-0.8,1.3-0.1,1.3,0.1,2.8c-1.4,0.9-2.2,0.3-3-0.3c-1-1.5,0.5-2.1,0.1-3.3c-1.4,0.6,0.3,2.3-1.6,2.8  c0.4,0.5,1.2-0.2,1.3,1c-1.2,0.7-2.1,0.5-3,0.6c0.2-1.7-1-1-2.1-1.1c-1.8-3.1,0.8-7.3-1.7-9.9c0.2,2.7-0.6,5-0.1,7.8  c-0.4,0.2-0.9,0.4-1.4,0.6c-1.8-1.4-0.7-3-1.2-5.2c-0.8-0.3-1.2,0.7-2.3,0.3c-2.5-4.6-0.8-7.8-3.3-11.6c0.3-0.5,0.7-0.9,1.5-1.1  c1,0-0.2,1.8,1.3,1c0.7,0.9-0.6,1.1,0.1,2c1.3-0.3,0-1.5,0.7-2c-1.8-0.4-1.4-4,0.6-4.8c0.4,0.2,0.7,0.6,1,1.2  c-0.2-1.6,0.7-2.8,0.5-4.3c1.9-1.4,4.1,0.2,3.3,1.8c1.3-0.4,2.5-0.6,3.7-0.9C43,46.1,44.7,45.6,45.1,46.9z M53.7,52  c0.9-0.7,1.4-1.6,0.7-2.8c-0.3,0.2-0.7,0.3-1,0.5C55.1,51,53.4,50.9,53.7,52z M39.3,59.1c-0.1-0.5,0.1-0.9,0.7-1.1  c-0.3-0.5-0.5-1.3-1-1.2C38.8,57.2,38.1,58.9,39.3,59.1z M50.6,55.9c0.5-0.1,0.8,0.3,1.3,0.2c-0.9-1.2-0.7-1.8-1.4-2.2  C50.6,54.6,50.1,55.1,50.6,55.9z M45.8,58.9c-0.6,0.1-0.8-0.9-1.7,0C44,60.3,46,59.7,45.8,58.9z M49.1,66.8c0.2-2.7-0.2-4.1-0.2-6.5  c-0.4,0.2-0.6-0.4-1-0.4c0,1.3,0.2,2.7-0.3,3.8C49.2,63.7,47.8,66.2,49.1,66.8z" fill-rule="evenodd"  clip-rule="evenodd"  fill="#F8E8D8"  /><path d="  M51.3,52.1C48.1,59.8,44.9,46,51.3,52.1L51.3,52.1z" fill-rule="evenodd"  clip-rule="evenodd"  fill="#3C3C3B"  stroke="#3C3C3B"  stroke-width="0.6633"  stroke-linejoin="round"  stroke-miterlimit="10"  /><path d="  M41.9,57.7c-0.4-0.1-0.6-0.8-1.1-0.7C38.1,51.1,48.4,55.4,41.9,57.7z" fill-rule="evenodd"  clip-rule="evenodd"  fill="#3C3C3B"  stroke="#3C3C3B"  stroke-width="0.6633"  stroke-linejoin="round"  stroke-miterlimit="10"  /><path d="  M45.1,59.1c1.6-0.4,2.4,1.1,3.8,1.1c2.1-1,1-4.1,3.4-4.1c3.6,4.5-6,9.4-7.5,4.3C44.3,59.8,45.3,59.7,45.1,59.1z" fill-rule="evenodd"  clip-rule="evenodd"  fill="#3C3C3B"  stroke="#3C3C3B"  stroke-width="0.6633"  stroke-linejoin="round"  stroke-miterlimit="10"  /><path d="  M47.6,78.6c0.6-1.8,0-4.1,0.5-6c-13.7,3.6-25.9-12.3-17.5-24.3c-3.1-0.3-5-4.2-3.1-6.8c-6.9-6,3.2-9.8,6.5-4.7  c0.5-2.2,0.1-5.7,3.3-6.1c2.3,2.5,2.9,5.2,6,5.8c0.3,1.4,0.6,2.8,0.2,4C52,38,61.4,40,65.1,47.3c4.4,8.5-2.6,19.9-14.2,24.3  c-0.6,1.9-0.6,4.1-0.3,6.3 M32.1,41.9c-0.3,1.6-2.1,0.9-3.1,2.2c2,2.2,4.2,2.9,7,0.9c-1.2-5.3-4.7-7.8-8.6-7.9  C28.4,40.3,30.8,39.6,32.1,41.9z M38.1,43.2c3.3-0.7,3.6-3.8,2.5-5.3c-0.7-0.5-2.1,1.9-3,0.6c-1.2-1.4,0.4-3.2-0.9-3.7  C36.2,37.3,37.4,40.3,38.1,43.2z M40.7,45.3c2.2-0.5,5.6-1.1,6.8-3.1C44.9,43.1,42.2,43.3,40.7,45.3z M31.3,54.2  c1.9-1.5,5.7-5.1,4.2-6C32.8,49.7,30.8,51.5,31.3,54.2z M39.5,47.9c-2,2.2-3.7,8.1-8.9,9.1c-0.4,18.6,24.8,15.2,31.7,2.9  c4.5-8-2.3-18.2-11-17.5C48.7,45.8,43.6,47.7,39.5,47.9z" fill-rule="evenodd"  clip-rule="evenodd"  fill="#3C3C3B"  stroke="#3C3C3B"  stroke-width="1.3265"  stroke-miterlimit="10"  /><g><path d="   M494.1,20.3c0.1-0.1,0.3-0.2,0.6-0.3c0.5-0.1,0.9,0.1,1.1,0.6c0.1,0.5,0.1,1,0.2,1.5c0.1,2.9,1.1,5.4,3,7.5c1,1,2.1,1.8,3.6,2.1   c-0.1-0.5-0.2-0.9-0.3-1.3c-0.3-2,0.2-3.9,0.7-5.9c0.6-2,1.2-4,1.7-6c0.6-2.6,0.1-5-2.1-6.9c-1.7-1.5-3.6-2.1-5.9-1.4   c-1.4,0.5-2.6,1.3-3.6,2.3c-0.7,0.7-1.3,1.4-2,2.1L494.1,20.3z" fill="#3C3C3B"  stroke="#3C3C3B"  stroke-width="2.7794"  stroke-linecap="round"  stroke-linejoin="round"  stroke-miterlimit="10"  /><path d="   M430.1,69.3c4.6-1.6-0.2-10.6,4.1-13c8.1,2.1,13.2,9.1,17.3,18c0,0,0.5-2.6,0.7-3.8c-3.4-5.7-9.2-13.7-14.7-15.7   c-5.4-2-7.1,2.3-7.6,6.7c-1.5-1.6-2.9-2.8-4.7-2.2C420.9,60.9,425.6,70.9,430.1,69.3z M425.8,61.4c1.9,0.1,2.8,1.9,4.2,3   C430.8,70.5,424.4,64.8,425.8,61.4z" fill-rule="evenodd"  clip-rule="evenodd"  fill="#3C3C3B"  stroke="#3C3C3B"  stroke-width="1.2634"  stroke-miterlimit="10"  /><path d="   M492.2,94.7c-4.9,0.7-1.6,10.4-6.3,12.1c-7.6-3.4-13.4-17.4-15.8-26.9l-2.2-0.5c2.2,6.2,9,25.1,14.5,28.3c5,2.9,7.4-1,8.7-5.3   c1.2,1.8,2.3,3.3,4.2,3C499.8,104.7,496.9,94,492.2,94.7z M495.1,103.3c-1.9-0.4-2.5-2.4-3.6-3.7   C491.8,93.5,497.1,100.2,495.1,103.3z" fill-rule="evenodd"  clip-rule="evenodd"  fill="#3C3C3B"  stroke="#3C3C3B"  stroke-width="1.2634"  stroke-miterlimit="10"  /><path d="M479.2,7.8c-1.1,0-1.5,1-1.9,2.3c0.9-0.7,1.4-2.2,2.5-2.5   c1.2,0.1,0.4,1.4,1.1,1.9c-0.9,0.9-1.8,1.7-2.4,3.1c1.4-0.9,2.1-2.9,3.7-3.4c1.3,0.2,1.2,1.2,1.4,1.9c0.9,0,0.4-0.4,0.6-1.1   c0.8,0.3,2,0.3,2.3,0.9c-0.1,0.6-0.3,0.9-0.8,0.7c0.3,0.9,2.3,0.8,2.3,1.9c-2,0.7,0.4,2-1.6,2.4c-0.1,0.8,1.9-0.7,2.1,0.5   c1.2-0.7,1.7-2.5,3.2-2.6c0.9,0.4,1.1,1.2,1.7,1.7c-0.9,1-0.5,2.8-2.3,2.8c0.3,0.6,1.7,0.7,1.8,1.4c-1.2,0.5-0.3,2,0.9,2.4   c-2,3.1-1.4,4.1-3.6,7.5c-1-0.1-1.1-0.7-1.2-1.3c-1.7,1.4-2.4,1.8-3.4,4.4c-2.4-1.6-3,0.7-4.8-0.7c2-4,5.6-7.3,6.6-11.7   c-1.3,1.6-2.2,3.2-3.5,3.8c-0.9,3.6-3.8,4.7-5.1,8.7c-1.1-0.3-1.1,1.3-1.9,1.4c-1.6-0.3-2-1.3-2.9-2c0.5-0.8,0.6-2.4,1.8-2   c2.5-4.7,4.5-8.4,8.6-12.2c-0.2-0.5-0.6-0.8-0.9-1.2c-2.4,3.6-5.4,6-7.5,10.6c-2.6,1.2-2.5,4.9-5.7,4.8c-0.5-0.8,0.3-1.3,0.8-1.7   c0.1-1.1-1.2-0.2-2.3-0.9c1.1-4.2,4-5.5,4.9-7.8c0-0.7-1.1,0.4-1.6,0.2c0.4,1.3-0.9,2.8-2.2,2.5c0.7,2.2-1.8,2.2-2.8,4.6   c-1.5-0.1-1.9-0.9-2-1.8c-0.1,0.4-0.7,1.2-1.4,1.8c-1,0-1-0.6-1.7-0.8c1.8-2,2.3-4.6,4.9-6.6c-2.3-0.2-3.6,3.8-5.1,4.9   c-0.7-0.2-0.7-0.7-1.7-0.8c0.7-2.2,2.3-2.8,3.4-4.4c-0.8,0.2-1.8,0-1.9,1.4c-0.7-0.1-1.2,0.2-2.1-0.3c0.6-1.7,1.1-4.3,3.2-4.8   c0.3-0.7-1.1-0.5-0.6-1.4c0.3,0.1,0.6,0.2,0.9,0.2c0.6-4,4.7-6.2,7.5-8.4c1.4,0.2,1.3,1.4,2.7,1.7c1.2-1,3.5-1.7,3.4-3.5   c0.8-0.2,1.4-0.8,2.6-0.3C478.8,7,479.7,7,479.2,7.8z M475.1,11.7c1,0.5,1.4,0.1,1.7-0.5c-0.4-0.1-0.3-0.5-0.8-0.5   C476,11.5,475.2,11.1,475.1,11.7z M488.2,20.2c1,0.7,0.4-1.3,1.4-0.6c0-0.7,0.9-2,0.3-2.4C489.3,19.1,489.1,18.8,488.2,20.2z    M465.2,14.7c1.1,1.1,2.1-1.1,3.2-1.4c-1,0-0.4-1-1.3-1C466.7,13.5,466.4,14.2,465.2,14.7z M476.8,21.9c-0.4,0.5-1.5,0.8-1.9,1.4   c-0.3,0.4,0.1,1.1,0,1.3c-1,1.8-3.3,3-4.2,5.2c3.8-2.8,6-8.4,9.6-11.6C477.9,17.9,477.5,20.8,476.8,21.9z M464.2,17   c0.4-0.7,1.3-0.3,1.3-1.5c-0.4-0.1-0.8-0.2-1.2-0.3C464.7,15.9,463.9,16.7,464.2,17z M462.1,20.5c0.4-0.5,1.9-0.9,0.8-1.7   C462.8,19.6,461.3,19.8,462.1,20.5z M465,27.2c1.2-0.1,1.7-1,2-1.7C466,25.5,465.2,25.9,465,27.2z" fill-rule="evenodd"  clip-rule="evenodd"  fill="#A0876C"  /><path d="M454.9,76l-3.6-0.6l0.4-1.8c0.1-0.4,0.2-0.8,0.3-1.2   c2.4,0.4,5,0.9,7.2,1.3c-0.6-1-3.3-1.8-4.1-1.1c-1-0.4-1.4-1.2-2.4-1.6l-0.9-1.5c0.2-1,1-0.9,1.3-2.5c2.3-0.7,4.5,0.7,7.1,0.3   c-0.8-0.8-4.6-0.6-6.4-2c0.2-2.8,2.6-0.2,3.3-1.6c-1.2-0.8-0.9-0.8-2.2-2.2c0.6-1.8,0.6-1.5,1.8-2.3c0.1-0.5-1.5,0.1-1.7-0.8   c0-0.7,0.3-1.4,0.4-2.7c1,0.3,2,0.5,2.9,0.8c-1-0.7-3.3-1.7-1.9-3.6l0.2-0.6c2.3-4.4,8.6,0.7,12.2-1.2c-3.2-1.1-6-0.4-10.3-1.5   c0-0.6-0.4-0.9-0.2-1.6c0.8,0.4,1.1,0,1.8,0.2c-0.4-0.7-0.5-0.8,0-2.1c3.2-0.4,5.6,0.7,8.9,0.4c-2.1-1.9-5.3-0.5-7.2-2.5   c0.4-0.4,0.4-1.6,1.3-1.2c-1.3-1.4,0.5-1.7,0.3-3.7c2.6,0.7,4.2,1.8,6,1c0.3,0.6,0.7,1.3,0.7,2.1c3.5,0.6,9-0.2,11.3,3.6   c0,0.7-0.6,0.4-1,0.4c-0.1,0.6,0.6,0.8,0.9,1.2c-0.5,0.7-1.4,0.7-2.4,0.6c0.6,0.8,1.6,1.6,0.5,1.7c-0.1,0.6,0,0.4,0,1   c-0.2,0.9-1.1,0.7,0.2,1.6l-0.6,1.1c-1.8,1.3,0.6,2.7-1.3,3.7c-0.1,0.6,1.2-0.2,1.4,0.7c-0.6,0.5-0.1,0.4-0.3,1.2   c-0.4-0.1-0.8-0.2-1.2-0.3c1.3,1.8-1.2,3.2-0.2,5.6c-4.1,0.6-7.7-0.9-11.5-0.2c3.2,2.4,9.4-0.5,10.6,2.5l0.5,1.7   c-0.2,1.1,0,1.3,0,2.2c-0.6,2.4-1.3,0.2-2.4,1.8c-2.1-1.9-6-0.6-8.2-0.9c2,1.2,6.2,0.4,7.8,2.7c0,0.8-0.3,2.1,0.5,2.9   c-1.3,0.2-3.5-0.3-4.7,0c0.3,0.6,0.8,1,0.4,2c-2.7-0.6-5.1,1.2-7.7-0.5c-0.4,0-0.4,0.5-0.5,0.8C459.8,77.8,457.1,78.4,454.9,76    M466.5,53.3c0.6,0.3,0.6,0.9,1.6,1.1c0.4-0.9,1.8-0.3,2.9-0.2c0.3-0.8-0.6-1-0.9-1.5C469.5,54,467.5,52.7,466.5,53.3z M467.9,57.8   c1.8-0.2,5.3,1.6,7.2,0C472.6,58.4,470.5,56.5,467.9,57.8z M462.5,56.7c1.5,0.9,3.2,0.6,4.8,0.7c-0.2-0.1-0.3-0.3-0.1-0.7   C465.5,57.3,464.3,56.4,462.5,56.7z M459.1,63.6c1.2-0.9,5.2,1.3,6.8,0.2C463,64,458.6,61.1,459.1,63.6z" fill-rule="evenodd"  clip-rule="evenodd"  fill="#EA6852"  /><path d="M478.7,16.7c3.6-0.3,1.8,5.1-0.6,4.6   C475.9,20.7,476.1,16.9,478.7,16.7z" fill-rule="evenodd"  clip-rule="evenodd"  fill="#3C3C3B"  /><path d="M473.3,15.6c3.5-0.3,2.1,4.7,0,4.7   C470.9,20.3,470.3,15.9,473.3,15.6z" fill-rule="evenodd"  clip-rule="evenodd"  fill="#3C3C3B"  /><path d="M480.1,23c0.2,0.2,0.4,0.4,0.8,0.5c0,7-12.3,5.1-9.7-1.3   c2.5-0.2,1.3,2.8,3.1,3.6C476.9,27.1,478,24.5,480.1,23z" fill-rule="evenodd"  clip-rule="evenodd"  fill="#3C3C3B"  /><path d="   M479.7,59.2c-1.1,6.8-2.5,15-4.4,21.4c-0.8,1.1-2.6,0.6-4.2,0.5l-17.3-3.3c-2-0.6-2.8-0.4-4-1.4c2.8-12.3,9-28.2,13.5-39.1   c2.7,0.5,4.3,1.6,7,2.2c0.6-1,0.7-3.8,1.2-5.6c-7.1-3-13.4-8.8-10.2-17.1c1.3-3.4,5.8-8.5,8.8-9.6c5.3-1.9,15.9-0.4,20.4,4.8   c2.1,2.4,3.9,8.1,2.4,12.2c-2.5,7-11.7,12.4-19.3,10.2c-0.2,1.9-0.9,4-0.9,5.7c2.8,1.9,7.4,1.3,9.7,2.3c0.5,1.3-0.2,3.2-0.4,4.9   L479.7,59.2z M474.2,10.1c-0.5,1.4-0.4,3.8-2.3,2.8c-0.8-0.7,0.1-2.4,0.3-3.7c-3.6,0.3-7.5,4.2-9,8c-4.5,11.3,12.4,19.4,21.2,13.5   c6-4,8.8-11.5,4.6-17.3c-1.9-0.7-2.2-2.2-4.3-2.7c-0.7,0.5-0.9,1.9-2,1.7c-1.1-0.8,0.5-3.1-2-3c-0.8,0.5,0.5,3.6-1.7,3   c-1.4-0.8,0.4-4.3-2.2-3.7c-1.1,0.9,0.9,3.9-0.9,4.5C473.6,13.3,474.8,7.7,474.2,10.1z M478.2,56.6c0.5-4.1,1.7-8.6,2.1-12.6   c-5.1-0.1-10.9-2.5-15.8-4.2c-0.8,1.2-1.2,3-2,4.2l-0.7,2.6c-3.3,9.5-6.7,18.9-10,28.4c7.8,2.3,15.1,3.6,22.1,4.3   c1.2-6.8,3.1-14,3.9-20.6L478.2,56.6z" fill-rule="evenodd"  clip-rule="evenodd"  fill="#3C3C3B"  stroke="#3C3C3B"  stroke-width="1.2634"  stroke-miterlimit="10"  /><path d="   M480.4,47.2c7.1-1.7,13.5-4.7,19.3-9.5c0.8-6.4,12.3-8.4,6.6-1c10.7,4.3-3.5,12.1-5.7,3c-6.1,5-13.1,7.8-20.4,10 M503.7,35.7   c0.8-0.5,1.6-1,2.3-1.7C505,33.6,503.5,34.9,503.7,35.7z M502.5,38.8c0.8,1.3,1.4,2.8,3.9,3.4c0.7-0.5,1.5-0.8,2-1.8   C507.1,39,504,38,502.5,38.8z" fill-rule="evenodd"  clip-rule="evenodd"  fill="#3C3C3B"  stroke="#3C3C3B"  stroke-width="1.2634"  stroke-miterlimit="10"  /><path d="   M461.2,44.6c-5.6-5.2-10.6-10.9-13.8-18.1c-6.1,7.1-15.2-6.1-3.8-5.2c-1.8-9.1,7.5-2.2,5.4,3.9c3,6.8,7.4,12.4,13,17.1 M445.1,18.9   c0.3,1,0.8,1.8,1.3,2.6C446.9,20.9,446.1,19.1,445.1,18.9z M440,23.6c0,1.1,0.5,1.8,1,2.5c2.5,0.5,3.6-0.5,5-1.3   C445,23.4,441.8,22.9,440,23.6z" fill-rule="evenodd"  clip-rule="evenodd"  fill="#3C3C3B"  stroke="#3C3C3B"  stroke-width="1.2634"  stroke-miterlimit="10"  /><path d="   M467.6,9.5c-0.4-1.3-0.7-2.7-1.3-3.9c-0.8-1.9-2-3.4-4.1-4c-2.6-0.7-6.6,0-8.2,4.4c-0.7,2-1.1,4-1.6,6c-0.6,2.5-1.2,5-3.4,6.8   c0.4,0.1,0.7,0.2,1,0.2c4,0.5,7.7-2.1,9.5-5c0.3-0.5,0.6-1,1-1.4s0.9-0.4,1.2,0L467.6,9.5z" fill="#3C3C3B"  stroke="#3C3C3B"  stroke-width="2.7794"  stroke-linecap="round"  stroke-linejoin="round"  stroke-miterlimit="10"  />
	
		
	
	
	
	
	
	
	
	
	
	
	
		
</g></svg>