<svg viewBox="0 0 788.3 283.5" role="img" focusable="false" aria-labelledby="polar--title" xmlns="http://www.w3.org/2000/svg" xmlns:xlink="http://www.w3.org/1999/xlink"><title id="polar--title">POLAR trial - Positive end-expiratory pressure levels during resuscitation of preterm infants at birth</title><path d="M283.2,69c-3.4,0-8.6-0.4-11.6-0.5v34.1c0.1,1.4-1,2.6-2.4,2.6c0,0,0,0-0.1,0H256c-1.4,0-2.6-1.2-2.6-2.6 V12.8c0-2.6,1.6-3.5,4.2-3.9c8.5-1.2,17-1.7,25.6-1.7c20.1,0,37.6,7,37.6,30.1v1.3C320.7,61.6,303.3,69,283.2,69z M302.7,37.3 c0-11-6.5-15.2-19.6-15.2c-2.7,0-9.3,0.3-11.6,0.5v31.2c2.1,0.1,9.4,0.4,11.6,0.4c14.1,0,19.6-5.2,19.6-15.6V37.3z" fill="#033963"  /><path d="M369.7,106.2c-21.5,0-37.2-12-37.2-40.7V47.9c0-28.8,15.7-40.7,37.2-40.7c21.5,0,37.2,12,37.2,40.7v17.6 C406.9,94.2,391.2,106.2,369.7,106.2z M388.6,47.9c0-17.2-6.1-24.9-18.9-24.9s-18.9,7.7-18.9,24.9v17.6c0,17.2,6.1,24.9,18.9,24.9 s18.9-7.7,18.9-24.9V47.9z" fill="#033963"  /><path d="M476.2,104.4c-7.3,1.2-14.8,1.8-22.2,1.8c-16.9,0-30.2-4.6-30.2-26.8V10.8c0-1.5,1.1-2.7,2.6-2.7 c0,0,0,0,0,0h12.9c1.4,0,2.6,1.2,2.6,2.6v68.6c0,8.6,2.6,11.2,10.1,11.2h24c1.4,0,2.6,1.2,2.6,2.6v8.4 C478.8,103.5,478.1,104,476.2,104.4z" fill="#033963"  /><path d="M560.8,105.2H547c-1.2-0.1-2.2-1-2.5-2.2l-6-24.8h-30l-6,24.8c-0.2,1.2-1.2,2.1-2.5,2.2h-13.8 c-1.2,0.1-2.3-0.9-2.3-2.1c0,0,0-0.1,0-0.1c0.1-0.2,0.1-0.4,0.1-0.6l21.4-81.8c3.1-12.1,12.5-13.3,18.1-13.3s15,1.2,18.1,13.3 l21.4,81.8c0,0.2,0.1,0.4,0.1,0.6c0,1.2-1,2.2-2.2,2.2C560.9,105.2,560.9,105.2,560.8,105.2z M525.6,24.5c-0.4-1.6-0.8-2.1-2.1-2.1 c-1.3,0-1.7,0.5-2.1,2.1L512,63.3h23L525.6,24.5z" fill="#033963"  /><path d="M644.4,105.2h-15.9c-1.4,0-2-1.3-2.6-2.6L607,67.7h-1.8c-3.4,0-8.6-0.4-11.6-0.5v35.4c0.1,1.4-1,2.6-2.4,2.6 c0,0,0,0-0.1,0H578c-1.4,0-2.6-1.2-2.6-2.6V12.8c0-2.6,1.6-3.5,4.2-3.9c8.5-1.2,17-1.7,25.6-1.7c20.1,0,37.6,7.2,37.6,29.5v1.2 c0,13.8-6.9,22.4-17.6,26.6l20.5,38.1c0.2,0.3,0.3,0.7,0.3,1c0.1,0.8-0.5,1.5-1.3,1.6C644.5,105.2,644.4,105.2,644.4,105.2z M624.8,36.7c0-9.8-6.5-14-19.6-14c-2.7,0-9.3,0.3-11.6,0.5v29.4c2.1,0.1,9.4,0.4,11.6,0.4c13.4,0,19.6-3.7,19.6-15.2V36.7z" fill="#033963"  /><path d="M260.6,170.2c-1.2,0-2.8-0.1-3.8-0.2v10.6c0,0.4-0.3,0.7-0.7,0.8c0,0,0,0,0,0h-2c-0.4,0-0.7-0.4-0.7-0.8 c0,0,0,0,0,0v-26.4c0-0.5,0.4-0.9,0.9-1c2.1-0.2,4.2-0.3,6.3-0.3c6.2,0,10.6,2.1,10.6,8.3v0.5C271.3,168.1,266.8,170.2,260.6,170.2z M267.8,161.2c0-3.8-2.3-5.3-7.2-5.3c-1.2,0-2.9,0-3.8,0.2v11.1c0.9,0,2.8,0.2,3.8,0.2c5.2,0,7.2-1.7,7.2-5.6V161.2z" fill="#033963"  /><path d="M282.6,181.7c-5.6,0-8.5-3.7-8.5-9.3v-2.9c0-5.6,2.8-9.3,8.5-9.3s8.5,3.7,8.5,9.3v2.9 C291.1,178.1,288.2,181.7,282.6,181.7z M287.7,169.6c0-3.9-1.6-6.3-5.1-6.3s-5.1,2.4-5.1,6.3v2.9c0,3.9,1.5,6.3,5.1,6.3 c3.6,0,5.1-2.4,5.1-6.3V169.6z" fill="#033963"  /><path d="M301.7,181.7c-2,0-4-0.2-6-0.6c-0.5-0.1-0.8-0.3-0.8-0.8v-1.3c0-0.3,0.3-0.6,0.6-0.6c0,0,0,0,0,0h0.2 c1.8,0.2,4.6,0.4,6,0.4c2.5,0,3.8-0.7,3.8-2.7c0-1.1-0.7-1.9-2.8-3.1l-3.8-2.3c-2.3-1.4-3.9-3-3.9-5.4c0-4,3-5.1,6.9-5.1 c2,0,4,0.2,5.9,0.5c0.5,0.1,0.7,0.3,0.7,0.8v1.3c0,0.3-0.2,0.6-0.5,0.6c0,0-0.1,0-0.1,0h-0.1c-1.3-0.1-3.8-0.3-5.9-0.3 s-3.5,0.3-3.5,2.2c0,1.1,0.9,1.9,2.6,2.9l3.8,2.2c3.1,1.9,4.2,3.5,4.2,5.7C308.8,180.1,306,181.7,301.7,181.7z" fill="#033963"  /><path d="M316.3,157.2h-1.9c-0.4,0-0.8-0.3-0.8-0.8v-3c0-0.4,0.3-0.8,0.8-0.8h1.9c0.4,0,0.8,0.3,0.8,0.8v3 C317.1,156.9,316.8,157.2,316.3,157.2C316.4,157.2,316.4,157.2,316.3,157.2z M316.3,181.5h-1.9c-0.4,0-0.8-0.3-0.8-0.8v-19.4 c0-0.4,0.3-0.8,0.8-0.8h1.8c0.4,0,0.8,0.3,0.8,0.8v19.3C317,181.1,316.7,181.4,316.3,181.5C316.3,181.5,316.3,181.5,316.3,181.5 L316.3,181.5z" fill="#033963"  /><path d="M333,181.6c-0.8,0.1-1.6,0.2-2.5,0.2c-3.5,0-5.2-0.9-5.2-5.1v-13.3l-3.7-0.4c-0.4,0-0.7-0.3-0.7-0.7v-1 c0-0.4,0.3-0.7,0.6-0.7c0,0,0.1,0,0.1,0h3.7v-3.7c0-0.4,0.3-0.7,0.7-0.8l2-0.3h0.1c0.3,0,0.6,0.3,0.6,0.6c0,0,0,0,0,0v4.1h4.1 c0.4,0,0.8,0.3,0.8,0.8v1.3c0,0.4-0.3,0.8-0.8,0.8h-4.1v13.3c0,2.1,0.5,2.4,2.1,2.4h2.1c0.5,0,0.8,0.2,0.8,0.5v1.3 C333.7,181.2,333.5,181.5,333,181.6z" fill="#033963"  /><path d="M340.3,157.2h-1.9c-0.4,0-0.8-0.3-0.8-0.8v-3c0-0.4,0.3-0.8,0.8-0.8h1.9c0.4,0,0.8,0.3,0.8,0.8v3 C341.1,156.9,340.8,157.2,340.3,157.2z M340.3,181.5h-1.9c-0.4,0-0.8-0.3-0.8-0.8v-19.4c0-0.4,0.3-0.8,0.8-0.8h1.8 c0.4,0,0.8,0.3,0.8,0.8v19.3C341.1,181.1,340.7,181.4,340.3,181.5C340.3,181.5,340.3,181.5,340.3,181.5L340.3,181.5z" fill="#033963"  /><path d="M362.7,161.5l-5.1,18.1c-0.9,1.9-3.2,2.7-5,1.8c-0.8-0.4-1.4-1-1.8-1.8l-5.1-18.1c0-0.1,0-0.2,0-0.3 c0-0.3,0.2-0.6,0.5-0.6c0,0,0.1,0,0.1,0h2c0.3,0,0.6,0.2,0.7,0.7l4.4,16.6c0.2,0.9,0.4,1.1,0.8,1.1s0.6-0.2,0.8-1.1l4.4-16.6 c0.2-0.5,0.4-0.7,0.7-0.7h2.1c0.3,0,0.6,0.2,0.6,0.5c0,0,0,0.1,0,0.1C362.7,161.3,362.7,161.4,362.7,161.5z" fill="#033963"  /><path d="M381.4,172.1h-12.7v0.5c0,4.5,1.8,6.2,5.3,6.2c2.3,0,4.5-0.1,6.8-0.4h0.2c0.3,0,0.6,0.2,0.6,0.5 c0,0,0,0,0,0.1v1.3c0,0.5-0.2,0.8-0.8,0.9c-2.2,0.4-4.5,0.6-6.8,0.6c-4.4,0-8.6-2.1-8.6-9.1v-3.4c0-5.4,3-8.9,8.5-8.9 s8.3,3.4,8.3,8.9v2C382.1,171.7,381.9,172,381.4,172.1C381.4,172.1,381.4,172.1,381.4,172.1z M378.7,169.2c0-4.3-1.7-6-5-6 c-3.3,0-5.1,1.9-5.1,6v0.3h10L378.7,169.2z" fill="#033963"  /><path d="M411.5,172.1h-12.7v0.5c0,4.5,1.8,6.2,5.3,6.2c2.3,0,4.5-0.1,6.8-0.4h0.2c0.3,0,0.6,0.2,0.6,0.5 c0,0,0,0,0,0.1v1.3c0,0.5-0.2,0.8-0.8,0.9c-2.2,0.4-4.5,0.6-6.8,0.6c-4.4,0-8.6-2.1-8.6-9.1v-3.4c0-5.4,3-8.9,8.5-8.9 c5.4,0,8.4,3.5,8.4,8.9v2C412.2,171.7,411.9,172.1,411.5,172.1z M408.8,169.2c0-4.3-1.7-6-5-6c-3.3,0-5.1,1.9-5.1,6v0.3h10.1 L408.8,169.2z" fill="#033963"  /><path d="M432,181.5h-1.8c-0.4,0-0.7-0.4-0.7-0.8c0,0,0,0,0,0v-12.5c0-3.8-1.3-5.1-4.2-5.1c-1.8,0.1-3.5,0.6-5.1,1.5 v16.1c0,0.4-0.3,0.8-0.8,0.8h-1.9c-0.4,0-0.7-0.4-0.7-0.8v-19.3c0-0.4,0.3-0.7,0.7-0.8c0,0,0,0,0,0h1.7c0.4,0,0.7,0.3,0.7,0.7 c0,0,0,0,0,0v0.7c1.8-1.1,3.9-1.7,6-1.7c4.6,0,6.6,2.8,6.6,7.9v12.4C432.7,181.1,432.4,181.4,432,181.5z" fill="#033963"  /><path d="M452.5,181.1c-2.3,0.4-4.6,0.7-7,0.6c-5.7,0-8.3-3.7-8.3-9.4v-2.7c0-6,2.7-9.3,8.3-9.3c1.5,0,3,0.1,4.4,0.4 v-7.1c0-0.4,0.3-0.7,0.7-0.7c0,0,0,0,0,0h1.9c0.4,0,0.7,0.3,0.7,0.7c0,0,0,0,0,0v26.6C453.3,180.7,453.1,181,452.5,181.1z M449.9,163.5c-1.5-0.2-3-0.3-4.4-0.3c-3.7,0-4.9,2.3-4.9,6.4v2.7c0,4.1,1.2,6.5,4.9,6.5c1.3,0,3.1-0.1,4.4-0.2V163.5z" fill="#033963"  /><path d="M465.9,171.7h-7.6c-0.3,0-0.7-0.2-0.7-0.5c0,0,0-0.1,0-0.1v-1.5c0-0.4,0.3-0.7,0.7-0.7c0,0,0,0,0,0h7.6 c0.4,0,0.7,0.3,0.7,0.6c0,0,0,0,0,0.1v1.5C466.7,171.5,466.4,171.8,465.9,171.7C466,171.7,466,171.7,465.9,171.7z" fill="#033963"  /><path d="M486.5,172.1h-12.7v0.5c0,4.5,1.8,6.2,5.3,6.2c2.3,0,4.5-0.1,6.8-0.4h0.2c0.3,0,0.6,0.2,0.6,0.5 c0,0,0,0,0,0.1v1.3c0,0.5-0.2,0.8-0.8,0.9c-2.2,0.4-4.5,0.6-6.8,0.6c-4.4,0-8.6-2.1-8.6-9.1v-3.4c0-5.4,3-8.9,8.5-8.9 c5.4,0,8.4,3.5,8.4,8.9v2c0,0.4-0.3,0.8-0.7,0.8C486.5,172.1,486.5,172.1,486.5,172.1z M483.8,169.2c0-4.3-1.7-6-5-6 c-3.3,0-5.1,1.9-5.1,6v0.3h10.1L483.8,169.2z" fill="#033963"  /><path d="M507,181.5h-2.6c-0.2,0-0.4-0.1-0.5-0.3l-5.4-7.9l-5.4,7.9c-0.2,0.3-0.3,0.4-0.7,0.4h-2.3 c-0.3,0-0.5-0.2-0.5-0.4c0-0.2,0.1-0.4,0.2-0.5l6.8-9.8l-6.5-9.3c-0.1-0.1-0.2-0.3-0.2-0.5c0-0.3,0.2-0.5,0.6-0.5h2.5 c0.3,0,0.5,0.1,0.8,0.5l4.8,7.1l4.9-7.1c0.3-0.5,0.5-0.5,0.8-0.5h2.2c0.2,0,0.5,0.1,0.5,0.4c0,0,0,0,0,0.1c0,0.2-0.1,0.3-0.2,0.5 l-6.3,9.1l7,10c0.1,0.1,0.1,0.3,0.2,0.5C507.6,181.3,507.4,181.5,507,181.5z" fill="#033963"  /><path d="M519.3,181.7c-1.5,0-3-0.2-4.4-0.4v6.9c0,0.4-0.3,0.7-0.7,0.7c0,0,0,0,0,0h-1.9c-0.4,0-0.7-0.3-0.7-0.7 c0,0,0,0,0,0v-26.1c0-0.5,0.1-0.7,0.8-0.9c2.3-0.6,4.6-0.9,7-0.9c5.6,0,8.3,3.7,8.3,9.4v2.7C527.5,178.4,524.8,181.7,519.3,181.7z M524.2,169.7c0-4-1.2-6.6-4.9-6.6c-1.5,0-3,0.1-4.4,0.4v15c1.5,0.2,3,0.4,4.4,0.4c3.7,0,4.9-2.4,4.9-6.5V169.7z" fill="#033963"  /><path d="M535.1,157.2h-1.9c-0.4,0-0.8-0.3-0.8-0.8c0,0,0,0,0,0v-3c0-0.4,0.3-0.8,0.8-0.8l0,0h1.9 c0.4,0,0.8,0.3,0.8,0.8c0,0,0,0,0,0v3C535.9,156.9,535.5,157.2,535.1,157.2L535.1,157.2z M535.1,181.5h-1.8c-0.4,0-0.8-0.3-0.8-0.8 c0,0,0,0,0,0v-19.4c0-0.4,0.3-0.8,0.8-0.8l0,0h1.8c0.4,0,0.7,0.3,0.7,0.8v19.3C535.9,181.1,535.6,181.4,535.1,181.5 C535.1,181.5,535.1,181.5,535.1,181.5L535.1,181.5z" fill="#033963"  /><path d="M550,163.2c-1.9,0-3.7,0.6-5.2,1.6v15.9c0,0.4-0.3,0.7-0.7,0.8h-1.9c-0.4,0-0.7-0.4-0.7-0.8v-19.3 c0-0.4,0.3-0.7,0.7-0.8c0,0,0,0,0,0h1.8c0.4,0,0.7,0.3,0.7,0.7c0,0,0,0,0,0v0.8c1.5-1.2,3.4-1.8,5.3-1.8c0.5,0,0.8,0.2,0.8,0.7v1.6 C550.8,163,550.5,163.2,550,163.2z" fill="#033963"  /><path d="M567.2,181.5h-1.7c-0.4,0-0.8-0.3-0.8-0.8c0,0,0,0,0-0.1v-0.8c-1.7,1.1-3.8,1.8-5.9,1.9 c-3.2,0-6.2-1.4-6.2-6.2v-0.5c0-4.1,2.4-6.2,9.2-6.2h2.8v-1.5c0-3.2-1.1-4.3-4.1-4.3c-1.9,0-3.9,0.1-5.8,0.3h-0.2 c-0.4,0-0.7-0.1-0.7-0.6v-1.3c0-0.4,0.3-0.6,0.8-0.7c1.9-0.3,3.9-0.5,5.9-0.5c5.3,0,7.4,2.7,7.4,7.1v13.3 C568,181.1,567.7,181.4,567.2,181.5C567.2,181.5,567.2,181.5,567.2,181.5z M564.6,171.3h-2.8c-4.6,0-5.8,1-5.8,3.7v0.5 c0,2.7,1.3,3.4,3.5,3.4c1.8-0.1,3.5-0.6,5.1-1.5L564.6,171.3z" fill="#033963"  /><path d="M582.6,181.6c-0.8,0.1-1.6,0.2-2.5,0.2c-3.5,0-5.2-0.9-5.2-5.1v-13.3l-3.7-0.4c-0.4,0-0.7-0.3-0.7-0.7v-1 c0-0.4,0.3-0.7,0.6-0.7c0,0,0.1,0,0.1,0h3.7v-3.7c0-0.4,0.3-0.7,0.7-0.8l2-0.3h0.1c0.3,0,0.6,0.3,0.6,0.6c0,0,0,0,0,0v4.1h4.1 c0.4,0,0.8,0.3,0.8,0.8c0,0,0,0,0,0v1.3c0,0.4-0.3,0.8-0.8,0.8l0,0h-4.1v13.3c0,2.1,0.5,2.4,2,2.4h2.1c0.5,0,0.8,0.2,0.8,0.5v1.3 C583.3,181.2,583.1,181.5,582.6,181.6z" fill="#033963"  /><path d="M594,181.7c-5.6,0-8.5-3.7-8.5-9.3v-2.9c0-5.6,2.9-9.3,8.5-9.3c5.6,0,8.5,3.7,8.5,9.3v2.9 C602.5,178.1,599.6,181.7,594,181.7z M599.1,169.6c0-3.9-1.6-6.3-5.1-6.3s-5.1,2.4-5.1,6.3v2.9c0,3.9,1.5,6.3,5.1,6.3 s5.1-2.4,5.1-6.3V169.6z" fill="#033963"  /><path d="M615.5,163.2c-1.9,0-3.7,0.6-5.2,1.6v15.9c0,0.4-0.3,0.7-0.8,0.8h-1.9c-0.4-0.1-0.6-0.4-0.6-0.8v-19.3 c0-0.4,0.3-0.7,0.7-0.8c0,0,0,0,0,0h1.8c0.4,0,0.7,0.3,0.7,0.7c0,0,0,0,0,0v0.8c1.5-1.1,3.3-1.7,5.2-1.8c0.5,0,0.8,0.2,0.8,0.7v1.6 C616.3,163,616.1,163.2,615.5,163.2z" fill="#033963"  /><path d="M636.1,161.5l-6.3,21.9c-1.2,4.1-2.6,5.6-7,5.6c-1.1,0-2.1-0.1-3.2-0.3c-0.5-0.1-0.8-0.2-0.8-0.6v-1.4 c0-0.4,0.3-0.6,0.7-0.6h0.1c0.8,0,2.5,0.2,3.4,0.2c2.2,0,3.1-0.6,3.8-3.2l0.4-1.6h-0.5c-1.1,0-2.1-0.3-2.8-2.6l-5.1-17.4 c0-0.1,0-0.2,0-0.3c0-0.3,0.2-0.6,0.5-0.6c0,0,0.1,0,0.1,0h2.1c0.3,0,0.6,0.3,0.6,0.6l4.5,16.5c0.2,0.8,0.5,0.8,0.7,0.8h0.6 l4.6-17.4c0.1-0.3,0.4-0.6,0.7-0.6h2.1c0.3,0,0.6,0.2,0.6,0.5c0,0,0,0.1,0,0.1C636.2,161.3,636.1,161.4,636.1,161.5z" fill="#033963"  /><path d="M657.4,181.7c-1.5,0-3-0.2-4.4-0.4v6.9c0,0.4-0.3,0.7-0.7,0.7c0,0,0,0,0,0h-1.9c-0.4,0-0.7-0.3-0.7-0.7 c0,0,0,0,0,0v-26.1c0-0.5,0.1-0.7,0.8-0.9c2.3-0.6,4.6-0.9,7-0.9c5.7,0,8.3,3.7,8.3,9.4v2.7C665.7,178.4,662.9,181.7,657.4,181.7z M662.3,169.7c0-4-1.2-6.6-4.9-6.6c-1.5,0-3,0.1-4.4,0.4v15c1.5,0.2,2.9,0.4,4.4,0.4c3.7,0,4.9-2.4,4.9-6.5V169.7z" fill="#033963"  /><path d="M678.7,163.2c-1.9,0-3.7,0.6-5.2,1.6v15.9c0,0.4-0.3,0.7-0.8,0.8h-1.9c-0.4,0-0.7-0.3-0.7-0.8c0,0,0,0,0,0 v-19.3c0-0.4,0.3-0.7,0.7-0.8c0,0,0,0,0,0h1.8c0.4,0,0.7,0.3,0.7,0.7c0,0,0,0,0,0v0.8c1.5-1.2,3.4-1.8,5.4-1.8 c0.5,0,0.8,0.2,0.8,0.7v1.6C679.5,163,679.3,163.2,678.7,163.2z" fill="#033963"  /><path d="M697.6,172.1h-12.8v0.5c0,4.5,1.8,6.2,5.3,6.2c2.3,0,4.5-0.1,6.8-0.4h0.2c0.3,0,0.6,0.2,0.6,0.5 c0,0,0,0,0,0.1v1.3c0,0.5-0.2,0.8-0.8,0.9c-2.2,0.4-4.5,0.6-6.8,0.6c-4.4,0-8.6-2.1-8.6-9.1v-3.4c0-5.4,3-8.9,8.5-8.9 s8.4,3.4,8.4,8.9v2c0.1,0.4-0.2,0.8-0.6,0.8C697.7,172.1,697.6,172.1,697.6,172.1z M695,169.2c0-4.3-1.7-6-5-6c-3.3,0-5.1,1.9-5.1,6 v0.3H695L695,169.2z" fill="#033963"  /><path d="M709,181.7c-2,0-4-0.2-6-0.6c-0.5-0.1-0.8-0.3-0.8-0.8v-1.3c0-0.3,0.3-0.6,0.6-0.6c0,0,0,0,0,0h0.2 c1.8,0.2,4.6,0.4,6,0.4c2.5,0,3.8-0.7,3.8-2.7c0-1.1-0.7-1.9-2.8-3.1l-3.8-2.3c-2.3-1.4-3.9-3-3.9-5.4c0-4,3-5.1,6.9-5.1 c2,0,4,0.2,5.9,0.5c0.5,0.1,0.7,0.3,0.7,0.8v1.3c0,0.3-0.2,0.6-0.5,0.6c0,0-0.1,0-0.1,0H715c-1.3-0.1-3.8-0.3-5.9-0.3 c-2.1,0-3.5,0.3-3.5,2.2c0,1.1,0.9,1.9,2.6,2.9l3.7,2.3c3.1,1.9,4.2,3.5,4.2,5.7C716.1,180.1,713.3,181.7,709,181.7z" fill="#033963"  /><path d="M726.7,181.7c-2,0-4-0.2-6-0.6c-0.5-0.1-0.8-0.3-0.8-0.8v-1.3c0-0.3,0.3-0.6,0.6-0.6c0,0,0,0,0.1,0h0.2 c1.8,0.2,4.6,0.4,6,0.4c2.5,0,3.8-0.7,3.8-2.7c0-1.1-0.7-1.9-2.9-3.1l-3.9-2.3c-2.3-1.4-3.9-3-3.9-5.4c0-4,3-5.1,6.9-5.1 c2,0,4,0.2,5.9,0.5c0.5,0.1,0.7,0.3,0.7,0.8v1.3c0,0.3-0.2,0.6-0.5,0.6c0,0-0.1,0-0.1,0h-0.1c-1.3-0.1-3.8-0.3-5.9-0.3 s-3.5,0.3-3.5,2.2c0,1.1,0.9,1.9,2.6,2.9l3.8,2.3c3.2,1.9,4.2,3.5,4.2,5.7C733.9,180.1,731,181.7,726.7,181.7z" fill="#033963"  /><path d="M753.6,181.5h-1.9c-0.4,0-0.7-0.3-0.7-0.7c0,0,0,0,0,0V180c-1.8,1.1-3.9,1.7-6,1.7c-4.6,0-6.6-2.9-6.6-7.9 v-12.5c0-0.4,0.3-0.8,0.8-0.8l0,0h1.8c0.4,0,0.8,0.3,0.8,0.8c0,0,0,0,0,0v12.6c0,3.8,1.3,5.1,4.2,5.1c1.8-0.1,3.5-0.6,5.1-1.5v-16 c0-0.4,0.3-0.8,0.8-0.8h1.9c0.4,0,0.7,0.3,0.7,0.8c0,0,0,0,0,0v19.2C754.3,181.1,754,181.4,753.6,181.5 C753.6,181.5,753.6,181.5,753.6,181.5z" fill="#033963"  /><path d="M768,163.2c-1.9,0-3.7,0.6-5.2,1.6v15.9c0,0.4-0.3,0.8-0.8,0.8h-1.9c-0.4,0-0.7-0.3-0.7-0.8c0,0,0,0,0,0 v-19.3c0-0.4,0.3-0.7,0.7-0.8c0,0,0,0,0,0h1.8c0.4,0,0.7,0.3,0.7,0.7c0,0,0,0,0,0v0.8c1.5-1.2,3.4-1.8,5.4-1.8 c0.5,0,0.8,0.2,0.8,0.7v1.6C768.8,163,768.6,163.2,768,163.2z" fill="#033963"  /><path d="M786.9,172.1h-12.7v0.5c0,4.5,1.7,6.2,5.3,6.2c2.3,0,4.5-0.1,6.8-0.4h0.2c0.3,0,0.6,0.2,0.6,0.5 c0,0,0,0,0,0.1v1.3c0,0.5-0.2,0.8-0.8,0.9c-2.2,0.4-4.5,0.6-6.8,0.6c-4.4,0-8.6-2.1-8.6-9.1v-3.4c0-5.4,3-8.9,8.5-8.9 c5.5,0,8.4,3.5,8.4,8.9v2c0,0.4-0.3,0.8-0.7,0.8C787,172.1,787,172.1,786.9,172.1z M784.3,169.2c0-4.3-1.7-6-5-6 c-3.3,0-5.1,1.9-5.1,6v0.3h10.1V169.2z" fill="#033963"  /><path d="M256.1,228.7h-2c-0.4,0-0.7-0.3-0.7-0.7v-27c0-0.4,0.3-0.7,0.7-0.7c0,0,0,0,0,0h2c0.4,0,0.7,0.3,0.7,0.7 c0,0,0,0,0,0V228C256.8,228.4,256.5,228.7,256.1,228.7z" fill="#033963"  /><path d="M277.7,219.4h-12.7v0.5c0,4.5,1.8,6.2,5.3,6.2c2.3,0,4.5-0.1,6.8-0.4h0.2c0.3,0,0.6,0.1,0.6,0.5v1.3 c0,0.5-0.2,0.8-0.8,0.9c-2.2,0.4-4.5,0.7-6.8,0.6c-4.4,0-8.6-2-8.6-9.1v-3.4c0-5.4,3-8.9,8.5-8.9s8.4,3.5,8.4,8.9v2 C278.4,219,278.1,219.4,277.7,219.4z M275,216.5c0-4.3-1.7-6-5-6c-3.3,0-5.1,1.9-5.1,6v0.3H275L275,216.5z" fill="#033963"  /><path d="M298.2,208.8l-5.1,18.1c-0.5,1.7-1.7,2.2-3.4,2.2c-1.5,0.2-3-0.7-3.4-2.2l-5.1-18.1c0-0.1,0-0.2,0-0.3 c0-0.3,0.2-0.6,0.5-0.6c0,0,0,0,0.1,0h2.1c0.3,0,0.6,0.2,0.7,0.7l4.4,16.6c0.2,0.9,0.4,1.1,0.8,1.1c0.4,0,0.6-0.2,0.8-1.1l4.4-16.6 c0.2-0.5,0.4-0.7,0.7-0.7h2.1c0.3,0,0.6,0.2,0.6,0.6c0,0,0,0,0,0.1C298.4,208.6,298.3,208.7,298.2,208.8z" fill="#033963"  /><path d="M317,219.4h-12.7v0.5c0,4.5,1.8,6.2,5.3,6.2c2.3,0,4.5-0.1,6.8-0.4h0.2c0.3,0,0.6,0.1,0.6,0.5v1.3 c0,0.5-0.2,0.8-0.8,0.9c-2.2,0.4-4.5,0.7-6.8,0.6c-4.4,0-8.6-2-8.6-9.1v-3.4c0-5.4,3-8.9,8.5-8.9s8.4,3.5,8.4,8.9v2 c0,0.4-0.3,0.8-0.7,0.8C317.1,219.4,317,219.4,317,219.4z M314.3,216.5c0-4.3-1.7-6-5-6c-3.3,0-5.1,1.9-5.1,6v0.3h10.1L314.3,216.5z" fill="#033963"  /><path d="M325.3,228.7h-2c-0.4,0-0.7-0.3-0.7-0.7v-27c0-0.4,0.3-0.7,0.7-0.7c0,0,0,0,0,0h2c0.4,0,0.7,0.3,0.7,0.7 c0,0,0,0,0,0V228C326,228.4,325.7,228.7,325.3,228.7z" fill="#033963"  /><path d="M337.6,229c-2,0-4-0.2-6-0.6c-0.5-0.1-0.8-0.3-0.8-0.7v-1.4c0-0.3,0.3-0.6,0.7-0.6c0,0,0,0,0,0h0.2 c2,0.2,4,0.4,6,0.4c2.5,0,3.8-0.6,3.8-2.7c0-1.1-0.7-1.9-2.9-3.1l-3.8-2.2c-2.3-1.4-3.9-3-3.9-5.4c0-4,3-5.1,6.9-5.1 c2,0,4,0.2,5.9,0.5c0.5,0,0.7,0.3,0.7,0.7v1.3c0,0.3-0.2,0.6-0.5,0.6c0,0-0.1,0-0.1,0h-0.1c-1.3-0.1-3.8-0.3-5.9-0.3 s-3.5,0.3-3.5,2.2c0,1.1,0.9,1.9,2.6,2.9l3.8,2.2c3.2,1.9,4.2,3.5,4.2,5.7C344.7,227.4,341.9,229,337.6,229z" fill="#033963"  /><path d="M373.2,228.4c-2.3,0.4-4.7,0.7-7,0.6c-5.6,0-8.3-3.7-8.3-9.4v-2.7c0-6,2.7-9.3,8.3-9.3c1.5,0,3,0.1,4.4,0.4 v-7c0-0.4,0.3-0.7,0.7-0.7h1.9c0.4,0,0.7,0.3,0.7,0.7c0,0,0,0,0,0v26.6C374,228,373.8,228.2,373.2,228.4z M370.6,210.8 c-1.5-0.2-3-0.3-4.4-0.3c-3.7,0-4.9,2.3-4.9,6.4v2.7c0,4.1,1.2,6.5,4.9,6.5c1.3,0,3.2-0.1,4.4-0.2V210.8z" fill="#033963"  /><path d="M394.4,228.7h-1.9c-0.4,0-0.7-0.3-0.7-0.7c0,0,0,0,0,0v-0.7c-1.8,1.1-3.9,1.7-6,1.7c-4.6,0-6.6-2.8-6.6-7.9 v-12.5c0-0.4,0.3-0.8,0.8-0.8l0,0h1.8c0.4,0,0.8,0.3,0.8,0.8c0,0,0,0,0,0v12.5c0,3.8,1.3,5.1,4.2,5.1c1.8-0.1,3.5-0.6,5.1-1.5v-16 c0-0.4,0.3-0.7,0.8-0.8h1.9c0.4,0,0.7,0.3,0.7,0.8c0,0,0,0,0,0V228C395.1,228.4,394.8,228.7,394.4,228.7z" fill="#033963"  /><path d="M408.9,210.5c-1.9,0-3.7,0.6-5.2,1.6V228c0,0.4-0.4,0.7-0.8,0.7H401c-0.4,0-0.7-0.3-0.7-0.7v-19.4 c0-0.4,0.3-0.7,0.7-0.8c0,0,0,0,0,0h1.8c0.4,0,0.7,0.3,0.7,0.7c0,0,0,0,0,0v0.8c1.5-1.2,3.4-1.8,5.4-1.8c0.5,0,0.8,0.2,0.8,0.7v1.6 C409.7,210.3,409.4,210.5,408.9,210.5z" fill="#033963"  /><path d="M416.3,204.5h-1.9c-0.4,0-0.7-0.3-0.7-0.7l0,0v-3c0-0.4,0.3-0.8,0.7-0.8h1.9c0.4,0,0.8,0.3,0.8,0.8 c0,0,0,0,0,0v3C417.1,204.2,416.8,204.5,416.3,204.5z M416.3,228.7h-1.8c-0.4,0-0.8-0.3-0.8-0.7v-19.4c0-0.4,0.3-0.8,0.8-0.8l0,0 h1.8c0.4,0,0.7,0.3,0.7,0.8V228C417.1,228.4,416.7,228.7,416.3,228.7C416.3,228.7,416.3,228.7,416.3,228.7L416.3,228.7z" fill="#033963"  /><path d="M437.9,228.7h-1.8c-0.4,0-0.8-0.3-0.8-0.7v-12.5c0-3.8-1.3-5.1-4.2-5.1c-1.8,0.1-3.5,0.6-5.1,1.5V228 c0,0.4-0.4,0.7-0.8,0.7h-1.9c-0.4,0-0.8-0.3-0.8-0.7c0,0,0,0,0,0v-19.4c0-0.4,0.3-0.7,0.7-0.8c0,0,0,0,0,0h1.9 c0.4,0,0.7,0.3,0.7,0.7c0,0,0,0,0,0v0.8c1.8-1.1,3.9-1.7,6-1.7c4.5,0,6.6,2.9,6.6,7.9V228C438.6,228.4,438.3,228.7,437.9,228.7 C437.9,228.7,437.9,228.7,437.9,228.7z" fill="#033963"  /><path d="M460.4,210.4l-1.4,0.3c0.9,1.1,1.4,2.5,1.3,3.9v0.3c0,4.2-2.6,6.5-8.5,6.5c-1.5,0.1-3-0.2-4.4-0.8 c-0.6,0.2-1,0.7-1,1.3c0,0.6,0.3,1,1.2,1.2l5.7,1.4c3.7,1,7.3,2,7.3,5.6v0.3c0,3.6-2.4,5.9-8.7,5.9c-6.2,0-8.7-2.3-8.7-6V230 c0-1.9,0.9-3.7,2.4-4.8l-0.3-0.1c-1.1-0.6-1.8-1.7-1.7-3l0,0c0-1.1,0.6-2.2,1.6-2.7c-1.2-1.1-1.8-2.8-1.7-4.4v-0.3 c0-3.4,1.9-6.8,8.5-6.8h8.3c0.5,0,0.9,0.4,0.9,0.8v1C461.1,210.2,460.8,210.3,460.4,210.4z M457.3,230.2c0-1.5-1.2-2.1-4.6-3 l-4.3-1.1c-1.2,0.9-1.9,2.3-1.9,3.9v0.4c0,2.1,1.3,3.4,5.5,3.4c4.2,0,5.3-1.2,5.3-3.4L457.3,230.2z M457,214.6c0-2.3-1-4.1-5.1-4.1 s-5.1,1.9-5.1,4.1v0.3c0,1.7,0.8,3.9,5.1,3.9s5.1-1.6,5.1-3.9V214.6z" fill="#033963"  /><path d="M483,210.5c-1.9,0-3.7,0.6-5.2,1.6V228c0,0.4-0.4,0.7-0.8,0.7h-1.9c-0.4,0-0.7-0.3-0.7-0.7v-19.4 c0-0.4,0.3-0.7,0.7-0.8c0,0,0,0,0,0h1.8c0.4,0,0.7,0.3,0.7,0.7c0,0,0,0,0,0v0.8c1.5-1.2,3.4-1.8,5.4-1.8c0.5,0,0.8,0.2,0.8,0.7v1.6 C483.8,210.3,483.6,210.5,483,210.5z" fill="#033963"  /><path d="M501.9,219.4h-12.7v0.5c0,4.5,1.8,6.2,5.3,6.2c2.3,0,4.5-0.1,6.8-0.4h0.2c0.3,0,0.6,0.1,0.6,0.5v1.3 c0,0.5-0.2,0.8-0.8,0.9c-2.2,0.4-4.5,0.7-6.8,0.6c-4.4,0-8.6-2-8.6-9.1v-3.4c0-5.4,3-8.9,8.5-8.9s8.4,3.5,8.4,8.9v2 c0,0.4-0.3,0.8-0.7,0.8C502,219.4,501.9,219.4,501.9,219.4z M499.2,216.5c0-4.3-1.7-6-5-6c-3.3,0-5.1,1.9-5.1,6v0.3h10.1 L499.2,216.5z" fill="#033963"  /><path d="M513.3,229c-2,0-4-0.2-6-0.6c-0.5-0.1-0.8-0.3-0.8-0.7v-1.4c0-0.3,0.3-0.6,0.6-0.6c0,0,0,0,0,0h0.2 c2,0.2,4,0.4,6,0.4c2.5,0,3.8-0.6,3.8-2.7c0-1.1-0.7-1.9-2.9-3.1l-3.8-2.3c-2.3-1.4-3.9-3-3.9-5.4c0-4,3-5.1,6.9-5.1 c2,0,4,0.2,5.9,0.5c0.5,0,0.7,0.3,0.7,0.7v1.3c0,0.3-0.2,0.6-0.5,0.6c0,0-0.1,0-0.1,0h-0.1c-1.3-0.1-3.8-0.3-5.9-0.3 c-2.1,0-3.5,0.3-3.5,2.2c0,1.1,0.9,1.9,2.6,2.9l3.8,2.2c3.1,1.9,4.2,3.5,4.2,5.7C520.4,227.4,517.5,229,513.3,229z" fill="#033963"  /><path d="M540.1,228.7h-1.9c-0.4,0-0.7-0.3-0.7-0.7c0,0,0,0,0,0v-0.7c-1.8,1.1-3.9,1.7-6,1.7c-4.5,0-6.6-2.8-6.6-7.9 v-12.5c0-0.4,0.3-0.8,0.7-0.8h1.9c0.4,0,0.8,0.3,0.8,0.8c0,0,0,0,0,0v12.5c0,3.8,1.3,5.1,4.2,5.1c1.8-0.1,3.5-0.6,5.1-1.5v-16 c0-0.4,0.4-0.7,0.8-0.8h1.9c0.4,0,0.7,0.3,0.7,0.8c0,0,0,0,0,0V228C540.9,228.4,540.6,228.7,540.1,228.7 C540.1,228.7,540.1,228.7,540.1,228.7z" fill="#033963"  /><path d="M552.1,229c-2,0-4-0.2-6-0.6c-0.5-0.1-0.8-0.3-0.8-0.7v-1.4c0-0.3,0.3-0.6,0.7-0.6c0,0,0,0,0,0h0.1 c2,0.2,4,0.4,6,0.4c2.5,0,3.8-0.6,3.8-2.7c0-1.1-0.7-1.9-2.8-3.1l-3.8-2.3c-2.3-1.4-3.9-3-3.9-5.4c0-4,3-5.1,6.9-5.1 c2,0,4,0.2,5.9,0.5c0.5,0,0.7,0.3,0.7,0.7v1.3c0,0.3-0.2,0.6-0.5,0.6c0,0-0.1,0-0.1,0h-0.1c-1.3-0.1-3.8-0.3-5.9-0.3 s-3.5,0.3-3.5,2.2c0,1.1,0.9,1.9,2.6,2.9l3.8,2.2c3.1,1.9,4.2,3.5,4.2,5.7C559.2,227.4,556.4,229,552.1,229z" fill="#033963"  /><path d="M575.9,228.6c-1.6,0.3-3.2,0.4-4.8,0.4c-5.1,0-8.1-3.6-8.1-9.2v-3c0-5.6,2.9-9.2,8.1-9.2 c1.6,0,3.2,0.2,4.8,0.4c0.6,0.1,0.8,0.3,0.8,0.8v1.4c0,0.3-0.3,0.6-0.6,0.6c0,0,0,0-0.1,0h-0.2c-1.6-0.2-3.1-0.3-4.7-0.3 c-3,0-4.8,2-4.8,6.3v3c0,4.3,1.7,6.3,4.8,6.3c1.6,0,3.2-0.1,4.7-0.3h0.2c0.3,0,0.6,0.2,0.6,0.5c0,0,0,0,0,0v1.4 C576.6,228.2,576.6,228.5,575.9,228.6z" fill="#033963"  /><path d="M584,204.5H582c-0.4,0-0.8-0.3-0.8-0.7v-3c0-0.4,0.3-0.8,0.8-0.8l0,0h1.9c0.4,0,0.8,0.3,0.8,0.8c0,0,0,0,0,0 v3C584.7,204.2,584.4,204.5,584,204.5z M584,228.7h-1.8c-0.4,0-0.8-0.3-0.8-0.7v-19.4c0-0.4,0.3-0.8,0.8-0.8l0,0h1.8 c0.4,0,0.8,0.3,0.8,0.8c0,0,0,0,0,0V228C584.7,228.4,584.3,228.8,584,228.7C583.9,228.7,583.9,228.7,584,228.7L584,228.7z" fill="#033963"  /><path d="M600.7,228.8c-0.8,0.1-1.6,0.2-2.5,0.2c-3.5,0-5.2-0.9-5.2-5.1v-13.3l-3.7-0.4c-0.4,0-0.7-0.3-0.7-0.7v-1 c0-0.4,0.3-0.7,0.7-0.7c0,0,0,0,0.1,0h3.7v-3.7c0-0.4,0.3-0.7,0.7-0.8l2-0.3h0.1c0.3,0,0.6,0.3,0.6,0.6c0,0,0,0,0,0v4.1h4.1 c0.4,0,0.8,0.3,0.8,0.8c0,0,0,0,0,0v1.3c0,0.4-0.3,0.8-0.8,0.8l0,0h-4.1v13.3c0,2.1,0.5,2.4,2,2.4h2.1c0.5,0,0.8,0.2,0.8,0.5v1.3 C601.4,228.5,601.2,228.7,600.7,228.8z" fill="#033963"  /><path d="M618.7,228.7H617c-0.4,0-0.8-0.3-0.8-0.7v-0.8c-1.7,1.1-3.8,1.8-5.9,1.9c-3.2,0-6.2-1.4-6.2-6.2v-0.5 c0-4.1,2.4-6.2,9.1-6.2h2.8v-1.5c0-3.2-1.1-4.3-4.1-4.3c-1.9,0-3.9,0.1-5.8,0.3h-0.2c-0.3,0-0.7-0.1-0.7-0.6v-1.3 c0-0.4,0.3-0.6,0.8-0.7c1.9-0.4,3.9-0.5,5.9-0.5c5.3,0,7.4,2.7,7.4,7.2V228C619.5,228.4,619.1,228.8,618.7,228.7 C618.7,228.7,618.7,228.7,618.7,228.7z M616.1,218.6h-2.8c-4.6,0-5.8,1-5.8,3.7v0.5c0,2.7,1.3,3.4,3.5,3.4c1.8-0.1,3.5-0.6,5.1-1.5 L616.1,218.6z" fill="#033963"  /><path d="M634.1,228.8c-0.8,0.1-1.6,0.2-2.5,0.2c-3.5,0-5.2-0.9-5.2-5.1v-13.3l-3.7-0.4c-0.4,0-0.7-0.3-0.7-0.7v-1 c0-0.4,0.3-0.7,0.7-0.7c0,0,0,0,0.1,0h3.7v-3.7c0-0.4,0.3-0.7,0.7-0.8l2-0.3h0.1c0.3,0,0.6,0.3,0.6,0.6c0,0,0,0,0,0v4.1h4.1 c0.4,0,0.8,0.3,0.8,0.8c0,0,0,0,0,0v1.3c0,0.4-0.3,0.8-0.8,0.8l0,0h-4.1v13.3c0,2.1,0.5,2.4,2,2.4h2.2c0.5,0,0.8,0.2,0.8,0.5v1.3 C634.8,228.5,634.6,228.7,634.1,228.8z" fill="#033963"  /><path d="M641.4,204.5h-1.9c-0.4,0-0.8-0.3-0.8-0.7v-3c0-0.4,0.3-0.8,0.8-0.8l0,0h1.9c0.4,0,0.8,0.3,0.8,0.8 c0,0,0,0,0,0v3C642.1,204.2,641.8,204.5,641.4,204.5z M641.3,228.7h-1.8c-0.4,0-0.8-0.3-0.8-0.7v-19.4c0-0.4,0.3-0.8,0.8-0.8l0,0 h1.8c0.4,0,0.8,0.3,0.8,0.8c0,0,0,0,0,0V228C642.1,228.4,641.7,228.7,641.3,228.7L641.3,228.7z" fill="#033963"  /><path d="M655.4,229c-5.6,0-8.5-3.7-8.5-9.3v-2.9c0-5.6,2.9-9.3,8.5-9.3c5.6,0,8.5,3.7,8.5,9.3v2.9 C663.9,225.3,661,229,655.4,229z M660.5,216.8c0-3.9-1.6-6.3-5.1-6.3s-5.1,2.4-5.1,6.3v2.9c0,3.9,1.5,6.3,5.1,6.3 c3.6,0,5.1-2.4,5.1-6.3V216.8z" fill="#033963"  /><path d="M683.6,228.7h-1.8c-0.4,0-0.7-0.3-0.7-0.7l0,0v-12.5c0-3.8-1.3-5.1-4.2-5.1c-1.8,0.1-3.5,0.6-5.1,1.5V228 c0,0.4-0.4,0.7-0.8,0.7h-1.9c-0.4,0-0.7-0.3-0.7-0.7v-19.4c0-0.4,0.3-0.7,0.7-0.8c0,0,0,0,0,0h1.9c0.4,0,0.7,0.3,0.7,0.7 c0,0,0,0,0,0v0.8c1.8-1.1,3.9-1.7,6-1.7c4.6,0,6.6,2.9,6.6,7.9V228C684.4,228.4,684.1,228.8,683.6,228.7 C683.6,228.7,683.6,228.7,683.6,228.7z" fill="#033963"  /><path d="M706.7,229c-5.6,0-8.5-3.7-8.5-9.3v-2.9c0-5.6,2.8-9.3,8.5-9.3c5.6,0,8.5,3.7,8.5,9.3v2.9 C715.1,225.3,712.3,229,706.7,229z M711.7,216.8c0-3.9-1.6-6.3-5.1-6.3c-3.5,0-5.1,2.4-5.1,6.3v2.9c0,3.9,1.5,6.3,5.1,6.3 c3.6,0,5.1-2.4,5.1-6.3V216.8z" fill="#033963"  /><path d="M729.1,202.5h-1.8c-1.8,0-2.3,0.5-2.3,2.6v2.7h4c0.4,0,0.7,0.3,0.7,0.7c0,0,0,0,0,0v1.5 c0,0.4-0.3,0.7-0.7,0.6c0,0,0,0-0.1,0h-4V228c0,0.4-0.3,0.7-0.7,0.7h-1.9c-0.4,0-0.7-0.3-0.8-0.7v-17.4l-3.7-0.4 c-0.4,0-0.7-0.3-0.7-0.7v-1c0-0.4,0.3-0.7,0.7-0.7c0,0,0,0,0,0h3.7v-2.7c0-4.1,2-5.3,5.3-5.3c0.7,0,1.4,0.1,2.1,0.2 c0.4,0.1,0.7,0.3,0.7,0.6v1.3C729.8,202.3,729.6,202.5,729.1,202.5z" fill="#033963"  /><path d="M260.8,276.3c-1.5,0-3-0.2-4.4-0.4v6.9c0,0.4-0.3,0.7-0.7,0.7h-1.9c-0.4,0-0.7-0.3-0.7-0.7c0,0,0,0,0,0 v-26.1c0-0.5,0.1-0.7,0.8-0.9c2.3-0.5,4.6-0.8,7-0.9c5.7,0,8.3,3.7,8.3,9.4v2.7C269.1,272.9,266.3,276.3,260.8,276.3z M265.7,264.3 c0-4-1.2-6.6-4.9-6.6c-1.5,0-3,0.1-4.4,0.4v15.1c1.5,0.2,2.9,0.4,4.4,0.4c3.7,0,4.9-2.4,4.9-6.5V264.3z" fill="#033963"  /><path d="M282.2,257.7c-1.9,0-3.7,0.6-5.2,1.6v15.9c0,0.4-0.4,0.7-0.8,0.8h-1.9c-0.4,0-0.7-0.3-0.7-0.8c0,0,0,0,0,0 v-19.4c0-0.4,0.3-0.8,0.7-0.8c0,0,0,0,0,0h1.7c0.4,0,0.7,0.3,0.7,0.8c0,0,0,0,0,0v0.9c1.5-1.2,3.4-1.8,5.4-1.8 c0.5,0,0.8,0.2,0.8,0.7v1.6C283,257.5,282.7,257.7,282.2,257.7z" fill="#033963"  /><path d="M301,266.6h-12.7v0.5c0,4.5,1.8,6.2,5.3,6.2c2.3,0,4.5-0.1,6.8-0.4h0.2c0.3,0,0.6,0.2,0.6,0.5c0,0,0,0,0,0.1 v1.3c0,0.5-0.2,0.8-0.8,0.9c-2.2,0.4-4.5,0.7-6.8,0.7c-4.4,0-8.6-2.1-8.6-9.1v-3.4c0-5.4,3-8.9,8.5-8.9s8.4,3.5,8.4,8.9v2.1 c0,0.4-0.3,0.8-0.7,0.8C301.1,266.6,301.1,266.6,301,266.6z M298.4,263.7c0-4.3-1.7-6-5-6c-3.3,0-5.1,1.9-5.1,6v0.4h10.1 L298.4,263.7z" fill="#033963"  /><path d="M315.6,276.1c-0.8,0.1-1.6,0.2-2.5,0.2c-3.5,0-5.2-0.9-5.2-5.1v-13.3l-3.7-0.4c-0.4,0-0.7-0.3-0.7-0.7v-1 c0-0.4,0.2-0.7,0.6-0.7c0,0,0.1,0,0.1,0h3.7v-3.7c0-0.4,0.3-0.7,0.7-0.8l2-0.3h0.1c0.3,0,0.6,0.3,0.6,0.6c0,0,0,0,0,0v4.1h4.1 c0.4,0,0.8,0.3,0.8,0.8v1.3c0,0.4-0.3,0.8-0.8,0.8h-4.1v13.3c0,2.1,0.5,2.4,2,2.4h2.1c0.5,0,0.8,0.2,0.8,0.5v1.3 C316.3,275.8,316.1,276,315.6,276.1z" fill="#033963"  /><path d="M335.2,266.6h-12.7v0.5c0,4.5,1.8,6.2,5.3,6.2c2.3,0,4.5-0.1,6.8-0.4h0.2c0.3,0,0.6,0.2,0.6,0.5 c0,0,0,0,0,0.1v1.3c0,0.5-0.2,0.8-0.8,0.9c-2.2,0.4-4.5,0.7-6.8,0.7c-4.4,0-8.6-2.1-8.6-9.1v-3.4c0-5.4,3-8.9,8.5-8.9 s8.4,3.5,8.4,8.9v2.1C335.9,266.3,335.6,266.6,335.2,266.6z M332.5,263.7c0-4.3-1.7-6-5-6s-5.1,1.9-5.1,6v0.4h10.1L332.5,263.7z" fill="#033963"  /><path d="M349,257.7c-1.9,0-3.7,0.6-5.2,1.6v15.9c0,0.4-0.4,0.7-0.8,0.8h-1.9c-0.4,0-0.7-0.3-0.7-0.8c0,0,0,0,0,0 v-19.4c0-0.4,0.3-0.8,0.7-0.8c0,0,0,0,0,0h1.8c0.4,0,0.7,0.3,0.7,0.8c0,0,0,0,0,0v0.9c1.5-1.2,3.4-1.8,5.4-1.8 c0.5,0,0.8,0.2,0.8,0.7v1.6C349.8,257.5,349.6,257.7,349,257.7z" fill="#033963"  /><path d="M377.8,276H376c-0.4,0-0.8-0.3-0.8-0.8c0,0,0,0,0,0v-13.4c0-3.2-1.5-4.1-3.4-4.1c-1.5,0.1-3,0.4-4.4,1 c0.2,1,0.4,2,0.3,3v13.5c0,0.4-0.3,0.7-0.7,0.8H365c-0.4,0-0.7-0.4-0.6-0.7c0,0,0,0,0,0v-13.5c0-3.3-1-4-2.9-4 c-1.6,0.2-3.2,0.7-4.6,1.5v16c0,0.4-0.3,0.7-0.7,0.8c0,0,0,0,0,0h-2c-0.4,0-0.7-0.4-0.6-0.7c0,0,0,0,0,0v-19.4 c0-0.4,0.3-0.8,0.7-0.8c0,0,0,0,0,0h1.9c0.4,0,0.7,0.3,0.7,0.8c0,0,0,0,0,0v0.7c1.7-1.1,3.6-1.7,5.5-1.7c1.4-0.1,2.8,0.5,3.8,1.6 c2-1,4.1-1.5,6.3-1.6c3.4,0,6.2,1.7,6.2,7v13.4C378.6,275.7,378.2,276,377.8,276z" fill="#033963"  /><path d="M396.2,251.8h-1.9c-0.4,0-0.8-0.3-0.8-0.8c0,0,0,0,0,0v-3c0-0.4,0.3-0.8,0.8-0.8h1.9c0.4,0,0.8,0.3,0.8,0.8 v3C397,251.4,396.6,251.8,396.2,251.8L396.2,251.8z M396.1,276h-1.8c-0.4,0-0.7-0.3-0.7-0.8v-19.4c0-0.4,0.3-0.8,0.7-0.8h1.8 c0.4,0,0.8,0.3,0.8,0.8c0,0,0,0,0,0v19.4C396.9,275.7,396.6,276,396.1,276L396.1,276z" fill="#033963"  /><path d="M417.7,276h-1.8c-0.4,0-0.8-0.3-0.8-0.8c0,0,0,0,0,0v-12.5c0-3.8-1.3-5.1-4.2-5.1c-1.8,0.1-3.5,0.6-5.1,1.5 v16c0,0.4-0.3,0.7-0.8,0.8h-1.9c-0.4,0-0.7-0.4-0.7-0.8v-19.3c0-0.4,0.3-0.7,0.7-0.8h1.9c0.4,0,0.7,0.4,0.7,0.8v0.7 c1.8-1.1,3.9-1.7,6-1.7c4.6,0,6.6,2.8,6.6,7.9v12.5C418.5,275.7,418.2,276,417.7,276z" fill="#033963"  /><path d="M433.2,249.8h-1.8c-1.8,0-2.3,0.5-2.3,2.6v2.7h4c0.4,0,0.7,0.3,0.7,0.7c0,0,0,0,0,0v1.5 c0,0.4-0.3,0.7-0.7,0.6c0,0,0,0-0.1,0h-4v17.3c0,0.4-0.3,0.7-0.7,0.8h-1.9c-0.4,0-0.7-0.3-0.8-0.8v-17.3l-3.7-0.4 c-0.4,0-0.7-0.3-0.7-0.7v-1c0-0.4,0.3-0.7,0.7-0.7c0,0,0,0,0,0h3.7v-2.7c0-4.1,2-5.3,5.3-5.3c0.7,0,1.4,0.1,2.1,0.2 c0.4,0.1,0.7,0.3,0.7,0.6v1.3C433.9,249.6,433.6,249.8,433.2,249.8z" fill="#033963"  /><path d="M451.2,276h-1.7c-0.4,0-0.8-0.3-0.8-0.8c0,0,0,0,0,0v-0.8c-1.7,1.1-3.8,1.8-5.8,1.9c-3.2,0-6.2-1.4-6.2-6.2 v-0.5c0-4.1,2.4-6.2,9.2-6.2h2.8V262c0-3.2-1.1-4.3-4.1-4.3c-1.9,0-3.9,0.1-5.8,0.3h-0.2c-0.3,0-0.7-0.1-0.7-0.6v-1.3 c0-0.4,0.3-0.7,0.8-0.7c1.9-0.3,3.9-0.5,5.9-0.5c5.3,0,7.4,2.7,7.4,7.1v13.3C452,275.7,451.7,276,451.2,276 C451.2,276,451.2,276,451.2,276z M448.6,265.9h-2.8c-4.6,0-5.8,1-5.8,3.7v0.4c0,2.7,1.3,3.5,3.5,3.5c1.8-0.1,3.5-0.6,5.1-1.5 L448.6,265.9z" fill="#033963"  /><path d="M472.3,276h-1.8c-0.4,0-0.8-0.3-0.8-0.8c0,0,0,0,0,0v-12.5c0-3.8-1.3-5.1-4.2-5.1c-1.8,0.1-3.5,0.6-5.1,1.5 v16c0,0.4-0.4,0.7-0.8,0.8h-1.9c-0.4,0-0.7-0.3-0.7-0.8c0,0,0,0,0,0v-19.3c0-0.4,0.3-0.8,0.7-0.8c0,0,0,0,0,0h1.9 c0.4,0,0.7,0.3,0.7,0.8c0,0,0,0,0,0v0.7c1.8-1.1,3.9-1.7,6-1.7c4.5,0,6.6,2.8,6.6,7.9v12.5C473.1,275.7,472.8,276.1,472.3,276 C472.3,276,472.3,276,472.3,276z" fill="#033963"  /><path d="M487.9,276.1c-0.8,0.1-1.6,0.2-2.5,0.2c-3.5,0-5.2-0.9-5.2-5.1v-13.3l-3.7-0.4c-0.4,0-0.7-0.3-0.7-0.7v-1 c0-0.4,0.3-0.7,0.7-0.7c0,0,0,0,0.1,0h3.7v-3.7c0-0.4,0.3-0.7,0.7-0.8l2-0.3h0.1c0.3,0,0.6,0.3,0.6,0.6c0,0,0,0,0,0v4.1h4.1 c0.4,0,0.8,0.3,0.8,0.8c0,0,0,0,0,0v1.3c0,0.4-0.3,0.8-0.8,0.8l0,0h-4.2v13.3c0,2.1,0.5,2.4,2,2.4h2.1c0.5,0,0.8,0.2,0.8,0.5v1.3 C488.6,275.8,488.4,276,487.9,276.1z" fill="#033963"  /><path d="M498.2,276.3c-2,0-4-0.2-6-0.6c-0.5-0.1-0.8-0.3-0.8-0.8v-1.3c0-0.3,0.3-0.6,0.7-0.6h0.2 c1.8,0.2,4.6,0.4,6,0.4c2.5,0,3.8-0.6,3.8-2.7c0-1.1-0.7-1.9-2.9-3.2l-3.8-2.3c-2.3-1.4-3.9-3-3.9-5.4c0-4,3-5.1,6.9-5.1 c2,0,4,0.2,5.9,0.5c0.4,0,0.7,0.3,0.7,0.7c0,0,0,0,0,0v1.3c0,0.3-0.2,0.6-0.5,0.6c0,0-0.1,0-0.1,0h-0.1c-1.3-0.1-3.8-0.3-5.9-0.3 s-3.5,0.3-3.5,2.2c0,1.1,0.9,1.9,2.6,2.9l3.8,2.2c3.2,1.9,4.2,3.5,4.2,5.7C505.3,274.7,502.5,276.3,498.2,276.3z" fill="#033963"  /><path d="M533,276h-1.7c-0.4,0-0.8-0.3-0.8-0.8c0,0,0,0,0,0v-0.8c-1.8,1.1-3.8,1.8-5.9,1.9c-3.2,0-6.2-1.4-6.2-6.2 v-0.5c0-4.1,2.4-6.2,9.1-6.2h2.8V262c0-3.2-1.1-4.3-4.1-4.3c-1.9,0-3.9,0.1-5.8,0.3h-0.2c-0.3,0-0.7-0.1-0.7-0.6v-1.3 c0-0.4,0.3-0.7,0.8-0.7c1.9-0.3,3.9-0.5,5.9-0.5c5.3,0,7.4,2.7,7.4,7.1v13.3C533.8,275.7,533.5,276,533,276C533,276,533,276,533,276 z M530.4,265.9h-2.9c-4.6,0-5.8,1-5.8,3.7v0.4c0,2.7,1.3,3.5,3.5,3.5c1.8-0.1,3.5-0.6,5.1-1.5L530.4,265.9z" fill="#033963"  /><path d="M548.4,276.1c-0.8,0.1-1.6,0.2-2.5,0.2c-3.5,0-5.2-0.9-5.2-5.1v-13.3l-3.7-0.4c-0.4,0-0.7-0.3-0.7-0.7v-1 c0-0.4,0.3-0.7,0.7-0.7c0,0,0,0,0.1,0h3.7v-3.7c0-0.4,0.3-0.7,0.7-0.8l2-0.3h0.1c0.3,0,0.6,0.3,0.6,0.7c0,0,0,0,0,0v4.1h4.1 c0.4,0,0.8,0.3,0.8,0.8c0,0,0,0,0,0v1.3c0,0.4-0.3,0.8-0.8,0.8l0,0h-4.1v13.3c0,2.1,0.5,2.4,2.1,2.4h2.1c0.5,0,0.8,0.2,0.8,0.5v1.3 C549.1,275.8,548.9,276,548.4,276.1z" fill="#033963"  /><path d="M569.8,276.3c-2.3,0-4.7-0.2-7-0.7c-0.7-0.1-0.8-0.3-0.8-0.9v-26.6c0-0.4,0.3-0.7,0.7-0.7c0,0,0,0,0,0h1.9 c0.4,0,0.7,0.3,0.7,0.7v7.1c1.5-0.2,2.9-0.4,4.4-0.4c5.5,0,8.3,3.4,8.3,9.3v2.7C578.1,272.6,575.5,276.3,569.8,276.3z M574.7,264.2 c0-4.1-1.2-6.4-4.9-6.4c-1.5,0-3,0.1-4.4,0.3v15.1c1.3,0.1,3.1,0.2,4.4,0.2c3.8,0,4.9-2.3,4.9-6.5V264.2z" fill="#033963"  /><path d="M585.6,251.8h-1.9c-0.4,0-0.8-0.3-0.8-0.8c0,0,0,0,0,0v-3c0-0.4,0.3-0.8,0.8-0.8h1.9c0.4,0,0.8,0.3,0.8,0.8 c0,0,0,0,0,0v3C586.4,251.4,586.1,251.8,585.6,251.8L585.6,251.8z M585.5,276h-1.8c-0.4,0-0.8-0.3-0.8-0.8c0,0,0,0,0,0v-19.4 c0-0.4,0.3-0.8,0.8-0.8l0,0h1.8c0.4,0,0.8,0.3,0.8,0.8c0,0,0,0,0,0v19.4C586.3,275.7,586,276,585.5,276L585.5,276z" fill="#033963"  /><path d="M600.5,257.7c-1.9,0-3.7,0.6-5.2,1.6v15.9c0,0.4-0.3,0.7-0.8,0.8h-1.9c-0.4,0-0.7-0.4-0.7-0.8v-19.4 c0-0.4,0.3-0.7,0.7-0.8h1.8c0.4,0,0.7,0.3,0.7,0.8c0,0,0,0,0,0v0.9c1.5-1.2,3.4-1.8,5.3-1.8c0.5,0,0.8,0.2,0.8,0.7v1.6 C601.3,257.5,601.1,257.7,600.5,257.7z" fill="#033963"  /><path d="M615.3,276.1c-0.8,0.1-1.6,0.2-2.5,0.2c-3.5,0-5.1-0.9-5.1-5.1v-13.3l-3.7-0.4c-0.4,0-0.7-0.3-0.7-0.7v-1 c0-0.4,0.3-0.7,0.7-0.7c0,0,0,0,0.1,0h3.7v-3.7c0-0.4,0.3-0.7,0.7-0.8l2-0.3h0.1c0.3,0,0.6,0.3,0.6,0.7c0,0,0,0,0,0v4.1h4.1 c0.4,0,0.8,0.3,0.8,0.8c0,0,0,0,0,0v1.3c0,0.4-0.3,0.8-0.8,0.8l0,0h-4.1v13.3c0,2.1,0.5,2.4,2.1,2.4h2.1c0.5,0,0.8,0.2,0.8,0.5v1.3 C616,275.8,615.8,276,615.3,276.1z" fill="#033963"  /><path d="M634.8,276H633c-0.4,0-0.8-0.3-0.8-0.8c0,0,0,0,0,0v-12.5c0-3.8-1.6-5-4.1-5c-1.8,0-3.6,0.4-5.2,1.1v16.4 c0,0.4-0.3,0.7-0.8,0.8h-1.9c-0.4,0-0.7-0.4-0.7-0.8v-27c0-0.4,0.3-0.7,0.7-0.8c0,0,0,0,0,0h2c0.4,0,0.7,0.3,0.7,0.7c0,0,0,0,0,0 v7.8c1.8-0.8,3.8-1.1,5.8-1.2c4,0,6.8,2.3,6.8,7.9v12.5C635.5,275.7,635.2,276,634.8,276z" fill="#033963"  /><rect x="217.5" y="125.5" transform="matrix(1 -2.617982e-03 2.617982e-03 1 -0.3334 1.3171)" width="570.8" height="5.1" fill="#033963"  /><path d="M693.6,105.2c-1.5,0.3-2.9,0.4-4.4,0.5c-7.4,0-10.4-1.7-10.4-10.4V74.9l-6.1-0.9c-0.7,0-1.3-0.6-1.3-1.3 v-2.9c0-0.7,0.6-1.3,1.3-1.3c0,0,0,0,0,0h6.1v-5.3c0-0.7,0.6-1.3,1.3-1.3l6.1-1h0.3c0.5-0.1,1,0.3,1,0.8c0,0,0,0.1,0,0.1v6.8h5.8 c0.7,0,1.3,0.6,1.3,1.3c0,0,0,0,0,0v3.8c0,0.7-0.6,1.3-1.3,1.3c0,0,0,0,0,0h-5.9v20.5c0,3.2,0.2,3.6,2.5,3.6h3.4 c0.8,0,1.4,0.3,1.4,1v4.1C694.8,104.7,694.4,105.1,693.6,105.2z" fill="#033963"  /><path d="M718.2,75.3c-3.1,0-6.2,0.8-9,2.4v26.2c0,0.7-0.6,1.3-1.3,1.4h-6c-0.7,0-1.3-0.6-1.3-1.4V69.7 c0-0.7,0.6-1.3,1.3-1.3h5.7c0.7,0,1.3,0.6,1.3,1.3c0,0,0,0,0,0v1.4c2.7-2.1,6-3.2,9.3-3.1c0.7,0,1.3,0.6,1.3,1.3c0,0,0,0,0,0V74 C719.6,74.7,719,75.3,718.2,75.3C718.3,75.3,718.2,75.3,718.2,75.3z" fill="#033963"  /><path d="M732.8,63.5h-6.3c-0.7,0-1.3-0.6-1.4-1.3v-5.8c0-0.7,0.6-1.3,1.4-1.3h6.3c0.7,0,1.3,0.6,1.3,1.3v5.8 C734.1,63,733.5,63.5,732.8,63.5z M732.6,105.2h-6c-0.7,0-1.3-0.6-1.3-1.4V69.7c0-0.7,0.6-1.3,1.3-1.3c0,0,0,0,0,0h6 c0.7,0,1.3,0.6,1.3,1.3c0,0,0,0,0,0v34.1C733.9,104.6,733.3,105.2,732.6,105.2z" fill="#033963"  /><path d="M768.5,105.2H763c-0.7,0-1.3-0.6-1.3-1.3v-1c-2.7,1.8-5.9,2.8-9.2,2.9c-5.4,0-11.3-2.1-11.3-10.9v-0.3 c0-7.4,4.6-11.3,15.9-11.3h4.1v-2.9c0-4.2-1.9-5.3-5.7-5.3c-3.5,0-7.1,0.2-10.6,0.5h-0.3c-0.6,0-1.2-0.2-1.2-1.1v-4.2 c0-0.7,0.4-1.2,1.2-1.4c3.6-0.7,7.2-1,10.9-1c9.3,0,14.3,4.1,14.3,12.4v23.5C769.8,104.6,769.2,105.2,768.5,105.2z M761.2,89h-4.1 c-5.9,0-7.2,1.9-7.2,5.5v0.3c0,3.2,1.4,4,4.7,4c2.3-0.1,4.6-0.7,6.6-1.8V89z" fill="#033963"  /><path d="M786,105.2h-6.1c-0.7,0-1.3-0.6-1.3-1.4V56.9c0-0.7,0.6-1.3,1.3-1.3h6.1c0.7,0,1.3,0.6,1.3,1.3c0,0,0,0,0,0 v46.9C787.2,104.5,786.7,105.2,786,105.2z" fill="#033963"  /><path d="M236.2,131.3H0c0-3.1,2.5-5.6,5.6-5.6c0,0,0,0,0,0h230.6V131.3z" fill="#033963"  /><path d="M83.5,162.1H5.8c0-3.1,2.5-5.6,5.6-5.6c0,0,0,0,0,0h66.5C81,156.5,83.5,159,83.5,162.1 C83.5,162.1,83.5,162.1,83.5,162.1z" fill="#033963"  /><path d="M98.9,205.9H31.7c0-3.1,2.5-5.6,5.6-5.6c0,0,0,0,0,0h56C96.4,200.3,98.9,202.8,98.9,205.9 C98.9,205.8,98.9,205.8,98.9,205.9z" fill="#033963"  /><path d="M219.4,236.1h-67.2c0-3.1,2.5-5.6,5.6-5.6l0,0h56C216.9,230.5,219.4,233,219.4,236.1L219.4,236.1z" fill="#033963"  /><path d="M208.9,194.5h-68.4c0-3.1,2.5-5.6,5.6-5.6l0,0h57.2C206.4,188.9,208.9,191.4,208.9,194.5L208.9,194.5 L208.9,194.5z" fill="#033963"  /><path d="M235.6,162.1h-75.4c-0.2-2.8,1.9-5.3,4.7-5.6h66C233.8,156.7,235.9,159.2,235.6,162.1L235.6,162.1z" fill="#033963"  /><rect x="220.6" y="145.7" width="11.2" height="12.3" fill="#033963"  /><path d="M151.4,266.1l15-19.3h11.2l-25.9,33.3l-31.2-29.3l-15.1,1.8l-18.5-19.4l-23.2,13.9c0,0-0.7-6.6-1.7-13.9 c-0.9-6.3-4.6-13.5-4.3-15.7h10.1l2.8,14.5l17.6-11.7l21,21.2l15.4-2.2L151.4,266.1z" fill="#033963"  /><polygon points="49.5,159.3 37.4,159.3 27.7,145.7 39.8,145.7" fill="#033963"  /><polygon points="63.7,203.1 52.5,203.1 46.1,172.9 57.2,172.9" fill="#033963"  /><polygon points="204.3,212.5 191.4,232 180.2,232 193.2,212.5 192.3,205.8 202.2,205.8" fill="#033963"  /><path d="M187.4,190.1h12.3c0,0,2.8-7.4,9.3-10.1c3.8-1.6,7.3-4,10.1-7.1h-14.8C204.3,172.9,195.1,174.1,187.4,190.1z" fill="#033963"  /><path d="M23.6,126.5c4,0.1,5.8-1.5,6.9-5.1c3.9-13,8-25.9,12.3-39.8c6,0,12.2-0.2,18.4,0c4.1,0.2,6.2-1.4,7.7-5.2 c3-7.7,6.4-15.2,9.8-23.3c6,2.5,8.7-1.3,11.6-5.5c9.8-14.5,19.8-28.9,29.8-43.2c1-1.5,2.3-2.7,3.7-4.3c14.1,11,27.6,22.3,41.9,32.2 c8.6,5.9,11.1,12.8,9.8,22.5c-0.7,5.3,2.4,6.6,6.9,4.2c6.3-3.4,12.4-6.8,19.7-10.7c1.9,4.1,3.8,7.9,5.5,11.8 c8.7,20.6,17.4,41.2,26,61.9c0.6,2,2,3.5,3.9,4.3c2.1,0.8,3.4,2.8,3.4,5h-7.7 M94.8,58.4c3.9,2.2,6.6,3.3,8.6,5.1 c1.7,1.3,2.8,3.2,3.1,5.2c0.4,7.7,0.2,15.5,0.2,23.3c-3.1-6.1-5.4-12.4-7.9-18.5c-0.8-1.8-2.2-3.3-3.9-4.1c-7.7-3-12.7-0.4-15.2,7.6 c-1,3.1-2.3,6-3.4,9.1c-1.3,3.8-3.8,5.2-7.9,5.1c-4.4,0-8.9,0.2-13.3,0.7l5.3,13.8l-11.2-7.7l-9.9,28.6h184.9 c-8.5-19.8-16.5-38.8-24.5-57.7l-2.1,0.3c-1.7,5.1-3.2,10.1-5.1,15.9c-1.9-3.2-4.3-5.7-4.8-8.7c-0.5-2.9,0.9-6.1,1.4-8.7 c-21,3-24.4,21.8-33.2,36.5c1.7-21.7,0.4-42.4-12.5-60.6c-0.1-0.2-0.1-0.5-0.2-0.7l-14.6-27.9l-2.5-0.6L94.8,58.4z" fill="#033963"  /></svg>