<svg viewBox="0 0 834.2 283.5" role="img" focusable="false" aria-labelledby="sinepost--title" xmlns="http://www.w3.org/2000/svg" xmlns:xlink="http://www.w3.org/1999/xlink"><title id="sinepost--title">SINEPOST - SARS-CoV-2 infection in neonates or in pregnancy: Outcomes at 18 months</title><linearGradient id="SVGID_1_" gradientUnits="userSpaceOnUse" x1="2.4177" y1="71.1394" x2="834.2304" y2="71.1394"><stop offset="0.2304" stop-color="#41BDD9" ></stop><stop offset="0.9177" stop-color="#734E8D" ></stop>
	
	
</linearGradient><path d="M46.2,135.1c-32.6,0-41.8-15.3-42.9-17.1c-2-3.6-0.6-8.3,3-10.2s8.1-0.6,10.1,2.9  c0.3,0.3,1.8,2.4,5.7,4.5c7.5,4.1,17.3,5,24.1,5c9.9,0,17.4-2.1,21.7-6c3.3-3,4.1-6.8,4.1-9.3c0-5.6-1.7-9.8-5.3-13.2  c-4.7-4.7-12.8-8.1-24.2-10.4c-8.3-1.8-15.5-4.7-21.2-8.6c-4.8-3.3-8.6-7.4-11.3-12.2c-4.4-7.5-4.4-14.3-4.4-16.1  c0-8,3.8-15.9,10.2-21.7c3.2-2.9,7.1-5.1,11.4-6.8c4.5-1.7,9.5-2.4,14.6-2.4c29.3,0,37.9,13.8,38.8,15.5c2,3.6,0.8,8.3-2.9,10.2  s-8.1,0.8-10.1-2.7c-0.3-0.3-1.7-2-5-3.9c-3.6-1.8-10.1-4.1-20.9-4.1c-8.3,0-13.2,2.9-16.1,5.4c-3.2,2.9-5.1,6.8-5.1,10.7v0.3  c0,0.6,0,4.4,2.7,8.7c1.7,2.7,3.9,5,6.9,6.9c3.9,2.6,9,4.5,15.2,5.9c14.4,2.9,24.8,7.5,31.7,14.3c6.5,6.3,9.8,14.4,9.8,24.1  c0,7.8-3.2,15-8.9,20.4C71,131.8,60.2,135.1,46.2,135.1z M116.9,133.3c-4.1,0-7.5-3.3-7.5-7.5V22.6c0-4.1,3.5-7.5,7.5-7.5  c4.2,0,7.5,3.5,7.5,7.5v103.1C124.4,130,121.1,133.3,116.9,133.3z M244.7,133.8c-2.3,0-4.4-1.1-5.9-2.7l-72.6-87.4v82.4  c0,4.2-3.3,7.5-7.5,7.5c-4.2,0-7.5-3.3-7.5-7.5V22.9c0-3.2,2-6,5-7.1c3-1.1,6.3-0.2,8.3,2.3l72.8,87.2V23.1c0-4.2,3.3-7.5,7.5-7.5  c4.1,0,7.5,3.3,7.5,7.5v103.1c0,3.2-2.1,5.9-5,7.1C246.4,133.6,245.5,133.8,244.7,133.8z M366.3,125.6c0,4.2-3.3,7.5-7.5,7.5h-71.9  c-4.1,0-7.5-3.3-7.5-7.5v-103c0-4.2,3.5-7.5,7.5-7.5h70.4c4.2,0,7.5,3.3,7.5,7.5s-3.3,7.5-7.5,7.5h-62.9v36.2H350  c4.2,0,7.5,3.5,7.5,7.5c0,4.2-3.3,7.5-7.5,7.5h-55.6v36.7h64.4C362.9,118.1,366.3,121.4,366.3,125.6z M394.6,133.3  c-4.1,0-7.5-3.3-7.5-7.5V22.6c0-4.2,3.5-7.5,7.5-7.5h44.7c0.6,0,4.2,0,8.9,1.2c6.6,1.7,12.5,5,17,9.3c3.3,3.3,6,7.4,7.8,12  c2,5.1,3,11,3,17.4c0,14.3-6,25.1-17.3,31.6c-8.1,4.7-18.9,6.9-32.3,6.9c-4.1,0-7.5-3.3-7.5-7.5c0-4.2,3.5-7.5,7.5-7.5  c10.7,0,19.1-1.7,24.8-5c6.6-3.8,9.8-9.6,9.8-18.5c0-6-1.2-11-3.3-14.7c-1.7-3-4.1-5.3-6.9-6.9c-5.4-3.2-11-3.3-11.4-3.3h-37.1v95.6  C402.1,130,398.8,133.3,394.6,133.3z M680.5,135.1c-32.6,0-41.8-15.3-42.9-17.1c-2-3.6-0.6-8.3,3-10.2s8.1-0.6,10.1,2.9  c0.3,0.3,1.8,2.4,5.7,4.5c7.5,4.1,17.3,5,24.1,5c9.9,0,17.4-2.1,21.7-6c3.3-3,4.1-6.8,4.1-9.3c0-5.6-1.7-9.8-5.3-13.2  c-4.7-4.7-12.8-8.1-24.2-10.4c-8.3-1.8-15.5-4.7-21.2-8.6c-4.8-3.3-8.6-7.4-11.3-12.2c-4.4-7.5-4.4-14.3-4.4-16.1  c0-8,3.8-15.9,10.2-21.7c3.2-2.9,7.1-5.1,11.4-6.8c4.5-1.7,9.5-2.4,14.6-2.4c29.3,0,37.9,13.8,38.8,15.5c2,3.6,0.8,8.3-2.9,10.2  s-8.1,0.8-10.1-2.7c-0.3-0.3-1.7-2-5-3.9c-3.6-1.8-10.1-4.1-20.9-4.1c-8.3,0-13.2,2.9-16.1,5.4c-3.2,2.9-5.1,6.8-5.1,10.7v0.3  c0,0.6,0,4.4,2.7,8.7c1.7,2.7,3.9,5,6.9,6.9c3.9,2.6,9,4.5,15.2,5.9c14.4,2.9,24.8,7.5,31.7,14.3c6.5,6.3,9.8,14.4,9.8,24.1  c0,7.8-3.2,15-8.9,20.4C705.3,131.8,694.4,135.1,680.5,135.1z M834.2,22.6c0,4.2-3.3,7.5-7.5,7.5h-32.9v95.6c0,4.2-3.5,7.5-7.5,7.5  c-4.2,0-7.5-3.3-7.5-7.5V30.2h-33.1c-4.2,0-7.5-3.3-7.5-7.5s3.3-7.5,7.5-7.5h81C830.9,15.1,834.2,18.4,834.2,22.6z M619.4,63.5  c2.2-0.6,6.3,0.9,6.3-5.5s-6.7-5.8-8.7-4.8c-3.3,1.5-12.2,9.1-13.8,6.3c-1.7-5.1-4.2-9.8-7.4-14c-0.1-2.5,4.3-3,6.9-6.5  c2.3-3.1,6-0.9,5.8-5.2c-0.1-1.6-2.2-4-3.8-4.2c-4.7-0.5-4,3.7-5.9,6.6c-1.9,2.7-3.3,5.3-6.9,4.9c-3.9-4-8.6-7.4-13.7-9.9  c1.3-4.5,11.4-10.9,6.4-14c-6.2-3.8-8.3,3.6-8.4,5.6c-0.2,3.2,0.1,5.2-1.9,6.7c-5.3-2-11.1-3.1-17.1-3.1c-0.5,0-1,0-1.5,0  c-1.1-1.9-1.3-5-1.6-10.5c-0.2-3.1,1.5-6.3,1.5-9.5c0-2-0.9-4.7-2.4-5.9c-1.1-0.9-4.4-0.4-5.6,0.6c-1.2,1.1-1.5,3.8-1.1,5.6  c0.9,4.5,3,8.8,3.6,13.3c0.4,3.1,0.7,5.2,0.5,6.7c-4,0.5-7.8,1.6-11.4,3c-2.2-2.8-0.7-6.4-1.7-9.2c-0.8-2.1-2.3-5.7-6.6-4.4  c-4.3,1.4-1.4,7.1-0.5,8.9c1.1,2.1,5,3.7,4.1,6.9c-4.9,2.6-9.3,6-13.1,10.1c0,0,0-0.1-0.1-0.1c-5.6-4-7.2-6-9.3-11.4  c-0.9-2.2-4-4.8-8.2-3.2s-1.3,6.5,0.2,7.7c4.2,3.2,15.5,7.2,13.1,12.4c-3,3.9-3.8,5.9-5.5,10.6c-1.1-0.5-6.5-4.8-8.4-6  c-1.5-0.9-7.5-2.1-8.2,2.9c-0.7,5,3.7,5.3,5.7,5.4c5,0.1,8,0.3,9.7,1.3c-1.2,4.2-1.9,8.7-1.9,13.4c0,1.4,0.1,2.7,0.2,4  c-6.2,2.1-6.7,0.3-9.4-0.5c-3.9-1.1-12.1-3.2-10.9,3.9c1.1,6.1,6.5,3.7,11.4,2.6c3.7-0.8,2.8-1.8,9.5-1.4c0.9,4.9,2.5,9.5,4.7,13.7  c-1.6,3.9-5.2,3.8-9.2,5.1c-2.2,0.7-11.2,2.9-7.7,9.5c3.4,6.6,11.2-2.8,12.3-4.7c1.2-2.1,3.5-5.1,7-5.8c2.4,3.7,5.3,7.1,8.6,10  c-0.9,3.2-3.2,3.2-6.6,5.8c-1.5,1.1-7,5.5-1.8,9.8c5.2,4.3,8.6-0.4,8.9-2.4c0.4-2.2-0.3-6.6,3.6-9.9c3.8,2.7,8.1,4.9,12.6,6.4  c0,0,0,0.1,0,0.1c0.8,5.5-1.1,5.6-4.1,10.8c-1.4,2.3-3.1,8.8,1.6,9.7c4.4,0.8,4.7-6.4,4.9-9.1c0.4-5.4-1.1-6,2.7-10  c3.3,0.7,6.8,1.1,10.3,1.1c3.2,0,6.3-0.3,9.4-0.9c3.9,1.4,3.4,7,2.9,9.8c-0.1,0.6-0.2,11.7,6.3,9.7c7.2-2.3,0.4-11.4-1.5-13.4  c-2.5-2.6-3.8-4.9-2.2-7.5c4.8-1.6,9.3-3.8,13.4-6.7c5.1,0.7,7.1,5.8,8.1,7.1c1.3,1.6,7.4,13,14.1,7c5.8-5.2-7.9-12.1-9.8-12.6  c-5.1-1.4-5.8-1.1-7.9-5c6.8-6.2,11.8-14.2,14.2-23.3c0.9-0.1,6.5,2.6,8.4,4.2c2.6,2.2,8.8,4.4,10.9-1.3c3.2-8.6-6.1-7.9-8.1-7.5  c-5.6,1.2-8.6,1.6-10.3,0.6c0.5-2.8,0.8-5.6,0.8-8.5c0-3.5-0.4-6.9-1.1-10.2C609.1,61,614.5,64.8,619.4,63.5z M535.7,91.7  c-5.9-0.4-8-4.3-7.8-9.8c0.2-7.1,5.5-13.6,11.1-13.7c4.8,0,8.9,4.3,8.7,9.3C547.5,83.5,540.5,92,535.7,91.7z M549,54.2  c0.3-6.5,5.4-7,10.4-6.7c5.3,0.2,8.6,3,8.4,8.5c-0.2,5.9-4.6,6.3-9.3,6.3C553.7,61.5,548.7,60.6,549,54.2z M559.3,105.9  c-5.6,0-8.3-3.2-8.5-8.4c-0.2-4.9,6.5-10.6,11.7-10.6c5.1,0,9.3,4.8,9.3,10.6C571.8,103,567.5,105.9,559.3,105.9z M578.1,84.1  c-6.4-0.1-7.7-4.4-7.5-9.7c0.1-7.5,3-11.1,9-11c4.9,0.1,9.2,5,9.2,10.5C588.8,79.3,583.7,84.2,578.1,84.1z" fill="url(#SVGID_1_)"  /><g><g><path d="M0,209.7l0.5-0.4l1.8-0.1c0,1.3,0.2,2.5,0.7,3.4c0.5,1,1.1,1.8,1.9,2.5c0.8,0.7,1.7,1.1,2.6,1.5    s2,0.5,3,0.5c1,0,1.9-0.1,2.7-0.3c0.9-0.2,1.6-0.5,2.2-0.9c0.6-0.4,1.1-1,1.5-1.7c0.4-0.7,0.5-1.6,0.5-2.6c0-1.3-0.4-2.4-1.2-3.3    c-0.8-0.9-1.8-1.7-3.1-2.4c-1.2-0.7-2.6-1.3-4-2c-1.4-0.6-2.8-1.4-4-2.2c-1.2-0.8-2.3-1.8-3.1-3s-1.2-2.6-1.2-4.4    c0-1.4,0.3-2.7,0.9-3.8c0.6-1.1,1.4-2,2.3-2.7c0.9-0.7,2-1.2,3.1-1.6c1.2-0.3,2.3-0.5,3.4-0.5c0.5,0,1.1,0,1.7,0.1    c0.7,0.1,1.3,0.1,1.9,0.2c0.6,0.1,1.2,0.2,1.7,0.2c0.5,0.1,0.8,0.1,1,0.1c0.2,0,0.4,0,0.7,0c0.3,0,0.5,0,0.8-0.1    c0.3,0,0.6-0.1,0.8-0.2c0.3-0.1,0.5-0.2,0.7-0.3l0.5,0.4l-1.6,7.3l-0.3,0.2h-0.8c0-0.7-0.1-1.4-0.4-2.1c-0.3-0.7-0.7-1.3-1.3-1.9    c-0.6-0.6-1.3-1.1-2.1-1.4s-1.9-0.6-3.1-0.6c-0.8,0-1.6,0.1-2.4,0.3c-0.7,0.2-1.4,0.5-2,0.9c-0.6,0.4-1,0.9-1.4,1.5    c-0.4,0.6-0.5,1.3-0.5,2.2c0,1.4,0.4,2.6,1.3,3.5c0.8,0.9,1.9,1.7,3.1,2.4c1.3,0.7,2.6,1.4,4.1,2c1.5,0.6,2.8,1.3,4.1,2.1    c1.3,0.8,2.3,1.7,3.1,2.9c0.8,1.1,1.3,2.5,1.3,4.2c0,1.4-0.3,2.7-0.9,3.9c-0.6,1.1-1.4,2.1-2.4,2.9c-1,0.8-2.1,1.5-3.4,1.9    s-2.6,0.7-3.9,0.7c-0.3,0-0.8,0-1.5,0c-0.7,0-1.5-0.1-2.4-0.2c-0.9-0.1-1.9-0.4-3-0.7c-1.1-0.3-2.2-0.8-3.4-1.4L0,209.7z" fill="#734E8D"  /><path d="M41.7,218.3v-1.2l2.8-0.8c0.5-0.2,0.8-0.3,1-0.5c0.2-0.2,0.3-0.4,0.3-0.7c0-0.2,0-0.4-0.1-0.7    c-0.1-0.3-0.2-0.6-0.3-0.8l-2.7-8h-11l-2.7,8.1c-0.1,0.2-0.1,0.5-0.2,0.7s-0.1,0.5-0.1,0.7c0,0.3,0.1,0.5,0.2,0.8    c0.2,0.2,0.4,0.4,0.8,0.5l3.1,0.8v1.2H22.3v-1.1l1.7-0.6c0.8-0.3,1.3-0.7,1.6-1.2c0.3-0.5,0.5-1,0.8-1.5l10.2-27.5l3.9-0.5    l0.3,0.2l9.6,27.7c0.2,0.5,0.4,1,0.8,1.5c0.3,0.5,0.9,0.9,1.8,1.2l1.8,0.6v1.3H41.7z M37.3,189.4l-4.9,14.3H42L37.3,189.4z" fill="#734E8D"  /><path d="M86.4,216.7c-0.6,0.7-1.4,1.3-2.3,1.7c-0.9,0.4-1.8,0.6-2.6,0.6c-0.9,0-1.8-0.2-2.4-0.5    c-0.7-0.4-1.3-0.8-1.8-1.4c-0.5-0.6-0.9-1.3-1.3-2.1c-0.4-0.8-0.7-1.7-1-2.6c-0.4-1.3-0.9-2.6-1.5-3.8c-0.6-1.3-1.4-2.4-2.4-3.2    c-0.5-0.4-1.2-0.8-2-1c-0.8-0.3-2-0.4-3.5-0.4v9.6c0,0.5,0.1,1,0.2,1.4c0.1,0.4,0.3,0.8,0.7,1c0.3,0.3,0.8,0.5,1.3,0.6    c0.6,0.1,1.3,0.2,2.2,0.2l0.2,0.4l-0.2,1.3H57.3v-1.7c1.6,0,2.6-0.3,3.2-0.8c0.6-0.5,0.9-1.4,0.9-2.4v-22.1c0-1.1-0.3-1.9-0.9-2.4    c-0.6-0.5-1.6-0.8-3.2-0.8v-1.7H70c2.2,0,4,0.3,5.4,0.8c1.4,0.5,2.4,1.2,3.2,2.1c0.8,0.9,1.3,1.8,1.5,2.8c0.3,1,0.4,2.1,0.4,3.1    c0,0.7-0.1,1.5-0.4,2.3c-0.3,0.8-0.7,1.6-1.3,2.3c-0.6,0.7-1.4,1.4-2.4,2c-1,0.6-2.2,1-3.7,1.3v0.3c0.7,0.1,1.4,0.3,2,0.6    c0.6,0.3,1.1,0.8,1.6,1.3c0.5,0.5,0.9,1.1,1.3,1.8c0.4,0.7,0.7,1.3,1,2.1c0.3,0.9,0.7,1.7,1.1,2.6c0.4,0.8,0.8,1.5,1.2,2.2    c0.4,0.6,0.9,1.1,1.4,1.5s1.1,0.6,1.7,0.6c0.5,0,0.9,0,1.2-0.1c0.3-0.1,0.8-0.2,1.4-0.4l0.2,0.3L86.4,216.7z M65.7,201.9    c0.2,0,0.5,0,0.8,0c0.3,0,0.5,0,0.8,0c1.7,0,3.2-0.2,4.4-0.6s2.1-0.9,2.8-1.6c0.7-0.7,1.2-1.5,1.6-2.5s0.5-2,0.5-3.1    c0-0.8-0.1-1.6-0.3-2.3c-0.2-0.7-0.6-1.4-1.2-1.9c-0.5-0.5-1.3-1-2.1-1.3c-0.9-0.3-1.9-0.5-3.2-0.5c-1.5,0-2.5,0.3-3.1,0.8    c-0.5,0.6-0.8,1.3-0.8,2.4V201.9z" fill="#734E8D"  /><path d="M89.2,209.7l0.5-0.4l1.8-0.1c0,1.3,0.2,2.5,0.7,3.4c0.5,1,1.1,1.8,1.9,2.5c0.8,0.7,1.7,1.1,2.6,1.5    c1,0.3,2,0.5,3,0.5c1,0,1.9-0.1,2.7-0.3c0.9-0.2,1.6-0.5,2.2-0.9c0.6-0.4,1.1-1,1.5-1.7c0.4-0.7,0.5-1.6,0.5-2.6    c0-1.3-0.4-2.4-1.2-3.3c-0.8-0.9-1.8-1.7-3.1-2.4c-1.2-0.7-2.6-1.3-4-2c-1.4-0.6-2.8-1.4-4-2.2c-1.2-0.8-2.3-1.8-3.1-3    S90,196,90,194.3c0-1.4,0.3-2.7,0.9-3.8c0.6-1.1,1.4-2,2.3-2.7c0.9-0.7,2-1.2,3.1-1.6c1.2-0.3,2.3-0.5,3.4-0.5    c0.5,0,1.1,0,1.7,0.1c0.7,0.1,1.3,0.1,1.9,0.2c0.6,0.1,1.2,0.2,1.7,0.2c0.5,0.1,0.8,0.1,1,0.1c0.2,0,0.4,0,0.7,0s0.5,0,0.8-0.1    c0.3,0,0.6-0.1,0.8-0.2c0.3-0.1,0.5-0.2,0.7-0.3l0.5,0.4l-1.6,7.3l-0.3,0.2h-0.8c0-0.7-0.1-1.4-0.4-2.1c-0.3-0.7-0.7-1.3-1.3-1.9    c-0.6-0.6-1.3-1.1-2.1-1.4s-1.9-0.6-3.1-0.6c-0.8,0-1.6,0.1-2.4,0.3c-0.7,0.2-1.4,0.5-2,0.9c-0.6,0.4-1,0.9-1.4,1.5    c-0.4,0.6-0.5,1.3-0.5,2.2c0,1.4,0.4,2.6,1.3,3.5c0.8,0.9,1.9,1.7,3.1,2.4c1.3,0.7,2.6,1.4,4.1,2c1.5,0.6,2.8,1.3,4.1,2.1    c1.3,0.8,2.3,1.7,3.1,2.9c0.8,1.1,1.3,2.5,1.3,4.2c0,1.4-0.3,2.7-0.9,3.9c-0.6,1.1-1.4,2.1-2.4,2.9c-1,0.8-2.1,1.5-3.4,1.9    s-2.6,0.7-3.9,0.7c-0.3,0-0.8,0-1.5,0c-0.7,0-1.5-0.1-2.4-0.2c-0.9-0.1-1.9-0.4-3-0.7c-1.1-0.3-2.2-0.8-3.4-1.4L89.2,209.7z" fill="#734E8D"  /><path d="M114.8,207.7V205h14.5v2.7H114.8z" fill="#734E8D"  /><path d="M161.2,217.4c-0.4,0.2-1,0.5-1.8,0.6c-0.7,0.2-1.5,0.4-2.4,0.5c-0.9,0.2-1.7,0.3-2.6,0.3    c-0.9,0.1-1.6,0.1-2.3,0.1c-2.6,0-4.9-0.3-7.1-1c-2.2-0.7-4.1-1.7-5.8-3.1c-1.6-1.4-2.9-3.1-3.8-5.2c-0.9-2.1-1.4-4.5-1.4-7.3    s0.5-5.2,1.4-7.3c0.9-2.1,2.2-3.8,3.8-5.2c1.6-1.4,3.5-2.4,5.7-3.1c2.2-0.7,4.5-1,7.1-1c0.5,0,1.1,0,1.7,0.1    c0.7,0.1,1.3,0.1,2,0.2c0.7,0.1,1.3,0.2,1.9,0.2c0.6,0.1,1.1,0.1,1.5,0.1c0.6,0,1.2-0.1,1.6-0.2c0.4-0.1,0.7-0.3,0.9-0.4l0.4,0.4    l-1.6,7.3l-0.3,0.2h-0.6c-0.1-1-0.4-1.9-0.9-2.7c-0.5-0.7-1.1-1.4-1.9-1.8c-0.8-0.5-1.6-0.8-2.6-1.1c-0.9-0.2-1.9-0.3-3-0.3    c-1.8,0-3.4,0.3-4.9,1c-1.5,0.7-2.8,1.7-3.8,2.9c-1.1,1.3-1.9,2.8-2.5,4.6c-0.6,1.8-0.9,3.8-0.9,6.1c0,2.2,0.3,4.2,0.9,6    c0.6,1.8,1.4,3.3,2.5,4.6c1.1,1.2,2.4,2.2,3.9,2.9c1.5,0.7,3.2,1,5,1c0.8,0,1.6-0.1,2.6-0.2c0.9-0.1,1.9-0.4,2.9-0.8    c1-0.4,1.9-1,2.8-1.8c0.9-0.8,1.7-1.9,2.4-3.2l0.8,0.3l0.2,0.4L161.2,217.4z" fill="#734E8D"  /><path d="M176.9,218.9c-1.8,0-3.5-0.3-4.9-0.9c-1.5-0.6-2.7-1.4-3.7-2.5c-1-1.1-1.8-2.3-2.3-3.8    c-0.5-1.4-0.8-3-0.8-4.7c0-1.7,0.3-3.2,0.8-4.7c0.5-1.5,1.3-2.8,2.3-3.9c1-1.1,2.2-2,3.7-2.6c1.5-0.6,3.1-0.9,4.9-0.9    c1.8,0,3.5,0.3,4.9,0.9c1.5,0.6,2.7,1.5,3.7,2.6c1,1.1,1.8,2.4,2.3,3.9c0.5,1.5,0.8,3.1,0.8,4.7c0,1.7-0.3,3.3-0.8,4.7    c-0.5,1.4-1.3,2.7-2.3,3.8c-1,1.1-2.2,1.9-3.7,2.5C180.4,218.6,178.7,218.9,176.9,218.9z M169.7,207c0,1.4,0.2,2.8,0.5,4    c0.3,1.2,0.8,2.3,1.4,3.2c0.6,0.9,1.4,1.6,2.3,2.2c0.9,0.5,1.9,0.8,3.1,0.8c1.2,0,2.2-0.3,3.1-0.8c0.9-0.5,1.7-1.3,2.3-2.2    c0.6-0.9,1.1-2,1.4-3.2c0.3-1.2,0.5-2.6,0.5-4c0-1.4-0.2-2.7-0.5-4c-0.3-1.3-0.8-2.4-1.4-3.3c-0.6-0.9-1.4-1.7-2.3-2.2    c-0.9-0.5-1.9-0.8-3.1-0.8c-1.2,0-2.2,0.3-3.1,0.8c-0.9,0.5-1.7,1.3-2.3,2.2c-0.6,0.9-1.1,2-1.4,3.3    C169.8,204.2,169.7,205.6,169.7,207z" fill="#734E8D"  /><path d="M202.4,218.3l-11.8-27.4c-0.2-0.5-0.5-1-0.8-1.5c-0.4-0.5-0.9-0.9-1.7-1.2l-1.8-0.6v-1.3h13.3v1.2    l-2.9,0.8c-0.9,0.2-1.3,0.6-1.3,1.2c0,0.2,0,0.5,0.1,0.8c0.1,0.3,0.2,0.5,0.3,0.8l8,20.2l7.7-20.3c0.1-0.2,0.1-0.4,0.2-0.7    c0.1-0.3,0.1-0.5,0.1-0.6c0-0.3-0.1-0.6-0.2-0.8c-0.1-0.2-0.4-0.4-0.8-0.5l-3.1-0.8v-1.2h10.5v1.1l-1.7,0.6    c-0.7,0.3-1.2,0.7-1.6,1.1c-0.3,0.5-0.6,1-0.8,1.5l-11.3,27.5H202.4z" fill="#734E8D"  /><path d="M217.4,207.7V205h14.5v2.7H217.4z" fill="#734E8D"  /><path d="M232.6,218.3V216c1.5-0.9,3.2-1.9,5.2-3.1c1.9-1.2,3.8-2.6,5.7-4.1c0.9-0.8,1.8-1.6,2.5-2.5    c0.8-0.9,1.5-1.8,2.1-2.9c0.6-1,1.1-2.1,1.4-3.3c0.3-1.2,0.5-2.4,0.5-3.8c0-1.3-0.2-2.5-0.5-3.5c-0.3-1.1-0.8-2-1.4-2.8    c-0.6-0.8-1.4-1.4-2.3-1.8c-0.9-0.4-1.9-0.7-3-0.7c-0.8,0-1.5,0.1-2.1,0.2c-0.6,0.1-1.2,0.4-1.8,0.7l-0.3,0.4l-1,5.7l-0.4,0.3    c-0.4,0-0.8-0.1-1.2-0.2c-0.4-0.1-0.8-0.4-1.2-0.6c-0.4-0.3-0.7-0.6-0.9-1.1c-0.2-0.4-0.4-0.9-0.4-1.5c0-1,0.3-1.9,1-2.6    c0.6-0.7,1.4-1.3,2.4-1.7c1-0.4,2-0.8,3.1-1c1.1-0.2,2.2-0.3,3.1-0.3c2,0,3.7,0.3,5.1,0.9c1.4,0.6,2.6,1.4,3.5,2.3    c0.9,1,1.6,2.1,2,3.4c0.4,1.3,0.6,2.7,0.6,4.2c0,1.7-0.2,3.3-0.7,4.6c-0.5,1.4-1.1,2.6-1.9,3.7c-0.8,1.1-1.7,2.1-2.8,2.9    c-1.1,0.9-2.2,1.7-3.3,2.4c-1.1,0.8-2.2,1.5-3.4,2.2c-1.1,0.7-2.1,1.4-3.1,2.1v0.3h10.6c0.6,0,1.2,0,1.8-0.1s1.1-0.3,1.5-0.6    c0.5-0.3,0.9-0.8,1.3-1.4c0.4-0.6,0.8-1.4,1.2-2.4h1.1l0.1,0.3l-0.9,7.8H232.6z" fill="#734E8D"  /><path d="M274.5,218.3v-1.6c1.5,0,2.5-0.3,3-0.8c0.5-0.6,0.8-1.4,0.8-2.5v-13.7l-3.8-0.8v-1.2l7.5-2.6l0.4,0.3v18.1    c0,1.1,0.3,2,0.8,2.5c0.5,0.6,1.6,0.8,3.1,0.8l0.2,0.4l-0.2,1.2H274.5z M280.2,190.1c-0.8,0-1.5-0.3-2.1-0.9    c-0.6-0.6-0.9-1.3-0.9-2.1s0.3-1.5,0.9-2.1c0.6-0.6,1.3-0.9,2.1-0.9c0.8,0,1.5,0.3,2.1,0.9c0.6,0.6,0.9,1.3,0.9,2.1    s-0.3,1.5-0.9,2.1C281.7,189.8,281,190.1,280.2,190.1z" fill="#734E8D"  /><path d="M304.7,218.3v-1.6c1.3,0,2.1-0.3,2.6-0.8c0.5-0.6,0.7-1.4,0.7-2.5v-9.9c0-0.7-0.1-1.4-0.2-2.1    c-0.2-0.7-0.4-1.3-0.8-1.8c-0.4-0.5-0.9-0.9-1.6-1.3c-0.7-0.3-1.5-0.5-2.6-0.5c-0.4,0-0.8,0-1.3,0.1s-1,0.3-1.6,0.5    s-1.1,0.6-1.6,1.1c-0.5,0.5-1,1.1-1.3,1.8v11.9c0,1.1,0.3,2,0.8,2.5c0.5,0.6,1.5,0.8,3,0.8l0.2,0.4l-0.2,1.2h-11.6v-1.6    c1.5,0,2.5-0.3,3-0.8c0.5-0.6,0.8-1.4,0.8-2.5v-13.7l-3.8-0.8v-1.2l7.5-2.6l0.4,0.3v4.3h0.2c1.6-3.1,4.1-4.7,7.4-4.7    c2.5,0,4.3,0.7,5.6,2.1c1.2,1.4,1.9,3.3,1.9,5.6v10.6c0,1.1,0.3,2,0.9,2.5c0.6,0.6,1.5,0.8,2.9,0.8l0.2,0.4l-0.2,1.2H304.7z" fill="#734E8D"  /><path d="M318.6,218.3v-1.6c1.5,0,2.5-0.3,3-0.8c0.5-0.6,0.8-1.4,0.8-2.5v-15.8h-3.8v-1.1l3.8-0.9v-4.2    c0-1.5,0.3-2.9,0.8-4c0.5-1.1,1.2-2.1,2.1-2.8c0.8-0.7,1.8-1.3,2.8-1.7s2-0.6,2.9-0.6c0.9,0,1.7,0.1,2.4,0.3    c0.8,0.2,1.4,0.5,2,0.9c0.6,0.4,1,0.9,1.3,1.4c0.3,0.6,0.5,1.2,0.5,1.9c0,0.5-0.1,1-0.3,1.4c-0.2,0.4-0.5,0.7-0.8,1    c-0.3,0.3-0.6,0.5-0.9,0.6s-0.6,0.2-0.8,0.2l-0.3-0.3l-1.3-5.6l-0.3-0.2c-2.2,0-3.8,0.5-4.7,1.4c-1,0.9-1.5,2.1-1.5,3.6v6.7h7.7    l-0.4,1.7l-0.5,0.4h-6.8v15.8c0,0.5,0.1,1,0.2,1.5c0.1,0.4,0.4,0.8,0.8,1.1c0.4,0.3,1,0.5,1.7,0.6c0.7,0.1,1.7,0.2,2.9,0.2    l0.2,0.4l-0.2,1.2H318.6z" fill="#734E8D"  /><path d="M354.2,212.9c-0.9,1.9-2.2,3.4-3.8,4.4s-3.5,1.6-5.6,1.6c-1.4,0-2.8-0.2-4.2-0.7c-1.3-0.4-2.5-1.1-3.5-2.1    c-1-0.9-1.8-2.1-2.4-3.6c-0.6-1.5-0.9-3.2-0.9-5.3c0-2.2,0.4-4.1,1.1-5.6c0.7-1.6,1.6-2.8,2.7-3.8c1.1-1,2.3-1.7,3.6-2.2    c1.3-0.5,2.5-0.7,3.7-0.7c1.6,0,3,0.2,4.2,0.7c1.2,0.4,2.1,1,2.9,1.8c0.7,0.8,1.3,1.7,1.7,2.7c0.4,1,0.5,2.2,0.5,3.4h-16.3    c-0.1,0.4-0.1,0.8-0.1,1.2c0,0.4,0,0.8,0,1.3c0,1.8,0.3,3.3,1,4.5c0.6,1.2,1.4,2.1,2.3,2.8c0.9,0.7,1.9,1.2,2.9,1.4    c1,0.3,1.9,0.4,2.6,0.4c1.5,0,2.8-0.3,4.1-0.8s2.3-1.3,3.1-2.2l0.3,0.1L354.2,212.9z M349.5,201.9c0-1.8-0.4-3.1-1.3-3.9    c-0.9-0.8-2-1.2-3.4-1.2c-0.6,0-1.3,0.1-2,0.3c-0.7,0.2-1.4,0.5-2,0.9c-0.6,0.4-1.2,0.9-1.7,1.6c-0.5,0.6-0.8,1.4-1,2.4H349.5z" fill="#734E8D"  /><path d="M376.7,212.9c-0.9,1.9-2.2,3.4-3.8,4.4c-1.6,1-3.4,1.6-5.4,1.6c-1.4,0-2.7-0.2-4-0.7    c-1.3-0.4-2.4-1.1-3.5-2.1c-1-0.9-1.8-2.2-2.4-3.6c-0.6-1.5-0.9-3.2-0.9-5.3c0-2.2,0.4-4,1.1-5.6c0.7-1.6,1.6-2.8,2.7-3.8    c1.1-1,2.3-1.7,3.6-2.2s2.4-0.7,3.5-0.7c1.5,0,2.7,0.2,3.8,0.5c1.1,0.4,1.9,0.8,2.6,1.4c0.7,0.6,1.2,1.2,1.6,1.8    c0.3,0.7,0.5,1.3,0.5,2c0,1-0.3,1.8-0.9,2.4c-0.6,0.6-1.3,0.9-2.1,0.9l-0.4-0.3l-1.1-5.6l-0.1-0.1c-0.9-0.9-2.2-1.3-3.8-1.3    c-0.7,0-1.5,0.2-2.3,0.5c-0.8,0.3-1.6,0.9-2.3,1.6c-0.7,0.7-1.3,1.7-1.7,2.9c-0.5,1.2-0.7,2.7-0.7,4.4c0,1.8,0.3,3.3,0.8,4.5    c0.6,1.2,1.3,2.1,2.1,2.8c0.9,0.7,1.8,1.2,2.8,1.4c1,0.3,1.9,0.4,2.8,0.4c1.3,0,2.6-0.3,3.9-0.8c1.3-0.5,2.3-1.3,3-2.2l0.3,0.1    L376.7,212.9z" fill="#734E8D"  /><path d="M393.7,216.4c-0.9,0.8-1.8,1.4-2.9,1.8c-1,0.4-2,0.6-2.9,0.6c-0.7,0-1.4-0.1-2.1-0.3    c-0.7-0.2-1.3-0.5-1.8-1.1c-0.5-0.5-1-1.3-1.3-2.3c-0.3-1-0.5-2.3-0.5-4V198h-4.1v-0.9l7.4-7.2h0.7v5.8h7.7l-0.5,1.9l-0.5,0.4    h-6.7v13.1c0,1.2,0.1,2.1,0.3,2.8c0.2,0.7,0.5,1.2,0.9,1.6c0.4,0.4,0.8,0.6,1.3,0.7s1,0.1,1.5,0.1c0.5,0,1.1-0.1,1.8-0.2    c0.6-0.1,1.2-0.3,1.6-0.5l0.2,0.2L393.7,216.4z" fill="#734E8D"  /><path d="M396,218.3v-1.6c1.5,0,2.5-0.3,3-0.8c0.5-0.6,0.8-1.4,0.8-2.5v-13.7l-3.8-0.8v-1.2l7.5-2.6l0.4,0.3v18.1    c0,1.1,0.3,2,0.8,2.5c0.5,0.6,1.6,0.8,3.1,0.8l0.2,0.4l-0.2,1.2H396z M401.7,190.1c-0.8,0-1.5-0.3-2.1-0.9    c-0.6-0.6-0.9-1.3-0.9-2.1s0.3-1.5,0.9-2.1c0.6-0.6,1.3-0.9,2.1-0.9c0.8,0,1.5,0.3,2.1,0.9c0.6,0.6,0.9,1.3,0.9,2.1    s-0.3,1.5-0.9,2.1C403.2,189.8,402.5,190.1,401.7,190.1z" fill="#734E8D"  /><path d="M420.8,218.9c-1.8,0-3.5-0.3-4.9-0.9c-1.5-0.6-2.7-1.4-3.7-2.5c-1-1.1-1.8-2.3-2.3-3.8    c-0.5-1.4-0.8-3-0.8-4.7c0-1.7,0.3-3.2,0.8-4.7c0.5-1.5,1.3-2.8,2.3-3.9c1-1.1,2.2-2,3.7-2.6c1.5-0.6,3.1-0.9,4.9-0.9    c1.8,0,3.5,0.3,4.9,0.9c1.5,0.6,2.7,1.5,3.7,2.6c1,1.1,1.8,2.4,2.3,3.9c0.5,1.5,0.8,3.1,0.8,4.7c0,1.7-0.3,3.3-0.8,4.7    c-0.5,1.4-1.3,2.7-2.3,3.8c-1,1.1-2.2,1.9-3.7,2.5C424.3,218.6,422.7,218.9,420.8,218.9z M413.6,207c0,1.4,0.2,2.8,0.5,4    c0.3,1.2,0.8,2.3,1.4,3.2c0.6,0.9,1.4,1.6,2.3,2.2c0.9,0.5,1.9,0.8,3.1,0.8c1.2,0,2.2-0.3,3.1-0.8c0.9-0.5,1.7-1.3,2.3-2.2    c0.6-0.9,1.1-2,1.4-3.2c0.3-1.2,0.5-2.6,0.5-4c0-1.4-0.2-2.7-0.5-4c-0.3-1.3-0.8-2.4-1.4-3.3c-0.6-0.9-1.4-1.7-2.3-2.2    c-0.9-0.5-1.9-0.8-3.1-0.8c-1.2,0-2.2,0.3-3.1,0.8c-0.9,0.5-1.7,1.3-2.3,2.2c-0.6,0.9-1.1,2-1.4,3.3    C413.8,204.2,413.6,205.6,413.6,207z" fill="#734E8D"  /><path d="M449.8,218.3v-1.6c1.3,0,2.1-0.3,2.6-0.8c0.5-0.6,0.7-1.4,0.7-2.5v-9.9c0-0.7-0.1-1.4-0.2-2.1    c-0.2-0.7-0.4-1.3-0.8-1.8c-0.4-0.5-0.9-0.9-1.6-1.3c-0.7-0.3-1.5-0.5-2.6-0.5c-0.4,0-0.8,0-1.3,0.1s-1,0.3-1.6,0.5    s-1.1,0.6-1.6,1.1c-0.5,0.5-1,1.1-1.3,1.8v11.9c0,1.1,0.3,2,0.8,2.5c0.5,0.6,1.5,0.8,3,0.8l0.2,0.4l-0.2,1.2h-11.6v-1.6    c1.5,0,2.5-0.3,3-0.8c0.5-0.6,0.8-1.4,0.8-2.5v-13.7l-3.8-0.8v-1.2l7.5-2.6l0.4,0.3v4.3h0.2c1.6-3.1,4.1-4.7,7.4-4.7    c2.5,0,4.3,0.7,5.6,2.1c1.2,1.4,1.9,3.3,1.9,5.6v10.6c0,1.1,0.3,2,0.9,2.5c0.6,0.6,1.5,0.8,2.9,0.8l0.2,0.4l-0.2,1.2H449.8z" fill="#734E8D"  /><path d="M478.4,218.3v-1.6c1.5,0,2.5-0.3,3-0.8c0.5-0.6,0.8-1.4,0.8-2.5v-13.7l-3.8-0.8v-1.2l7.5-2.6l0.4,0.3v18.1    c0,1.1,0.3,2,0.8,2.5c0.5,0.6,1.6,0.8,3.1,0.8l0.2,0.4l-0.2,1.2H478.4z M484.1,190.1c-0.8,0-1.5-0.3-2.1-0.9    c-0.6-0.6-0.9-1.3-0.9-2.1s0.3-1.5,0.9-2.1c0.6-0.6,1.3-0.9,2.1-0.9c0.8,0,1.5,0.3,2.1,0.9c0.6,0.6,0.9,1.3,0.9,2.1    s-0.3,1.5-0.9,2.1C485.6,189.8,484.9,190.1,484.1,190.1z" fill="#734E8D"  /><path d="M508.5,218.3v-1.6c1.3,0,2.1-0.3,2.6-0.8c0.5-0.6,0.7-1.4,0.7-2.5v-9.9c0-0.7-0.1-1.4-0.2-2.1    s-0.4-1.3-0.8-1.8c-0.4-0.5-0.9-0.9-1.6-1.3c-0.7-0.3-1.5-0.5-2.6-0.5c-0.4,0-0.8,0-1.3,0.1s-1,0.3-1.6,0.5    c-0.5,0.3-1.1,0.6-1.6,1.1c-0.5,0.5-1,1.1-1.3,1.8v11.9c0,1.1,0.3,2,0.8,2.5c0.5,0.6,1.5,0.8,3,0.8l0.2,0.4l-0.2,1.2H493v-1.6    c1.5,0,2.5-0.3,3-0.8c0.5-0.6,0.8-1.4,0.8-2.5v-13.7l-3.8-0.8v-1.2l7.5-2.6l0.4,0.3v4.3h0.2c1.6-3.1,4.1-4.7,7.4-4.7    c2.5,0,4.3,0.7,5.6,2.1c1.2,1.4,1.9,3.3,1.9,5.6v10.6c0,1.1,0.3,2,0.9,2.5c0.6,0.6,1.5,0.8,2.9,0.8l0.2,0.4l-0.2,1.2H508.5z" fill="#734E8D"  /><path d="M545.4,218.3v-1.6c1.3,0,2.1-0.3,2.6-0.8c0.5-0.6,0.7-1.4,0.7-2.5v-9.9c0-0.7-0.1-1.4-0.2-2.1    s-0.4-1.3-0.8-1.8c-0.4-0.5-0.9-0.9-1.6-1.3c-0.7-0.3-1.5-0.5-2.6-0.5c-0.4,0-0.8,0-1.3,0.1c-0.5,0.1-1,0.3-1.6,0.5    c-0.5,0.3-1.1,0.6-1.6,1.1c-0.5,0.5-1,1.1-1.3,1.8v11.9c0,1.1,0.3,2,0.8,2.5c0.5,0.6,1.5,0.8,3,0.8l0.2,0.4l-0.2,1.2h-11.6v-1.6    c1.5,0,2.5-0.3,3-0.8c0.5-0.6,0.8-1.4,0.8-2.5v-13.7l-3.8-0.8v-1.2l7.5-2.6l0.4,0.3v4.3h0.2c1.6-3.1,4.1-4.7,7.4-4.7    c2.5,0,4.3,0.7,5.6,2.1c1.2,1.4,1.9,3.3,1.9,5.6v10.6c0,1.1,0.3,2,0.9,2.5c0.6,0.6,1.5,0.8,2.9,0.8l0.2,0.4l-0.2,1.2H545.4z" fill="#734E8D"  /><path d="M578.3,212.9c-0.9,1.9-2.2,3.4-3.8,4.4s-3.5,1.6-5.6,1.6c-1.4,0-2.8-0.2-4.2-0.7c-1.3-0.4-2.5-1.1-3.5-2.1    c-1-0.9-1.8-2.1-2.4-3.6c-0.6-1.5-0.9-3.2-0.9-5.3c0-2.2,0.4-4.1,1.1-5.6c0.7-1.6,1.6-2.8,2.7-3.8c1.1-1,2.3-1.7,3.6-2.2    c1.3-0.5,2.5-0.7,3.7-0.7c1.6,0,3,0.2,4.2,0.7c1.2,0.4,2.1,1,2.9,1.8c0.7,0.8,1.3,1.7,1.7,2.7c0.4,1,0.5,2.2,0.5,3.4H562    c-0.1,0.4-0.1,0.8-0.1,1.2c0,0.4,0,0.8,0,1.3c0,1.8,0.3,3.3,1,4.5c0.6,1.2,1.4,2.1,2.3,2.8c0.9,0.7,1.9,1.2,2.9,1.4    c1,0.3,1.9,0.4,2.6,0.4c1.5,0,2.8-0.3,4.1-0.8s2.3-1.3,3.1-2.2l0.3,0.1L578.3,212.9z M573.7,201.9c0-1.8-0.4-3.1-1.3-3.9    c-0.9-0.8-2-1.2-3.4-1.2c-0.6,0-1.3,0.1-2,0.3c-0.7,0.2-1.4,0.5-2,0.9c-0.6,0.4-1.2,0.9-1.7,1.6c-0.5,0.6-0.8,1.4-1,2.4H573.7z" fill="#734E8D"  /><path d="M592.5,218.9c-1.8,0-3.5-0.3-4.9-0.9c-1.5-0.6-2.7-1.4-3.7-2.5s-1.8-2.3-2.3-3.8c-0.5-1.4-0.8-3-0.8-4.7    c0-1.7,0.3-3.2,0.8-4.7c0.5-1.5,1.3-2.8,2.3-3.9c1-1.1,2.2-2,3.7-2.6c1.5-0.6,3.1-0.9,4.9-0.9s3.5,0.3,4.9,0.9    c1.5,0.6,2.7,1.5,3.7,2.6c1,1.1,1.8,2.4,2.3,3.9c0.5,1.5,0.8,3.1,0.8,4.7c0,1.7-0.3,3.3-0.8,4.7c-0.5,1.4-1.3,2.7-2.3,3.8    s-2.2,1.9-3.7,2.5C596,218.6,594.3,218.9,592.5,218.9z M585.3,207c0,1.4,0.2,2.8,0.5,4c0.3,1.2,0.8,2.3,1.4,3.2    c0.6,0.9,1.4,1.6,2.3,2.2c0.9,0.5,1.9,0.8,3.1,0.8s2.2-0.3,3.1-0.8c0.9-0.5,1.7-1.3,2.3-2.2c0.6-0.9,1.1-2,1.4-3.2    c0.3-1.2,0.5-2.6,0.5-4c0-1.4-0.2-2.7-0.5-4c-0.3-1.3-0.8-2.4-1.4-3.3c-0.6-0.9-1.4-1.7-2.3-2.2c-0.9-0.5-1.9-0.8-3.1-0.8    s-2.2,0.3-3.1,0.8c-0.9,0.5-1.7,1.3-2.3,2.2c-0.6,0.9-1.1,2-1.4,3.3C585.4,204.2,585.3,205.6,585.3,207z" fill="#734E8D"  /><path d="M621.4,218.3v-1.6c1.3,0,2.1-0.3,2.6-0.8c0.5-0.6,0.7-1.4,0.7-2.5v-9.9c0-0.7-0.1-1.4-0.2-2.1    c-0.2-0.7-0.4-1.3-0.8-1.8c-0.4-0.5-0.9-0.9-1.6-1.3c-0.7-0.3-1.5-0.5-2.6-0.5c-0.4,0-0.8,0-1.3,0.1c-0.5,0.1-1,0.3-1.6,0.5    c-0.5,0.3-1.1,0.6-1.6,1.1c-0.5,0.5-1,1.1-1.3,1.8v11.9c0,1.1,0.3,2,0.8,2.5c0.5,0.6,1.5,0.8,3,0.8l0.2,0.4l-0.2,1.2h-11.6v-1.6    c1.5,0,2.5-0.3,3-0.8c0.5-0.6,0.8-1.4,0.8-2.5v-13.7l-3.8-0.8v-1.2l7.5-2.6l0.4,0.3v4.3h0.2c1.6-3.1,4.1-4.7,7.4-4.7    c2.5,0,4.3,0.7,5.6,2.1c1.2,1.4,1.9,3.3,1.9,5.6v10.6c0,1.1,0.3,2,0.9,2.5c0.6,0.6,1.5,0.8,2.9,0.8l0.2,0.4l-0.2,1.2H621.4z" fill="#734E8D"  /><path d="M655,217.3c-0.6,0.6-1.3,1.1-2,1.3c-0.7,0.2-1.3,0.3-1.8,0.3c-0.6,0-1.2-0.1-1.7-0.4    c-0.5-0.3-0.9-0.6-1.2-1c-0.3-0.4-0.6-0.9-0.7-1.4c-0.2-0.5-0.2-1-0.2-1.6h-0.2c0,0.2-0.2,0.5-0.4,1c-0.2,0.5-0.5,1-1,1.5    c-0.5,0.5-1.1,1-1.8,1.3c-0.8,0.4-1.7,0.6-2.8,0.6c-1.9,0-3.4-0.5-4.5-1.5c-1.1-1-1.6-2.5-1.6-4.3c0-1,0.2-1.9,0.6-2.7    c0.4-0.7,1-1.4,1.7-1.8c0.7-0.5,1.5-0.9,2.4-1.2c0.9-0.3,1.8-0.5,2.7-0.7c0.9-0.2,1.8-0.2,2.6-0.3c0.9,0,1.6,0,2.2,0v-5    c0-1.4-0.5-2.5-1.6-3.3c-1-0.8-2.8-1.3-5.2-1.3l-0.3,0.2l-1.4,5.4l-0.3,0.3c-0.2,0-0.4-0.1-0.7-0.2c-0.3-0.1-0.6-0.3-0.9-0.5    c-0.3-0.2-0.5-0.5-0.8-0.9c-0.2-0.4-0.3-0.8-0.3-1.3c0-0.8,0.2-1.4,0.7-2.1c0.5-0.6,1.1-1.1,1.8-1.5c0.8-0.4,1.6-0.7,2.6-0.9    c1-0.2,1.9-0.3,2.9-0.3c2.6,0,4.4,0.6,5.6,1.7c1.2,1.1,1.8,2.8,1.8,4.9v11.4c0,1.4,0.3,2.3,1,2.8c0.7,0.5,1.6,0.8,2.8,0.8l0.1,0.3    L655,217.3z M647.3,207.5c-0.7,0-1.5,0.1-2.4,0.2c-0.9,0.1-1.8,0.4-2.6,0.8c-0.8,0.4-1.6,0.9-2.1,1.6c-0.6,0.7-0.9,1.6-0.9,2.7    c0,0.7,0.1,1.2,0.3,1.6c0.2,0.4,0.5,0.7,0.9,1c0.4,0.2,0.8,0.4,1.2,0.5c0.4,0.1,0.8,0.1,1.2,0.1c0.9,0,1.8-0.3,2.7-0.9    c0.8-0.6,1.5-1.5,1.8-2.5V207.5z" fill="#734E8D"  /><path d="M670.2,216.4c-0.9,0.8-1.8,1.4-2.9,1.8c-1,0.4-2,0.6-2.9,0.6c-0.7,0-1.4-0.1-2.1-0.3    c-0.7-0.2-1.3-0.5-1.8-1.1c-0.5-0.5-1-1.3-1.3-2.3c-0.3-1-0.5-2.3-0.5-4V198h-4.1v-0.9l7.4-7.2h0.7v5.8h7.7l-0.5,1.9l-0.5,0.4    h-6.7v13.1c0,1.2,0.1,2.1,0.3,2.8c0.2,0.7,0.5,1.2,0.9,1.6c0.4,0.4,0.8,0.6,1.3,0.7c0.5,0.1,1,0.1,1.5,0.1c0.5,0,1.1-0.1,1.8-0.2    c0.6-0.1,1.2-0.3,1.6-0.5l0.2,0.2L670.2,216.4z" fill="#734E8D"  /><path d="M691.8,212.9c-0.9,1.9-2.2,3.4-3.8,4.4c-1.6,1-3.5,1.6-5.6,1.6c-1.4,0-2.8-0.2-4.2-0.7    c-1.3-0.4-2.5-1.1-3.5-2.1c-1-0.9-1.8-2.1-2.4-3.6c-0.6-1.5-0.9-3.2-0.9-5.3c0-2.2,0.4-4.1,1.1-5.6c0.7-1.6,1.6-2.8,2.7-3.8    c1.1-1,2.3-1.7,3.6-2.2c1.3-0.5,2.5-0.7,3.7-0.7c1.6,0,3.1,0.2,4.2,0.7c1.2,0.4,2.1,1,2.9,1.8c0.7,0.8,1.3,1.7,1.7,2.7    c0.4,1,0.5,2.2,0.5,3.4h-16.3c-0.1,0.4-0.1,0.8-0.1,1.2c0,0.4,0,0.8,0,1.3c0,1.8,0.3,3.3,1,4.5c0.6,1.2,1.4,2.1,2.3,2.8    c0.9,0.7,1.9,1.2,2.9,1.4c1,0.3,1.9,0.4,2.6,0.4c1.5,0,2.8-0.3,4.1-0.8s2.3-1.3,3.1-2.2l0.3,0.1L691.8,212.9z M687.2,201.9    c0-1.8-0.4-3.1-1.3-3.9c-0.9-0.8-2-1.2-3.4-1.2c-0.6,0-1.3,0.1-2,0.3c-0.7,0.2-1.4,0.5-2,0.9c-0.6,0.4-1.2,0.9-1.7,1.6    c-0.5,0.6-0.8,1.4-1,2.4H687.2z" fill="#734E8D"  /><path d="M694.5,211.4l0.4-0.3l1.4-0.1c0.1,0.8,0.3,1.6,0.6,2.3c0.3,0.7,0.8,1.4,1.3,1.9c0.6,0.6,1.2,1,2,1.3    c0.8,0.3,1.6,0.5,2.6,0.5c0.5,0,1-0.1,1.5-0.2c0.5-0.1,1-0.4,1.4-0.7c0.4-0.3,0.8-0.7,1-1.2c0.3-0.5,0.4-1.1,0.4-1.8    c0-0.8-0.3-1.5-0.9-2.1c-0.6-0.6-1.3-1.1-2.2-1.6s-1.8-0.9-2.8-1.4c-1-0.4-2-1-2.8-1.6s-1.6-1.3-2.2-2.2c-0.6-0.8-0.9-1.9-0.9-3.1    c0-1.1,0.2-2,0.7-2.8c0.5-0.8,1.1-1.4,1.8-2c0.7-0.5,1.5-0.9,2.4-1.1c0.9-0.2,1.8-0.4,2.6-0.4c0.9,0,1.7,0.1,2.5,0.2    c0.7,0.2,1.5,0.3,2.2,0.3c0.9,0,1.6-0.2,2.3-0.5l0.5,0.4l-0.9,6.2l-0.5,0.2l-1,0.1c0-0.6-0.1-1.3-0.3-1.9    c-0.2-0.6-0.5-1.2-0.9-1.7c-0.4-0.5-1-0.9-1.7-1.2c-0.7-0.3-1.6-0.5-2.6-0.5c-0.4,0-0.8,0.1-1.2,0.2c-0.4,0.1-0.8,0.3-1.2,0.6    c-0.4,0.3-0.7,0.6-0.9,1c-0.2,0.4-0.3,1-0.3,1.6c0,0.9,0.3,1.7,0.9,2.3c0.6,0.6,1.3,1.1,2.2,1.6c0.9,0.5,1.8,0.9,2.9,1.4    c1,0.4,2,0.9,2.9,1.5c0.9,0.6,1.6,1.3,2.2,2.1c0.6,0.8,0.9,1.9,0.9,3.1c0,1-0.2,2-0.7,2.8c-0.5,0.8-1.1,1.6-1.8,2.2    c-0.8,0.6-1.7,1.1-2.6,1.4c-1,0.3-2,0.5-3.1,0.5c-0.2,0-0.5,0-1,0s-1.1-0.1-1.9-0.2c-0.7-0.1-1.5-0.3-2.4-0.5    c-0.9-0.2-1.7-0.5-2.6-0.9L694.5,211.4z" fill="#734E8D"  /><path d="M740.3,218.9c-1.8,0-3.5-0.3-4.9-0.9c-1.5-0.6-2.7-1.4-3.7-2.5c-1-1.1-1.8-2.3-2.3-3.8    c-0.5-1.4-0.8-3-0.8-4.7c0-1.7,0.3-3.2,0.8-4.7c0.5-1.5,1.3-2.8,2.3-3.9c1-1.1,2.2-2,3.7-2.6c1.5-0.6,3.1-0.9,4.9-0.9    c1.8,0,3.5,0.3,4.9,0.9c1.5,0.6,2.7,1.5,3.7,2.6c1,1.1,1.8,2.4,2.3,3.9c0.5,1.5,0.8,3.1,0.8,4.7c0,1.7-0.3,3.3-0.8,4.7    c-0.5,1.4-1.3,2.7-2.3,3.8c-1,1.1-2.2,1.9-3.7,2.5C743.7,218.6,742.1,218.9,740.3,218.9z M733.1,207c0,1.4,0.2,2.8,0.5,4    c0.3,1.2,0.8,2.3,1.4,3.2c0.6,0.9,1.4,1.6,2.3,2.2c0.9,0.5,1.9,0.8,3.1,0.8c1.2,0,2.2-0.3,3.1-0.8c0.9-0.5,1.6-1.3,2.3-2.2    c0.6-0.9,1.1-2,1.4-3.2c0.3-1.2,0.5-2.6,0.5-4c0-1.4-0.2-2.7-0.5-4c-0.3-1.3-0.8-2.4-1.4-3.3c-0.6-0.9-1.4-1.7-2.3-2.2    c-0.9-0.5-1.9-0.8-3.1-0.8c-1.2,0-2.2,0.3-3.1,0.8c-0.9,0.5-1.6,1.3-2.3,2.2c-0.6,0.9-1.1,2-1.4,3.3    C733.2,204.2,733.1,205.6,733.1,207z" fill="#734E8D"  /><path d="M753.6,218.3v-1.6c1.5,0,2.5-0.3,3-0.8c0.5-0.6,0.8-1.4,0.8-2.5v-13.7l-3.8-0.8v-1.2l7.5-2.6l0.4,0.3    l-0.3,6h0.3c0.2-0.8,0.6-1.5,1-2.3c0.4-0.8,1-1.4,1.5-2c0.6-0.6,1.2-1.1,2-1.5c0.7-0.4,1.5-0.6,2.3-0.6c1.3,0,2.4,0.4,3,1.1    c0.7,0.7,1,1.6,1,2.6c0,0.8-0.2,1.5-0.8,2.3c-0.5,0.8-1.2,1.3-2.2,1.6l-0.3-0.2l-1.4-3.9l-0.3-0.2c-0.5,0-1.1,0.1-1.6,0.3    c-0.6,0.2-1.1,0.5-1.7,0.9c-0.5,0.4-1.1,0.9-1.5,1.4c-0.5,0.5-0.9,1.1-1.2,1.8v10.7c0,0.5,0.1,1,0.2,1.5c0.1,0.4,0.4,0.8,0.8,1.1    c0.4,0.3,0.9,0.5,1.6,0.6c0.7,0.1,1.6,0.2,2.8,0.2l0.2,0.4l-0.2,1.2H753.6z" fill="#734E8D"  /><path d="M788.6,218.3v-1.6c1.5,0,2.5-0.3,3-0.8c0.5-0.6,0.8-1.4,0.8-2.5v-13.7l-3.8-0.8v-1.2l7.5-2.6l0.4,0.3v18.1    c0,1.1,0.3,2,0.8,2.5c0.5,0.6,1.6,0.8,3.1,0.8l0.2,0.4l-0.2,1.2H788.6z M794.3,190.1c-0.8,0-1.5-0.3-2.1-0.9    c-0.6-0.6-0.9-1.3-0.9-2.1s0.3-1.5,0.9-2.1c0.6-0.6,1.3-0.9,2.1-0.9c0.8,0,1.5,0.3,2.1,0.9c0.6,0.6,0.9,1.3,0.9,2.1    s-0.3,1.5-0.9,2.1C795.8,189.8,795.1,190.1,794.3,190.1z" fill="#734E8D"  /><path d="M818.8,218.3v-1.6c1.3,0,2.1-0.3,2.6-0.8c0.5-0.6,0.7-1.4,0.7-2.5v-9.9c0-0.7-0.1-1.4-0.2-2.1    c-0.2-0.7-0.4-1.3-0.8-1.8c-0.4-0.5-0.9-0.9-1.6-1.3c-0.7-0.3-1.5-0.5-2.6-0.5c-0.4,0-0.8,0-1.3,0.1c-0.5,0.1-1,0.3-1.6,0.5    c-0.5,0.3-1.1,0.6-1.6,1.1c-0.5,0.5-1,1.1-1.3,1.8v11.9c0,1.1,0.3,2,0.8,2.5c0.5,0.6,1.5,0.8,3,0.8l0.2,0.4l-0.2,1.2h-11.6v-1.6    c1.5,0,2.5-0.3,3-0.8c0.5-0.6,0.8-1.4,0.8-2.5v-13.7l-3.8-0.8v-1.2l7.5-2.6l0.4,0.3v4.3h0.2c1.6-3.1,4.1-4.7,7.4-4.7    c2.5,0,4.3,0.7,5.6,2.1c1.2,1.4,1.9,3.3,1.9,5.6v10.6c0,1.1,0.3,2,0.9,2.5c0.6,0.6,1.5,0.8,2.9,0.8l0.2,0.4l-0.2,1.2H818.8z" fill="#734E8D"  /><path d="M47.8,283.3v-1.6c1.2,0,2-0.2,2.5-0.8c0.5-0.5,0.8-1.4,0.8-2.7v-26.8l-3.8-0.8v-1.2l7.5-2.6l0.4,0.3v3.9    h0.2c0.5-0.9,1.1-1.6,1.8-2.1c0.7-0.5,1.3-1,2-1.3c0.7-0.3,1.3-0.5,1.8-0.6c0.6-0.1,1.1-0.2,1.5-0.2c1.7,0,3.2,0.3,4.4,1    c1.2,0.7,2.2,1.5,3,2.6c0.8,1.1,1.3,2.3,1.6,3.6c0.3,1.4,0.5,2.7,0.5,4.1c0,1.7-0.2,3.4-0.7,4.9c-0.5,1.5-1.2,2.9-2.1,4    s-2.1,2-3.5,2.7s-3,1-4.7,1c-0.2,0-0.4,0-0.8,0c-0.4,0-0.8-0.1-1.4-0.2c-0.5-0.1-1.1-0.3-1.7-0.5c-0.6-0.2-1.2-0.6-1.8-1v9.5    c0,0.6,0.1,1.2,0.2,1.6c0.1,0.4,0.4,0.8,0.8,1c0.4,0.3,0.9,0.4,1.6,0.6c0.7,0.1,1.6,0.2,2.8,0.2l0.2,0.4l-0.2,1.2H47.8z     M55.1,264.7c0.4,1.4,1.2,2.4,2.3,3.1c1.1,0.7,2.3,1.1,3.7,1.1c1,0,2-0.2,2.8-0.7c0.8-0.5,1.5-1.2,2.1-2c0.6-0.9,1-1.9,1.3-3.1    c0.3-1.2,0.4-2.4,0.4-3.8c0-1.3-0.1-2.6-0.4-3.8c-0.3-1.2-0.7-2.2-1.3-3.1c-0.6-0.9-1.3-1.6-2.2-2.1s-2-0.8-3.2-0.8    c-0.4,0-0.8,0.1-1.3,0.2c-0.5,0.1-1,0.3-1.5,0.5c-0.5,0.2-1,0.6-1.5,1c-0.5,0.4-0.9,0.9-1.2,1.6V264.7z" fill="#734E8D"  /><path d="M73.7,270v-1.6c1.5,0,2.5-0.3,3-0.8c0.5-0.6,0.8-1.4,0.8-2.5v-13.7l-3.8-0.8v-1.2l7.5-2.6l0.4,0.3l-0.3,6    h0.3c0.2-0.8,0.6-1.5,1-2.3s1-1.4,1.5-2c0.6-0.6,1.2-1.1,2-1.5c0.7-0.4,1.5-0.6,2.3-0.6c1.3,0,2.4,0.4,3,1.1c0.7,0.7,1,1.6,1,2.6    c0,0.8-0.3,1.5-0.8,2.3c-0.5,0.8-1.2,1.3-2.2,1.6l-0.3-0.2l-1.4-3.9l-0.3-0.2c-0.5,0-1.1,0.1-1.6,0.3c-0.6,0.2-1.1,0.5-1.7,0.9    c-0.5,0.4-1.1,0.9-1.5,1.4c-0.5,0.5-0.9,1.1-1.2,1.8v10.7c0,0.5,0.1,1,0.2,1.5c0.1,0.4,0.4,0.8,0.8,1.1c0.4,0.3,0.9,0.5,1.6,0.6    c0.7,0.1,1.6,0.2,2.8,0.2l0.2,0.4l-0.2,1.2H73.7z" fill="#734E8D"  /><path d="M114.2,264.6c-0.9,1.9-2.2,3.4-3.8,4.4c-1.6,1-3.5,1.6-5.6,1.6c-1.4,0-2.8-0.2-4.2-0.7    c-1.3-0.4-2.5-1.1-3.5-2.1c-1-0.9-1.8-2.1-2.4-3.6c-0.6-1.5-0.9-3.2-0.9-5.3c0-2.2,0.4-4.1,1.1-5.6c0.7-1.6,1.6-2.8,2.7-3.8    c1.1-1,2.3-1.7,3.6-2.2c1.3-0.5,2.5-0.7,3.7-0.7c1.6,0,3,0.2,4.2,0.7c1.2,0.4,2.1,1,2.9,1.8c0.7,0.8,1.3,1.7,1.7,2.7    c0.4,1,0.5,2.2,0.5,3.4H97.8c-0.1,0.4-0.1,0.8-0.1,1.2c0,0.4,0,0.8,0,1.3c0,1.8,0.3,3.3,1,4.5c0.6,1.2,1.4,2.1,2.3,2.8    c0.9,0.7,1.9,1.2,2.9,1.4c1,0.3,1.9,0.4,2.6,0.4c1.5,0,2.8-0.3,4.1-0.8c1.3-0.5,2.3-1.3,3.1-2.2l0.3,0.1L114.2,264.6z     M109.5,253.6c0-1.8-0.4-3.1-1.3-3.9c-0.9-0.8-2-1.2-3.4-1.2c-0.6,0-1.3,0.1-2,0.3c-0.7,0.2-1.4,0.5-2,0.9    c-0.6,0.4-1.2,0.9-1.7,1.6c-0.5,0.6-0.8,1.4-1,2.4H109.5z" fill="#734E8D"  /><path d="M120.2,271.3c-0.4-0.2-0.7-0.4-1.1-0.6c-0.4-0.3-0.8-0.6-1.1-0.9c-0.3-0.3-0.6-0.8-0.8-1.2    c-0.2-0.5-0.3-1-0.3-1.6c0-0.7,0.2-1.3,0.6-1.8c0.4-0.5,0.9-1,1.4-1.4c0.4-0.4,0.9-0.7,1.3-1s0.9-0.7,1.3-1.1v-0.2    c-1.3-0.6-2.3-1.5-3-2.6c-0.7-1.2-1.1-2.5-1.1-4.1c0-1.3,0.3-2.5,0.9-3.5c0.6-1,1.3-1.8,2.2-2.5c0.9-0.7,1.9-1.1,3-1.5    c1.1-0.3,2.2-0.5,3.3-0.5c1.1,0,2.1,0.1,3.1,0.4c1,0.3,2,0.7,2.9,1.2l6.2-1.6l0.3,0.3l-0.4,3l-4.2-0.3l-0.1,0.1    c0.5,0.6,0.9,1.3,1.2,2.1c0.3,0.8,0.4,1.7,0.4,2.7c0,1.3-0.3,2.4-0.8,3.4c-0.5,1-1.2,1.8-2.1,2.5c-0.9,0.7-1.9,1.2-3,1.5    c-1.1,0.4-2.3,0.5-3.5,0.5c-0.5,0-1.2-0.1-1.9-0.2c-0.8-0.1-1.5-0.3-2.1-0.5c-0.5,0.2-1,0.7-1.5,1.3c-0.5,0.6-0.7,1.2-0.7,1.8    c0,0.6,0.1,1.1,0.4,1.5c0.3,0.4,0.7,0.7,1.2,0.9c0.5,0.2,1.1,0.4,1.8,0.4c0.7,0.1,1.4,0.1,2.2,0.1c1.4,0,2.8,0.1,4.3,0.2    c1.4,0.1,2.8,0.4,3.9,0.8c1.2,0.4,2.1,1.1,2.9,1.9c0.7,0.8,1.1,2,1.1,3.4c0,1.2-0.3,2.4-0.9,3.5c-0.6,1.1-1.5,2.1-2.6,2.9    c-1.1,0.8-2.4,1.5-3.9,2s-3.2,0.8-5,0.8c-1.3,0-2.6-0.1-3.9-0.4c-1.3-0.3-2.4-0.7-3.5-1.3c-1-0.5-1.8-1.2-2.5-2    c-0.6-0.8-1-1.7-1-2.8c0-0.8,0.2-1.5,0.5-2.1c0.3-0.5,0.7-1,1.2-1.4c0.5-0.4,1-0.8,1.6-1.1c0.6-0.3,1.2-0.6,1.8-1V271.3z     M121.5,271.7c-0.2,0.1-0.5,0.3-0.8,0.5c-0.3,0.2-0.5,0.5-0.8,0.9c-0.2,0.4-0.4,0.8-0.6,1.3c-0.2,0.5-0.2,1.1-0.2,1.7    c0,0.9,0.3,1.7,0.8,2.4c0.5,0.6,1.2,1.1,2,1.5c0.8,0.4,1.7,0.7,2.7,0.8c1,0.2,1.9,0.2,2.9,0.2c1.6,0,2.9-0.1,3.9-0.4    c1.1-0.3,1.9-0.6,2.5-1.1c0.6-0.4,1.1-0.9,1.3-1.4c0.3-0.5,0.4-1.1,0.4-1.6c0-0.9-0.2-1.7-0.7-2.3c-0.5-0.6-1.2-1-2-1.3    c-0.9-0.3-1.9-0.5-3.1-0.6c-1.2-0.1-2.4-0.2-3.8-0.2c-0.1,0-0.4,0-0.7,0c-0.4,0-0.8,0-1.2-0.1c-0.5,0-0.9-0.1-1.4-0.1    C122.2,271.9,121.8,271.8,121.5,271.7z M126.8,260.9c0.5,0,1.1-0.1,1.8-0.3c0.7-0.2,1.3-0.5,1.8-1c0.5-0.5,1-1.1,1.4-1.9    c0.4-0.8,0.6-1.8,0.6-3c0-1.2-0.2-2.2-0.6-3c-0.4-0.8-0.8-1.4-1.4-1.9c-0.5-0.5-1.1-0.8-1.8-1c-0.7-0.2-1.3-0.3-1.8-0.3    c-0.5,0-1.1,0.1-1.8,0.3c-0.7,0.2-1.3,0.6-1.8,1c-0.5,0.5-1,1.1-1.4,1.9c-0.4,0.8-0.6,1.8-0.6,3c0,1.2,0.2,2.2,0.6,3    c0.4,0.8,0.8,1.4,1.4,1.9c0.5,0.5,1.1,0.8,1.8,1C125.7,260.8,126.3,260.9,126.8,260.9z" fill="#734E8D"  /><path d="M156.8,270v-1.6c1.3,0,2.1-0.3,2.6-0.8c0.5-0.6,0.7-1.4,0.7-2.5v-9.9c0-0.7-0.1-1.4-0.2-2.1    c-0.2-0.7-0.4-1.3-0.8-1.8c-0.4-0.5-0.9-0.9-1.6-1.3c-0.7-0.3-1.5-0.5-2.6-0.5c-0.4,0-0.8,0-1.3,0.1s-1,0.3-1.6,0.5    s-1.1,0.6-1.6,1.1c-0.5,0.5-1,1.1-1.3,1.8v11.9c0,1.1,0.3,2,0.8,2.5c0.5,0.6,1.5,0.8,3,0.8l0.2,0.4l-0.2,1.2h-11.6v-1.6    c1.5,0,2.5-0.3,3-0.8c0.5-0.6,0.8-1.4,0.8-2.5v-13.7l-3.8-0.8v-1.2l7.5-2.6l0.4,0.3v4.3h0.2c1.6-3.1,4.1-4.7,7.4-4.7    c2.5,0,4.3,0.7,5.6,2.1c1.2,1.4,1.9,3.3,1.9,5.6v10.6c0,1.1,0.3,2,0.9,2.5c0.6,0.6,1.5,0.8,2.9,0.8l0.2,0.4l-0.2,1.2H156.8z" fill="#734E8D"  /><path d="M190.4,269c-0.6,0.6-1.3,1.1-2,1.3c-0.7,0.2-1.3,0.3-1.8,0.3c-0.6,0-1.2-0.1-1.7-0.4    c-0.5-0.3-0.9-0.6-1.2-1c-0.3-0.4-0.6-0.9-0.7-1.4c-0.2-0.5-0.3-1-0.3-1.6h-0.2c0,0.2-0.2,0.5-0.4,1c-0.2,0.5-0.5,1-1,1.5    s-1.1,1-1.8,1.3c-0.8,0.4-1.7,0.6-2.8,0.6c-1.9,0-3.4-0.5-4.5-1.5c-1.1-1-1.6-2.5-1.6-4.3c0-1,0.2-1.9,0.6-2.7    c0.4-0.7,1-1.4,1.7-1.8c0.7-0.5,1.5-0.9,2.4-1.2c0.9-0.3,1.8-0.5,2.7-0.7c0.9-0.2,1.8-0.2,2.6-0.3c0.9,0,1.6,0,2.2,0v-5    c0-1.4-0.5-2.5-1.6-3.3c-1-0.8-2.8-1.3-5.2-1.3l-0.3,0.2l-1.4,5.4l-0.3,0.3c-0.2,0-0.4-0.1-0.7-0.2c-0.3-0.1-0.6-0.3-0.9-0.5    c-0.3-0.2-0.5-0.5-0.8-0.9c-0.2-0.4-0.3-0.8-0.3-1.3c0-0.8,0.2-1.4,0.7-2.1c0.5-0.6,1.1-1.1,1.8-1.5c0.8-0.4,1.6-0.7,2.6-0.9    c1-0.2,1.9-0.3,2.9-0.3c2.6,0,4.4,0.6,5.6,1.7c1.2,1.1,1.8,2.8,1.8,4.9v11.4c0,1.4,0.3,2.3,1,2.8c0.7,0.5,1.6,0.8,2.8,0.8l0.1,0.3    L190.4,269z M182.7,259.2c-0.7,0-1.5,0.1-2.4,0.2c-0.9,0.1-1.8,0.4-2.6,0.8c-0.8,0.4-1.6,0.9-2.1,1.6c-0.6,0.7-0.9,1.6-0.9,2.7    c0,0.7,0.1,1.2,0.3,1.6c0.2,0.4,0.5,0.7,0.9,1c0.4,0.2,0.8,0.4,1.2,0.5c0.4,0.1,0.8,0.1,1.2,0.1c0.9,0,1.8-0.3,2.7-0.9    c0.9-0.6,1.5-1.5,1.8-2.5V259.2z" fill="#734E8D"  /><path d="M208.3,270v-1.6c1.3,0,2.1-0.3,2.6-0.8c0.5-0.6,0.7-1.4,0.7-2.5v-9.9c0-0.7-0.1-1.4-0.2-2.1    c-0.2-0.7-0.4-1.3-0.8-1.8c-0.4-0.5-0.9-0.9-1.6-1.3c-0.7-0.3-1.5-0.5-2.6-0.5c-0.4,0-0.8,0-1.3,0.1s-1,0.3-1.6,0.5    c-0.5,0.3-1.1,0.6-1.6,1.1c-0.5,0.5-1,1.1-1.3,1.8v11.9c0,1.1,0.3,2,0.8,2.5c0.5,0.6,1.5,0.8,3,0.8l0.2,0.4l-0.2,1.2h-11.6v-1.6    c1.5,0,2.5-0.3,3-0.8c0.5-0.6,0.8-1.4,0.8-2.5v-13.7l-3.8-0.8v-1.2l7.5-2.6l0.4,0.3v4.3h0.2c1.6-3.1,4.1-4.7,7.4-4.7    c2.5,0,4.3,0.7,5.6,2.1c1.2,1.4,1.9,3.3,1.9,5.6v10.6c0,1.1,0.3,2,0.9,2.5c0.6,0.6,1.5,0.8,2.9,0.8l0.2,0.4l-0.2,1.2H208.3z" fill="#734E8D"  /><path d="M240.8,264.6c-0.9,1.9-2.2,3.4-3.8,4.4c-1.6,1-3.4,1.6-5.4,1.6c-1.4,0-2.7-0.2-4-0.7    c-1.3-0.4-2.4-1.1-3.5-2.1c-1-0.9-1.8-2.2-2.4-3.6c-0.6-1.5-0.9-3.2-0.9-5.3c0-2.2,0.4-4,1.1-5.6c0.7-1.6,1.6-2.8,2.7-3.8    c1.1-1,2.3-1.7,3.6-2.2c1.3-0.5,2.4-0.7,3.5-0.7c1.5,0,2.7,0.2,3.8,0.5c1.1,0.4,1.9,0.8,2.6,1.4c0.7,0.6,1.2,1.2,1.6,1.8    c0.3,0.7,0.5,1.3,0.5,2c0,1-0.3,1.8-0.9,2.4c-0.6,0.6-1.3,0.9-2.1,0.9l-0.4-0.3l-1.1-5.6l-0.1-0.1c-0.9-0.9-2.2-1.3-3.8-1.3    c-0.7,0-1.5,0.2-2.3,0.5c-0.8,0.3-1.6,0.9-2.3,1.6c-0.7,0.7-1.3,1.7-1.7,2.9c-0.5,1.2-0.7,2.7-0.7,4.4c0,1.8,0.3,3.3,0.8,4.5    c0.6,1.2,1.3,2.1,2.1,2.8c0.9,0.7,1.8,1.2,2.8,1.4c1,0.3,1.9,0.4,2.8,0.4c1.3,0,2.6-0.3,3.9-0.8c1.3-0.5,2.3-1.3,3-2.2l0.3,0.1    L240.8,264.6z" fill="#734E8D"  /><path d="M253.5,270l-8.6-20.7l-3.3-0.9v-1.2H253v1.2l-3.2,0.9l5.8,15.3h0.3l5.8-15.3l-3.2-0.9v-1.2h8.9v1.2    l-3.4,0.9l-11.9,28.9c-0.5,1.1-1,1.9-1.5,2.6c-0.6,0.7-1.1,1.2-1.8,1.6c-0.6,0.4-1.2,0.6-1.8,0.8c-0.6,0.1-1.2,0.2-1.7,0.2    c-1.5,0-2.7-0.4-3.5-1.2c-0.8-0.8-1.2-1.8-1.2-2.9c0-0.5,0.1-1,0.3-1.4c0.2-0.4,0.4-0.8,0.7-1c0.3-0.3,0.6-0.5,1-0.6    c0.3-0.1,0.7-0.2,1-0.2l0.3,0.3l1.7,5.2l0.3,0.2c1.3,0,2.4-0.4,3.1-1.3c0.8-0.9,1.4-2,1.8-3.2L253.5,270z" fill="#734E8D"  /><path d="M273.2,252.7c-0.8,0-1.5-0.3-2.1-0.9s-0.9-1.3-0.9-2.1c0-0.8,0.3-1.5,0.9-2.1c0.6-0.6,1.3-0.9,2.1-0.9    c0.8,0,1.5,0.3,2.1,0.9c0.6,0.6,0.9,1.3,0.9,2.1c0,0.8-0.3,1.5-0.9,2.1C274.7,252.4,274,252.7,273.2,252.7z M273.2,270.6    c-0.8,0-1.5-0.3-2.1-0.9s-0.9-1.3-0.9-2.1c0-0.8,0.3-1.5,0.9-2.1c0.6-0.6,1.3-0.9,2.1-0.9c0.8,0,1.5,0.3,2.1,0.9    c0.6,0.6,0.9,1.3,0.9,2.1c0,0.8-0.3,1.5-0.9,2.1C274.7,270.3,274,270.6,273.2,270.6z" fill="#734E8D"  /><path d="M328.2,254.2c0,2.5-0.4,4.8-1.2,6.8s-2,3.8-3.4,5.2c-1.5,1.4-3.2,2.6-5.2,3.4c-2,0.8-4.3,1.2-6.7,1.2    c-2.4,0-4.7-0.4-6.7-1.2c-2-0.8-3.8-1.9-5.2-3.4c-1.5-1.4-2.6-3.2-3.4-5.2c-0.8-2-1.2-4.3-1.2-6.8c0-2.5,0.4-4.8,1.2-6.9    c0.8-2.1,1.9-3.8,3.4-5.3c1.5-1.5,3.2-2.6,5.2-3.4s4.3-1.2,6.7-1.2c2.4,0,4.7,0.4,6.7,1.2c2,0.8,3.8,1.9,5.2,3.4    c1.5,1.5,2.6,3.2,3.4,5.3S328.2,251.6,328.2,254.2z M311.7,268.8c1.9,0,3.6-0.4,5-1.1c1.4-0.7,2.7-1.8,3.7-3.1    c1-1.3,1.7-2.9,2.2-4.6s0.8-3.7,0.8-5.8c0-2.1-0.3-4-0.8-5.8c-0.5-1.8-1.2-3.4-2.2-4.7c-1-1.3-2.2-2.4-3.7-3.1    c-1.4-0.7-3.1-1.1-5-1.1c-1.9,0-3.6,0.4-5,1.1c-1.4,0.8-2.7,1.8-3.6,3.1c-1,1.3-1.7,2.9-2.2,4.7c-0.5,1.8-0.8,3.7-0.8,5.8    c0,2.1,0.3,4,0.8,5.8c0.5,1.8,1.2,3.3,2.2,4.6c1,1.3,2.2,2.3,3.6,3.1C308.1,268.4,309.8,268.8,311.7,268.8z" fill="#734E8D"  /><path d="M350.1,270.6l-0.4-0.3v-4h-0.2c-1.6,2.9-4.1,4.3-7.5,4.3c-2.5,0-4.3-0.7-5.6-2.1c-1.2-1.4-1.9-3.3-1.9-5.7    V253c0-1.1-0.3-1.9-0.9-2.3c-0.6-0.4-1.6-0.6-3-0.6l-0.2-0.4l0.2-1.4l7.2-1.1h0.7v14.7c0,0.8,0.1,1.5,0.2,2.2    c0.2,0.7,0.4,1.3,0.8,1.9c0.4,0.5,0.9,1,1.6,1.3c0.7,0.3,1.5,0.5,2.6,0.5c0.5,0,1-0.1,1.5-0.2c0.5-0.1,1.1-0.3,1.6-0.6    s1-0.7,1.5-1.2c0.5-0.5,0.9-1.1,1.3-1.9V253c0-1.1-0.3-1.9-0.8-2.3c-0.5-0.4-1.6-0.6-3.1-0.6l-0.2-0.4l0.2-1.3l7.2-1.1h0.8v19    l3.8,0.8v1L350.1,270.6z" fill="#734E8D"  /><path d="M373.4,268.1c-0.9,0.8-1.8,1.4-2.9,1.8c-1,0.4-2,0.6-2.9,0.6c-0.7,0-1.4-0.1-2.1-0.3    c-0.7-0.2-1.3-0.5-1.8-1.1c-0.5-0.5-1-1.3-1.3-2.3c-0.3-1-0.5-2.3-0.5-4v-13.2h-4.1v-0.9l7.4-7.2h0.7v5.8h7.7l-0.5,1.9l-0.5,0.4    h-6.7v13.1c0,1.2,0.1,2.1,0.3,2.8c0.2,0.7,0.5,1.2,0.9,1.6c0.4,0.4,0.8,0.6,1.3,0.7s1,0.1,1.5,0.1c0.5,0,1.1-0.1,1.8-0.2    c0.6-0.1,1.2-0.3,1.6-0.5l0.2,0.2L373.4,268.1z" fill="#734E8D"  /><path d="M394.6,264.6c-0.9,1.9-2.2,3.4-3.8,4.4c-1.6,1-3.4,1.6-5.4,1.6c-1.4,0-2.7-0.2-4-0.7    c-1.3-0.4-2.4-1.1-3.5-2.1c-1-0.9-1.8-2.2-2.4-3.6c-0.6-1.5-0.9-3.2-0.9-5.3c0-2.2,0.4-4,1.1-5.6c0.7-1.6,1.6-2.8,2.7-3.8    c1.1-1,2.3-1.7,3.6-2.2s2.4-0.7,3.5-0.7c1.5,0,2.7,0.2,3.8,0.5c1.1,0.4,1.9,0.8,2.6,1.4c0.7,0.6,1.2,1.2,1.6,1.8    c0.3,0.7,0.5,1.3,0.5,2c0,1-0.3,1.8-0.9,2.4c-0.6,0.6-1.3,0.9-2.1,0.9l-0.4-0.3l-1.1-5.6l-0.1-0.1c-0.9-0.9-2.2-1.3-3.8-1.3    c-0.7,0-1.5,0.2-2.3,0.5c-0.8,0.3-1.6,0.9-2.3,1.6c-0.7,0.7-1.3,1.7-1.7,2.9c-0.5,1.2-0.7,2.7-0.7,4.4c0,1.8,0.3,3.3,0.8,4.5    c0.6,1.2,1.3,2.1,2.1,2.8c0.9,0.7,1.8,1.2,2.8,1.4c1,0.3,1.9,0.4,2.8,0.4c1.3,0,2.6-0.3,3.9-0.8c1.3-0.5,2.3-1.3,3-2.2l0.3,0.1    L394.6,264.6z" fill="#734E8D"  /><path d="M408.4,270.6c-1.8,0-3.5-0.3-4.9-0.9c-1.5-0.6-2.7-1.4-3.7-2.5c-1-1.1-1.8-2.3-2.3-3.8    c-0.5-1.4-0.8-3-0.8-4.7c0-1.7,0.3-3.2,0.8-4.7c0.5-1.5,1.3-2.8,2.3-3.9c1-1.1,2.2-2,3.7-2.6c1.5-0.6,3.1-0.9,4.9-0.9    c1.8,0,3.5,0.3,4.9,0.9c1.5,0.6,2.7,1.5,3.7,2.6c1,1.1,1.8,2.4,2.3,3.9c0.5,1.5,0.8,3.1,0.8,4.7c0,1.7-0.3,3.3-0.8,4.7    c-0.5,1.4-1.3,2.7-2.3,3.8c-1,1.1-2.2,1.9-3.7,2.5C411.9,270.3,410.3,270.6,408.4,270.6z M401.2,258.7c0,1.4,0.2,2.8,0.5,4    c0.3,1.2,0.8,2.3,1.4,3.2c0.6,0.9,1.4,1.6,2.3,2.2c0.9,0.5,1.9,0.8,3.1,0.8c1.2,0,2.2-0.3,3.1-0.8c0.9-0.5,1.7-1.3,2.3-2.2    c0.6-0.9,1.1-2,1.4-3.2c0.3-1.2,0.5-2.6,0.5-4c0-1.4-0.2-2.7-0.5-4s-0.8-2.4-1.4-3.3c-0.6-0.9-1.4-1.7-2.3-2.2    c-0.9-0.5-1.9-0.8-3.1-0.8c-1.2,0-2.2,0.3-3.1,0.8c-0.9,0.5-1.7,1.3-2.3,2.2c-0.6,0.9-1.1,2-1.4,3.3    C401.4,256,401.2,257.3,401.2,258.7z" fill="#734E8D"  /><path d="M452.2,270v-1.6c1.3,0,2.1-0.3,2.6-0.8c0.5-0.6,0.7-1.4,0.7-2.5v-9.7c0-0.8-0.1-1.5-0.2-2.2    c-0.2-0.7-0.4-1.3-0.8-1.8c-0.4-0.5-0.9-1-1.6-1.3c-0.7-0.3-1.5-0.5-2.6-0.5c-0.3,0-0.8,0-1.3,0.1s-1,0.2-1.6,0.5    c-0.5,0.2-1.1,0.5-1.6,0.9c-0.5,0.4-1,0.9-1.4,1.4c0.1,0.3,0.1,0.6,0.1,0.9c0,0.4,0,0.7,0,1v10.6c0,1.1,0.3,2,0.9,2.5    c0.6,0.6,1.6,0.8,3,0.8l0.2,0.4l-0.2,1.2h-11.2v-1.6c1.3,0,2.1-0.3,2.6-0.8c0.5-0.6,0.7-1.4,0.7-2.5v-9.7c0-0.8-0.1-1.5-0.2-2.2    c-0.2-0.7-0.4-1.3-0.8-1.8c-0.4-0.5-0.9-1-1.6-1.3c-0.7-0.3-1.5-0.5-2.6-0.5c-0.2,0-0.6,0-1.1,0.1c-0.5,0.1-1,0.3-1.6,0.5    c-0.5,0.3-1.1,0.6-1.6,1.1c-0.5,0.5-1,1.1-1.4,1.8v11.9c0,1.1,0.3,2,0.8,2.5c0.5,0.6,1.6,0.8,3.1,0.8l0.2,0.4l-0.2,1.2h-11.8v-1.6    c1.5,0,2.5-0.3,3-0.8c0.5-0.6,0.8-1.4,0.8-2.5v-13.7l-3.8-0.8v-1.2l7.5-2.6l0.4,0.3v4.3h0.2c0.8-1.6,1.8-2.7,3.1-3.5    c1.3-0.8,2.7-1.2,4.2-1.2c1.8,0,3.3,0.4,4.4,1.2c1.1,0.8,2,1.9,2.4,3.3c0.8-1.4,1.9-2.5,3.2-3.3c1.3-0.8,2.9-1.2,4.8-1.2    c2.5,0,4.3,0.7,5.6,2.1c1.2,1.4,1.9,3.3,1.9,5.6v10.6c0,1.1,0.3,2,0.9,2.5c0.6,0.6,1.5,0.8,2.9,0.8l0.2,0.4l-0.2,1.2H452.2z" fill="#734E8D"  /><path d="M485.1,264.6c-0.9,1.9-2.2,3.4-3.8,4.4c-1.6,1-3.5,1.6-5.6,1.6c-1.4,0-2.8-0.2-4.2-0.7    c-1.3-0.4-2.5-1.1-3.5-2.1c-1-0.9-1.8-2.1-2.4-3.6c-0.6-1.5-0.9-3.2-0.9-5.3c0-2.2,0.4-4.1,1.1-5.6c0.7-1.6,1.6-2.8,2.7-3.8    c1.1-1,2.3-1.7,3.6-2.2c1.3-0.5,2.5-0.7,3.7-0.7c1.6,0,3.1,0.2,4.2,0.7c1.2,0.4,2.1,1,2.9,1.8c0.7,0.8,1.3,1.7,1.7,2.7    c0.4,1,0.5,2.2,0.5,3.4h-16.3c-0.1,0.4-0.1,0.8-0.1,1.2c0,0.4,0,0.8,0,1.3c0,1.8,0.3,3.3,1,4.5c0.6,1.2,1.4,2.1,2.3,2.8    c0.9,0.7,1.9,1.2,2.9,1.4c1,0.3,1.9,0.4,2.6,0.4c1.5,0,2.8-0.3,4.1-0.8c1.3-0.5,2.3-1.3,3.1-2.2l0.3,0.1L485.1,264.6z     M480.5,253.6c0-1.8-0.4-3.1-1.3-3.9c-0.9-0.8-2-1.2-3.4-1.2c-0.6,0-1.3,0.1-2,0.3c-0.7,0.2-1.4,0.5-2,0.9    c-0.6,0.4-1.2,0.9-1.7,1.6c-0.5,0.6-0.8,1.4-1,2.4H480.5z" fill="#734E8D"  /><path d="M487.8,263.2l0.4-0.3l1.4-0.1c0.1,0.8,0.3,1.6,0.6,2.3c0.3,0.7,0.8,1.4,1.3,1.9c0.6,0.6,1.2,1,2,1.3    c0.8,0.3,1.6,0.5,2.6,0.5c0.5,0,1-0.1,1.5-0.2c0.5-0.1,1-0.4,1.4-0.7c0.4-0.3,0.8-0.7,1-1.2s0.4-1.1,0.4-1.8    c0-0.8-0.3-1.5-0.9-2.1c-0.6-0.6-1.3-1.1-2.2-1.6c-0.9-0.5-1.8-0.9-2.8-1.4c-1-0.4-2-1-2.8-1.6c-0.9-0.6-1.6-1.3-2.2-2.2    c-0.6-0.8-0.9-1.9-0.9-3.1c0-1.1,0.2-2,0.7-2.8c0.5-0.8,1.1-1.4,1.8-2c0.7-0.5,1.5-0.9,2.4-1.1c0.9-0.2,1.8-0.4,2.6-0.4    c0.9,0,1.7,0.1,2.5,0.2c0.7,0.2,1.5,0.3,2.2,0.3c0.8,0,1.6-0.2,2.3-0.5l0.5,0.4l-0.9,6.2l-0.5,0.2l-1,0.1c0-0.6-0.1-1.3-0.3-1.9    c-0.2-0.6-0.5-1.2-0.9-1.7c-0.4-0.5-1-0.9-1.7-1.2c-0.7-0.3-1.6-0.5-2.6-0.5c-0.4,0-0.8,0.1-1.2,0.2c-0.4,0.1-0.8,0.3-1.2,0.6    c-0.4,0.3-0.7,0.6-0.9,1c-0.2,0.4-0.3,1-0.3,1.6c0,0.9,0.3,1.7,0.9,2.3c0.6,0.6,1.3,1.1,2.2,1.6c0.9,0.5,1.8,0.9,2.9,1.4    c1,0.4,2,0.9,2.9,1.5c0.9,0.6,1.6,1.3,2.2,2.1c0.6,0.8,0.9,1.9,0.9,3.1c0,1-0.2,2-0.7,2.8c-0.5,0.8-1.1,1.6-1.9,2.2    c-0.8,0.6-1.7,1.1-2.6,1.4c-1,0.3-2,0.5-3.1,0.5c-0.2,0-0.5,0-1,0c-0.5,0-1.1-0.1-1.9-0.2c-0.7-0.1-1.5-0.3-2.4-0.5    c-0.9-0.2-1.7-0.5-2.6-0.9L487.8,263.2z" fill="#734E8D"  /><path d="M542,269c-0.6,0.6-1.3,1.1-2,1.3c-0.7,0.2-1.3,0.3-1.8,0.3c-0.6,0-1.2-0.1-1.7-0.4s-0.9-0.6-1.2-1    c-0.3-0.4-0.6-0.9-0.7-1.4c-0.2-0.5-0.2-1-0.2-1.6h-0.2c0,0.2-0.2,0.5-0.4,1c-0.2,0.5-0.5,1-1,1.5c-0.5,0.5-1.1,1-1.8,1.3    c-0.8,0.4-1.7,0.6-2.8,0.6c-1.9,0-3.4-0.5-4.5-1.5c-1.1-1-1.6-2.5-1.6-4.3c0-1,0.2-1.9,0.6-2.7c0.4-0.7,1-1.4,1.7-1.8    c0.7-0.5,1.5-0.9,2.4-1.2c0.9-0.3,1.8-0.5,2.7-0.7c0.9-0.2,1.8-0.2,2.6-0.3c0.9,0,1.6,0,2.2,0v-5c0-1.4-0.5-2.5-1.6-3.3    c-1-0.8-2.8-1.3-5.2-1.3l-0.3,0.2l-1.4,5.4l-0.3,0.3c-0.2,0-0.4-0.1-0.7-0.2c-0.3-0.1-0.6-0.3-0.9-0.5c-0.3-0.2-0.5-0.5-0.8-0.9    c-0.2-0.4-0.3-0.8-0.3-1.3c0-0.8,0.2-1.4,0.7-2.1c0.5-0.6,1.1-1.1,1.8-1.5c0.8-0.4,1.6-0.7,2.6-0.9c1-0.2,1.9-0.3,2.9-0.3    c2.6,0,4.4,0.6,5.6,1.7c1.2,1.1,1.8,2.8,1.8,4.9v11.4c0,1.4,0.3,2.3,1,2.8c0.7,0.5,1.6,0.8,2.8,0.8l0.1,0.3L542,269z M534.3,259.2    c-0.7,0-1.5,0.1-2.4,0.2c-0.9,0.1-1.8,0.4-2.6,0.8c-0.8,0.4-1.6,0.9-2.1,1.6c-0.6,0.7-0.9,1.6-0.9,2.7c0,0.7,0.1,1.2,0.3,1.6    c0.2,0.4,0.5,0.7,0.9,1c0.4,0.2,0.8,0.4,1.2,0.5c0.4,0.1,0.8,0.1,1.2,0.1c0.9,0,1.8-0.3,2.7-0.9c0.8-0.6,1.5-1.5,1.8-2.5V259.2z" fill="#734E8D"  /><path d="M557.2,268.1c-0.9,0.8-1.8,1.4-2.9,1.8c-1,0.4-2,0.6-2.9,0.6c-0.7,0-1.4-0.1-2.1-0.3    c-0.7-0.2-1.3-0.5-1.8-1.1s-1-1.3-1.3-2.3c-0.3-1-0.5-2.3-0.5-4v-13.2h-4.1v-0.9l7.4-7.2h0.7v5.8h7.7l-0.5,1.9l-0.5,0.4h-6.7v13.1    c0,1.2,0.1,2.1,0.3,2.8c0.2,0.7,0.5,1.2,0.9,1.6c0.4,0.4,0.8,0.6,1.3,0.7c0.5,0.1,1,0.1,1.5,0.1c0.5,0,1.1-0.1,1.8-0.2    c0.6-0.1,1.2-0.3,1.6-0.5l0.2,0.2L557.2,268.1z" fill="#734E8D"  /><path d="M574,270v-1.7c1.1,0,2-0.1,2.7-0.2c0.7-0.1,1.2-0.3,1.6-0.6c0.4-0.3,0.7-0.6,0.8-1    c0.2-0.4,0.2-0.9,0.2-1.4v-20.4c0-0.5-0.1-1-0.2-1.4c-0.1-0.4-0.4-0.8-0.8-1c-0.4-0.3-0.9-0.5-1.5-0.6c-0.6-0.1-1.5-0.2-2.5-0.2    v-1.7l8.5-1.7h0.5v27c0,0.5,0.1,1,0.2,1.4s0.4,0.8,0.8,1c0.4,0.3,1,0.5,1.7,0.6c0.7,0.1,1.7,0.2,2.9,0.2l0.2,0.4L589,270H574z" fill="#734E8D"  /><path d="M606.3,252c1,0.5,2,1,3,1.5c0.9,0.5,1.8,1.2,2.5,1.9c0.7,0.7,1.3,1.6,1.7,2.5c0.4,1,0.6,2.1,0.6,3.3    c0,1.5-0.3,2.8-1,3.9c-0.6,1.2-1.5,2.2-2.5,3c-1,0.8-2.3,1.5-3.7,1.9c-1.4,0.4-2.8,0.7-4.3,0.7c-0.8,0-1.9-0.1-3.1-0.3    c-1.3-0.2-2.5-0.6-3.7-1.3c-1.2-0.6-2.2-1.5-3.1-2.6c-0.9-1.1-1.3-2.5-1.3-4.3c0-1.5,0.3-2.7,0.8-3.8c0.6-1.1,1.2-2,2.1-2.7    c0.8-0.7,1.7-1.3,2.6-1.7c0.9-0.4,1.7-0.7,2.5-0.9c-0.8-0.3-1.5-0.7-2.2-1.1c-0.7-0.5-1.4-1-2-1.6c-0.6-0.6-1-1.3-1.4-2.1    s-0.5-1.6-0.5-2.6c0-1.4,0.3-2.6,0.8-3.6c0.6-1,1.3-1.9,2.2-2.6c0.9-0.7,1.9-1.2,3.1-1.6c1.2-0.3,2.3-0.5,3.5-0.5    c0.9,0,1.9,0.1,3,0.4c1.1,0.2,2.1,0.6,3,1.2c0.9,0.5,1.7,1.3,2.3,2.2c0.6,0.9,0.9,2,0.9,3.3c0,1.1-0.2,2.1-0.5,2.9    c-0.4,0.8-0.8,1.6-1.4,2.2c-0.6,0.6-1.2,1.1-1.8,1.5C607.5,251.5,606.9,251.8,606.3,252z M602.7,268.9c2.3,0,4.1-0.5,5.4-1.6    c1.3-1,2-2.5,2-4.3c0-1.4-0.3-2.5-0.9-3.5c-0.6-1-1.4-1.8-2.3-2.5c-0.9-0.7-2-1.3-3.1-1.8c-1.1-0.5-2.3-0.9-3.4-1.4    c-1.9,1.1-3.2,2.3-4,3.7c-0.8,1.4-1.2,2.9-1.2,4.3c0,1,0.2,1.9,0.5,2.7s0.9,1.6,1.5,2.2c0.7,0.6,1.5,1.1,2.4,1.5    C600.5,268.7,601.5,268.9,602.7,268.9z M605.1,251.4c1.4-1,2.4-2.1,2.9-3.2c0.5-1.1,0.8-2.3,0.8-3.6c0-0.8-0.2-1.5-0.5-2.1    c-0.3-0.7-0.7-1.2-1.3-1.7c-0.5-0.5-1.2-0.8-1.9-1.1c-0.7-0.3-1.5-0.4-2.4-0.4c-2,0-3.5,0.5-4.5,1.4c-1,1-1.5,2.1-1.5,3.4    c0,1.1,0.3,2,0.8,2.8c0.5,0.8,1.2,1.4,2,2c0.8,0.6,1.7,1,2.7,1.5C603.2,250.7,604.2,251,605.1,251.4z" fill="#734E8D"  /><path d="M661.9,270v-1.6c1.3,0,2.1-0.3,2.6-0.8c0.5-0.6,0.7-1.4,0.7-2.5v-9.7c0-0.8-0.1-1.5-0.2-2.2    c-0.2-0.7-0.4-1.3-0.8-1.8c-0.4-0.5-0.9-1-1.6-1.3c-0.7-0.3-1.5-0.5-2.6-0.5c-0.3,0-0.8,0-1.3,0.1c-0.5,0.1-1,0.2-1.6,0.5    c-0.5,0.2-1.1,0.5-1.6,0.9c-0.5,0.4-1,0.9-1.4,1.4c0.1,0.3,0.1,0.6,0.1,0.9c0,0.4,0,0.7,0,1v10.6c0,1.1,0.3,2,0.9,2.5    c0.6,0.6,1.6,0.8,3,0.8l0.2,0.4l-0.2,1.2H647v-1.6c1.3,0,2.1-0.3,2.6-0.8c0.5-0.6,0.7-1.4,0.7-2.5v-9.7c0-0.8-0.1-1.5-0.2-2.2    c-0.2-0.7-0.4-1.3-0.8-1.8c-0.4-0.5-0.9-1-1.6-1.3c-0.7-0.3-1.5-0.5-2.6-0.5c-0.2,0-0.6,0-1.1,0.1c-0.5,0.1-1,0.3-1.6,0.5    c-0.5,0.3-1.1,0.6-1.6,1.1c-0.5,0.5-1,1.1-1.4,1.8v11.9c0,1.1,0.3,2,0.8,2.5c0.5,0.6,1.6,0.8,3.1,0.8l0.2,0.4l-0.2,1.2h-11.8v-1.6    c1.5,0,2.5-0.3,3-0.8c0.5-0.6,0.8-1.4,0.8-2.5v-13.7l-3.8-0.8v-1.2l7.5-2.6l0.4,0.3v4.3h0.2c0.8-1.6,1.8-2.7,3.1-3.5    c1.3-0.8,2.7-1.2,4.2-1.2c1.8,0,3.3,0.4,4.5,1.2c1.1,0.8,2,1.9,2.4,3.3c0.8-1.4,1.9-2.5,3.2-3.3c1.3-0.8,2.9-1.2,4.8-1.2    c2.5,0,4.3,0.7,5.6,2.1c1.2,1.4,1.9,3.3,1.9,5.6v10.6c0,1.1,0.3,2,0.9,2.5c0.6,0.6,1.5,0.8,2.9,0.8l0.2,0.4L673,270H661.9z" fill="#734E8D"  /><path d="M686.1,270.6c-1.8,0-3.5-0.3-4.9-0.9c-1.5-0.6-2.7-1.4-3.7-2.5c-1-1.1-1.8-2.3-2.3-3.8    c-0.5-1.4-0.8-3-0.8-4.7c0-1.7,0.3-3.2,0.8-4.7c0.5-1.5,1.3-2.8,2.3-3.9c1-1.1,2.2-2,3.7-2.6c1.5-0.6,3.1-0.9,4.9-0.9    c1.8,0,3.5,0.3,4.9,0.9c1.5,0.6,2.7,1.5,3.7,2.6c1,1.1,1.8,2.4,2.3,3.9c0.5,1.5,0.8,3.1,0.8,4.7c0,1.7-0.3,3.3-0.8,4.7    c-0.5,1.4-1.3,2.7-2.3,3.8c-1,1.1-2.2,1.9-3.7,2.5C689.6,270.3,687.9,270.6,686.1,270.6z M678.9,258.7c0,1.4,0.2,2.8,0.5,4    c0.3,1.2,0.8,2.3,1.4,3.2s1.4,1.6,2.3,2.2c0.9,0.5,1.9,0.8,3.1,0.8c1.2,0,2.2-0.3,3.1-0.8c0.9-0.5,1.6-1.3,2.3-2.2s1.1-2,1.4-3.2    c0.3-1.2,0.5-2.6,0.5-4c0-1.4-0.2-2.7-0.5-4c-0.3-1.3-0.8-2.4-1.4-3.3c-0.6-0.9-1.4-1.7-2.3-2.2c-0.9-0.5-1.9-0.8-3.1-0.8    c-1.2,0-2.2,0.3-3.1,0.8c-0.9,0.5-1.6,1.3-2.3,2.2c-0.6,0.9-1.1,2-1.4,3.3S678.9,257.3,678.9,258.7z" fill="#734E8D"  /><path d="M715,270v-1.6c1.3,0,2.1-0.3,2.6-0.8c0.5-0.6,0.7-1.4,0.7-2.5v-9.9c0-0.7-0.1-1.4-0.2-2.1    c-0.2-0.7-0.4-1.3-0.8-1.8c-0.4-0.5-0.9-0.9-1.6-1.3c-0.7-0.3-1.5-0.5-2.6-0.5c-0.4,0-0.8,0-1.3,0.1c-0.5,0.1-1,0.3-1.6,0.5    c-0.5,0.3-1.1,0.6-1.6,1.1c-0.5,0.5-1,1.1-1.3,1.8v11.9c0,1.1,0.3,2,0.8,2.5c0.5,0.6,1.5,0.8,3,0.8l0.2,0.4l-0.2,1.2h-11.6v-1.6    c1.5,0,2.5-0.3,3-0.8c0.5-0.6,0.8-1.4,0.8-2.5v-13.7l-3.8-0.8v-1.2l7.5-2.6l0.4,0.3v4.3h0.2c1.6-3.1,4.1-4.7,7.4-4.7    c2.5,0,4.3,0.7,5.6,2.1c1.2,1.4,1.9,3.3,1.9,5.6v10.6c0,1.1,0.3,2,0.9,2.5c0.6,0.6,1.5,0.8,2.9,0.8l0.2,0.4l-0.2,1.2H715z" fill="#734E8D"  /><path d="M741.6,268.1c-0.9,0.8-1.8,1.4-2.9,1.8c-1,0.4-2,0.6-2.9,0.6c-0.7,0-1.4-0.1-2.1-0.3    c-0.7-0.2-1.3-0.5-1.8-1.1c-0.5-0.5-1-1.3-1.3-2.3c-0.3-1-0.5-2.3-0.5-4v-13.2H726v-0.9l7.4-7.2h0.7v5.8h7.7l-0.5,1.9l-0.5,0.4    h-6.7v13.1c0,1.2,0.1,2.1,0.3,2.8c0.2,0.7,0.5,1.2,0.9,1.6c0.4,0.4,0.8,0.6,1.3,0.7c0.5,0.1,1,0.1,1.5,0.1c0.5,0,1.1-0.1,1.8-0.2    c0.6-0.1,1.2-0.3,1.6-0.5l0.2,0.2L741.6,268.1z" fill="#734E8D"  /><path d="M759.5,270v-1.6c1.3,0,2.1-0.3,2.6-0.8c0.5-0.6,0.7-1.4,0.7-2.5v-9.7c0-0.8-0.1-1.5-0.2-2.2    c-0.2-0.7-0.4-1.3-0.8-1.8c-0.4-0.5-0.9-1-1.6-1.3c-0.7-0.3-1.5-0.5-2.6-0.5c-0.4,0-0.9,0-1.4,0.1c-0.5,0.1-1,0.3-1.6,0.5    c-0.5,0.3-1.1,0.6-1.6,1.1c-0.5,0.5-1,1.1-1.3,1.8v11.9c0,1.1,0.3,2,0.8,2.5c0.5,0.6,1.6,0.8,3.1,0.8l0.2,0.4l-0.2,1.2h-11.8v-1.6    c1.5,0,2.5-0.3,3-0.8c0.5-0.6,0.8-1.4,0.8-2.5v-26.4l-3.8-0.8v-1l7.5-2.6l0.4,0.3V251h0.2c0.8-1.4,1.8-2.4,3.1-3.2    c1.3-0.8,2.7-1.1,4.4-1.1c2.5,0,4.3,0.7,5.6,2.1c1.2,1.4,1.9,3.3,1.9,5.6v10.6c0,1.1,0.3,2,0.9,2.5c0.6,0.6,1.5,0.8,2.9,0.8    l0.2,0.4l-0.2,1.2H759.5z" fill="#734E8D"  /><path d="M773.3,263.2l0.4-0.3l1.4-0.1c0.1,0.8,0.3,1.6,0.6,2.3c0.3,0.7,0.8,1.4,1.3,1.9c0.6,0.6,1.2,1,2,1.3    c0.8,0.3,1.6,0.5,2.6,0.5c0.5,0,1-0.1,1.5-0.2c0.5-0.1,1-0.4,1.4-0.7c0.4-0.3,0.8-0.7,1-1.2s0.4-1.1,0.4-1.8    c0-0.8-0.3-1.5-0.9-2.1c-0.6-0.6-1.3-1.1-2.2-1.6c-0.9-0.5-1.8-0.9-2.8-1.4c-1-0.4-2-1-2.8-1.6c-0.9-0.6-1.6-1.3-2.2-2.2    c-0.6-0.8-0.9-1.9-0.9-3.1c0-1.1,0.2-2,0.7-2.8c0.5-0.8,1.1-1.4,1.8-2c0.7-0.5,1.5-0.9,2.4-1.1c0.9-0.2,1.8-0.4,2.6-0.4    c0.9,0,1.7,0.1,2.5,0.2c0.7,0.2,1.5,0.3,2.2,0.3c0.8,0,1.6-0.2,2.3-0.5l0.5,0.4l-0.9,6.2l-0.5,0.2l-1,0.1c0-0.6-0.1-1.3-0.3-1.9    c-0.2-0.6-0.5-1.2-0.9-1.7c-0.4-0.5-1-0.9-1.7-1.2c-0.7-0.3-1.6-0.5-2.6-0.5c-0.4,0-0.8,0.1-1.2,0.2c-0.4,0.1-0.8,0.3-1.2,0.6    c-0.4,0.3-0.7,0.6-0.9,1c-0.2,0.4-0.3,1-0.3,1.6c0,0.9,0.3,1.7,0.9,2.3c0.6,0.6,1.3,1.1,2.2,1.6c0.9,0.5,1.8,0.9,2.9,1.4    c1,0.4,2,0.9,2.9,1.5c0.9,0.6,1.6,1.3,2.2,2.1c0.6,0.8,0.9,1.9,0.9,3.1c0,1-0.2,2-0.7,2.8c-0.5,0.8-1.1,1.6-1.9,2.2    c-0.8,0.6-1.7,1.1-2.6,1.4c-1,0.3-2,0.5-3.1,0.5c-0.2,0-0.5,0-1,0c-0.5,0-1.1-0.1-1.9-0.2c-0.7-0.1-1.5-0.3-2.4-0.5    c-0.9-0.2-1.7-0.5-2.6-0.9L773.3,263.2z" fill="#734E8D"  />
		
		
		
		
		
		
		
		
		
		
		
		
		
		
		
		
		
		
		
		
		
		
		
		
		
		
		
		
		
		
		
		
		
		
		
		
		
		
		
		
		
		
		
		
		
		
		
		
		
		
		
		
		
		
		
		
		
		
		
		
		
	</g>
	
</g></svg>