<svg viewBox="0 0 703.8 283.5" role="img" focusable="false" aria-labelledby="evelina-london--title" xmlns="http://www.w3.org/2000/svg" xmlns:xlink="http://www.w3.org/1999/xlink"><title id="evelina-london--title">Evelina London</title><path d="M335.6,93.5H353c2.4,0,5.5-0.8,7.1-0.8c4.7,0,7.9,3.2,7.9,7.9c0,3.9-3.2,7.1-7.9,7.1c-1.6,0-4.7-0.8-7.1-0.8 h-17.3v30h29.2c2.4,0,5.5-1.6,7.9-1.6c3.9,0,7.9,3.2,7.9,7.9c0,3.9-3.9,7.9-7.9,7.9h-44.9c-4.7,0-8.7-3.9-8.7-8.7 c0-2.4,0.8-7.1,0.8-9.5V73c0-2.4-0.8-7.1-0.8-9.5c0-4.7,3.9-8.7,8.7-8.7h41.8c4.7,0,7.9,3.9,7.9,7.9c0,4.7-3.2,7.9-7.9,7.9 c-1.6,0-4.7-1.6-7.9-1.6h-26V93.5z" fill="#251E1D"  /><path d="M421.6,137.6c-0.8,1.6-2.4,6.3-3.2,7.9c-0.8,2.4-3.2,6.3-7.9,6.3h-2.4c-4.7,0-7.1-3.2-7.9-6.3 c-0.8-1.6-2.4-6.3-3.2-7.9l-13.4-32.3c-0.8-2.4-3.2-5.5-3.2-7.1c-0.8-1.6-0.8-2.4-0.8-3.2c0-4.7,3.2-8.7,7.9-8.7 c3.9,0,7.1,2.4,7.9,5.5c0.8,1.6,1.6,5.5,2.4,9.5l8.7,22.1c1.6,3.9,2.4,7.9,3.2,10.2c0.8-2.4,1.6-7.1,3.2-10.2l7.9-22.1 c0.8-3.9,1.6-7.9,2.4-9.5c1.6-3.2,3.9-5.5,7.9-5.5c4.7,0,8.7,3.9,7.9,8.7c0,0.8,0,1.6,0,2.4c-0.8,2.4-3.2,5.5-3.9,7.9L421.6,137.6z" fill="#251E1D"  /><path d="M503.5,114c0,5.5-3.2,8.7-9.5,8.7h-36.3c0.8,10.2,7.1,18.1,17.3,18.1c5.5,0,10.2-2.4,11.8-6.3 c2.4-3.2,4.7-4.7,7.9-4.7c3.9,0,7.1,3.2,7.1,7.1c0,2.4-1.6,5.5-3.2,7.1c-5.5,5.5-13.4,8.7-23.6,8.7c-19.7,0-31.5-15-31.5-33.9 c0-19.7,12.6-33.9,30.7-33.9S503.5,99,503.5,114z M458.6,111.6h30c-0.8-8.7-6.3-15-15-15C464.9,96.6,459.4,102.9,458.6,111.6z" fill="#251E1D"  /><path d="M515.4,69.8c0-2.4-0.8-6.3-0.8-8.7c0-4.7,3.9-8.7,8.7-8.7c3.9,0,7.9,3.9,7.9,8.7c0,2.4,0,6.3,0,8.7v64.6 c0,2.4,0,6.3,0,8.7c0,4.7-3.9,8.7-7.9,8.7c-4.7,0-8.7-3.9-8.7-8.7c0-2.4,0.8-6.3,0.8-8.7V69.8z" fill="#251E1D"  /><path d="M554,56.4c4.7,0,9.5,3.9,9.5,8.7c0,5.5-4.7,9.5-9.5,9.5c-5.5,0-9.5-3.9-9.5-9.5 C544.5,60.4,548.5,56.4,554,56.4z M546.1,103.7c0-2.4-0.8-6.3-0.8-8.7c0-4.7,3.9-8.7,8.7-8.7c4.7,0,8.7,3.9,8.7,8.7 c0,2.4-0.8,6.3-0.8,8.7v30.7c0,2.4,0.8,6.3,0.8,8.7c0,4.7-3.9,8.7-8.7,8.7c-4.7,0-8.7-3.9-8.7-8.7c0-2.4,0.8-6.3,0.8-8.7V103.7z" fill="#251E1D"  /><path d="M617.8,111.6c0-7.9-4.7-13.4-11.8-13.4c-4.7,0-10.2,2.4-13.4,7.1v29.2c0,2.4,0.8,6.3,0.8,8.7 c0,4.7-3.9,8.7-8.7,8.7c-4.7,0-7.9-3.9-7.9-8.7c0-2.4,0-6.3,0-8.7v-30.7c0-2.4-0.8-6.3-0.8-8.7c0-4.7,3.2-8.7,7.9-8.7 c3.9,0,7.1,3.2,7.9,7.1c3.9-5.5,10.2-8.7,18.1-8.7c13.4,0,23.6,10.2,23.6,25.2v24.4c0,2.4,0.8,6.3,0.8,8.7c0,4.7-3.9,8.7-8.7,8.7 c-4.7,0-7.9-3.9-7.9-8.7c0-2.4,0-6.3,0-8.7V111.6z" fill="#251E1D"  /><path d="M702.2,134.5c0,2.4,1.6,7.1,1.6,8.7c0,4.7-3.9,8.7-8.7,8.7c-3.9,0-6.3-2.4-7.1-5.5c-3.9,3.9-9.5,6.3-15,6.3 c-17.3,0-29.2-15-29.2-33.9c0-18.1,10.2-33.9,28.4-33.9c6.3,0,11.8,2.4,15.8,7.1c1.6-3.2,3.9-5.5,7.9-5.5c4.7,0,7.9,3.9,7.9,8.7 c0,2.4-1.6,6.3-1.6,8.7V134.5z M686.4,133.7v-30c-2.4-3.9-6.3-5.5-11-5.5c-10.2,0-16.6,8.7-16.6,20.5s6.3,20.5,16.6,20.5 C680.1,139.2,684.1,137.6,686.4,133.7z" fill="#251E1D"  /><path d="M367.9,256.7c3.2,0,4.7-1.6,7.1-1.6c2.4,0,4.7,2.4,4.7,5.5c0,2.4-1.6,4.7-4.7,4.7h-48.9 c-3.2,0-5.5-2.4-5.5-5.5c0-1.6,0.8-4.7,0.8-7.9v-68.6c0-3.2-0.8-6.3-0.8-7.9c0-3.2,2.4-5.5,5.5-5.5c2.4,0,4.7,2.4,4.7,5.5 c0,1.6,0,4.7,0,7.9v73.3H367.9z" fill="#251E1D"  /><path d="M441.3,233.8c0,18.1-11,33.1-30,33.1c-18.9,0-29.2-15-29.2-33.1c0-18.1,10.2-33.1,29.2-33.1 C430.2,200.7,441.3,215.7,441.3,233.8z M431.8,233.8c0-13.4-7.1-25.2-20.5-25.2c-12.6,0-20.5,11.8-20.5,25.2 c0,13.4,7.9,25.2,20.5,25.2C424.7,259,431.8,247.2,431.8,233.8z" fill="#251E1D"  /><path d="M495.7,225.1c0-10.2-6.3-16.6-15-16.6c-7.1,0-13.4,3.9-17.3,9.5v35.5c0,2.4,0,4.7,0,7.9 c0,2.4-2.4,4.7-4.7,4.7c-3.2,0-5.5-2.4-5.5-4.7c0-3.2,0.8-5.5,0.8-7.9v-38.6c0-2.4-1.6-6.3-1.6-7.9c0-3.2,3.2-4.7,5.5-4.7 c3.2,0,5.5,1.6,5.5,4.7v1.6c4.7-5.5,11-7.9,18.9-7.9c13.4,0,22.1,9.5,22.1,23.6v29.2c0,2.4,0.8,4.7,0.8,7.9c0,2.4-2.4,4.7-5.5,4.7 c-2.4,0-4.7-2.4-4.7-4.7c0-3.2,0.8-5.5,0.8-7.9V225.1z" fill="#251E1D"  /><path d="M516.1,233c0-18.1,10.2-32.3,27.6-32.3c7.1,0,12.6,2.4,15.8,5.5V181c0-2.4,0-4.7,0-7.1 c0-3.2,2.4-5.5,4.7-5.5c3.2,0,5.5,2.4,5.5,5.5c0,2.4-0.8,4.7-0.8,7.1v72.5c0,2.4,1.6,5.5,1.6,7.1c0,3.2-3.2,5.5-5.5,5.5 c-3.2,0-5.5-1.6-5.5-4.7c-3.9,3.2-8.7,5.5-15,5.5C526.4,266.9,516.1,251.9,516.1,233z M559.5,251.9v-36.3c-3.2-4.7-7.9-7.1-15-7.1 c-12.6,0-18.9,11-18.9,24.4c0,14.2,7.1,26,19.7,26C550.8,259,556.4,257.5,559.5,251.9z" fill="#251E1D"  /><path d="M639.1,233.8c0,18.1-10.2,33.1-29.2,33.1c-18.9,0-30-15-30-33.1c0-18.1,11-33.1,30-33.1 C628.9,200.7,639.1,215.7,639.1,233.8z M630.5,233.8c0-13.4-7.9-25.2-20.5-25.2c-13.4,0-20.5,11.8-20.5,25.2 c0,13.4,7.1,25.2,20.5,25.2C622.6,259,630.5,247.2,630.5,233.8z" fill="#251E1D"  /><path d="M693.5,225.1c0-10.2-6.3-16.6-15-16.6c-7.1,0-13.4,3.9-17.3,9.5v35.5c0,2.4,0.8,4.7,0.8,7.9 c0,2.4-2.4,4.7-5.5,4.7c-3.2,0-4.7-2.4-4.7-4.7c0-3.2,0-5.5,0-7.9v-38.6c0-2.4-0.8-6.3-0.8-7.9c0-3.2,2.4-4.7,5.5-4.7 c2.4,0,4.7,1.6,4.7,4.7v1.6c4.7-5.5,11.8-7.9,19.7-7.9c13.4,0,22.1,9.5,22.1,23.6v29.2c0,2.4,0.8,4.7,0.8,7.9c0,2.4-2.4,4.7-5.5,4.7 c-3.2,0-5.5-2.4-5.5-4.7c0-3.2,0.8-5.5,0.8-7.9V225.1z" fill="#251E1D"  /><g><path d="M88.3,78.6c1.3-6-1.5-27.2,5.6-22.6c2,1.8-0.1,7.3-0.1,8.2c4.8,1.7,8.2,14.9,13.8,7.5 c7.3-18,0.9-4.3,14.9-5c3.7,3.3,6.6,2.2,9.5-1.1c3.4-5.4,9.4,2.3,13.4-2.8c55.5-14.2-0.8,82.5-33.5,48.3l0,0 C97.6,105.1,89.3,92,88.3,78.6z" fill="#15A7E0"  /><path d="M223.7,171.5c8,4.5,7.7,10.7,2.8,18.1c-1.9-4-7.5-10.5-11.4-7.2c-0.1,3.9,7.2,0.8,8.7,4.7 c-1.5,3.1-6.4-0.8-6.3,3.6c-0.4-1.8,2.1-2.7,3-2.1c1-1.2-0.1,4.4,2.1,0.6c3-2.3,9.3,1.2,3.4,4c-0.1,2.2,2.9,2.8,2.6,5.1 c-0.9,2.3-1,5.5-3.1,9c0,7-4.3,0.6-3.6,7.6c0,8.2-7.2,4.5-3.5-1.8c-0.7,2.3-4,3.9-7.2,3.2c3.3-1,6.8,2.9,1.9,3.4 c-3.2-0.2-7.2-1.6-7.7,2.9c-3,3.5-3.2-2.4-3.3-3.8c1.1,3.7-2.5,7.8-4.6,2.9c-0.6-0.7-0.4,1.4-1.2,1.8c-4.3,0.9-1.7-10.3-8-5.6 c-4.4,4.7-5.8-2.8-8.9-0.5c-7,1.5-13.9-5.7-4.5-9.7c-3.9,1.3-7.3-4.6-1.6-4.1c-5.4-0.7-3.1-6.6-3-11c-13,6-8.6-2.8-0.5-7.2 c-4.7-0.2-5.7-3.2-4.5-7.6c0-2.8,5-2.6,3.7-6.2c0.9-5.2,11.7-2.7,13.9,0.3c-2.3-2.3-7.1-4.9-0.9-6.1c6.3-5.8,6,0.5,4.3,5.8 C188.7,158.8,216,163.1,223.7,171.5z" fill="#FDC74F"  /><path d="M47.5,260.7c-12.5-12,17.4-69.9,21.8-39.8c0,4.1,10.5,5.3,4.7,9.3c6.1-2.3,5.4,7.5,12.3,6.9 c9.4,0.2-1.2,5.1,3.1,8.6c1.6,1.2,3,2.5,3.7,5.6c1.1-10.4,13-1.9,19.8-4.9c2.6-2.5-2.6-2-1.5-3.9c1.9-3.9,5.3-3.5,8.7-3 c6.7,2-8.3,22.6-12.9,21.3c-4.6,2.7-11.7,24.5-13.8,7.5c-0.2,5.1-8-1.1-5.6-4.1c-5.1,2-8.1-0.4-9.6-5c-3.1-4.1-12.7,0.2-9.8-7.9 c-10.1-2.9-1.3-15.8-9.4-20.1c-20,29.2,18.9,31.4,19.9,45.6C114.6,275.3,65,298.7,47.5,260.7z" fill="#F28B38"  /><path d="M112.9,247c1.2,6.8-16.9-5.8-18.6-4.7c-0.9-0.1-2.2-0.5-1.9-1.3c-1.3-8.2,3-15.7-0.9-23.6 c-1.3-2.3-0.2-9.5,3.5-6.2c8.3,3.9-5-13.3,9.9-10c2.9,0,5.7-0.1,7-3.5c2.6-2.6,14.9-5.4,18.3-2c3.8,2.9-0.8,7.6,3.3,11.2 c1.6,1.9-2,4.6-2.6,7.3c2.8,0.2,5.7,1.7,7.1-2.7c3.2-4.9,7.9,11.4,3.6,11.2c4.9,8.3-1.1,20-6.2,27.4c-4.2,3-10.3-7.8-4.4-9.8 c-2-6.2,5-16.7,1.7-20.1c-2.9,4.2-13.2,8.5-3.6,11.4c0.4,5.7-6,1.3-5.8,4.6C127,245,107.6,235.6,112.9,247z" fill="#F28B37"  /><path d="M247.3,59.5c10.5,18.8-43.2,23.5-19.6,43.5c0.5,2.6,3.3,5.9-2,6.7c-10.1-5.3-21-6.7-26.7-17.5 c0.1-5.9-12.9-1.4-5.5-9.6C205.8,65.8,226,45.6,247.3,59.5z" fill="#7DBB51"  /><path d="M117.2,197.4c-1.8-0.1-3.8-2-4.6,1.9c-1.8,8.6-18.9-3-13.4,9.1c0.6,1.7,1.9,4.3-0.8,5.8 c-3.3,1.8-3.6-1.7-5.5-3.7c-1.8,6.9,5.1,14.9-0.5,22.5c-1.3,17.2,3.2,0.6,10.8,14c-1.3,6.8-10.1-6.1-8.3,3.7 c0.1,7.9-4.8-3.7-7.4-4.4c-3.8-3-1.2-5.3,2.3-6.5c-3.2-4-11,1.7-10.6-6.7c-1-4.1-7.4-0.2-9.8-3.5c1.9-1.3,4.8,1.2,5.9-2 c-0.4-1,1.1-2.6-1.4-3.1c-4.8-1.2-1.9-9.5,2.9-6.2c2.6,2.2,13.5-2.5,7.2-5.4c-2.7-1.1-3.3-2.7-2.4-4.2c-1.9,2.9-10.4,9.4-13.8,5 c-1.8-2.1-3.7,2.6-5.4-0.2c7.9-9.8,29-48.3,44.7-34c-0.3,3.4-9.2,3.7-2.3,4.1c3.6,3.4-2.5,7.8-5.8,6.5c2.2,1.8,3.4,7.3,7,5.1 c2.6-5.5-2.9-12.1,8-5.6C120.1,192.4,128.7,191.9,117.2,197.4z" fill="#F28C3B"  /><path d="M264.6,92.8c9.3,19.7-83.7,76.5-62.8,42.9c2.4-5.4,8.8-6.5,11-12.1c5.4-1.9,23.5-0.8,20.7-9.9 c-13-11.7,6.3-15.8,12.2-22.7C250.3,84.3,269,78.2,264.6,92.8z" fill="#81BD54"  /><path d="M175.6,236c-6.4-10.1-20.7-15.8-21-29.9c-6.8-3.1-3.7-20.9,2.6-11.2c-2.1,3.3,5.6,6.2,8.5,5.8 c5.5-1.6,1.8,9.2-2.7,9.2c-3.5,2-3.1,3.1,0.9,4.3c-8.1-7.4,8.1-3.7,6.4,3.8c1.8,0.2,5.5-3.4,4.5,2.4c-0.1,3,6.3,2,7.3,6 c-2.9,4.6,5.7,6.5,0.6,10.5c6.4-11.8,2.4,7.7,10.5,1.9c-7.8-3.5,5.4-11.2,3.6-2.9c-0.2-3,11.4-21.9,13.4-10.1 c2.8-7.2,13.2,3.4,16-9.6c4.9-7.7,3.8,12.2,10.7,13.3c3.3,1.5-2.4,3.2-3.9,2.8c-2.9-0.9-2,3.3-4.3,3.2c0.2,1.5,2.1,3.4-0.8,4.2 c-3.9,3.9-3.9,13.7-11.7,13c-1-1.3,0.1-2.3,0.5-3.4c-1.1-2.2-5.2-2-4-6.6c1.8,8.2-11.9,9-5.6-0.4c-4.2,0.4-10.8,10-12.8,1.6 C196,262.5,176.7,245.5,175.6,236z" fill="#FDC850"  /><path d="M32.3,163c-9.1-3.5-19.8-7.7-16.5-19.6c1.1-3.5,6.4,2.1,9.1-1c7.1-3.8,8.1,15.5,10.3,4.8 c0.3-1.7-0.2-4.1,1.8-4.6c10.2,1.1,6,26.5,14.6,2.4c1,6.7,8,6.2,10.8,10.6c-0.8,3.4,3,9.1,5.1,3.5c0.6-2.5-1.8-5.8,1.9-7.5 c2.8,0.1,5.7-1.7,8.5,0c2.2,8.3,15.7,7.9,17.3,16.1C78.3,185.4,50.7,170.1,32.3,163z" fill="#DE3285"  /><path d="M164.5,61.6c-6.6,4.4-14.3-4.7-19.5,3.7c-0.7,1.2-5.5,2-8-0.5c-5.8-1.5-8.2,11.9-15.4,2.5 c-5,1.1-6.5-2.7-0.7-3.1c2.4-1.5,3.4-0.4,3.9,2.1c2.1-16.6,3.2-1.8,16.6-8c-15.6,5.4-8.8-7.2,2-8.2c-5.7-3.6-20.5,16-21.3,1.8 c3.5-6.1,11.6-6.8,12.8-14.8c3.1-1.1,5-4.7,8.3-5c0.8,0.7,1.9,0.1,0.4-0.3c-4.6,1.5-8.5-4.2-3-6.2c4,1.9,8.4-5,10.1,1.7 c1.8-3.4,7.9-5.6,4.6,0.1C160.6,23,166.2,58.7,164.5,61.6z" fill="#17AAE2"  /><path d="M94.7,166.1c-3.7-2.1-9.2-3.3-9.3-8.9c-5.5-2.8-2.8-7.2-3.1-11.5c-3.1-7.6,7.2-11.7,1.6-18.1 c0.4-8.4,7.4-1.4,5.3-5.7c-0.9-3.7-10-7.3-0.6-7.8c4.1,1.2,12.7-6,9.3,2.6c15.2,1.1,19.9,52.1-1.2,41.2 C98.1,161.9,97.4,164.4,94.7,166.1z" fill="#DD3A86"  /><path d="M111.9,62.6c-7,28.7-12.8,0.6-20,4.8c-0.4-3.9,3.1-7.4,2.3-11.3c-9.7,1.1-6.9-21.6-2.7-28.1 c7.1-0.1,18.7,8.8,13.8,18.1c1.2-5.7,4.9-2.4,8.9-3c0.8,1.1,1.5,1.7,2.2-0.1c2.8-4.7,10.5-1.3,13.3,1.7c0.2,4.2-6.6,1.6-9.1,3.7 C119.9,53.3,114.3,57.8,111.9,62.6z" fill="#18AAE2"  /><path d="M22.5,87.3c17.1-12.8,40.4,0.5,57.8,7.8c18.3,6.6-8.2,15-15.2,6.7C54.3,94.9,22.8,102.2,22.5,87.3z" fill="#DD3285"  /><path d="M189.2,252.5c1.8-6,20.7-2.8,11.3-0.4c10.9,10,29.8,1.3,35.2-10.7c0.8-2.4,1.1,3.7,2,0.1 c0.5-2,2.2-3.6,4-3.9c4.9,0.4,3.3-10,6.3-4.2c6.8-9.6,3.1,20.3-9.1,24.7C223.8,270.6,200.4,266.5,189.2,252.5z" fill="#FCC74E"  /><path d="M125.8,231.9c-5.4,4.1-1.7-9.5,4.3-8.6c-0.1-1.8,0.2-3.5,2.1-4.3c6.1,6.4-2.8,13.7,0.7,22 c1.5,3.9-5.1,0-3.8,2.9c2.1,2.1,1.5,6.9,6.2,6.3c-1.4,2.3-12.1,13.2-9.1,4c1.3-1.3,1.1-2.6,0.1-4.2c2.3,5.5-5.6,10.6-10.7,8.9 c-1.3,0.1-2.5,2.9-3.8,0.1c1.7-9.2,14.1-16.1,9-25C126.2,236.2,133,229.1,125.8,231.9z" fill="#F28C3B"  /><path d="M167.6,126.2c0.3-19.8,14.4-9,20.5,1c4.2,5.4,17.7-1.6,14.1,8.7c-3.4,0.5-7.7,0.8-10.5-1.6 c2.5,7.5-6.7,10.1-8.9,3.1C181.5,128.2,166.5,142.2,167.6,126.2z" fill="#8BC26A"  /><path d="M165.6,201.7c-8.2,2.7-6.8-9.9-13.8-8.6c-3.3-7.9,3.8-15.4,8.8-20.2c6.2,2.1,3.1,13.5,12.4,11.6 c-3.9,3.1-18,12-7.4,8.5c2.3,0.3,3.7-4.5,5.6-1.8C173.8,204.2,169.4,197.4,165.6,201.7z" fill="#FDC859"  /><path d="M116.1,0c6.8,0.2,28.2,0.1,14.7,8.1c2.5-2.5,9.5-0.2,6,3.1c-3.8,0.9-6.8,8.5-11.4,4.6 c-2.2-1.8-6.5-10.8-9-6.1c-4.1,0.6-3.5,10.5-8.8,5.1c-1-1.6,1.9-5.2-1.6-4.6C91.6,31.5,99.6-5.3,116.1,0z" fill="#24A7DE"  /><path d="M223.7,87.4c6-8.3,33.8-30,35.1-12.2C247.6,76.2,232.5,97.8,223.7,87.4z" fill="#8BC26B"  /><path d="M199,135.9c10.1-0.8-2.2,4.8,0.5,8.1c2,7.2,36.1-19.2,33.2-9.5c-10,14.5-25.6,23.9-40.1,8.9 C184.9,139.5,195.9,137.6,199,135.9z" fill="#86BF5F"  /><path d="M138.5,197.4c5.3,8.2,6.7,18.9,4.7,28.3c-0.3-2.7-5.9-1.2-4.1-5.7c6.7,3.9,1.8-5.5,0-10.3 c-0.5,11.1-4.3,3.7-9.5,7.4c-1.3-3.7,1.9-6.6,3.4-9.6c-6.5-2.4-0.8-7.8-2.8-11.3C131.4,193.2,136.8,195.3,138.5,197.4z" fill="#F28C3C"  /><path d="M224.8,193.1c0.5-2,0.5-2,3.2-2.6c-4.4-1.1-4.4-1.1-6,6.3c-3.5-1.7,1.1-7-3.6-8.1c1-1.6,3-0.7,5.2-1.7 c-4.9-1.6-16.2-0.4-8.7-6.8c1.6-2.8,13.1,3.5,10.9,7.9c2.5-2.6,4.4-14.6,5-7.1C232.1,174.4,249.2,201.5,224.8,193.1z" fill="#FDC858"  /><path d="M250.7,240.5c-0.4-12.2-0.5-3.3-3.5-8.8c-1.4-0.3-2.7,1.9-4.2,0.1c0.1,4.5-11.2,2.5-6.3-1.8 c-4.4,1.3-6.1-8.5-1.5-6c8.2,3,3.6-5.7,4.6-9.7c6.3-1.1,6.2,9.5,13.5,8.8C255,227.6,255.9,238.8,250.7,240.5z" fill="#FDC95D"  /><path d="M1.2,116.8c8.8-7.9,7.2,8.5,6.6,13.7c-2.8,3.2,2.8,7.4-3.8,8.6C-2.9,137.4,0.8,122.9,1.2,116.8z" fill="#DE3385"  /><path d="M199,135.9c-0.9,1.8-0.9,4.6-4.4,2.6c-10.4,2.8,11,8.6,11.9,13.5c-6.7,1.9-18-3.9-19.4-10.7 C195.3,137,179.8,128.6,199,135.9z" fill="#88C065"  /><path d="M187.3,78.1c10.3-12.1,10.4-3.7,5.5,6.2c-4.6,5.1,7.3,6,2.3,10.8C186.1,96,178.9,83,187.3,78.1z" fill="#84BF5E"  /><path d="M264.6,92.8c0.6-3.5-2-11.1-5.6-7.8c-12.8,11.2-18.9-12-2.1-3.6C259.6,66.7,268.1,86.1,264.6,92.8z" fill="#87C061"  /><path d="M260.4,75.4c-5.5,19.8-5.5-3.6-14.1,8.8c-6.5,1.1-11.5,10-17.9,8.6C223.4,91,257,71.2,260.4,75.4z" fill="#83BE57"  /><path d="M194.7,90.7c-9.1-0.5,2.4-15.6,0-18.4c16-14.6,10.8,2.5,0.4,10.4C188.9,86.6,195.6,86.8,194.7,90.7z" fill="#83BE58"  /><path d="M178.5,117.6c-18.2-3.6-2.5,5.6-10.9,6.5c-3.2-4.4-2.1-10.3-1.7-15c2.1-0.2,4.5,2.5,6.2-0.7 C175.7,106.4,184.2,114.4,178.5,117.6z" fill="#90C473"  /><path d="M187.1,141.3c1.7,3,3.7,5.4,7.6,5.6c9.8,8.7-9.4,2.9-13-2.2c-4.9-2.7-3.6-7.9,2.2-7.7 C186.2,137.6,184.3,141.2,187.1,141.3z" fill="#90C477"  /><path d="M204.7,163.8c-8.2,7.7-7.2-3.1-12.6,4.9c-3.8-7-3.5,0.8-6.5,5.6c-1.3-4,1.7-7.1,0.3-10.4 C177.4,171.8,182.6,154,204.7,163.8z" fill="#FDC756"  /><path d="M252.6,223.3c-8.4,3.2-6.6-7.6-12.8-8.6c-2.3,0.2-3.1-1.2-3.4-3.2c0.7-0.9,1.6-1,2.7-0.8 c1.7,1.7,2-1.7,3.4-0.9c2.2,0.6,3.8,2.9,6.4,2C255,209,252.9,220.1,252.6,223.3z" fill="#FDD07D"  /><path d="M19.4,143.5c-6.2-2.5,0.1,9.1-2.8,10.6c-5.7-0.4-0.9-8.8-7.7-8.6C-7.7,136.9,17.4,134.3,19.4,143.5z" fill="#DC3984"  /><path d="M183.9,137c-4,1.6-6.2,3.8-2.2,7.7c-5.5-3.7-17.4-11.4-4.4-11.7C182.7,128.7,181.8,133.5,183.9,137z" fill="#92C67A"  /><path d="M94.7,280.5c-4.6,2.5-10.3,4-15.3,2.1c4.4,1.3,7.2-3,11.4-3.1c-2.9-3-9.2-0.3-6.1-6.3 c0.8-3.9,6.6-4.4,6.7,0.2c0.6,2.8,2.4-1.2,3.4,0.5C96.2,275.6,97,279.1,94.7,280.5z" fill="#F29048"  /><path d="M115.1,257.7c0.4-0.3,1-1,1.2-0.9c5.6,4,6.2-2.5,10.6-3.4c0.5,5.9-2.6,10.7-8,14.3 C116,265.1,118.8,260.5,115.1,257.7z" fill="#F29249"  /><path d="M219.4,147.6c4.4-5,9.6-10.7,12.9-16c8.2,2.6-2.5,12.1-6.7,13.7C224.5,146.9,221,149,219.4,147.6z" fill="#8CC26B"  /><path d="M215.2,58.5c15-4.2-5.5,7.8-8.7,9.5C194.6,67.5,211.1,60.2,215.2,58.5z" fill="#84BE59"  /><path d="M182.8,163c1.5,5.6-3.6,2.8-4.3,6.4C160.1,172.1,172.7,162.7,182.8,163z" fill="#FCCA65"  /><path d="M251.5,211.5c-5.7,2.8-5.6-8.6-9.1-11.6C233.2,176.4,252,202.5,251.5,211.5z" fill="#FDD589"  /><path d="M255.9,68c-11.5,6-8.3,0.3-8.5-7.6C251,60.6,257.2,63.7,255.9,68z" fill="#81BD57"  /><path d="M235.3,134.8c-11.1-8.5,26.3-19.9,5.5-6.5C238.5,130.3,236.5,132,235.3,134.8z" fill="#8AC163"  /><path d="M240.9,189.8c-1,1.5,1.7,4.4-1.1,4.3c-2.4,0.8,0.2,5-3.3,5.1C227.5,199.9,238.1,186.2,240.9,189.8z" fill="#FCCE70"  /><path d="M168.9,167.3c2.5,3.9-2.8,6.3-6.5,6.4C158.2,171.8,167.1,167.5,168.9,167.3z" fill="#FCCD73"  /><path d="M8.8,145.5c1.3-0.3,3.2-2.2,3.6-0.9C19.3,151.8,9.6,153.3,8.8,145.5z" fill="#DF3988"  /><path d="M19.5,88.8c2.6-5.2,10,7.2,3.7,5.8C21.3,93.4,19.3,91.3,19.5,88.8z" fill="#DA3584"  /><path d="M134.4,1.1c2.6,2.4-6.4,2.6-7.5-0.9C129.6-0.7,131.8,1.7,134.4,1.1z" fill="#34ADE1"  /><path d="M217.5,149c-2.6,2.7-6.5,2.2-9.9,3C210.6,150,213.8,148.7,217.5,149z" fill="#8DC36B"  /><path d="M255.9,67.1c2.5,0.8,2.6,3.1,3.1,5.3C254.8,72.8,255.7,70,255.9,67.1z" fill="#9BCA85"  /><path d="M89.5,57.3c3.7,2.2,2.3,4.3-0.1,6.4C89.4,61.6,89.4,59.4,89.5,57.3z" fill="#10AEE0"  /><path d="M111.9,274.1c0.1,0.8-0.2,1.2-1.1,1C101.6,273.1,114.5,265.5,111.9,274.1z" fill="#F7BD98"  /><path d="M98,112.1c1,1.8,2.9,3.4,3.3,5.4C97.8,117.2,96.7,115.3,98,112.1z" fill="#DE3B85"  /><path d="M231.3,178.9c1.4,7.4-1.7,4.5-1.1-1C230.6,178.2,230.9,178.5,231.3,178.9z" fill="#FDC74F"  /><path d="M54.9,171.4c-2-0.3-3.9-0.7-5.6-1.9C51.5,169.2,54.1,167.7,54.9,171.4z" fill="#DD4787"  /><path d="M107.6,272.8c0.9,1.1,3.4-0.3,3.3,2.2C110,277.4,105.5,275.3,107.6,272.8z" fill="#F5AE81"  /><path d="M236.6,132.6c-0.9-2.1-0.7-3.3,2-2.1C238.1,131.4,237.8,132.5,236.6,132.6z" fill="#8CC26B"  /><path d="M111.9,62.6c1.3-5.3,3.8-9.9,8.6-12.9c-5.5-3.5,4.7-4.2,7.5-3.3c-4.6,3.5-5.9,9.3-11.1,11.9 C115.8,60.4,115.8,63.4,111.9,62.6z" fill="#49B1E4"  /><path d="M116.2,59.4c-1-3,9.2-7.1,8.2,0.3c-3.3,1-1.3,4.4-2.8,6.2c-2.7-0.9-5.2,0.7-7.5,2.2 C110,64.1,116.3,63,116.2,59.4z" fill="#29ABE1"  /><path d="M112.5,77.2c1,6,0.4,2.2,3.5,1C121.8,87.2,107.8,95.2,112.5,77.2z" fill="#21ACE2"  /><path d="M116.2,59.4c2.1,3-3.2,5.6-3.2,3.2C113.7,61.3,115.7,61.1,116.2,59.4z" fill="#1EAFDD"  /><path d="M91.1,88.6c-2.2-1.6,1.1-4.3,1.7-1.3C93.1,88.7,91.9,88.4,91.1,88.6z" fill="#10ADDC"  /><path d="M114,68c0.1-0.9-0.3-2.2,0.8-2.6C117.1,65.2,116,68.6,114,68z" fill="#18AEDD"  /><path d="M93.6,56.2c0.8-2.5,2.9,2.8,0,3.2C93.6,58.3,93.6,57.3,93.6,56.2z" fill="#12AEDD"  /><path d="M233.4,197.4c6.5,1,4.2,4.5,2.8,8.8c-0.7,7,9.9,11.4,4.2,19c-4.7,7.5-3.9-3.1-8,0.3 c-5.3-0.1-2.6-6.9-3.5-11c-4.1,19.3-17.2,4-18.2,14.2c-2.6-1.3,0-8.2-6.2-5.4c0-6.2,0-6.2,10.3-5c-1.8-3.1-5.7,0.1-7.8-3.7 c6.5,1.9,11.8,2,10.3-7.5c4.5,4.2-0.2,8.5,1.8,12.5c3.1-4.2,0.3-9,2.2-13.1c4.7,8.1,1-2.3,5.7-5.1c-4-2.6,3.2-2,1.1-4 c0.6-7.9,6.2-1.3,4.3,3.4C233,199.8,232.3,198.3,233.4,197.4z" fill="#FDC855"  /><path d="M181.8,226.5c-7.4-4.8-3.3-3.1-6.5-0.6c-2.8-2.8,0.3-12.8-5-5.6c-3-2,2.8-7-3.7-6.3 c-1.7-0.5-0.5-5.6-3.9-2.8c-1.9,1.5,4.2,1.6,1.3,4.4c-1.1-2-3.8-1.4-5.8-2.7c2.6-1.3,3.3-5.1,7-4c0.1,0,0.8-1.1,0.7-1.1 c-4.6-3.5,0.4-2.9,1.6-3.7c0.7-4.7,3.3-1.5,7.1-0.9c-6.3,2-2.5,3.4,2.3,4.6c-10.8,3.9-4,4.3-3.9,8.6c1.8-1,3.7-1.6,5.5,0 c1.9-4.3,3.6-1.4,4.2,0.5c5.3,4.6,12.7-8.5,12,6.5c5.2,9.3-8.2,14.2,0,14.3c1.4,2.4-4.5,4.4-6.7,3.6c-2.9-0.7-1-3-1.5-4.4 C186.8,232.2,182,231,181.8,226.5z" fill="#FDC858"  /><path d="M204.3,223.3c2,5.4-3.7,6.5-5.7,9.5c-3.3,10.8-3.8-9.7-2.9-13.8c5.1,3.1,5.1,3.1,5.8-3.8 C204.1,217.6,200.9,221.7,204.3,223.3z" fill="#FDC858"  /><path d="M165.6,178c-4.3-0.6,0.7-6.2,3.2-6.5C174.6,171.7,166.6,176.3,165.6,178z" fill="#FDCA71"  /><path d="M218.4,188.6c-0.3,2.1,0.4,4.1-1.2,5.9C216.3,192.4,214.9,190.3,218.4,188.6z" fill="#FDC858"  /><path d="M224.8,193.1c3.2-0.7,4.9,1.3,3.2,4.3C227.7,195.4,222.8,196.8,224.8,193.1z" fill="#FDC855"  /><path d="M169.9,201.7c-1.7,0.3-2.9-1-4.3,0C163.1,198.2,171,197.4,169.9,201.7z" fill="#FDC865"  /><path d="M195.7,223.3c-0.4,2.5,0.9,7.1-0.5,8.6C194.4,230.9,193.8,223.2,195.7,223.3z" fill="#FCC667"  /><path d="M163.5,193.1c0.1,0.7,1,1.9-0.3,1.9C159.7,195.7,159.4,192.1,163.5,193.1z" fill="#FCC867"  /><path d="M178.5,169.4c0.1-2.7,4.2-0.3,3.2,2.2C180.7,170.8,179.6,170.1,178.5,169.4z" fill="#FDC756"  /><path d="M183.5,169c0.5,1.3,0.7,2.9-0.5,3C180.3,172.3,183.3,170.1,183.5,169z" fill="#FDC756"  /><path d="M67.8,213.6c7.3,3.3,10.4-4.4,16-7.5c0.8,1.3,0.4,2.1-0.7,2.6c-2.4,1.2,0,3,0.2,2.9 c3.6-1.2,3.1,2.8,4.9,3.8c-6.9,7.3-5.2,2.1-11.1,5.5c-2.8,1.8,0.6-3.8-3.5-2.4c-1.8,0.8-1.5,5.7,1.4,5.4 C84.4,227.3,63.4,230.5,67.8,213.6z" fill="#F28E42"  /><path d="M52.7,240.5c0.8-10.7,12.7-14.4,11-0.4c-1.7,4.4,5.9,10.1,1.2,13C56.1,258.1,62.5,241.9,52.7,240.5z" fill="#F28E3F"  /><path d="M60.2,253.5c4.6-1.2,8.7-0.8,4.9,4c1,10.3-3,5.1-8.4,0.2c-14.6-24.6,10.3-18.5,2.3-3.4 C59.5,254,59.9,253.7,60.2,253.5z" fill="#F2924C"  /><path d="M82.8,277.1c-5.7,0.7-5.6-5.2-8.6-7.5c-1.1-2.3,2.7-2.3,2.1-4.4c-2.5-1.1-4.9-2.7-3.4-5.7 c6-5,7.3,3.4,11.2,6.3C91.4,269.3,81.8,272.3,82.8,277.1z" fill="#F29048"  /><path d="M83.9,271.8c7.6-4.8-10.9-6.1,5.5-9.5c0.1,2-2.1,3.3-1,5.1c4.6-4.3,1.3,2.7,3.6,2.2 c0.2-1.9,1.4-3.1,4.4-2.7c-3.4,3.7-0.2,8.1-6,10.2c-2.6-1.5,1.7-4.4-1.6-5.7c-2.8-1.1-2.5,2-4,2.7C83.2,273.9,83.2,273,83.9,271.8z" fill="#F28F41"  /><path d="M94.7,280.5c0.3-8.7,3.8-6.5,7.4-14.1C110.3,267.6,102.2,282.9,94.7,280.5z" fill="#F39757"  /><path d="M79.6,258.8c-3.4-0.5-14.4,3.4-15.1-1.1c0.4-3.8,0.6-9.9,6.6-7.1C63.4,258,77.4,253.3,79.6,258.8z" fill="#F28D3E"  /><path d="M63.5,263.1c2.9-4.2,7-3.5,9.7,0l0,0c0.6,1,0,1.7-0.5,2.3c-1.6,0.8,1,2.3-0.5,3.1 C68.8,267.9,65.8,265.3,63.5,263.1z" fill="#F3975B"  /><path d="M111.9,258.9c1.6,1.3,2-1.1,3.2-1.1c6.6,4-3.4,6.1-6.6,4.9C104,258.3,109.1,259.6,111.9,258.9z" fill="#F29249"  /><path d="M72.1,268.5c-3.1-4.4,5.7-6.5,7.4-1C75.9,266.2,74.9,270.9,72.1,268.5z" fill="#F2944F"  /><path d="M112.9,247c-3.5-2.3,1.8-6.4,3-2.2C116.5,247.1,114.5,246.9,112.9,247z" fill="#F28C3B"  /><path d="M83.9,271.8c0.7,3,3.1,3.1,0,5.4C79.7,276.8,82.3,273.1,83.9,271.8z" fill="#F29355"  /><path d="M106.5,259.9c5.3,0.8-0.8,5.7-3.2,3.2C104,261.7,105,260.6,106.5,259.9z" fill="#F39757"  /><path d="M63.5,263.1c1.4,0,2.1,0.8,2.1,2.2C64,266,60.7,263.3,63.5,263.1z" fill="#F3914A"  /><path d="M102.1,266.4c-1.7-1.8-1.2-2.8,1.1-3.3C104.4,264.6,103.6,265.7,102.1,266.4z" fill="#F39757"  /><path d="M110.8,175.9c4.5-0.1,2.3,4.3,1.3,6.3c2.9,2.2,6.8,0,9.6,3.1c-1,2.5,2.2,1.4,2.4,2.8 c3.2,2.9,12.4,0.2,8.3,7.2c-7-1-21.1,6.1-9.9-2.9c-6.6,1.8-14.2-3.4-17-7.8l0,0c0.3-6.2,2.8-4.6-3.3-7.8 C104.5,174.4,108,177.8,110.8,175.9z" fill="#F28E40"  /><path d="M94.7,241.6c-3.6,8.2-3.1-7.5-4.9-10.1C94.6,231.9,93.5,238.2,94.7,241.6z" fill="#F28B38"  /><path d="M135.5,223.3c-3.7,0.5-4.6-1.1-3.2-4.3C137.9,217,134.6,221.7,135.5,223.3z" fill="#F28C3C"  /><path d="M125.8,231.9c0.3-1.5,0.4-3.7,2.2-3.6C130.6,229.7,128.7,232.9,125.8,231.9z" fill="#F28C3C"  /><path d="M130.1,223.3c-0.7,1.1-1.5,3.9-3,3C125.7,224.6,128.6,222.8,130.1,223.3z" fill="#F28C3C"  /><path d="M194.7,90.7c1.9-6.3,4.9-5.3,5.4,1.1c-1.6,4.9,12.5,8.4,12,15.1c6.4,19.7-18,1.2-8.5-5.8 C178.7,100.3,196.1,99.5,194.7,90.7z" fill="#81BD56"  /><path d="M229.1,89.6c-2.4,7.4,10.7-4.5,14.2-5.9c6.6-1.4,2.7,9-2.8,7.7c-2,3-5.5,6.2-8.3,7.9 c-3.6,7.7-4.6,4.6-7.1-1.8c-0.8-4.6-1.5-3.6-4.8-4.7C219.6,85.3,224.6,88.9,229.1,89.6z" fill="#89C166"  /><path d="M225.8,97.1c5.4,3.4-1.5,10.9,6.5,2.2c-5.1,16.9,2.3,7,3.3,16.6c-0.2,5.7-22.8,13.5-21.5,3.3 c8-0.4,20.1,2.4,10.3-9.6C232,107,223.2,101.8,225.8,97.1z" fill="#86BF60"  /><path d="M212.9,113.3c-3.4-1.6-2.7-4.9-2.2-7.2c-5.3-13.3,27.4,11,5.8,2.3C215.5,110.2,216.5,117.3,212.9,113.3z" fill="#83BE5D"  /><path d="M225.8,97.1c3.1,13.3-5.5,2.4-5.4-4.3C224.6,91.4,226,93.2,225.8,97.1z" fill="#84BE59"  /><path d="M203.3,96.1c-2.8,3-7.5-3.8-3.2-4.3C200.6,93.6,202,94.8,203.3,96.1z" fill="#85BF60"  /><path d="M106.5,188.8c6.5,5.2-2.5,12.4-6.4,5.4c1.6-1.1-0.1-3.1,1.1-4.3c-0.3-2.8,2.9-0.4,3.2-2.2 C105.5,187.1,106,188,106.5,188.8z" fill="#F28E41"  /><path d="M87.7,194.9c1.2-1.4,2.5-1.9,3.9-1.8c3.7,0.4-1-2.8,3.6-2.6C101,196.1,92.3,199.2,87.7,194.9z" fill="#F28E44"  /><path d="M106.5,180.1c1.2,3.2-5.6,8-6.9,4.2C98.8,180.4,104.1,181.6,106.5,180.1z" fill="#F28F49"  /><path d="M79.1,224.6c2.9-0.1,4.5-1,5.7,0.6c-2.6,0.4-0.1,2.8-0.8,2.9C82,228.5,81.5,226.3,79.1,224.6z" fill="#F2904D"  /><path d="M77.5,211.4c-0.8,2-1.4,4.2-4.3,3.2C72.8,211.2,75.2,211.3,77.5,211.4z" fill="#F39255"  /><path d="M106.5,188.8c-2.7-0.7-1.9-2.2-1.1-4.3C106.1,186,108.5,187.5,106.5,188.8z" fill="#F28E55"  /><path d="M101.1,189.9c0.3,1.6,2,3.5-1.1,4.3C99.4,192.5,98,189.4,101.1,189.9z" fill="#F29158"  /><path d="M100,189.9c-0.9,1.7-3.1,0.6-2.5-1.2C98.4,186.3,99.2,188.8,100,189.9z" fill="#F28E41"  /><path d="M202.2,131.7c-1.6,0.4-4.6-1.2-2.5-2.8c-3,0.4-10.8-4.6-10.7-8c-2.7-4.2-9.4-8-1.9-12.3 c4.4,0.2,6.9,5.1,9.2,8.1c7.6,1.4,1.3,3.5,8.4,4.1c2,2.7,11.5-0.4,7.2,5.6C207.1,126.5,207.2,134.7,202.2,131.7z" fill="#90C574"  /><path d="M234.4,98.2c0.9-4.1-2.1-5.7,4.4-4.6c0.6-1.8-2.3-1.6-1.5-3.8c5.2,3,6.7-2.4,10-4.5 C252.4,89.5,241.3,100,234.4,98.2z" fill="#87C060"  /><path d="M206.5,130.6c1.9-4.9,1.9-4.9,5.4-4.3C211.4,129.4,209.5,130.7,206.5,130.6z" fill="#8DC36C"  /><path d="M213,124.1c-0.3-1.8-3.5,0.6-3.2-2.2C210.8,117.1,218.5,123,213,124.1z" fill="#89C166"  /><path d="M202.2,131.7c6.2-0.6,2.8,1.3,0,4.3C202.2,134.5,202.2,133.1,202.2,131.7z" fill="#86BF5F"  /><path d="M221.5,255.6c-8.3,3.7-16,3.3-23-4.1c6.7-0.3,14.9-5,13.7-13.4c0.4,3.8,0.1,7.6,3.8,9.9 c1.1,1.4-2.1,2.9,0,4.3C218.3,252.6,221.3,252.6,221.5,255.6z" fill="#FDC95C"  /><path d="M221.5,255.6c-6.8-2.1-3.1-8,3.9-7.4c-10.2-3.3-0.2-1.6-0.3-8.9c-0.1-3.6,2.3,0.6,3.3-1.3 c1.4-2.8-3.7-0.6-2.1-2.8c6.8-2.6,5.2,2.8,7.3,6.6C218.1,249.9,245.5,243.8,221.5,255.6z" fill="#FDCA68"  /><path d="M206.5,249.1c-1.1,0.7-1.6,2.4-3.2,2.2c-7.6-3-11.3,0.7-9.7-10.1c2,5.2,4.1,6,7.6,2.3 c1.9-2,5.7-0.3,5.9-4.1C209,242.9,205.7,245.8,206.5,249.1z" fill="#FDC756"  /><path d="M231.2,238.4c1.2-3.4-1.7-2.6-3.2-3.3C232.5,223.1,246.7,241.9,231.2,238.4z" fill="#FDCB5E"  /><path d="M181.8,226.5c2.7,1.3,2.3,4.7,4.3,6.5C181.6,233.3,176.6,229.6,181.8,226.5z" fill="#FDCA64"  /><path d="M183.9,233c2.7,0.2,0,5.4-2,6.3C180.3,236.2,183.2,235,183.9,233z" fill="#FDC858"  /><path d="M216.2,252.4c-4.4,1,0.4-5.5,0.9-5.2C218.7,249.1,216.3,250.6,216.2,252.4z" fill="#FDCA68"  /><path d="M157,197.4c-1,0.2-2.5,1.8-2.9-0.3C153.4,194.2,159.2,194.9,157,197.4z" fill="#FDC859"  /><path d="M157,197.4c0-0.7,0-1.4,0-2.2C160.1,198.2,157.4,202.9,157,197.4z" fill="#FCC666"  /><path d="M193,243.5c-2.1,0.7-3.3,1.5-5.2,0.8C189.1,243.2,190.2,242.4,193,243.5z" fill="#FDC858"  /><path d="M236.6,233c-1.7-0.2-3.2-0.7-4.3-2.2C234.4,230.7,236,230.6,236.6,233z" fill="#FDCA66"  /><path d="M86.1,124.1c-8.8,12.1,3.3,14.5-15.3,15.3c13.4,5.5,9,15.7-0.8,12.8c-0.9-3.6-5.2,1.7-6.7-0.9 c3.6,9.3-5.5,1.3-9.7,0.7c-3.2-0.2-1-3.7-2.5-5.2c-2.6,3.2,3.1,9.1-2.3,9.7c-2.7,0-6.2,1-5.7-3.8c-3.7-4.9,1.5-13-5.5-14 c3.3-22.9,16.5-7.3,8.6,8.8c2.8-7.2,2.7-19.6,0.8-24.7c-1.9-2.1,0.9-4.5,2.6-5.5c7.7-0.5,7.6-12.6,15.7-6.8 C75.3,115,82.2,112.6,86.1,124.1z" fill="#DF3487"  /><path d="M46.3,128.4c-5.3-2.1-6,6-8.6,9.2c1.4,2.1,4.4-2,5.1,1c1.8,4.8-1.4,9.3-5.8,4.7c-0.9,3.5,0.5,9.8-4.4,10.7 c-3.3-2.1,0.8-8.1-4.6-9.4c2.1-1.3,3.9,0.4,5.9-3.2c-8.8,9.5-7.1-14.8-4.3-19.2c4.3-3.2,9.5,5.1,13.5-0.7 C47,118.2,48.1,126.4,46.3,128.4z" fill="#DE3887"  /><path d="M77.5,152.1c5.8-10-15.5-9.9-5.7-15c16.7,2.8,2.9-4.5,12.1-9.8c7.2,4.6,1.5,10-3.1,13.4 c12.4,2.1-5.7,12.1,5.1,14.3C91.8,161.5,75.4,158.9,77.5,152.1z" fill="#DF3586"  /><path d="M28,131.6c0.3,4.3,2.2,8.9,1.1,12.9c-0.4,0-0.7,0-1.1,0c-0.5-3.4-3.3,0.6-4.2-2.2c-4.8-4.4-4.3-26,0.7-12.2 C24.9,130.5,27.2,130,28,131.6z" fill="#DF3C84"  /><path d="M105.2,157.5c-3.1,5.9-9.9,14.2-10.5,5.8c2.3-2-0.5-3.5-0.4-4.9C96.8,152.8,101.8,163.2,105.2,157.5z" fill="#DC498A"  /><path d="M69.9,151c-2.2,3.3-0.7,6.3-1.1,9.7c-0.3,1.2-2.9-2.3-2.1,1.1C59.9,165.7,62.7,148.2,69.9,151z" fill="#E13E85"  /><path d="M63.5,155.4c0.4,2.5,0.7,5,1.1,7.5C60.2,162,60.1,156.4,63.5,155.4z" fill="#DC458A"  /><path d="M66.7,161.8c-1.6-1.6-1.3-3.2-0.3-5.2C67.2,158.7,70.1,162,66.7,161.8z" fill="#DC458A"  /><path d="M24.8,142.4c0,2.3-3.8,3.8-5.4,1.1C21,142,22.6,141,24.8,142.4z" fill="#DC3984"  /><path d="M126.9,47.6c7.9-5.6-6.4-4.8-1.9-9.9c0.4-0.5,2.4-0.2,0.8-1.7c-2.3-5.9,8.6-2.6,8.8-8.9 c-0.1-3.3-4.8-0.7-5.7-3.7c3.3-2.6,0.4-7.1,3.9-9.4c-1.3-4.5,1.9-2.9,3.9-3c6.1,8.1,0.6,14.5,3.2,23.7 C134.3,35.5,133.5,50.8,126.9,47.6z" fill="#1EA4DD"  /><path d="M138.8,16.3c-0.1-2-5.6-1.9-2.2-5.4c-3.9-12.6,1.9-8.6,9.7-1.3c12.3,13.3,0.1,7.6,4.4,11.8 c1.3,2.5-2,2.7-3.3,3.5C137.9,34.6,143.3,19.3,138.8,16.3z" fill="#34ADE1"  /><path d="M126.9,56.2c2-5.9,11-1.4,10.1-8c-0.4-1.9,2.2-0.5,3.4-0.6c3.2-0.2,5.4,1.1,5.3,5.2c-2.9-2-5.2-1.6-7.6,0.4 C135.1,55.7,130.3,59.7,126.9,56.2z" fill="#1AADE2"  /><path d="M138.8,16.3c2.1,2.4,7-0.3,4.9,3C139.4,31.7,138.1,26.2,138.8,16.3z" fill="#18A7E0"  /><path d="M132.3,59.4c4.2-1.9,9.5,0,13-4.4C145.8,61.7,123.2,61.3,132.3,59.4z" fill="#1AADE2"  /><path d="M147.4,24.9c8.4-8,8.8,2.2,2.1,5.1C147.6,28.8,151.4,25.1,147.4,24.9z" fill="#2AAFE1"  /><path d="M151.6,42.1c-0.5-3.9,0.3-7.2-1.2-10.4C155,34,155.1,34.9,151.6,42.1z" fill="#14ACE0"  /><path d="M121.5,65.9c0.2-2.2-0.3-4.2-1.6-5.8c1.1-2.6,2.8,1.9,3.8-0.7c1.7,1.6,1.7-2.1,3.2-1.1 C128.3,63.7,124.3,62.9,121.5,65.9z" fill="#1EADDF"  /><path d="M139.8,34.6c-5.9-2.9,1.4-5.3,4.3-3.2C144,32.6,141.4,34.1,139.8,34.6z" fill="#18A7E0"  /><path d="M123.7,63.7c0.8-1.3,2-1,3.2-1.1c3.1,1.7-6.2,3.5,2.1,5.1C124,68,123.7,65.9,123.7,63.7z" fill="#15A7E0"  /><path d="M156,50.4c0.1-4.1-0.4-5.4,0.4-8.9C157.4,44.7,158.6,47.1,156,50.4z" fill="#12AEE2"  /><path d="M126.9,58.4c-1.4,2.5-5.2,0.9-2.2-1.1C127.8,54.2,133.3,58.6,126.9,58.4z" fill="#4CB1E4"  /><path d="M124.8,57.2c-1.5,2.4-2.2-1.8-4.3-2.1C123,50,123.3,53.8,124.8,57.2z" fill="#1EADDF"  /><path d="M143.1,32.5c1-1.4,3.3-2.4,3.7,0.1C147,35.1,142.7,35.1,143.1,32.5z" fill="#14ACE0"  /><path d="M135.5,36.8c1.1-1.4,2.6-2,4.3-2.2C139.5,37.6,138,38.2,135.5,36.8z" fill="#18A7E0"  /><path d="M129.1,58.3c2.9-3.1,4.3,2.3,0,2.2C127.9,59.8,129,59,129.1,58.3z" fill="#15A7E0"  /><path d="M130.9,65.2c-0.8,1.4-2.3,0.9-1.8-0.6C129.5,62.8,131.2,63.6,130.9,65.2z" fill="#15A7E0"  /><path d="M156.2,25.9c1.5,1.7-0.4,2.6-1.4,4.5C154.5,28.2,154.7,26.8,156.2,25.9z" fill="#2AAFE1"  /><path d="M89.4,101.3c15.4,11.5,3.4,17.8-7.9,12.1C94.4,105.8,70.4,108,89.4,101.3z" fill="#DE3B85"  /><path d="M81.8,114.4c2.3,1.3,5.6-4,7.4,1c-1.3,0.1-2.7,0.1-4,0.2c0.8,1.3,2.7,2.6,0.2,4.3c-3.4,1.3-2.9-4.3-5.8-3.4 C79.2,114.7,80.5,114.6,81.8,114.4z" fill="#E28DAC"  /><path d="M85,119.7c0.8-8.4,8.9,4.6,3.3,4.4C86.2,123.6,82.8,123,85,119.7z" fill="#DE5A90"  /><path d="M88.2,124.1c3.1-4.4,4.1,1.4,0.5,1.7C87,126.2,88.3,124.7,88.2,124.1z" fill="#E05092"  /><path d="M97.9,116.5c-0.5,1,1.5,2.4-0.5,3C95.1,119.4,95.7,116.3,97.9,116.5z" fill="#DE3B85"  /><path d="M88.6,141.3c1.6,0.5,1.7,2.1,0,1.9C87.4,142.8,87.6,142.1,88.6,141.3z" fill="#DF3586"  /><path d="M92.6,28.2c-1.3-8.9,8.1-5.8,12.3-2c0.4,1.5,0.3,3.4,2.8,2.8c2.2-0.6,4.1,0.1,5.9,1.5 c1.7,3.1,10.7,0.4,7.8,5.4c-2.7,2,1.8,3.2,0.2,5.1c-1.3,1-3.7-0.3-4.3,2.2c-1.1,1.4-2.2-0.5-3.2,0c-1.4-0.6-2.8,5.5-4.3,0 c1.2-1.9-2-0.5-1.5-1.9c-0.8,2.9-2,3.9-3.8,7.7c1.9-8-0.1-19.1-9.8-17.7c-0.3-1.6,2.2-1.6,1.5-3.1C95,26.1,93.7,29.8,92.6,28.2z" fill="#18A6DF"  /><path d="M100.2,52.5c3.1-2.7,2.5,4.3-0.5,3.6C96.6,57.4,97,49.6,100.2,52.5z" fill="#1AAEE0"  /><path d="M102.2,61.6c0,6-3.8-0.5-1.7-3C102.8,56,106,59.9,102.2,61.6z" fill="#20AFE2"  /><path d="M124.8,40c1.6,1.8,9.4,0,4.3,4.3c-1.2-2.1-3.7-0.6-5.4-2.2C121.9,41,122.7,38.5,124.8,40z" fill="#17AAE2"  /><path d="M114,43.2c-1.3-3.3,1.6-0.3,3.2,0C117.1,47.2,113,47.9,114,43.2z" fill="#42AFE3"  /><path d="M102.2,61.6c0.9-4.9,4.1,0.3,5.4,2.2C104.8,65.4,104.1,62,102.2,61.6z" fill="#4AB0E2"  /><path d="M124.8,40c-6.2,4.5-2.7-5.7,1.1-4.3C130.3,36.7,124.2,37.8,124.8,40z" fill="#58B0E1"  /><path d="M107.6,43.2c0-1.4,0-2.8,0-4.3C109.2,40.2,113.4,43.3,107.6,43.2z" fill="#0FAADC"  /><path d="M107.6,63.7c0.6-0.9,1.3-1.9,2.3-3.3C110.8,63,109.4,66.6,107.6,63.7z" fill="#15A7E0"  /><path d="M111.4,49.8c0.1,2.1-0.3,3.3-1.3,4.5C109.8,52.7,109.1,51.1,111.4,49.8z" fill="#18AFDE"  /><path d="M123.7,42.2c1.5,0.2,3.2-0.5,4.3,1.1C126.2,44.3,124.7,44.5,123.7,42.2z" fill="#1EA4DD"  /><path d="M94.7,55.1c-0.1-0.9-1.4-1.7-0.3-2.7C96,52.2,95.9,54.5,94.7,55.1z" fill="#16AEDC"  /><path d="M118.3,48.6c1.2,0.4,2.3-1.6,3.5-0.3C120.9,49.7,119.3,50.3,118.3,48.6z" fill="#2AB1DD"  /><path d="M81.8,105.8c14.4,6.4-5.2,5.8-11,1.8c6.5,11.5-10.2,2.8-13.2,1.2c2.4-4.4-2.3,2.1-4.5-1.4 C52.7,89,71.6,105.9,81.8,105.8z" fill="#DF4989"  /><path d="M55.9,98.2c1.3,3.7-2.8,6.1-2.1,9.7c-0.8,4.1-6.1,0.4-6.5,3.6c-0.6,0.4-1.3,0.5-2,0.5 c-9,0.7,0.1-15,4.5-8.3C44.9,97.3,50.7,97.4,55.9,98.2z" fill="#DE538F"  /><path d="M34.5,96.1c3.2-0.1,1,4.3,1.3,6c0.9,6.3-12.1,7-8.4-0.1C14.7,101.1,28.3,94.1,34.5,96.1z" fill="#DE478B"  /><path d="M48.4,102.5c-4.7,1.5-3.5-4.8-7.9-3.8C28.1,94.7,55.6,92,48.4,102.5z" fill="#DE478B"  /><path d="M36.6,96.1c1.6,4,11.6-1,8.6,4.3C39.4,102.4,29.4,105.1,36.6,96.1z" fill="#DD4B88"  /><path d="M34.5,96.1c-2.6,1.6-14.9,3.6-8.6-2.2C28.3,96.2,32.3,92.5,34.5,96.1z" fill="#DA3584"  /><path d="M78.5,105.7c-10.2-2.3,10.4-4.1,3.2,0C80.7,106.4,79.6,105.5,78.5,105.7z" fill="#E0358A"  /><path d="M86.1,99.2c1.1,0.3,3.3,1.1,3.1,2.4C87.2,104.2,84.3,101.8,86.1,99.2z" fill="#DE3B85"  /><path d="M65.6,100.4c-1.4,2.1-3.3,1.8-3.2-1.1C63.5,99.7,64.5,100,65.6,100.4z" fill="#DB5491"  /><path d="M233.4,238.4c1.4-4.5,1-3.6,3.3-0.6c0.9-5,6.7-4,5.3-10.4c1.7,1.7,0.5,5.5,4.2,4.5c0.5,3.1,0.2,5.4-3.6,6.4 C237.9,241.1,236.2,246.6,233.4,238.4z" fill="#FDCA66"  /><path d="M232.3,248.1c-4,1.5-8.1-3.4-3.7-5.4C233.1,240.7,236.6,247,232.3,248.1z" fill="#FDCD77"  /><path d="M234.4,247c-5.2-0.5-0.1-3.3-1.1-5.4C231.5,234.5,238.2,243.9,234.4,247z" fill="#FDCB5E"  /><path d="M193.4,256c-1.8-0.7-3.2-1.9-4.2-3.6C192.6,251.2,195.7,250.5,193.4,256z" fill="#FDC850"  /><path d="M216,259.1c1.7,0,2.2,1.8,0.2,1.8C214.6,261.3,214.5,259.6,216,259.1z" fill="#FDC95C"  /><path d="M194.7,95c0.2,6.6-21.8,7.3-11.7-0.4c-1.1-2.8-5.2,0.9-5.5-3c3.3-5.4,8-8.9,10.3-0.9 C188.4,95.8,190.5,89.5,194.7,95z" fill="#89C167"  /><path d="M173.2,107.9c-10.4,4.2-1.8-19.7,5.8-9.6c1.2,3.2-3,4.8-5.3,3.8C174.6,104,176.2,106.1,173.2,107.9z" fill="#9FCB89"  /><path d="M174.2,97.1c-2.3-8.1,17.8-5.8,7.9-0.4c-2.5,0.6-0.3,1.7-0.4,2.5C178.2,104.1,180.1,96.7,174.2,97.1z" fill="#92C679"  /><path d="M167.6,104.6c1.9,1.5,3.7,2.9,5.6,4.4C169.5,115.4,164,109,167.6,104.6z" fill="#97C87E"  /><path d="M126.9,253.4c-0.7-1.3-1.5-2.6-2.2-4C128.9,249.8,128.9,250,126.9,253.4z" fill="#F18F4A"  /><path d="M185,116.5c8.6,0.4,2.3,5.3,8.6,8.6c1.1,3.7-8,4.1-8.6,1.1C186.9,122.4,178.6,118.5,185,116.5z" fill="#96C77C"  /><path d="M192.5,127.3c0.2-1.7,3.1-3.2,3.8-2.1c-0.5,4.4,3.2,2.6,4.9,3.6c-3.8,1.3-7.4,6.1-10.9,0.7 C190.7,128.4,193.3,129.6,192.5,127.3z" fill="#95C77B"  /><path d="M185,116.5c-4.3,3.9,5.6,7.1,0,9.7C182.6,121.8,173.6,111.1,185,116.5z" fill="#9DCB87"  /><path d="M192.5,127.3c1.6,4-3.7,1.6-5.4,1.1C188.7,126.6,190.4,125.9,192.5,127.3z" fill="#9ECB89"  /><path d="M168.9,171.5c-1.3,3.4-8.9,8.8-6.5,2.2C164.5,173,165.8,169.5,168.9,171.5z" fill="#FCCA58"  /><path d="M161.3,175.8c1.2,0.7,3.6,0.4,3.2,2.2C162.3,179.1,162.3,176.8,161.3,175.8z" fill="#FDCF83"  /><path d="M125.8,35.7c-3.4,0.9-4.1-5.1-7.5-2.2c-2.6,1.4-4.1-0.8-5.5-2c-2.4-2.1-10.8-1.2-5.6-5.9 c5.7,0.4,8.7-5.6,13.1-6.6c2.9,2,3.8,0.2,3.5-2.5c1.1-3.7,4.9,1.3,7.4,0.9c5.6,5.8-6,4.2-0.5,8c5.5,1.3,3.9,9.8-2.6,7.6 C126.6,32.3,126,34.2,125.8,35.7z" fill="#24A7DE"  /><path d="M119.4,19.5c-4,7.1-13.3,3.6-12.3-4.9c1.6-0.8,3.5,2.6,4.5-1.4c5.3-10.7,8.9,0.9,10-2.4 c3.9-1,4.5,8.4-0.4,6.8C118.2,16.1,121,19.9,119.4,19.5z" fill="#35A9DE"  /><path d="M104.3,26c-19.4-0.2-2.6-18.3-4.6-10c0.1,2.3,3.3-1.6,5,0.8c2.1,2.7,2.1,2.7-0.3,5 C103.9,23.2,106.1,24.5,104.3,26z" fill="#20A3DC"  /><path d="M104.3,26c0.9-3.1-4-3.1-1.1-5.3c7.7,0.3-2.7-3.9,0-6.5c0.5-3.6,3.7,0.9,4.3,2.1 C111.1,17.6,107.8,30.6,104.3,26z" fill="#18A6DF"  /><path d="M134.5,5.5c8.1,5.2-1.7,0.6-4,4.4c-0.5,0.7-1.6,1.1-2.1-0.1C129.1,7.9,131.2,3.5,134.5,5.5z" fill="#1EA4DD"  /><path d="M121.6,10.9c-0.4,3.7-4.3-1.6-3.3-3.3C119.2,3.8,121.1,9.4,121.6,10.9z" fill="#49ADE1"  /><path d="M131.2,17.4c-0.9,0.3-1.1,2-2.3,1.6C125.5,17,132.3,12.1,131.2,17.4z" fill="#37AEDD"  /><path d="M109.7,12c-0.7,0.7-1.4,1.4-2.1,2.1C100.7,13.7,106.7,6.1,109.7,12z" fill="#35A9DE"  /><path d="M109.7,12c-1.5-0.7-2.9-1.5-4.4-2.2C107.5,7.9,108.3,8.3,109.7,12z" fill="#76B9E5"  /><path d="M104.3,10.9c0.9,2.3,3.9,2.7,3.3,5.4C106.2,14.8,101.3,13.1,104.3,10.9z" fill="#77BAE5"  /><path d="M118.3,7.6c1.7,3.7,0.2,3.9-2.1,1.1C116.1,6.8,117.1,7.1,118.3,7.6z" fill="#58B4D9"  /><path d="M103.3,14.2c1.3,3.2,1.1,3.5-2.1,2.1C101.1,14.9,101.9,14.2,103.3,14.2z" fill="#60AFE1"  /><path d="M124.8,15.2c-1.5-1.1-2-2.5-1.1-4.3C123.9,12.2,127.1,15.6,124.8,15.2z" fill="#49ADE1"  /><path d="M121.5,185.6c-11.3-9.5,16.7-5.7,17,11.8c-12.8-1.8,1.4-5.5-14.9-7.7C124.7,186.7,127.5,182.1,121.5,185.6z" fill="#F29253"  /><path d="M228,197.4c-2.8-8.1,8.7-3.1,3.2-3.2C228.9,193.9,229.4,196.7,228,197.4z" fill="#FDC74F"  /><path d="M110.8,175.9c-1.8,1.5-3.5,1.4-5.3,0.1C107.2,175.5,109,175.7,110.8,175.9z" fill="#F29353"  /><path d="M25.8,93.9c-0.5,1.4-2,2.9,0,4.3c-4.7,2.8-8.8,6.5-12.9,11.2C2.1,115.8,8.1,95,14,92.8 C17.1,98.1,21.6,92.3,25.8,93.9z" fill="#DD3585"  /><path d="M7.5,102.3c1.4,4,0.6,11.5,5.5,5.6c0.9,0.4,0.5,2.7,2.5,1.7c5.4,4.3,0.4,11.9,3.8,17c3.3,3.2-6.7,7-8.3,3.1 c0.1-2.6,2.6-4.8,2.8-7.8c0.5-3.7-1.1-2.6-0.3,0.5c-3.1,3.8-3.5-1.1-4.2-2.9C8,127.5,2.5,104.9,7.5,102.3z" fill="#DE4687"  /><path d="M22.6,93.9c-2.9,0-6.8,7.9-8.6-1.1C16.1,88.6,21,90.6,22.6,93.9z" fill="#DA3584"  /><path d="M6.5,112.2c0,1.8,0,3.6,0,5.4C3.2,115.7,2.9,107.3,6.5,112.2z" fill="#DD418C"  /><path d="M22.6,93.9c-2.1-1.5-8.6-3.7-3.2-5.1C20.4,90.6,22.7,91.5,22.6,93.9z" fill="#DD3285"  /><path d="M6.5,112.2c-2.4-1.6-2.7-1.5-1.4-4.4C6.9,108.8,8.6,109.9,6.5,112.2z" fill="#DD3585"  /><path d="M3.2,113.2c1.9,1.1,1.1,3.4-1.1,3.3C2.1,115.3,2.1,114.1,3.2,113.2z" fill="#DA4B87"  /><path d="M153.8,21.7c-2.4,1.7-5.6-0.3-4.3-3.2C152.3,17.9,153.1,19.2,153.8,21.7z" fill="#17AAE2"  /><path d="M14,127.3c-3.5,1.9-2.4,4.1,1.1,2.2c-0.5,4.6,6.8,8.5,1.1,11.8c-5.1,0-8.4-6.4-8.6-10.8 C3.8,125.8,9.8,125.5,14,127.3z" fill="#DE5E92"  /><path d="M7.6,121.9c1.2-1.2,2.6-5,3.2,0.3c0,1.9,1.7,0.9,2.1-0.3C18.5,125.9,3.8,130.7,7.6,121.9z" fill="#DE5E92"  /><path d="M7.5,126.2c2.4,0.1,4.9,0.3,6.5-2.1C17,129.7,1.6,127.1,7.5,126.2z" fill="#D86694"  /><path d="M7.6,130.5c3.5,2.2,1.5,5.7-2.1,3.2C6.2,132.7,3.6,129.5,7.6,130.5z" fill="#D86190"  /><path d="M7.7,138c-1.3,0.7-2.7,1.4-4.3,1C3.2,136.3,8.2,136.4,7.7,138z" fill="#DE2F88"  /><path d="M7.7,138c-0.6-1.4-0.1-4.1,2-3.1C10.9,137.7,10.9,138.5,7.7,138z" fill="#DD81A6"  /><path d="M9.7,134.9c-1.7,1.3-3.6,1.2-4.2-1.1C6.8,134.1,10.2,132.8,9.7,134.9z" fill="#E7669A"  /><path d="M185,116.5c-8.1,0.9-1.7-6.3-5.6-9.6c-1.6,1-0.5,3.2-1.9,4.2c-2.4,0.2-2.8-2.2-4.3-3.2c1.6-2.1,0-4-0.6-6 c5.9-0.6,10.9-4.6,16.7-2.6C190,105.1,184,110,185,116.5z" fill="#98C87F"  /><path d="M177.4,111.2c-1.1-2.8,0.5-8.9,3.7-5.5c3.1,5.9,0.6,4.2-0.4,9.8C179.2,117.1,179.6,111.6,177.4,111.2z" fill="#A7CF93"  /><path d="M236.6,211.4c-5.2-7,1.8-5.7,6.1-8.9c2.7,1.5,6,10.9,0.3,7.9l0,0C240.3,208,240,212.7,236.6,211.4z" fill="#FDD487"  /><path d="M243,210.3c2.3-0.2,4.4,0.3,6.5,1.1C248.9,214.9,243.9,213.4,243,210.3z" fill="#FDD99D"  /><path d="M239.8,211.4c-2.4-3.2,2.1-4.4,3.2-1.1C241.7,209.7,241.3,212.1,239.8,211.4z" fill="#FEDBA8"  /><path d="M251.6,217.8c-0.8,0.5-1.5,1.1-2.3,1.2C246.7,218.7,250.5,214.3,251.6,217.8z" fill="#FCCF6D"  /><path d="M122.8,179.8c-3.4,4.9-8.3,6.5-13.7,3C114.1,176.1,113.9,173,122.8,179.8z" fill="#F29353"  /><path d="M102.3,278.5c1.6-2.4,1.1-7.2,5.3-6.7C109.4,276.6,107,277.7,102.3,278.5z" fill="#F4A26E"  /><path d="M16.1,141.3c1.8-2,0.3-5.6,2.5-6.8C27.3,137,24.5,147.6,16.1,141.3z" fill="#DF4888"  /><path d="M94.7,275c2.3-1.1,4.1,2.9,1,3.3C94.4,277.5,94.7,276.2,94.7,275z" fill="#F2A57A"  /><path d="M116.2,261c1.2-1.6-1.1-2-1.1-3.2c6.4,0.9,2.1,6.5,4.3,9.7C113.3,275.2,113.9,265,116.2,261z" fill="#F29759"  /><path d="M237.7,200.6c-2-2.3,1-2.7-0.4-5.2c-0.7-2.8,1-2.2,2.5-1.3c1.4,2.3,4.3,4.4,3.5,7.5 C241.7,200.1,239,204.1,237.7,200.6z" fill="#FDDA9D"  /><path d="M243,201.7c0-0.7,0-1.4,0-2.1c1.7,2.2,7.5,9.4,3.2,10.7C244.4,208.2,242.5,204.2,243,201.7z" fill="#FDDCA6"  /><path d="M246.3,210.3c1.4,0.2,3.3-1.6,3.2,1.1C248,212.2,246.9,212.1,246.3,210.3z" fill="#FCD279"  /><path d="M231.2,194.2c3.5-1.5,3.1,8.4-0.3,7.4c-2.3-0.6,2.4-1.6,0-2.5C232.2,197.5,231,195.8,231.2,194.2z" fill="#FDC858"  /><path d="M116.3,265.4c-4.2,18.6-2.7-3.3-13,10.7c-2-3.9,3.9-7.9-1-9.8c0.7-4.8,7.4-5.8,6.1,0.1 C112.1,267.2,113.7,260.9,116.3,265.4z" fill="#F5AE81"  /><path d="M120.5,55.1c-0.2,2.8-3,2-4.3,3.2C116.3,55.6,119.1,56.3,120.5,55.1z" fill="#1EADDF"  /><path d="M243,201.7c0.2,5.2-4.9,3.4-7.6,4.3C234.5,201.6,240.2,199.2,243,201.7z" fill="#FDD17C"  /><path d="M73.2,263.1c-3.1,0-5.1-3.2-8.6-2.2C64.6,257.1,76.3,258.3,73.2,263.1z" fill="#F39B6C"  /><path d="M66.7,258.9c-1.4,2.6-4.9,2.2-4-1.2C63.9,256.4,65.2,259.3,66.7,258.9z" fill="#F3975B"  /><path d="M60.2,253.5C58.3,258,56.1,252.8,60.2,253.5C60.2,253.5,60.2,253.5,60.2,253.5z" fill="#F39869"  /><path d="M56.9,250.9c-0.2-0.9,0.1-2,1-2.3C59.2,248.5,58.1,251.1,56.9,250.9z" fill="#F18F3B"  /><path d="M73.1,259.9c-1.5,0.9-2.6,0.6-3.2-1.1C71.2,256.7,75.8,258.1,73.1,259.9z" fill="#F39757"  /><path d="M76.3,264.2c-1.3,0.8-2.7,1.2-4.2,1.1C72.6,263.1,74.8,262.2,76.3,264.2z" fill="#F39A71"  /><path d="M107.6,265.3c-2.6-4.8,8.8-4,5.7-1.7C111.6,265.7,105.1,271.4,107.6,265.3z" fill="#F4A67E"  /><path d="M113,263.1c2.6-3.3,4.3-1.3,3.3,2.2C115.4,264.8,111.7,264.6,113,263.1z" fill="#F8B68F"  /><path d="M121.5,185.6c-1-4.3,4.4-2.4,4.4,1C124.8,188.9,120.5,188.9,121.5,185.6z" fill="#F29353"  /><path d="M212.9,113.3c5.9,0.7-1.2-5.4,2.3-7.3c3.4,0.8,6,3.3,9.6,3.5c9.9,4.4,2.9,14.1-6,11.3 C211.3,116.7,211.8,125.5,212.9,113.3z" fill="#89C166"  /><path d="M187.2,109c-5.8-3.8,2.3-6,2.1-9.7c4.3,0.2,13-0.5,15,2.2c-6.8,5.7,2,4,1.1,7.5c-3.9,6.1-5.8-3.1-9.3,1.8 c-4.6,1.1-1-5.8-5.5-4c4-1.5,3.8,9.8-0.1,5.7C189.7,111.1,189.4,109.1,187.2,109z" fill="#8BC269"  /><path d="M204.3,110.1c0.4-0.4,0.7-0.7,1.1-1.1c4.3,13.3,9.3,11.3-7.9,13C208.1,113.8,183.1,124.7,204.3,110.1z" fill="#8BC26B"  /><path d="M204.3,121.9c0-3.5,3.9-0.3,4.6-3c-0.7-1.7-3.1-3.1-2.5-5.7c2.3,0.8,7,2.4,6.4,5.4c-0.9,2.1,1.7,0,1.1,2.2 C209.3,121.2,208.7,124.4,204.3,121.9z" fill="#93C67A"  /><path d="M204.3,101.5c-2.6-2.4,1.9-2.2,2.7-0.4C207.5,103.1,204.9,103.6,204.3,101.5z" fill="#90C578"  /><path d="M212.9,118.7c-1.3-2-3.2-3.4,0-4.3C213.4,115.8,216.3,117.3,212.9,118.7z" fill="#83BE5D"  /><path d="M194.7,110.1c7.2,0.6,0.8,4.4,1.1,6.5C192.4,117.2,193.9,111,194.7,110.1z" fill="#8BC26B"  /><path d="M233.4,238.4c0.4,5.3-2.2,3.5-2.1,0C231.9,238.4,232.7,238.4,233.4,238.4z" fill="#FDCD77"  /><path d="M71,114.4c-0.8-7.9-5.2-11.5,6.4-5.4c2.7,2.8,7.1,3.9,2.2,7.5C76.5,116.7,74.5,112.8,71,114.4z" fill="#E05C92"  /><path d="M47.4,125.2c4.7,10,0.1,18.5-0.7,29.5C43.2,144,48.4,135,47.4,125.2z" fill="#DE3285"  /><path d="M49.5,110.1c1.7-2.6,14.5-5.2,8.6-1.1C56.7,117.9,44.4,123.4,49.5,110.1z" fill="#DE408A"  /><path d="M63.5,155.4c-2.2,0.3,1.2-3-1.7-4.1c-1.6-1-2-2.3-0.4-4.3c2.2,8.7,8-1.6,10.9,2.7c0.4,1.2-1.3,1.3-2.4,1.5 C66.9,151.1,66.3,154.9,63.5,155.4z" fill="#DE3285"  /><path d="M49.5,110.1c3.6,2.7-2.5,5.2,0,7.5c0.5,2-1.7,1.2-2.1,2.1C43.8,121.2,46.8,107.7,49.5,110.1z" fill="#E13B83"  /><path d="M56,115.5c-2-2.1,1-8.2,2.1-5.4C57.7,111.8,58.9,117.2,56,115.5z" fill="#E43182"  /><path d="M46.3,119.8c1.8-0.6,0.8,2.1,1.6,2.5c3.9,1.8-0.5,2-0.5,2.9C46.8,132.6,45.4,122.1,46.3,119.8z" fill="#DE408A"  /><path d="M85,119.7c0,1.1,0,2.2,0,3.3C80.1,123.9,81.6,117.2,85,119.7z" fill="#DD3A86"  /><path d="M79.8,126.3c0.4,2-2.8,1.6-2.2-0.1C78,122.8,78.7,125.5,79.8,126.3z" fill="#DF3586"  /><path d="M46.3,119.8c-4,8.8-11.4-11-1.1-8.6C46.2,113.9,45.3,116.9,46.3,119.8z" fill="#E03785"  /><path d="M43.1,121.9c0.2,0.8,1.1,1.4,0.6,2.4c-2.7-2.1-4.3,4.2-6,1.2C29.7,121.6,40.9,116.7,43.1,121.9z" fill="#E03785"  /><path d="M30.2,121.9c0.9,8.3-3.5,6.3-2.5-0.8C27.7,111.1,40.8,115,30.2,121.9z" fill="#DD4A8D"  /><path d="M29.1,144.6c0.4-1.6,2.9-2.4,3.6-4.7C37.2,144.4,33.8,145.1,29.1,144.6z" fill="#DE3285"  /><path d="M30.2,121.9c-0.2-3.1,1.2-4.5,4.3-4.3C35.3,119.8,32.4,122.6,30.2,121.9z" fill="#E03785"  /><path d="M29.1,127.3c0,1.6-1.5,2.5-1.1,4.3C24.5,131.8,25.2,124.2,29.1,127.3z" fill="#D94B8E"  /><path d="M29.1,140.2c-0.4-1.8-0.7-3.6-1.1-5.4C30.3,136.3,31,138,29.1,140.2z" fill="#DA4F92"  /><path d="M32.3,121.9c0-1.6,0-3.1,2.2-3.2C35,120.2,34.4,123.8,32.3,121.9z" fill="#DE5793"  /><path d="M71.2,138.9c2.3-1,3.6-0.9,5.2-0.5C75,139.8,73.6,139,71.2,138.9z" fill="#D94E94"  /><path d="M77.6,142c0.4-2.9,3.1,1.6,0.7,1C77.9,142.8,77.7,142.3,77.6,142z" fill="#DF3487"  /><path d="M29.1,127.3c-4.4-0.4-1.5,2.8-2.1,4.3c-6.1-2.8-1.8-6.2-1.6-10.7c-7.2-4.1,1.6-15.6,2.3-6.5 c2-6.3-6.1-2-6.8-5.7c-1.7,1.8,0.1,5.5-2.5,6.9c-4,0-0.2-5.3-4.2-5.7c-2.1-5.3,5-3.9,5.4-7.5c2.7,0.1,5.1-0.7,7.5-1.1 c5.5-4.1-2.4,4.8,1.9,4.2c4.8,2.5,5.5-5,10-4.2c3.2-1.3,0,9.4-3.9,9.2C30.6,120.2,28,115.3,29.1,127.3z" fill="#E03B85"  /><path d="M22.6,137c-16-5.5-2-6.2-6.1-10.9c-1.5-1.7,0.5-2.8,0.7-4.2c3.5-1.4-0.3,3.4,4.6,2.6 c0.7,0.4,1.2,0.9,0.8,1.7C18.5,127.7,23.1,133.6,22.6,137z" fill="#DA5990"  /><path d="M23.7,127.3c1.8,1.2,0.9,3.5,0.9,5.2C22.7,133,24.1,128.8,23.7,127.3z" fill="#D95792"  /><path d="M130.2,26c-1.5-0.8-3.9-5.6-1.1-3.3c1.1,1.6,2.8,0.9,4.3,1.1C134.1,25.5,131.5,26.7,130.2,26z" fill="#19ABDC"  /><path d="M132.3,24.9c1.1-1.8,5.5-0.9,3.2,2.2C134.2,27.8,131.6,26.8,132.3,24.9z" fill="#24A7DE"  /><path d="M134.1,36.5c-0.8,2-1.3,3.2-1.9,4.7C130.8,38.9,131.5,37.9,134.1,36.5z" fill="#11A8DA"  /><path d="M125.8,37.9c0.9-0.5,1.1-1.3,1.1-2.2C130.1,33.6,127.9,41,125.8,37.9z" fill="#17AAD9"  /><path d="M133.4,27.1c1.9-1.6,3,1,1.1,2.2C133.6,28.8,133.4,28,133.4,27.1z" fill="#47B1DE"  /><path d="M149.5,18.4c-0.6,1.4,1.8,1.8,1,3.2C147.4,22.6,145.9,17.5,149.5,18.4z" fill="#19AFDC"  /><path d="M86.1,102.5c2-1.2,4.7-0.6,3.2,1.8C87.7,105.1,86.7,103.8,86.1,102.5z" fill="#DD3285"  /><path d="M81.8,113.3c-0.2-3.1,2.2-2.5,4.3-2.2C85.4,113.3,83.3,112.7,81.8,113.3z" fill="#E3759E"  /><path d="M123.7,37.8c-3,6.3-8-4.4-3.2-2.2C121.4,36.5,122.9,36.6,123.7,37.8z" fill="#22ABDD"  /><path d="M123.7,37.8c-1.5,0-3.1,0-3.2-2.2C122.3,32.6,126.2,35.2,123.7,37.8z" fill="#1EA4DD"  /><path d="M104.3,26c2.2,0.6,2.7,2.3,3.2,4.3C102.8,31.6,103.8,28.6,104.3,26z" fill="#29A2DC"  /><path d="M123.7,34.6c-2.1,0.4-3.3-1.5-5.3-1.1C121,29.7,122.1,33.3,123.7,34.6z" fill="#4FADE1"  /><path d="M85,111.1c-2.3,0.5-6,3.4-7.5,0C79.7,109.7,82.9,108.6,85,111.1z" fill="#DE3B85"  /><path d="M83.8,110c-2.4-0.1-7.3,2.8-6.4-1C79.6,109.3,82,108.1,83.8,110z" fill="#E1739C"  /><path d="M57.4,100.1c1.5-1,3.1,0,3.1,0.8C60.4,103.2,57.8,101.3,57.4,100.1z" fill="#D95D92"  /><path d="M78.5,105.7c1.1-1.7,2.1-0.3,3.2,0C80.7,107.2,79.6,107.1,78.5,105.7z" fill="#DE3B85"  /><path d="M38.7,119.8c-2.9,0-1.4-4.8-0.4-6.1c-1.8,1.4-0.9,4-1.6,6.1c-3.1,0.3-1.3-2.2-1.8-3.3c-0.9-2.3-1-4,1-5.9 C47.9,98.2,42.4,112.3,38.7,119.8z" fill="#E03B85"  /><path d="M46.3,118.7c-2.8-2-3.1-8.2,1.1-7.6C49.6,114,46.8,116.2,46.3,118.7z" fill="#DE408A"  /><path d="M48.4,102.5c0-0.3,0-0.7,0-1c0.5,1.9,3.9-1.6,3.5,1.8C50.6,107.2,48.8,105.1,48.4,102.5z" fill="#E2699A"  /><path d="M44.2,100.4c2,0.1,2.6,3.8,0,4.3C43,103.2,43,101.8,44.2,100.4z" fill="#E13C84"  /><path d="M26.9,101.4c-1,1.9-5.9,1.9-5.4-1.1C23.3,100.6,25.4,99.6,26.9,101.4z" fill="#D8578D"  /><path d="M43.1,104.7c-0.5,2.5-6.1,9.2-7.5,5.4c-0.7-1.5,5.8-2.2,0.6-4.7C38,104.9,45.2,94.3,43.1,104.7z" fill="#DE478B"  /><path d="M43.1,104.7c-2.8-1.4,1.5-2.9,0-4.3C44.8,99.6,44.7,105.4,43.1,104.7z" fill="#D85F96"  /><path d="M38.8,101.4c-1.1,0.4-2.2,0.7-3.2,1.1C35.2,100.2,37.9,98.8,38.8,101.4z" fill="#DE478B"  /><path d="M174.2,97.1c1.8,0.3,3.5-2.1,4.8-1.2C179.8,98.2,175.5,99.7,174.2,97.1z" fill="#98C87F"  /><path d="M107.6,26c-2.4-4.9,5.4-4.6,7.5-2.2C112.3,23.4,111.1,28.9,107.6,26z" fill="#29A2DC"  /><path d="M121.5,17.4c5.5-3.9,1.5,8.7-1.1,2.2C119.7,18.3,119.7,17.4,121.5,17.4z" fill="#4EA7DE"  /><path d="M121.5,17.4c-2.4,3.9-1.3,0.9-4.5-0.9C119.2,15.6,120.7,15.1,121.5,17.4z" fill="#51B0E0"  /><path d="M122.6,21.7c0.8-1.6,0-5.6,2.1-5.4C124.4,18.3,127.2,21.4,122.6,21.7z" fill="#29AAD8"  /><path d="M118.8,27.4c0.5-1.8-1.1-3.1,0.4-3.9C122.4,22.9,121.2,25.9,118.8,27.4z" fill="#56B3E1"  /><path d="M132.3,24.9c0.4,0.7,0.7,1.4,1.1,2.2C130.3,28.8,128,27.2,132.3,24.9z" fill="#5BAFDE"  /><path d="M116.2,23.8c0.1-1.5-2.5-4.7,2.1-3.2C117.6,21.7,116.9,22.8,116.2,23.8z" fill="#34B1D9"  /><path d="M111.9,21.7c-0.7,3.4-2.7,1.5-4.3,1.1C108.3,20,109.8,20.9,111.9,21.7z" fill="#26ABDB"  /><path d="M125.8,186.6c-0.7-1.1-1.4-2.1-2.1-3.2C127,181.6,129.7,188.3,125.8,186.6z" fill="#F18E38"  /><path d="M19.4,102.5c1.3,2.8-1.3,4-2.3,6C16.5,103.6,14.7,103.8,19.4,102.5z" fill="#DA468A"  /><path d="M21.5,100.4c0.7,0.7,1.4,1.4,2.2,2.1C22.7,107.2,18.9,101.2,21.5,100.4z" fill="#DA468A"  /><path d="M15.1,105.8c-0.4,1.4-0.7,2.9-1.1,4.3C11.4,110,13.5,106.1,15.1,105.8z" fill="#DA468A"  /><path d="M14,121.9c-3,0.2-2.1-3.7-2-5.6C15.6,120,15.6,120,14,121.9z" fill="#DB5792"  /><path d="M18.3,121.9c-1.9,0.2-3.5-10.1,0-6.4C20,117.1,20.1,120.4,18.3,121.9z" fill="#DA5A93"  /><path d="M15.1,131.6c5.5,3.4,0.5,6.7-1.7,1.4C13.1,131.9,14.3,131.8,15.1,131.6z" fill="#DE4D87"  /><path d="M179,102.3c1.4-1.1,2.7-1.7,4.2-1.3C183.9,103.5,180.7,104.3,179,102.3z" fill="#A6CF90"  /><path d="M115.2,181.8c-1.9-0.9-1.3-2,0.4-1.6C117.2,180.2,116.4,181.6,115.2,181.8z" fill="#F49A6C"  /><path d="M113,263.1c0.6,3.7,0.9,7.7-3.3,3.3C109.1,263.6,112.6,264.9,113,263.1z" fill="#F39D62"  /><path d="M107.6,265.3c0,1.1,0,2.1-0.1,3.2C105.8,267.4,104.2,266.3,107.6,265.3z" fill="#F7BF98"  /><path d="M195.7,116.5c-1.5-2.2,3.3-4.3,0-6.5c1.2-2.1,2.2-4.8,4.6-0.9c0.9,1.4,2.6,0.8,4,0.9 C201.4,113.2,200.7,116.5,195.7,116.5z" fill="#90C577"  /><path d="M194.7,110.1c-1.4,5.4-1.7-2-3.2-3.2C194.1,100.3,193.3,108.6,194.7,110.1z" fill="#90C577"  /><path d="M191.4,106.8c-2.2,1.9-2.9,0-4.1-1.2C189.7,103.7,190.2,106.3,191.4,106.8z" fill="#90C577"  /><path d="M38.7,119.8c1.7-2.3,4.9-0.7,4.3,2.2C39.9,117.6,38.7,128.3,38.7,119.8z" fill="#DC458C"  /><path d="M39.8,117.6c0-1.2-0.2-2.5,1.1-3.2C41.5,115.8,42.7,117.4,39.8,117.6z" fill="#DC458C"  /><path d="M36.6,119.8c0.2-2.3-0.6-4.8,1.9-6.8C38.8,115.5,36.3,125.4,36.6,119.8z" fill="#DD5693"  /><path d="M36.6,119.8c-1,7.6-4.5-4.8-1.1-4.3C35.7,116.9,35,118.6,36.6,119.8z" fill="#DE3887"  /><path d="M35.5,115.5c-5.3,2.2-3.1-10.3-1.1-5.4C35.9,111.9,33.8,113.6,35.5,115.5z" fill="#DE478B"  /><path d="M21.5,110.1c1.5-0.4,2.1,1.3,1.3,2.4c-3,3.6,3.5,3.2,0.8,5.2c-2.1,3.7,5.6,2.3,2.2,6.4 C22,131.1,15,106.8,21.5,110.1z" fill="#DD3881"  /><path d="M24.8,116.5c-9.8-0.6,4.8-13.7,2.1-5.4C26.7,113.2,20.5,112.7,24.8,116.5z" fill="#DA4189"  /><path d="M21.5,121.9c2.4-1.2,1.4,4.4,4.3,2.1C28.2,128.4,18,125.7,21.5,121.9z" fill="#DD4A8D"  /><path d="M19.4,112.2c1.7,2.2,1,5.1,2.1,7.5C17.3,121.9,19.2,114.4,19.4,112.2z" fill="#DF4D8E"  /><path d="M25.9,120.9c-2.2-0.1-4.5-0.1-2.2-3.2c0.1,0.6,0,1.8,1,1.4C28.6,117.4,25.8,120,25.9,120.9z" fill="#D94F8F"  /><path d="M21.5,110.1c-5.1,2.1-2.3-0.5-0.7-3.4C22,107.8,21.3,109,21.5,110.1z" fill="#DB4B8D"  /><path d="M19.4,113.3c-0.5,1.6,1.2,7.3-1.1,6.5C18.6,117.7,17.4,114.7,19.4,113.3z" fill="#DD3881"  /><path d="M28,113.3c1.1,1.4,0.1,2.8-0.9,2.6C26,116,27,111.7,28,113.3z" fill="#DB4B8B"  /><path d="M28,113.3c-2.6,0.3-0.4-3.5,1.1-2.8C30,111.8,28,112.2,28,113.3z" fill="#DA4189"  /><path d="M34.5,113.3c0.3-1.2-0.8-3.7,1.1-3.2C37.3,111.1,36.5,113.4,34.5,113.3z" fill="#DD4D8F"  /><path d="M18.3,119.8c4.3-1,3.1,2.3,3.2,5.4C17.6,126.2,18.4,122.1,18.3,119.8z" fill="#DE4687"  />
    
    
    
    
    
    
    
    
    
    
    
    
    
    
    
    
    
    
    
    
    
    
    
    
    
    
    
    
    
    
    
    
    
    
    
    
    
    
    
    
    
    
    
    
    
    
    
    
    
    
    
    
    
    
    
    
    
    
    
    
    
    
    
    
    
    
    
    
    
    
    
    
    
    
    
    
    
    
    
    
    
    
    
    
    
    
    
    
    
    
    
    
    
    
    
    
    
    
    
    
    
    
    
    
    
    
    
    
    
    
    
    
    
    
    
    
    
    
    
    
    
    
    
    
    
    
    
    
    
    
    
    
    
    
    
    
    
    
    
    
    
    
    
    
    
    
    
    
    
    
    
    
    
    
    
    
    
    
    
    
    
    
    
    
    
    
    
    
    
    
    
    
    
    
    
    
    
    
    
    
    
    
    
    
    
    
    
    
    
    
    
    
    
    
    
    
    
    
    
    
    
    
    
    
    
    
    
    
    
    
    
    
    
    
    
    
    
    
    
    
    
    
    
    
    
    
    
    
    
    
    
    
    
    
    
    
    
    
    
    
    
    
    
    
    
    
    
    
    
    
    
    
    
    
    
    
    
    
    
    
    
    
    
    
    
    
    
    
    
    
    
    
    
    
    
    
    
    
    
    
    
    
    
    
    
    
    
    
    
    
    
    
    
    
    
    
    
    
    
    
    
    
    
    
    
    
    
    
    
    
    
    
    
    
    
    
    
    
    
    
    
    
    
    
    
    
    
    
    
    
    
    
    
    
    
    
    
    
    
    
    
    
    
    
    
    
    
  </g></svg>