<svg viewBox="0 0 633.1 283.5" role="img" focusable="false" aria-labelledby="mcri--title" xmlns="http://www.w3.org/2000/svg" xmlns:xlink="http://www.w3.org/1999/xlink"><title id="mcri--title">MCRI Logo: Murdoch Children's Research Institute</title><g id="Layer_1_00000060025330410049305960000005905868862806935983_"><rect x="341.9" y="0.3" width="289.9" height="282.5" fill="none"  /><path d="M389.7,35.4v22.1c0,1.3-1.1,2.4-2.4,2.4s-2.4-1.1-2.4-2.4V35.2c0.3-4-2.7-7.5-6.7-7.8c-0.3,0-0.6,0-0.9,0 c-2.7,0-5.3,1-7.4,2.7v27.4c0,1.3-1.1,2.4-2.4,2.4s-2.4-1.1-2.4-2.4V32.3c-0.1-1.7-1.1-3.2-2.6-3.9c-1.3-0.7-2.8-1-4.3-1 c-2.8,0.1-5.5,0.5-8.1,1.3v28.9c0,1.3-1.1,2.4-2.4,2.4s-2.4-1.1-2.4-2.4V27.7c0-1.4,1-2.7,2.4-3c3.5-1.1,7.1-1.7,10.8-1.8 c3.3-0.1,6.6,1.1,9,3.4c2.8-2.1,6.3-3.3,9.9-3.4C384.5,22.9,389.7,27.3,389.7,35.4z" fill="#1D1D1B"  /><path d="M431.5,25.3v30c0,1.4-1,2.6-2.4,2.9c-3.5,1.2-7.1,1.8-10.8,1.8c-8.8,0-13.2-4.7-13.2-12.8V25.3 c-0.1-1.3,0.9-2.4,2.2-2.4c0,0,0.1,0,0.1,0c1.3,0,2.4,1,2.4,2.3c0,0,0,0.1,0,0.1v22.1c0,5.1,2.9,8.1,8.4,8.1c2.8,0,5.6-0.5,8.3-1.3 V25.3c0-1.3,1-2.4,2.3-2.4c0,0,0.1,0,0.1,0c1.3-0.1,2.4,0.8,2.5,2.1C431.5,25.1,431.5,25.2,431.5,25.3z" fill="#1D1D1B"  /><path d="M460.9,23.4c1.2,0.2,2,1.2,2,2.4c0,1.2-1,2.2-2.2,2.2c0,0-0.1,0-0.1,0c-1.5-0.2-3-0.4-4.5-0.5 c-2.7,0-4.9,2.1-5,4.8c0,0.2,0,0.4,0,0.5v24.8c0.1,1.3-0.9,2.4-2.2,2.4c-0.1,0-0.1,0-0.2,0c-1.3,0.1-2.4-0.8-2.6-2.1 c0-0.1,0-0.2,0-0.3v-25c-0.4-5,3.4-9.4,8.4-9.8c0.4,0,0.7,0,1.1,0C457.4,22.8,459.1,23,460.9,23.4z" fill="#1D1D1B"  /><path d="M498.2,11v44.3c0,1.3-0.9,2.5-2.1,2.9c-3.6,1.3-7.3,1.9-11.1,1.9c-7.9,0-13.3-4.3-13.3-13V35.9 c0-8.6,5.4-13,12.8-13c3.2,0,6.3,1,8.9,2.8V11c-0.1-1.3,0.9-2.4,2.2-2.4c0.1,0,0.1,0,0.2,0c1.3,0,2.4,1,2.4,2.3 C498.2,10.9,498.2,10.9,498.2,11z M476.5,35.6v11.8c0,5.1,3.1,8.1,8.4,8.1c2.8,0,5.6-0.4,8.4-1.2V30.6c-2.3-2-5.3-3.1-8.4-3.1 C479.6,27.4,476.5,30.4,476.5,35.6L476.5,35.6z" fill="#1D1D1B"  /><path d="M539.1,36.7v9.6c0,8.5-5.2,13.7-13.9,13.7s-14-5-14-13.7v-9.7c0-8.6,5.4-13.8,13.9-13.8 C533.7,22.9,539.1,28.1,539.1,36.7z M516.3,36.3v10.3c0,5,4,9,9,9c5,0,9-4,9-9V36.3c0-5-4-9-9-9C520.3,27.3,516.3,31.4,516.3,36.3 L516.3,36.3z" fill="#1D1D1B"  /><path d="M573.7,25.2c0.8,0.4,1.3,1.2,1.4,2c0.1,1.1-0.7,2.1-1.8,2.2c-0.1,0-0.3,0-0.4,0c-0.9-0.1-1.7-0.3-2.5-0.8 c-2-0.8-4.2-1.3-6.4-1.3c-5,0-8.1,3.2-8.1,8.6v10.9c0,5.4,3.1,8.6,8.1,8.6c2.2,0,4.3-0.4,6.4-1.3c0.7-0.4,1.6-0.7,2.4-0.8 c1.2,0,2.2,0.9,2.3,2.2c0,0,0,0.1,0,0.1c0,0.9-0.6,1.7-1.4,2c-2.9,1.6-6.2,2.3-9.6,2.2c-8.1,0-13.2-5.1-13.2-13.1V36 c0-8.1,5.4-13.1,13.2-13.1C567.4,22.9,570.7,23.7,573.7,25.2z" fill="#1D1D1B"  /><path d="M590.5,11v14.6c2.7-1.6,5.8-2.5,9-2.6c7.9,0,12.5,4.6,12.5,13.1v21.7c0,1.3-1,2.4-2.3,2.4c0,0-0.1,0-0.1,0 c-1.3,0.1-2.4-0.9-2.5-2.2c0-0.1,0-0.2,0-0.3v-22c0-5.4-3.1-8.1-8.1-8.1c-3.1,0.1-6,1.2-8.5,3.1v27.1c0.1,1.3-0.9,2.4-2.2,2.4 c-0.1,0-0.1,0-0.2,0c-1.3,0-2.4-1-2.4-2.3c0,0,0-0.1,0-0.1V11c0-1.3,1-2.4,2.3-2.4c0,0,0.1,0,0.1,0c1.3-0.1,2.4,0.9,2.4,2.2 C590.5,10.8,590.5,10.9,590.5,11z" fill="#1D1D1B"  /><path d="M366.4,99.6c0.8,0.4,1.3,1.2,1.4,2c0.1,1.1-0.7,2.1-1.8,2.2c-0.1,0-0.3,0-0.4,0c-0.9-0.1-1.7-0.3-2.5-0.8 c-2-0.8-4.2-1.3-6.3-1.2c-5,0-8.1,3.2-8.1,8.6v10.9c0,5.4,3.1,8.6,8.1,8.6c2.2,0,4.3-0.4,6.4-1.3c0.7-0.4,1.6-0.7,2.4-0.8 c1.2,0,2.2,0.9,2.3,2.2c0,0,0,0.1,0,0.1c0,0.9-0.6,1.7-1.4,2c-2.9,1.6-6.2,2.3-9.6,2.2c-8.1,0-13.2-5.1-13.2-13.1v-10.8 c0-8.1,5.4-13.1,13.2-13.1C360.2,97.3,363.4,98.1,366.4,99.6z" fill="#1D1D1B"  /><path d="M382.4,85.4V100c2.7-1.6,5.8-2.5,9-2.6c7.9,0,12.5,4.6,12.5,13.1v21.7c0,1.3-1,2.4-2.3,2.4c0,0-0.1,0-0.1,0 c-1.3,0.1-2.4-0.9-2.4-2.2c0-0.1,0-0.1,0-0.2v-22c0-5.4-3.1-8.1-8.1-8.1c-3.1,0.1-6.1,1.2-8.5,3.1v27.1c0,1.3-1,2.4-2.3,2.4 c-0.1,0-0.1,0-0.2,0c-1.3,0-2.4-1-2.4-2.3c0,0,0-0.1,0-0.1V85.4c0-1.3,1-2.4,2.3-2.4c0,0,0.1,0,0.1,0c1.3-0.1,2.4,0.9,2.4,2.2 C382.4,85.3,382.4,85.3,382.4,85.4z" fill="#1D1D1B"  /><path d="M424.4,87.6c0,1.7-1.4,3.1-3.1,3.2c-1.7,0-3.1-1.4-3.2-3.1c0-1.7,1.4-3.1,3.1-3.2c0,0,0.1,0,0.1,0 C423,84.5,424.4,85.9,424.4,87.6z M423.7,99.8v32.2c0,1.3-1,2.4-2.3,2.4c0,0,0,0-0.1,0c-1.3,0.1-2.4-0.9-2.4-2.2c0-0.1,0-0.1,0-0.2 V99.8c-0.1-1.3,0.9-2.4,2.2-2.4c0.1,0,0.1,0,0.2,0c1.3,0,2.4,1,2.4,2.3C423.7,99.7,423.7,99.8,423.7,99.8z" fill="#1D1D1B"  /><path d="M444.1,85.4v46.6c0,1.3-1,2.4-2.3,2.4c-0.1,0-0.2,0-0.3,0c-1.3,0-2.4-1-2.4-2.3c0,0,0-0.1,0-0.1V85.4 c0-1.3,1-2.4,2.3-2.4c0,0,0.1,0,0.1,0c1.3-0.1,2.4,0.9,2.5,2.1C444.1,85.2,444.1,85.3,444.1,85.4z" fill="#1D1D1B"  /><path d="M484.8,85.4v44.3c0,1.3-0.8,2.5-2,2.9c-3.6,1.3-7.3,1.9-11.1,1.9c-7.9,0-13.3-4.3-13.3-13v-11.1 c0-8.6,5.4-13,12.8-13c3.2,0,6.3,1,8.9,2.8V85.4c-0.1-1.3,0.9-2.4,2.2-2.4c0.1,0,0.1,0,0.2,0C483.8,83,484.9,84.1,484.8,85.4 C484.8,85.4,484.8,85.4,484.8,85.4z M463.2,110v11.8c0,5.1,3.1,8.1,8.4,8.1c2.8,0,5.6-0.4,8.4-1.2V105c-2.3-2-5.3-3.1-8.4-3.1 C466.3,101.9,463.2,104.8,463.2,110z" fill="#1D1D1B"  /><path d="M514.9,97.8c1.2,0.2,2,1.2,2,2.4c0,1.2-1,2.2-2.2,2.2c0,0-0.1,0-0.1,0c-1.5-0.2-3-0.4-4.5-0.5 c-2.7,0-4.9,2.2-4.9,4.9c0,0.2,0,0.4,0,0.6v24.8c0,1.3-1,2.4-2.3,2.4c-0.1,0-0.2,0-0.3,0c-1.3,0-2.4-1-2.4-2.3c0,0,0-0.1,0-0.1 v-24.9c-0.4-5,3.4-9.4,8.4-9.8c0.4,0,0.7,0,1.1,0C511.5,97.3,513.2,97.5,514.9,97.8z" fill="#1D1D1B"  /><path d="M552.3,110.5v4.1c0,1.7-1.3,3.1-3,3.1c0,0-0.1,0-0.1,0h-18.3v3.9c-0.4,4.3,2.8,8.1,7.1,8.4 c0.4,0,0.9,0,1.3,0c2.7,0,5.4-0.6,7.9-1.7c0.5-0.2,1.1-0.4,1.7-0.4c1.2,0,2.3,1,2.3,2.2c0,0,0,0,0,0c0.1,0.9-0.5,1.7-1.4,2 c-3.4,1.5-7,2.2-10.7,2.3c-6.8,0.5-12.7-4.6-13.2-11.4c0-0.6,0-1.2,0-1.7v-10.8c0-7.3,5.9-13.2,13.2-13.2S552.4,103.2,552.3,110.5 L552.3,110.5z M530.8,110.3v2.9h16.7v-2.7c0-5.3-2.9-8.6-8.4-8.6S530.8,105.1,530.8,110.3L530.8,110.3z" fill="#1D1D1B"  /><path d="M592.7,110.1v21.9c0,1.3-1,2.4-2.3,2.4c0,0-0.1,0-0.1,0c-1.3,0.1-2.4-0.9-2.4-2.2c0-0.1,0-0.1,0-0.2v-22 c0-5.2-2.9-8.1-8.4-8.1c-2.8,0-5.6,0.5-8.4,1.3v28.9c0,1.3-1,2.4-2.3,2.4c-0.1,0-0.1,0-0.2,0c-1.3,0-2.4-1.1-2.4-2.4c0,0,0,0,0,0 v-29.9c0-1.5,1-2.7,2.4-3c3.5-1.1,7.1-1.7,10.8-1.8C588.2,97.3,592.7,102.1,592.7,110.1z" fill="#1D1D1B"  /><path d="M608.1,85.3c0,0.4-0.1,0.8-0.2,1.1L604,97.6c-0.3,1-1.3,1.7-2.4,1.7c-1.3,0-2.3-0.9-2.4-2.2 c0-0.1,0-0.1,0-0.2c0-0.4,0.1-0.8,0.2-1.1l3.9-11.2c0.3-1,1.3-1.7,2.4-1.7c1.3,0,2.3,0.9,2.4,2.2C608.1,85.2,608.1,85.3,608.1,85.3 z" fill="#1D1D1B"  /><path d="M630.7,99.3c0.9,0.3,1.4,1.1,1.4,2c0,1.2-0.9,2.2-2.1,2.2c0,0-0.1,0-0.1,0c-0.6,0-1.2-0.2-1.7-0.4 c-2.1-0.9-4.3-1.4-6.6-1.4c-3.2,0-6.5,1.8-6.5,5.1c0,2.7,2.1,4.1,4.6,5.2l6.2,2.6c4.2,1.8,7.1,4.5,7.1,9.3c0,6-4.5,10.3-11.6,10.3 c-3.3,0.1-6.7-0.6-9.7-2c-0.8-0.3-1.4-1.1-1.4-2c-0.1-1.1,0.7-2.1,1.8-2.2c0.1,0,0.3,0,0.4,0c0.6,0.1,1.1,0.3,1.7,0.5 c2.2,0.9,4.6,1.3,7,1.4c4.2,0,7.1-2.5,7.1-5.7c0-2.5-2-4.6-6.1-6.2l-5.3-2.2c-3.9-1.2-6.6-4.8-6.5-8.9c0-5.8,4.8-9.6,11.1-9.6 C624.8,97.4,627.9,98,630.7,99.3z" fill="#1D1D1B"  /><path d="M359.8,172.3c1.2,0.2,2,1.2,2,2.4c0,1.2-1,2.2-2.2,2.2c0,0-0.1,0-0.1,0c-1.5-0.2-3-0.4-4.5-0.5 c-2.7,0-4.9,2.1-5,4.8c0,0.2,0,0.4,0,0.5v24.8c0.1,1.3-0.9,2.4-2.2,2.4c-0.1,0-0.1,0-0.2,0c-1.3,0-2.4-1-2.4-2.3c0,0,0-0.1,0-0.1 v-24.9c-0.4-5,3.4-9.4,8.4-9.8c0.4,0,0.7,0,1.1,0C356.4,171.8,358.1,171.9,359.8,172.3z" fill="#1D1D1B"  /><path d="M397.6,184.9v4.1c0,1.7-1.3,3.1-3,3.1c0,0-0.1,0-0.1,0h-18.3v3.9c-0.4,4.3,2.8,8.1,7.1,8.4 c0.4,0,0.9,0,1.3,0c2.7,0,5.4-0.6,7.9-1.7c0.5-0.2,1.1-0.4,1.7-0.4c1.2,0,2.3,1,2.3,2.2c0,0,0,0,0,0c0.1,0.9-0.5,1.7-1.4,2 c-3.3,1.4-6.9,2.2-10.6,2.3c-6.8,0.5-12.7-4.6-13.2-11.4c0-0.6,0-1.2,0-1.7v-10.8c0-7.3,5.9-13.2,13.2-13.2 c7.3,0,13.2,5.9,13.2,13.2H397.6z M376,184.7v2.9h16.7v-2.7c0-5.3-2.9-8.6-8.4-8.6S376,179.6,376,184.7L376,184.7z" fill="#1D1D1B"  /><path d="M430.4,173.7c0.9,0.3,1.4,1.1,1.4,2c0,1.2-0.9,2.2-2.1,2.2c0,0-0.1,0-0.1,0c-0.6,0-1.2-0.2-1.7-0.4 c-2.1-0.9-4.3-1.4-6.6-1.4c-3.2,0-6.5,1.8-6.5,5.1c0,2.7,2.1,4.1,4.6,5.2l6.2,2.6c4.2,1.8,7.1,4.5,7.1,9.3c0,6-4.5,10.3-11.6,10.3 c-3.4,0-6.7-0.7-9.7-2.1c-0.8-0.3-1.4-1.1-1.4-2c-0.1-1.1,0.7-2.1,1.8-2.2c0.1,0,0.3,0,0.4,0c0.6,0.1,1.1,0.3,1.7,0.5 c2.2,0.9,4.6,1.3,7,1.4c4.2,0,7.1-2.5,7.1-5.7c0-2.5-2-4.6-6.1-6.2l-5.3-2.2c-3.9-1.2-6.6-4.8-6.5-8.9c0-5.8,4.8-9.6,11.1-9.6 C424.4,171.8,427.5,172.4,430.4,173.7z" fill="#1D1D1B"  /><path d="M471.6,184.9v4.1c0,1.7-1.3,3.1-3,3.1c0,0-0.1,0-0.1,0h-18.3v3.9c-0.4,4.3,2.8,8.1,7.1,8.4 c0.4,0,0.9,0,1.3,0c2.7,0,5.4-0.6,7.9-1.7c0.5-0.2,1.1-0.4,1.7-0.4c1.2,0,2.3,1,2.3,2.2c0,0,0,0,0,0c0.1,0.9-0.5,1.7-1.4,2 c-3.3,1.4-6.9,2.2-10.6,2.3c-6.8,0.5-12.7-4.6-13.2-11.4c0-0.6,0-1.2,0-1.7v-10.8c0-7.3,5.9-13.2,13.2-13.2s13.2,5.9,13.2,13.2 H471.6z M450.1,184.7v2.9h16.7v-2.7c0-5.3-2.9-8.6-8.4-8.6S450.1,179.6,450.1,184.7L450.1,184.7z" fill="#1D1D1B"  /><path d="M510.1,182.4v21.9c0.1,1.3-0.8,2.5-2,2.9c-3.3,1.1-6.7,1.6-10.2,1.7c-8.4,0-14.1-3.1-14.1-10.9 c0-7.8,6.5-10.9,14-10.9h7.4v-4.7c0-3.6-2.8-6.1-7.6-6.1c-2.5,0-4.9,0.5-7.2,1.7c-0.7,0.5-1.6,0.7-2.4,0.8c-1.2,0-2.2-1.1-2.2-2.3 c0-0.8,0.4-1.5,1.1-1.9c3.2-1.8,6.8-2.7,10.4-2.7C504.4,171.8,510.1,175.2,510.1,182.4z M497.5,191.6c-5.2,0-9,1.7-9,6.4 c0,5.1,3.8,6.4,9.2,6.4c2.5,0,5.1-0.4,7.5-1.1v-11.6L497.5,191.6z" fill="#1D1D1B"  /><path d="M540.1,172.3c1.2,0.2,2,1.2,2,2.4c0,1.2-1,2.2-2.2,2.2c0,0-0.1,0-0.1,0c-1.5-0.2-3-0.4-4.5-0.5 c-2.7,0-4.9,2.1-5,4.8c0,0.2,0,0.4,0,0.5v24.8c0.1,1.3-0.9,2.4-2.2,2.4c-0.1,0-0.1,0-0.2,0c-1.3,0-2.4-1-2.4-2.3c0,0,0-0.1,0-0.1 v-24.9c-0.4-5,3.4-9.4,8.4-9.8c0.4,0,0.7,0,1.1,0C536.7,171.8,538.4,171.9,540.1,172.3z" fill="#1D1D1B"  /><path d="M575,174.1c0.8,0.4,1.3,1.2,1.4,2c0.1,1.1-0.7,2.1-1.8,2.2c-0.1,0-0.3,0-0.4,0c-0.9-0.1-1.7-0.3-2.5-0.8 c-2-0.8-4.2-1.3-6.4-1.3c-5,0-8.1,3.2-8.1,8.6v10.9c0,5.4,3.1,8.6,8.1,8.6c2.2,0,4.3-0.4,6.4-1.3c0.7-0.4,1.6-0.7,2.4-0.8 c1.2,0,2.2,0.9,2.3,2.2c0,0,0,0.1,0,0.1c0,0.9-0.6,1.7-1.4,2c-2.9,1.6-6.2,2.3-9.6,2.2c-8.1,0-13.2-5.1-13.2-13.1v-10.8 c0-8.1,5.4-13.1,13.2-13.1C568.8,171.8,572.1,172.6,575,174.1z" fill="#1D1D1B"  /><path d="M592.8,159.9v14.6c2.7-1.6,5.8-2.5,9-2.6c7.9,0,12.5,4.6,12.5,13.1v21.7c0,1.3-1,2.4-2.3,2.4 c0,0-0.1,0-0.1,0c-1.3,0.1-2.4-0.9-2.4-2.2c0-0.1,0-0.1,0-0.2v-22c0-5.4-3.1-8.1-8.1-8.1c-3.1,0-6.1,1.1-8.5,2.9v27.2 c0.1,1.3-0.9,2.4-2.2,2.4c-0.1,0-0.1,0-0.2,0c-1.3,0-2.4-1-2.4-2.3c0,0,0-0.1,0-0.1v-46.6c0-1.3,1-2.4,2.3-2.4c0,0,0.1,0,0.1,0 c1.3-0.1,2.4,0.9,2.4,2.2C592.8,159.7,592.8,159.8,592.8,159.9z" fill="#1D1D1B"  /><path d="M350.6,236.5c0,1.7-1.4,3.1-3.1,3.2c-1.7,0-3.1-1.4-3.2-3.1c0-1.7,1.4-3.1,3.1-3.2c0,0,0.1,0,0.1,0 C349.2,233.5,350.6,234.8,350.6,236.5z M350,248.8V281c0,1.3-1,2.4-2.3,2.4c0,0-0.1,0-0.1,0c-1.3,0.1-2.4-0.9-2.4-2.2 c0-0.1,0-0.1,0-0.2v-32.4c-0.1-1.3,0.9-2.4,2.2-2.4c0.1,0,0.1,0,0.2,0c1.3,0,2.4,1,2.4,2.3C350,248.6,350,248.6,350,248.8 L350,248.8z" fill="#1D1D1B"  /><path d="M392.2,259V281c0,1.3-1,2.4-2.3,2.4c0,0-0.1,0-0.1,0c-1.3,0.1-2.4-0.9-2.4-2.2c0-0.1,0-0.1,0-0.2v-22 c0-5.2-2.9-8.1-8.4-8.1c-2.8,0-5.6,0.5-8.4,1.3V281c0.1,1.3-0.9,2.4-2.2,2.4c-0.1,0-0.1,0-0.2,0c-1.3,0-2.4-1-2.4-2.3 c0,0,0-0.1,0-0.1v-30c0-1.5,1-2.7,2.4-3c3.5-1.1,7.1-1.7,10.8-1.8C387.7,246.2,392.2,251,392.2,259z" fill="#1D1D1B"  /><path d="M426.1,248.2c0.9,0.3,1.4,1.1,1.4,2c0,1.2-0.9,2.2-2.1,2.2c0,0-0.1,0-0.1,0c-0.6,0-1.2-0.2-1.7-0.4 c-2.1-0.9-4.3-1.4-6.6-1.4c-3.2,0-6.5,1.8-6.5,5.1c0,2.7,2.1,4.1,4.6,5.2l6.2,2.6c4.2,1.8,7.1,4.5,7.1,9.3c0,6-4.5,10.3-11.6,10.3 c-3.4,0-6.7-0.7-9.7-2.1c-0.8-0.3-1.4-1.1-1.4-2c-0.1-1.1,0.7-2.1,1.8-2.2c0.1,0,0.3,0,0.4,0c0.6,0.1,1.1,0.3,1.7,0.5 c2.2,0.9,4.6,1.3,7,1.4c4.2,0,7.1-2.5,7.1-5.7c0-2.5-2-4.6-6.1-6.2l-5.3-2.1c-3.9-1.2-6.6-4.8-6.5-8.9c0-5.8,4.8-9.6,11.1-9.6 C420.1,246.3,423.2,246.9,426.1,248.2z" fill="#1D1D1B"  /><path d="M447.3,234.3v12.7h8.4c1.3,0,2.3,1,2.3,2.3c0,1.3-1,2.3-2.3,2.3c0,0,0,0,0,0h-8.4v21.7 c0,3.7,1.8,5.6,4.9,5.6c1.9,0,2.6-0.4,3.5-0.4c1.2-0.1,2.3,0.8,2.4,2c0,0.1,0,0.2,0,0.3c0,1.2-0.9,2.2-2,2.3 c-1.3,0.3-2.6,0.4-3.9,0.4c-5.5,0-9.6-3.4-9.6-10.2v-38.9c0-1.3,1-2.4,2.3-2.4c0,0,0.1,0,0.1,0c1.3,0,2.3,1,2.4,2.3 C447.3,234.2,447.3,234.2,447.3,234.3z" fill="#1D1D1B"  /><path d="M475.1,236.5c0,1.7-1.4,3.1-3.1,3.2c-1.7,0-3.1-1.4-3.2-3.1c0-1.7,1.4-3.1,3.1-3.2c0,0,0.1,0,0.1,0 C473.8,233.5,475.1,234.8,475.1,236.5z M474.5,248.8V281c0,1.3-1,2.4-2.3,2.4c0,0-0.1,0-0.1,0c-1.3,0.1-2.4-0.9-2.4-2.2 c0-0.1,0-0.1,0-0.2v-32.4c-0.1-1.3,0.9-2.4,2.2-2.4c0.1,0,0.1,0,0.2,0c1.3,0,2.4,1,2.4,2.3C474.5,248.6,474.5,248.6,474.5,248.8 L474.5,248.8z" fill="#1D1D1B"  /><path d="M495.2,234.3v12.7h8.4c1.3,0,2.3,1,2.3,2.3c0,1.3-1,2.3-2.3,2.3c0,0,0,0,0,0h-8.4v21.7 c0,3.7,1.8,5.6,4.9,5.6c1.9,0,2.6-0.4,3.5-0.4c1.2-0.1,2.3,0.8,2.4,2c0,0.1,0,0.2,0,0.3c0,1.2-0.9,2.2-2,2.3 c-1.3,0.3-2.6,0.4-3.9,0.4c-5.5,0-9.6-3.4-9.6-10.2v-38.9c0-1.3,1-2.4,2.3-2.4c0,0,0.1,0,0.1,0c1.3,0,2.3,1,2.4,2.3 C495.2,234.2,495.2,234.2,495.2,234.3z" fill="#1D1D1B"  /><path d="M543.6,248.7v30c0,1.4-1,2.6-2.4,2.9c-3.5,1.2-7.1,1.8-10.8,1.8c-8.8,0-13.2-4.7-13.2-12.8v-21.9 c-0.1-1.3,0.9-2.4,2.2-2.4c0.1,0,0.1,0,0.2,0c1.3,0,2.4,1,2.4,2.3c0,0,0,0.1,0,0.1v22.1c0,5.1,2.9,8.1,8.4,8.1 c2.8,0,5.6-0.5,8.3-1.3v-28.9c0-1.3,1-2.4,2.3-2.4c0,0,0.1,0,0.1,0c1.3-0.1,2.4,0.9,2.5,2.2C543.6,248.5,543.6,248.6,543.6,248.7z" fill="#1D1D1B"  /><path d="M564.3,234.3v12.7h8.4c1.3,0,2.3,1,2.3,2.3c0,1.3-1,2.3-2.3,2.3c0,0,0,0,0,0h-8.4v21.7 c0,3.7,1.8,5.6,4.9,5.6c1.9,0,2.6-0.4,3.5-0.4c1.2-0.1,2.3,0.8,2.4,2c0,0.1,0,0.2,0,0.3c0,1.2-0.9,2.2-2,2.3 c-1.3,0.3-2.6,0.4-3.9,0.4c-5.5,0-9.6-3.4-9.6-10.2v-38.9c0-1.3,1-2.4,2.3-2.4c0,0,0.1,0,0.1,0c1.3,0,2.3,1,2.4,2.3 C564.3,234.2,564.3,234.2,564.3,234.3z" fill="#1D1D1B"  /><path d="M611.3,259.4v4.1c0,1.7-1.3,3.1-3,3.1c0,0-0.1,0-0.1,0h-18.3v3.9c-0.4,4.3,2.8,8.1,7.1,8.4 c0.4,0,0.9,0,1.3,0c2.7,0,5.4-0.6,7.9-1.7c0.5-0.2,1.1-0.4,1.7-0.4c1.2,0,2.3,1,2.3,2.2c0,0,0,0,0,0c0.1,0.9-0.5,1.7-1.4,2 c-3.3,1.4-6.9,2.2-10.6,2.3c-6.8,0.5-12.7-4.6-13.2-11.4c0-0.6,0-1.2,0-1.7v-10.9c0-7.3,5.9-13.2,13.2-13.2 c7.3,0,13.2,5.9,13.2,13.2L611.3,259.4z M589.7,259.2v2.9h16.7v-2.7c0-5.3-2.9-8.6-8.4-8.6S589.7,254,589.7,259.2L589.7,259.2z" fill="#1D1D1B"  /><rect x="0.2" y="0.3" width="289.9" height="282.5" fill="none"  /><rect width="290.3" height="282.9" fill="none"  /><rect x="256.3" y="0.3" width="34" height="56.1" fill="#F28B2D"  /><polygon points="0,0.3 0,0.3 0,56.4 56.1,56.4 56.1,0.3 28.1,28.3" fill="#65C4DB"  /><path d="M110,0.6c-15.5,0-28.1,12.6-28.1,28.1S94.5,56.7,110,56.7h23.4V0.6H110z" fill="#D70926"  /><path d="M224.4,56.7l-14.9-14.9c11.1-3.4,17.4-15.2,14-26.3c-2.7-8.8-10.9-14.9-20.1-14.9h-35.1v56.1H224.4z" fill="#8ABD24"  /><rect x="256.3" y="151.9" width="34" height="56.1" fill="#D70926"  /><polygon points="0,151.9 0,151.9 0,208 56.1,208 56.1,151.9 28.1,179.9" fill="#FFCF21"  /><path d="M110,151.9c-15.5,0-28.1,12.6-28.1,28.1S94.5,208,110,208h23.4v-56.1H110z" fill="#65C4DB"  /><path d="M224.4,208l-14.9-14.9c11.1-3.4,17.4-15.2,14-26.3c-2.7-8.8-10.9-14.9-20.1-14.9h-35.1V208L224.4,208z" fill="#008295"  /><rect x="256.3" y="75.5" width="34" height="56.1" fill="#008295"  /><polygon points="0,75.5 0,75.5 0,131.6 56.1,131.6 56.1,75.5 28.1,103.5" fill="#A22986"  /><path d="M110,75.5c-15.5,0-28.1,12.6-28.1,28.1s12.6,28.1,28.1,28.1h23.4V75.5H110z" fill="#008834"  /><path d="M224.4,131.6l-14.9-14.9c11.1-3.4,17.4-15.2,14-26.3c-2.7-8.8-10.9-14.9-20.1-14.9h-35.1v56.1H224.4z" fill="#FFCF21"  /><rect x="256.3" y="226.8" width="34" height="56.1" fill="#008834"  /><polygon points="0,226.8 0,226.8 0,282.9 56.1,282.9 56.1,226.8 28.1,254.9" fill="#8ABD24"  /><path d="M110,226.8c-15.5,0-28.1,12.6-28.1,28.1s12.6,28.1,28.1,28.1h23.4v-56.1H110z" fill="#A22986"  /><path d="M224.4,282.9L209.5,268c11.1-3.4,17.4-15.2,14-26.3c-2.7-8.8-10.9-14.9-20.1-14.9h-35.1V283L224.4,282.9z" fill="#F28B2D"  /><rect x="0.2" width="631.7" height="282.9" fill="none"  />
    
    
    
    
    
    
    
    
    
    
    
    
    
    
    
    
    
    
    
    
    
    
    
    
    
    
    
    
    
    
    
    
    
    
    
    
    
    
    
    
    
    
    
    
    
    
    
    
    
    
    
    
    
    
  </g></svg>