<svg viewBox="0 0 450 96" role="img" focusable="false" aria-labelledby="nhs-newcastle--title" xmlns="http://www.w3.org/2000/svg" xmlns:xlink="http://www.w3.org/1999/xlink"><title id="nhs-newcastle--title">NHS - The Newcastle upon Tyne Hospitals NHS Foundation Trust</title><g><polygon points="0,44.6 109,44.6 109,0 0,0" fill-rule="evenodd"  clip-rule="evenodd"  fill="#005EB8"  /><polyline points="10.7,4.3 22.6,4.3 29.8,29.2 30,29.2 34.8,4.3 43.8,4.3 36.3,40.1 24.5,40.1 17.2,15.4 17,15.4 12.2,40.1 3.2,40.1 10.7,4.3" fill-rule="evenodd"  clip-rule="evenodd"  fill="#FFFFFF"  /><polyline points="46.8,4.3 56.2,4.3 53.5,18.1 64.7,18.1 67.4,4.3 76.9,4.3 69.5,40.1 60.1,40.1 63.2,24.9 52,24.9 48.9,40.1 39.5,40.1 46.8,4.3" fill-rule="evenodd"  clip-rule="evenodd"  fill="#FFFFFF"  /><path d="M102.5,12.4c-2.4-1.1-5-1.6-7.7-1.6c-3.8,0-6.8,0.5-6.8,3.5 c0,5.1,13.5,3.1,13.5,14.1c0,9.9-9,12.4-17,12.4c-3.7,0-7.3-0.7-10.9-1.8l2.2-7.2c1.8,1.2,5.6,2,8.6,2s7.4-0.5,7.4-4.3 c0-5.8-13.5-3.6-13.5-13.7c0-9.2,7.9-12,15.6-12c4.3,0,8.3,0.4,10.7,1.6L102.5,12.4" fill-rule="evenodd"  clip-rule="evenodd"  fill="#FFFFFF"  />
    
    
    
    
  </g><g><g><path d="M6.7,52.6H1.3v-3h14.6v3h-5.4v15.9H6.7V52.6z" fill="#1A1919"  /><path d="M18,48.3h3.6v8.2h0.1c1-1.4,2.6-2.2,4.3-2.2c3.3,0,4.7,2.3,4.7,5.5v8.8h-3.6v-7.4c0-1.7,0-4-2.4-4 c-2.6,0-3.2,2.8-3.2,4.6v6.8H18V48.3z" fill="#1A1919"  /><path d="M45.7,67.7c-1.5,0.8-3.1,1.2-4.8,1.1c-4.6,0-7.3-2.7-7.3-7.2c0-4,2.1-7.3,6.5-7.3c5.2,0,6.6,3.5,6.6,8.4 h-9.6c0.1,2,1.7,3.6,3.8,3.5c0.1,0,0.2,0,0.2,0c1.6-0.1,3.2-0.5,4.6-1.4L45.7,67.7z M43.2,60.2c-0.1-1.8-0.9-3.3-3-3.3 s-3,1.4-3.2,3.3H43.2z" fill="#1A1919"  /><path d="M57.2,49.7h4.7L69,63.8l0,0V49.7h3.6v18.9h-4.6l-7.2-14.1h0v14.1h-3.6V49.7z" fill="#1A1919"  /><path d="M87.7,67.7c-1.5,0.8-3.1,1.2-4.8,1.1c-4.6,0-7.3-2.7-7.3-7.2c0-4,2.1-7.3,6.5-7.3c5.2,0,6.6,3.5,6.6,8.4 h-9.6c0.1,2,1.7,3.6,3.8,3.5c0.1,0,0.2,0,0.2,0c1.6-0.1,3.2-0.5,4.6-1.4L87.7,67.7z M85.3,60.2c-0.1-1.8-0.9-3.3-2.9-3.3 s-3.1,1.4-3.2,3.3H85.3z" fill="#1A1919"  /><path d="M90,54.6h3.8L97,64.9l0,0l2.8-10.3h4.2l3,10.3h0.1l2.9-10.3h3.5l-4.3,13.9h-4.3l-3-10.6h-0.1l-3,10.6h-4.1 L90,54.6z" fill="#1A1919"  /><path d="M124.7,57.6c-0.8-0.4-1.6-0.5-2.5-0.5c-2.2,0-3.7,1.8-3.7,4.4c0,2.6,1.2,4.5,3.8,4.5c1,0,1.9-0.3,2.8-0.7 l0.2,3c-1.2,0.3-2.4,0.5-3.6,0.5c-4.6,0-6.9-3.1-6.9-7.3c0-4,2.4-7.2,6.7-7.2c1.2,0,2.4,0.1,3.5,0.5L124.7,57.6z" fill="#1A1919"  /><path d="M128.3,55.3c1.5-0.7,3.2-1,4.8-1c4.2,0,6,1.8,6,5.9v1.8c0,1.4,0,2.5,0.1,3.5s0.1,2,0.2,3.1h-3.2 c-0.1-0.7-0.2-1.4-0.2-2.1h-0.1c-0.9,1.5-2.5,2.4-4.3,2.4c-2.5,0-4.9-1.5-4.9-4.1c-0.1-1.7,0.8-3.3,2.4-4c1.5-0.6,3.1-0.9,4.7-0.8 h2c0-2.3-1-3-3.1-3c-1.6,0-3.1,0.6-4.3,1.5L128.3,55.3z M132.5,66.2c1,0,1.9-0.4,2.6-1.2c0.6-0.8,0.8-1.9,0.8-2.9h-1.6 c-1.6,0-4,0.3-4,2.4C130.2,65.7,131.2,66.2,132.5,66.2z" fill="#1A1919"  /><path d="M151,57.5c-1-0.4-2.1-0.6-3.3-0.6c-1,0-2.1,0.3-2.1,1.5c0,2.2,6.3,0.8,6.3,5.8c0,3.2-2.9,4.5-5.9,4.5 c-1.4,0-2.8-0.2-4.1-0.6l0.2-3c1.1,0.6,2.3,0.9,3.6,0.9c0.9,0,2.4-0.3,2.4-1.7c0-2.7-6.3-0.9-6.3-5.9c0-3,2.6-4.3,5.5-4.3 c1.3,0,2.7,0.2,3.9,0.5L151,57.5z" fill="#1A1919"  /><path d="M155.9,57.3h-2.7v-2.6h2.7v-2.8l3.6-1.2v4h3.2v2.7h-3.2v6.5c0,1.2,0.3,2.3,1.7,2.3c0.6,0,1.1-0.1,1.6-0.4 l0.1,2.9c-0.9,0.2-1.8,0.3-2.7,0.3c-2.8,0-4.4-1.8-4.4-4.5V57.3z" fill="#1A1919"  /><path d="M165.3,48.3h3.6v20.3h-3.6V48.3z" fill="#1A1919"  /><path d="M183.9,67.7c-1.5,0.8-3.1,1.2-4.8,1.1c-4.6,0-7.3-2.7-7.3-7.2c0-4,2.1-7.3,6.5-7.3c5.2,0,6.6,3.5,6.6,8.4 h-9.6c0.1,2,1.7,3.6,3.8,3.5c0.1,0,0.2,0,0.2,0c1.6-0.1,3.2-0.5,4.6-1.4L183.9,67.7z M181.5,60.2c-0.1-1.8-0.9-3.3-2.9-3.3 s-3.1,1.4-3.2,3.3H181.5z" fill="#1A1919"  /><path d="M208.1,68.5h-3.4v-1.9h-0.1c-1.1,1.4-2.8,2.2-4.6,2.2c-3.3,0-4.7-2.3-4.7-5.5v-8.8h3.6V62c0,1.7,0,4,2.4,4 c2.6,0,3.2-2.8,3.2-4.6v-6.8h3.6V68.5z" fill="#1A1919"  /><path d="M211.8,54.6h3.5v2h0.1c0.9-1.5,2.6-2.4,4.3-2.3c4.3,0,5.9,3.4,5.9,7.2s-1.6,7.3-5.9,7.3 c-1.6,0.1-3.1-0.6-4.1-1.9h-0.1v7.3h-3.6L211.8,54.6z M215.4,61.5c0,2,0.8,4.5,3.2,4.5s3.1-2.6,3.1-4.5s-0.6-4.4-3-4.4 S215.4,59.6,215.4,61.5z" fill="#1A1919"  /><path d="M234.7,54.3c3.9-0.2,7.1,2.8,7.3,6.7c0,0.2,0,0.5,0,0.7c0,4-3.3,7.3-7.3,7.3c-4,0-7.3-3.3-7.3-7.3l0,0 c-0.2-3.9,2.7-7.2,6.6-7.4C234.2,54.3,234.5,54.3,234.7,54.3z M234.7,66c2.8,0,3.5-2.5,3.5-4.8c0-2.1-1.1-4.1-3.5-4.1 s-3.5,2-3.5,4.1C231.2,63.5,231.9,66,234.7,66z" fill="#1A1919"  /><path d="M244.8,54.6h3.4v1.9h0.1c1-1.5,2.8-2.3,4.6-2.2c3.3,0,4.7,2.3,4.7,5.5v8.8H254v-7.4c0-1.7,0-4-2.4-4 c-2.6,0-3.2,2.8-3.2,4.6v6.8h-3.6L244.8,54.6z" fill="#1A1919"  /><path d="M272.6,52.6h-5.4v-3h14.6v3h-5.4v15.9h-3.8L272.6,52.6z" fill="#1A1919"  /><path d="M286.7,64.8L286.7,64.8l3.4-10.2h3.7l-5.2,13.8c-1.2,3.1-2,6.1-5.8,6.1c-0.9,0-1.7-0.1-2.6-0.4l0.3-2.7 c0.6,0.2,1.2,0.3,1.9,0.3c1.3,0.1,2.3-0.9,2.4-2.2c0-0.1,0-0.2,0-0.3l-5.3-14.6h4L286.7,64.8z" fill="#1A1919"  /><path d="M295.9,54.6h3.4v1.9h0.1c1-1.5,2.8-2.3,4.6-2.2c3.3,0,4.7,2.3,4.7,5.5v8.8h-3.6v-7.4c0-1.7,0-4-2.4-4 c-2.6,0-3.2,2.8-3.2,4.6v6.8h-3.6L295.9,54.6z" fill="#1A1919"  /><path d="M323.6,67.7c-1.5,0.8-3.1,1.2-4.8,1.1c-4.6,0-7.3-2.7-7.3-7.2c0-4,2.1-7.3,6.5-7.3c5.2,0,6.6,3.5,6.6,8.4 H315c0.1,2,1.7,3.6,3.8,3.5c0.1,0,0.2,0,0.2,0c1.6-0.1,3.2-0.5,4.6-1.4L323.6,67.7z M321.2,60.2c-0.1-1.8-0.9-3.3-2.9-3.3 s-3.1,1.4-3.2,3.3H321.2z" fill="#1A1919"  /><path d="M335.3,49.7h3.8v7.6h7.6v-7.6h3.8v18.9h-3.8v-8.3h-7.6v8.3h-3.8V49.7z" fill="#1A1919"  /><path d="M360.9,54.3c3.9-0.2,7.1,2.8,7.3,6.7c0,0.2,0,0.5,0,0.7c0,4-3.3,7.3-7.3,7.3c-4,0-7.3-3.3-7.3-7.3 c-0.2-3.9,2.7-7.2,6.6-7.4C360.5,54.3,360.7,54.3,360.9,54.3z M360.9,66c2.8,0,3.5-2.5,3.5-4.8c0-2.1-1.1-4.1-3.5-4.1 s-3.5,2-3.5,4.1C357.4,63.5,358.1,66,360.9,66z" fill="#1A1919"  /><path d="M379.3,57.5c-1-0.4-2.1-0.6-3.3-0.6c-1,0-2.1,0.3-2.1,1.5c0,2.2,6.3,0.8,6.3,5.8c0,3.2-2.9,4.5-5.8,4.5 c-1.4,0-2.8-0.2-4.1-0.6l0.2-3c1.1,0.6,2.3,0.9,3.6,0.9c0.9,0,2.4-0.3,2.4-1.7c0-2.7-6.3-0.9-6.3-5.9c0-3,2.6-4.3,5.5-4.3 c1.3,0,2.7,0.2,4,0.5L379.3,57.5z" fill="#1A1919"  /><path d="M383,54.6h3.5v2h0c0.9-1.5,2.6-2.4,4.3-2.3c4.3,0,5.8,3.4,5.8,7.2s-1.6,7.3-5.9,7.3 c-1.6,0.1-3.1-0.6-4.1-1.9h-0.1v7.3H383L383,54.6z M386.7,61.5c0,2,0.8,4.5,3.2,4.5s3.1-2.6,3.1-4.5s-0.6-4.4-3-4.4 S386.7,59.6,386.7,61.5L386.7,61.5z" fill="#1A1919"  /><path d="M399.6,48.6h3.6v3.5h-3.6V48.6z M399.6,54.6h3.6v13.9h-3.6V54.6z" fill="#1A1919"  /><path d="M408.3,57.3h-2.7v-2.6h2.7v-2.8l3.6-1.2v4h3.2v2.7h-3.2v6.5c0,1.2,0.3,2.3,1.7,2.3c0.6,0,1.1-0.1,1.6-0.4 l0.1,2.9c-0.9,0.2-1.8,0.3-2.7,0.3c-2.8,0-4.4-1.8-4.4-4.5V57.3z" fill="#1A1919"  /><path d="M418.2,55.3c1.5-0.7,3.2-1,4.8-1c4.2,0,6,1.8,6,5.9v1.8c0,1.4,0,2.5,0,3.5s0.1,2,0.2,3.1h-3.2 c-0.1-0.7-0.2-1.4-0.2-2.1h0c-0.9,1.5-2.5,2.4-4.3,2.4c-2.5,0-4.9-1.5-4.9-4.1c-0.1-1.7,0.8-3.3,2.4-4c1.5-0.6,3.1-0.9,4.7-0.8h2 c0-2.3-1-3-3.1-3c-1.6,0-3.1,0.6-4.3,1.5L418.2,55.3z M422.5,66.2c1,0,1.9-0.4,2.5-1.2c0.6-0.8,0.8-1.9,0.8-2.9h-1.6 c-1.6,0-4,0.3-4,2.4C420.2,65.7,421.2,66.2,422.5,66.2z" fill="#1A1919"  /><path d="M432.7,48.3h3.6v20.3h-3.6V48.3z" fill="#1A1919"  /><path d="M448.4,57.5c-1-0.4-2.1-0.6-3.2-0.6c-1,0-2.1,0.3-2.1,1.5c0,2.2,6.3,0.8,6.3,5.8c0,3.2-2.9,4.5-5.8,4.5 c-1.4,0-2.8-0.2-4.1-0.6l0.2-3c1.1,0.6,2.3,0.9,3.6,0.9c0.9,0,2.4-0.3,2.4-1.7c0-2.7-6.3-0.9-6.3-5.9c0-3,2.6-4.3,5.5-4.3 c1.3,0,2.7,0.2,3.9,0.5L448.4,57.5z" fill="#1A1919"  />
      
      
      
      
      
      
      
      
      
      
      
      
      
      
      
      
      
      
      
      
      
      
      
      
      
      
      
      
      
    </g>
    
  </g><g><g><path d="M2.4,81.6h3.2l4.9,9.6l0,0v-9.6H13v12.9H9.9l-4.9-9.6l0,0v9.6H2.4V81.6z" fill="#005EB8"  /><path d="M15.9,81.6h2.6v5.2h5.2v-5.2h2.6v12.9h-2.6v-5.6h-5.2v5.6h-2.6V81.6z" fill="#005EB8"  /><path d="M36.1,84c-0.8-0.4-1.7-0.5-2.6-0.6c-1-0.1-1.9,0.6-2,1.6c0,0.1,0,0.1,0,0.2c0,2.2,5.6,1.3,5.6,5.6 c0,2.8-2.2,3.9-4.8,3.9c-1.1,0-2.2-0.2-3.3-0.5l0.2-2.3c0.9,0.5,1.9,0.8,2.9,0.8c1,0,2.3-0.5,2.3-1.7c0-2.5-5.6-1.4-5.6-5.7 c0-2.9,2.2-3.9,4.5-3.9c1,0,2.1,0.1,3.1,0.5L36.1,84z" fill="#005EB8"  /><path d="M44.6,81.6h7.2v2h-4.6v3.2h4.3v2h-4.3v5.7h-2.6V81.6z" fill="#005EB8"  /><path d="M57.9,84.8c2.6-0.1,4.9,1.9,5,4.5c0,0.2,0,0.3,0,0.5c-0.3,2.7-2.8,4.7-5.6,4.4c-2.3-0.3-4.1-2.1-4.4-4.4 c-0.1-2.6,1.9-4.9,4.5-5C57.6,84.8,57.7,84.8,57.9,84.8z M57.9,92.8c1.9,0,2.4-1.7,2.4-3.3s-0.8-2.8-2.4-2.8s-2.4,1.4-2.4,2.8 C55.5,91.1,56,92.8,57.9,92.8L57.9,92.8z" fill="#005EB8"  /><path d="M73.5,94.5h-2.3v-1.3l0,0c-0.8,1-2,1.5-3.2,1.5c-2.2,0-3.2-1.6-3.2-3.7v-6h2.5v5.1c0,1.2,0,2.7,1.6,2.7 c1.8,0,2.2-1.9,2.2-3.2V85h2.5L73.5,94.5z" fill="#005EB8"  /><path d="M76.1,85h2.3v1.3l0,0c0.7-1,1.9-1.6,3.1-1.5c2.2,0,3.2,1.6,3.2,3.7v6h-2.4v-5.1c0-1.2,0-2.7-1.6-2.7 c-1.8,0-2.2,1.9-2.2,3.2v4.6h-2.5V85z" fill="#005EB8"  /><path d="M93.7,93.4L93.7,93.4c-0.7,0.9-1.8,1.3-2.9,1.3c-2.9,0-4-2.4-4-5s1.1-4.9,4-4.9c1.1-0.1,2.2,0.4,2.8,1.3 l0,0v-5.4h2.5v13.8h-2.4L93.7,93.4z M91.4,92.8c1.6,0,2.2-1.7,2.2-3.1s-0.6-3-2.2-3s-2.1,1.8-2.1,3S89.8,92.8,91.4,92.8z" fill="#005EB8"  /><path d="M99,85.5c1-0.5,2.2-0.7,3.3-0.7c2.9,0,4.1,1.2,4.1,4V90c0,1,0,1.7,0,2.4s0.1,1.4,0.1,2.1h-2.1 c-0.1-0.5-0.1-0.9-0.1-1.4l0,0c-0.6,1-1.7,1.7-2.9,1.6c-1.7,0-3.3-1-3.3-2.8c-0.1-1.2,0.6-2.2,1.6-2.7c1-0.4,2.1-0.6,3.2-0.6h1.4 c0-1.5-0.7-2-2.1-2c-1.1,0-2.1,0.4-2.9,1L99,85.5z M101.9,92.9c0.7,0,1.3-0.3,1.7-0.8c0.4-0.6,0.6-1.3,0.5-2h-1.1 c-1.1,0-2.8,0.2-2.8,1.6C100.4,92.6,101,92.9,101.9,92.9L101.9,92.9z" fill="#005EB8"  /><path d="M109.7,86.8h-1.8V85h1.8v-1.9l2.5-0.8V85h2.2v1.8h-2.2v4.4c0,0.8,0.2,1.6,1.2,1.6c0.4,0,0.8-0.1,1.1-0.3 l0.1,2c-0.6,0.2-1.2,0.2-1.8,0.2c-1.5,0.1-2.9-1-3-2.6c0-0.2,0-0.4,0-0.5L109.7,86.8z" fill="#005EB8"  /><path d="M116.1,80.9h2.5v2.3h-2.5V80.9z M116.1,85h2.5v9.5h-2.5V85z" fill="#005EB8"  /><path d="M125.5,84.8c2.6-0.1,4.9,1.9,5,4.5c0,0.2,0,0.3,0,0.5c-0.3,2.7-2.8,4.7-5.5,4.4c-2.3-0.3-4.2-2.1-4.4-4.4 c-0.1-2.6,1.9-4.9,4.5-5C125.2,84.8,125.4,84.8,125.5,84.8z M125.5,92.8c1.9,0,2.4-1.7,2.4-3.3s-0.8-2.8-2.4-2.8s-2.4,1.4-2.4,2.8 C123.1,91.1,123.6,92.8,125.5,92.8L125.5,92.8z" fill="#005EB8"  /><path d="M132.4,85h2.3v1.3l0,0c0.7-1,1.9-1.6,3.1-1.5c2.2,0,3.2,1.6,3.2,3.7v6h-2.5v-5.1c0-1.2,0-2.7-1.6-2.7 c-1.8,0-2.2,1.9-2.2,3.2v4.6h-2.5L132.4,85z" fill="#005EB8"  /><path d="M151.4,83.7h-3.7v-2h9.9v2H154v10.8h-2.6L151.4,83.7z" fill="#005EB8"  /><path d="M157.4,85h2.2v2.2l0,0c0.2-1.3,1.3-2.3,2.6-2.4c0.3,0,0.5,0,0.8,0.1v2.5c-0.4-0.1-0.7-0.2-1.1-0.2 c-2,0-2,2.5-2,3.9v3.5h-2.5L157.4,85z" fill="#005EB8"  /><path d="M173.3,94.5h-2.3v-1.3l0,0c-0.8,1-1.9,1.5-3.1,1.5c-2.3,0-3.2-1.6-3.2-3.7v-6h2.4v5.1c0,1.2,0,2.7,1.6,2.7 c1.8,0,2.2-1.9,2.2-3.2V85h2.5L173.3,94.5z" fill="#005EB8"  /><path d="M181.4,87c-0.7-0.3-1.5-0.4-2.2-0.4c-0.7,0-1.5,0.2-1.5,1c0,1.5,4.3,0.6,4.3,4c0,2.2-2,3.1-4,3.1 c-0.9,0-1.9-0.1-2.8-0.4l0.1-2c0.8,0.4,1.6,0.6,2.4,0.6c0.6,0,1.6-0.3,1.6-1.2c0-1.9-4.3-0.6-4.3-4c0-2,1.8-2.9,3.7-2.9 c0.9,0,1.8,0.1,2.7,0.3L181.4,87z" fill="#005EB8"  /><path d="M184.8,86.8H183V85h1.8v-1.9l2.5-0.8V85h2.2v1.8h-2.2v4.4c0,0.8,0.2,1.6,1.2,1.6c0.4,0,0.8-0.1,1.1-0.3 l0.1,2c-0.6,0.2-1.2,0.2-1.8,0.2c-1.5,0.1-2.9-1-3-2.6c0-0.2,0-0.4,0-0.5L184.8,86.8z" fill="#005EB8"  />
      
      
      
      
      
      
      
      
      
      
      
      
      
      
      
      
      
      
    </g>
    
  </g></svg>