<svg width="396.9" height="500" viewBox="0 0 396.9 500" role="img" focusable="false" aria-labelledby="the-royal-college-of-midwives--title" xmlns="http://www.w3.org/2000/svg" xmlns:xlink="http://www.w3.org/1999/xlink"><title id="the-royal-college-of-midwives--title">The Royal College of Midwives</title><g><g><path d="M271.6,322.7c10.4-10.4,16-23.8,16.8-37.5c13.6-0.8,27.1-6.4,37.5-16.8c22.5-22.5,22.5-59.1,0-81.6 l-44.5-44.5L254,169.8l44.5,44.5c7.4,7.4,7.4,19.5,0,26.9c-7.4,7.4-19.5,7.4-26.9,0l-44.5-44.5L199.8,224l44.5,44.5 c7.4,7.4,7.4,19.5,0,26.9c-7.4,7.4-19.5,7.4-26.9,0l-44.5-44.5l-27.3,27.3l44.5,44.5C212.6,345.2,249.2,345.2,271.6,322.7" fill="#A7358B"  />
      
    </g><path d="M325.9,71.1c-10.4-10.4-23.8-16-37.5-16.8c-0.8-13.6-6.4-27.1-16.8-37.5c-22.5-22.5-59.1-22.5-81.6,0 l-44.5,44.5l27.3,27.3l44.5-44.5c7.4-7.4,19.5-7.4,26.9,0c7.4,7.4,7.4,19.5,0,26.9l-44.5,44.5l27.3,27.3l44.5-44.5 c7.4-7.4,19.5-7.4,26.9,0c7.4,7.4,7.4,19.5,0,26.9L254,169.8l27.3,27.3l44.5-44.5C348.4,130.2,348.4,93.6,325.9,71.1" fill="#E73331"  /><path d="M74.2,16.9c-10.4,10.4-16,23.8-16.8,37.5C43.8,55.1,30.4,60.7,20,71.1c-22.5,22.5-22.5,59.1,0,81.6 l44.5,44.5l27.3-27.3l-44.5-44.5c-7.4-7.4-7.4-19.5,0-26.9s19.5-7.4,26.9,0l44.5,44.5l27.3-27.3l-44.5-44.5 c-7.4-7.4-7.4-19.5,0-26.9c7.4-7.4,19.5-7.4,26.9,0l44.5,44.5l27.3-27.3l-44.5-44.5C133.3-5.6,96.7-5.6,74.2,16.9" fill="#EB5B25"  /><g><path d="M20,268.6c10.4,10.4,23.8,16,37.5,16.8c0.8,13.6,6.4,27.1,16.8,37.5c22.5,22.5,59.1,22.5,81.6,0l44.5-44.5 l-27.3-27.3l-44.5,44.5c-7.4,7.4-19.5,7.4-26.9,0c-7.4-7.4-7.4-19.5,0-26.9l44.5-44.5l-27.3-27.3l-44.5,44.5 c-7.4,7.4-19.5,7.4-26.9,0s-7.4-19.5,0-26.9l44.5-44.5l-27.3-27.3L20,187C-2.5,209.5-2.5,246.1,20,268.6" fill="#F18700"  />
      
    </g><rect x="154.2" y="258.7" transform="matrix(0.7071 -0.7071 0.7071 0.7071 -146.3463 204.3664)" width="38.7" height="40.3" fill="#A7358B"  /><g><path d="M4.5,385.2h20.9c10.2,0,15.9,4.7,15.9,14.2c0,9-6.2,13.3-13.1,14.1l14.1,18.2h-6.9l-14.1-18H10.1v18H4.5V385.2z M25.4,408.7c6.9,0,10.3-3.1,10.3-9.3c0-6.2-3.4-9.2-10.3-9.2H10.1v18.5H25.4z" /><path d="M44.2,414.2c0-10.9,7.2-18.2,17.1-18.2c9.9,0,17.1,7.3,17.1,18.2c0,10.8-7.2,18.2-17.1,18.2 C51.4,432.3,44.2,425,44.2,414.2z M73.1,414.2c0-7.5-4.6-13.4-11.8-13.4s-11.8,5.9-11.8,13.4c0,7.4,4.6,13.4,11.8,13.4 S73.1,421.6,73.1,414.2z" /><path d="M82.6,439.1h3.1c2.5,0,4.6-0.3,5.7-2.7l1.1-2.3c1.2-2.7,0.7-4.6-0.1-6.5l-13-30.9h5.9l11.3,27.7l11.1-27.7h5.8l-17.2,40.7 c-2.1,4.8-5.6,6.6-9.9,6.6h-3.8V439.1z" /><path d="M147.6,396.2v35.4h-4.8l-1.4-4.2c-2.1,2.7-6,4.9-10.4,4.9c-10.7,0-17-7.6-17-18.3s6.6-18,17-18c5.5,0,9.6,2.7,11.3,5.5 v-5.3H147.6z M142.7,414.1c0-7.6-4.6-13.3-11.7-13.3c-7.1,0-11.7,5.8-11.7,13.3c0,7.6,4.5,13.5,11.7,13.5 C138.2,427.6,142.7,421.7,142.7,414.1z" /><path d="M155.6,384.6h5.3v47.1h-5.3V384.6z" /><path d="M180.3,408.5c0-14.2,9.3-23.9,21.4-23.9c10.3,0,15.4,4.8,18.4,10.2l-4.2,3.2c-2.7-5.1-7.2-8.5-14.2-8.5 c-8.9,0-15.8,7.6-15.8,18.9c0,10.9,7,18.9,15.8,18.9c7.2,0,11.5-3.5,14.1-8.6l4.3,3.1c-3.3,6-9,10.4-18.4,10.4 C189.6,432.3,180.3,422.2,180.3,408.5z" /><path d="M223.6,414.2c0-10.9,7.2-18.2,17.1-18.2c9.9,0,17.1,7.3,17.1,18.2c0,10.8-7.2,18.2-17.1,18.2 C230.8,432.3,223.6,425,223.6,414.2z M252.5,414.2c0-7.5-4.6-13.4-11.8-13.4s-11.8,5.9-11.8,13.4c0,7.4,4.6,13.4,11.8,13.4 S252.5,421.6,252.5,414.2z" /><path d="M263.5,384.6h5.3v47.1h-5.3V384.6z" /><path d="M276.8,384.6h5.3v47.1h-5.3V384.6z" /><path d="M287.8,414.4c0-9.5,6.4-18.4,16.9-18.4c11.8,0,16.3,8.6,16.3,17.1v2.5h-28c0.3,7,4.7,12,11.7,12c5.7,0,8.4-2.6,10.3-5.5 l4,2.8c-2.1,3.2-6.4,7.5-14.4,7.5C295.6,432.3,287.8,426.4,287.8,414.4z M315.8,410.8c-0.5-4.5-2.8-10-11.1-10 c-5,0-10.3,3.1-11.4,10H315.8z" /><path d="M358.8,396.6v31.2c0,9.5-5.2,16.4-16.6,16.4c-6,0-11.5-2.3-15.2-6.4l4-3.9c3,3.7,7,5.6,11.2,5.6c8.5,0,11.3-5.2,11.3-11.7 v-1.1c-2.7,3.5-6.6,5.3-11.5,5.3c-9.7,0-16.2-7.6-16.2-18c0-10.3,6.4-18,16.2-18c5.3,0,8.7,1.7,10.7,4.2l1.3-3.5H358.8z M353.8,414c0-7.4-3.8-13.2-11.4-13.2s-11.3,5.8-11.3,13.2c0,7.4,3.7,13.2,11.3,13.2S353.8,421.3,353.8,414z" /><path d="M363.7,414.4c0-9.5,6.4-18.4,16.9-18.4c11.8,0,16.3,8.6,16.3,17.1v2.5h-28c0.3,7,4.7,12,11.7,12c5.7,0,8.4-2.6,10.3-5.5 l4,2.8c-2.1,3.2-6.4,7.5-14.4,7.5C371.5,432.3,363.7,426.4,363.7,414.4z M391.7,410.8c-0.5-4.5-2.8-10-11.1-10 c-5,0-10.3,3.1-11.4,10H391.7z" /><path d="M0,481.8c0-10.9,7.2-18.2,17.1-18.2c9.9,0,17.1,7.3,17.1,18.2c0,10.8-7.2,18.2-17.1,18.2C7.2,500,0,492.6,0,481.8z M28.9,481.8c0-7.5-4.6-13.4-11.8-13.4s-11.8,5.9-11.8,13.4c0,7.4,4.6,13.4,11.8,13.4S28.9,489.3,28.9,481.8z" /><path d="M41.1,469.1h-6v-4.8h6v-3.6c0-6.2,3.8-9.2,8.3-9.2c1.9,0,2.8,0.2,3.8,0.6v4.8c-0.8-0.3-1.7-0.6-2.7-0.6 c-3.2,0-4.1,1.7-4.1,5v3h6.8v4.8h-6.8v30.2h-5.3V469.1z" /><path d="M68.8,452.9h9.5l14.9,39.2l14.9-39.2h9.5v46.4h-5.6v-41.7L96,499.3h-5.3l-16.2-41.7v41.7h-5.6V452.9z" /><path d="M125.6,451.7h6.1v7.1h-6.1V451.7z M126,464.3h5.3v35H126V464.3z" /><path d="M170,452.2v47.1h-4.8l-1.4-4.2c-2.1,2.7-6,4.9-10.4,4.9c-10.7,0-17-7.6-17-18.3s6.6-18,17-18c5.5,0,9.6,2.7,11.3,5.5 v-16.9H170z M165,481.8c0-7.6-4.6-13.3-11.7-13.3c-7.1,0-11.7,5.8-11.7,13.3c0,7.6,4.5,13.5,11.7,13.5 C160.5,495.2,165,489.3,165,481.8z" /><path d="M174.2,464.3h5.7l8.4,27.9l8-27.9h5.8l8,27.9l8.4-27.9h5.7l-11.7,35h-5l-8.4-27.5l-8.4,27.5h-5L174.2,464.3z" /><path d="M228.9,451.7h6.1v7.1h-6.1V451.7z M229.3,464.3h5.3v35h-5.3V464.3z" /><path d="M239.4,464.3h5.9l11.1,28.5l11.3-28.5h5.7l-14.5,35h-5L239.4,464.3z" /><path d="M274,482c0-9.5,6.4-18.4,16.9-18.4c11.8,0,16.3,8.6,16.3,17.1v2.5h-28c0.3,7,4.7,12,11.7,12c5.7,0,8.4-2.6,10.3-5.5l4,2.8 c-2.1,3.2-6.4,7.5-14.4,7.5C281.8,500,274,494,274,482z M302,478.4c-0.5-4.5-2.8-10-11.1-10c-5,0-10.3,3.1-11.4,10H302z" /><path d="M309.8,492l4.7-2.5c1.9,3.4,4.5,5.6,9.7,5.6c5.6,0,8.4-2.5,8.4-5.8c0-3.4-2.8-4.6-9.5-5.7c-6.3-1-11.5-3.6-11.5-10.4 c0-6.2,6.1-9.7,12.4-9.7c5.9,0,10.1,2.3,12.9,5.5l-3.7,3.2c-1.9-2.3-4.8-3.9-9-3.9c-4.4,0-7.5,1.9-7.5,4.9c0,3.7,3.2,4.8,9.4,5.9 c6.5,1.2,11.8,3.1,11.8,10c0,6.3-5.1,10.7-13.7,10.7C318.3,500,312.2,497.1,309.8,492z" />
      
      
      
      
      
      
      
      
      
      
      
      
      
      
      
      
      
      
      
      
      
      
    </g>
    
    
    
    
    
    
  </g></svg>