<svg width="635.1" height="283.5" viewBox="0 0 635.1 283.5" role="img" focusable="false" aria-labelledby="tofs--title" xmlns="http://www.w3.org/2000/svg" xmlns:xlink="http://www.w3.org/1999/xlink"><title id="tofs--title">TOFS - Supporting those born unable to swallow</title><g><path d="M11.3,263.3c-0.9,0-2.8-1.4-4.4-1.4c-0.9,0-1.7,0.4-1.7,1.4c0,2.3,8.5,1.9,8.5,7.5c0,3.3-2.7,5.7-6.9,5.7 c-2.7,0-6.8-1.6-6.8-3.8c0-0.7,0.7-2.2,2.1-2.2c1.9,0,2.7,1.7,5,1.7c1.5,0,1.9-0.5,1.9-1.4c0-2.2-8.5-1.9-8.5-7.5 c0-3.4,2.7-5.7,6.6-5.7c2.4,0,6.1,1.1,6.1,3.5C13.3,262.3,12.5,263.3,11.3,263.3" fill="#005597"  /><path d="M16.3,260.6c0-1.6,1-2.7,2.4-2.7c1.4,0,2.4,1.1,2.4,2.7v8.7c0,2,1.5,3.1,3.2,3.1c1.6,0,3.2-1.1,3.2-3.1 v-8.7c0-1.6,1-2.7,2.4-2.7c1.4,0,2.4,1.1,2.4,2.7v8.8c0,4.3-2.9,7.1-8,7.1c-5.1,0-8-2.8-8-7.1V260.6z" fill="#005597"  /><path d="M36,260.6c0-1.6,1-2.7,2.4-2.7c1.4,0,2.1,0.7,2.4,2c0.9-1.5,2.8-2.2,4.6-2.2c5.3,0,7.9,4.9,7.9,9.7 c0,4.6-3.1,9.2-8,9.2c-1.5,0-3.2-0.6-4.5-1.7v6c0,1.6-1,2.7-2.4,2.7c-1.4,0-2.4-1.1-2.4-2.7V260.6z M44.7,272 c2.5,0,3.8-2.6,3.8-4.9c0-2.3-1.3-5-3.8-5c-2.6,0-3.8,2.4-3.8,4.8C40.9,269.3,42,272,44.7,272" fill="#005597"  /><path d="M56.3,260.6c0-1.6,1-2.7,2.4-2.7c1.4,0,2.1,0.7,2.4,2c0.9-1.5,2.8-2.2,4.6-2.2c5.3,0,7.9,4.9,7.9,9.7 c0,4.6-3.1,9.2-8,9.2c-1.5,0-3.2-0.6-4.5-1.7v6c0,1.6-1,2.7-2.4,2.7c-1.4,0-2.4-1.1-2.4-2.7V260.6z M65,272c2.5,0,3.8-2.6,3.8-4.9 c0-2.3-1.3-5-3.8-5c-2.6,0-3.8,2.4-3.8,4.8C61.2,269.3,62.3,272,65,272" fill="#005597"  /><path d="M93.3,267.1c0,5.1-3.5,9.4-8.7,9.4c-5.3,0-8.7-4.3-8.7-9.4c0-4.9,3.6-9.5,8.7-9.5 C89.7,257.7,93.3,262.2,93.3,267.1 M80.7,267.1c0,2.3,1.2,4.9,3.9,4.9s3.9-2.6,3.9-4.9c0-2.3-1.2-5-3.9-5 C81.9,262.1,80.7,264.8,80.7,267.1" fill="#005597"  /><path d="M96.2,260.3c0-1.6,1.3-2.4,2.5-2.4c1.3,0,2.4,0.5,2.4,2h0.1c0.9-1.4,1.9-2,3.4-2c1.2,0,2.4,0.8,2.4,2.6 c0,1.6-1.5,1.7-2.9,2.4c-1.5,0.7-2.9,1.3-2.9,3.2v7.5c0,1.6-1,2.7-2.4,2.7c-1.4,0-2.4-1.1-2.4-2.7V260.3z" fill="#005597"  /><path d="M109.5,262.3h-1.1c-1.3,0-2.1-0.8-2.1-2.1c0-1.2,0.9-2.1,2.1-2.1h1.1v-2.9c0-1.6,1-2.7,2.4-2.7 c1.4,0,2.4,1.1,2.4,2.7v2.9h1.4c1.3,0,2.3,0.6,2.3,2.1c0,1.5-1.1,2.1-2.3,2.1h-1.4v11.2c0,1.6-1,2.7-2.4,2.7 c-1.4,0-2.4-1.1-2.4-2.7V262.3z" fill="#005597"  /><path d="M124.3,253.2c0,1.5-1.2,2.8-2.7,2.8c-1.5,0-2.7-1.3-2.7-2.8c0-1.4,1.3-2.7,2.7-2.7 C123,250.5,124.3,251.8,124.3,253.2 M119.1,260.6c0-1.6,1-2.7,2.4-2.7c1.4,0,2.4,1.1,2.4,2.7v13c0,1.6-1,2.7-2.4,2.7 c-1.4,0-2.4-1.1-2.4-2.7V260.6z" fill="#005597"  /><path d="M127.6,260.6c0-1.6,1-2.7,2.4-2.7c1.3,0,2.1,0.7,2.2,1.8c0.9-1.3,2.4-2,4.7-2c3.8,0,6.7,2.4,6.7,6.6v9.4 c0,1.6-1,2.7-2.4,2.7s-2.4-1.1-2.4-2.7v-8.5c0-2.3-1.4-3.4-3.2-3.4c-2,0-3.1,1.5-3.1,3.4v8.5c0,1.6-1,2.7-2.4,2.7 c-1.4,0-2.4-1.1-2.4-2.7V260.6z" fill="#005597"  /><path d="M163.9,274.7c0,5.9-3.8,8.8-9.4,8.8c-2,0-7.7-1-7.7-3.7c0-0.9,1-2.1,2-2.1c1.6,0,3.3,1.5,6.1,1.5 c2.4,0,4.1-1.4,4.1-3.9v-1.2H159c-1,1.5-2.7,2.3-4.9,2.3c-5.1,0-7.5-4.5-7.5-9.3c0-4.9,3.1-9.5,8-9.5c1.7,0,3.6,0.7,4.5,2.2 c0.3-1.3,1.1-2,2.4-2c1.4,0,2.4,1.1,2.4,2.7V274.7z M155.2,262.1c-2.5,0-3.8,2.6-3.8,4.9c0,2.6,1.3,5,3.8,5c2.6,0,3.8-2.4,3.8-4.8 C159,264.8,157.9,262.1,155.2,262.1" fill="#005597"  /><path d="M178.6,262.3h-1.1c-1.3,0-2.1-0.8-2.1-2.1c0-1.2,0.9-2.1,2.1-2.1h1.1v-2.9c0-1.6,1-2.7,2.4-2.7 c1.4,0,2.4,1.1,2.4,2.7v2.9h1.4c1.3,0,2.3,0.6,2.3,2.1c0,1.5-1.1,2.1-2.3,2.1h-1.4v11.2c0,1.6-1,2.7-2.4,2.7 c-1.4,0-2.4-1.1-2.4-2.7V262.3z" fill="#005597"  /><path d="M188.3,252.7c0-1.6,1-2.7,2.4-2.7c1.4,0,2.4,1.1,2.4,2.7v6.6h0.1c1-1.3,2.9-1.7,4.4-1.7 c3.8,0,6.7,2.4,6.7,6.6v9.3c0,1.6-1,2.7-2.4,2.7s-2.4-1.1-2.4-2.7v-8.5c0-2.3-1.4-3.4-3.2-3.4c-2,0-3.1,1.5-3.1,3.4v8.5 c0,1.6-1,2.7-2.4,2.7c-1.4,0-2.4-1.1-2.4-2.7V252.7z" fill="#005597"  /><path d="M224.8,267.1c0,5.1-3.5,9.4-8.7,9.4c-5.3,0-8.7-4.3-8.7-9.4c0-4.9,3.6-9.5,8.7-9.5 C221.2,257.7,224.8,262.2,224.8,267.1 M212.2,267.1c0,2.3,1.2,4.9,3.9,4.9c2.6,0,3.9-2.6,3.9-4.9c0-2.3-1.2-5-3.9-5 C213.3,262.1,212.2,264.8,212.2,267.1" fill="#005597"  /><path d="M237.9,263.3c-0.9,0-2.8-1.4-4.4-1.4c-0.9,0-1.7,0.4-1.7,1.4c0,2.3,8.5,1.9,8.5,7.5c0,3.3-2.7,5.7-6.9,5.7 c-2.7,0-6.8-1.6-6.8-3.8c0-0.7,0.7-2.2,2.1-2.2c1.9,0,2.7,1.7,5,1.7c1.5,0,1.9-0.5,1.9-1.4c0-2.2-8.5-1.9-8.5-7.5 c0-3.4,2.7-5.7,6.6-5.7c2.4,0,6.1,1.1,6.1,3.5C239.9,262.3,239.1,263.3,237.9,263.3" fill="#005597"  /><path d="M246.9,268.7c0.3,2.4,2.3,3.5,4.6,3.5c2.5,0,4.2-2,5.5-2c1.1,0,2,1.1,2,2.1c0,2.1-4.3,4.1-8,4.1 c-5.5,0-9.1-4-9.1-9.4c0-4.9,3.6-9.5,8.7-9.5c5.3,0,8.8,4.8,8.8,8.9c0,1.5-0.6,2.2-2.1,2.2H246.9z M254.5,265.4 c-0.3-2.1-1.6-3.7-3.9-3.7c-2.2,0-3.6,1.7-3.9,3.7H254.5z" fill="#005597"  /><path d="M271.9,252.7c0-1.6,1-2.7,2.4-2.7c1.4,0,2.4,1.1,2.4,2.7v6.6c1.3-1.1,2.9-1.7,4.6-1.7 c5.3,0,7.9,4.9,7.9,9.7c0,4.6-3.1,9.2-8,9.2c-1.7,0-3.6-0.7-4.5-2.2c-0.3,1.3-1.1,2-2.4,2c-1.4,0-2.4-1.1-2.4-2.7V252.7z M280.6,272c2.5,0,3.8-2.6,3.8-4.9c0-2.3-1.2-5-3.8-5c-2.6,0-3.8,2.4-3.8,4.8C276.8,269.3,277.9,272,280.6,272" fill="#005597"  /><path d="M308.9,267.1c0,5.1-3.5,9.4-8.7,9.4c-5.3,0-8.7-4.3-8.7-9.4c0-4.9,3.6-9.5,8.7-9.5 C305.3,257.7,308.9,262.2,308.9,267.1 M296.3,267.1c0,2.3,1.2,4.9,3.9,4.9c2.6,0,3.9-2.6,3.9-4.9c0-2.3-1.2-5-3.9-5 C297.5,262.1,296.3,264.8,296.3,267.1" fill="#005597"  /><path d="M311.8,260.3c0-1.6,1.3-2.4,2.5-2.4c1.3,0,2.4,0.5,2.4,2h0.1c0.9-1.4,1.9-2,3.4-2c1.2,0,2.4,0.8,2.4,2.6 c0,1.6-1.5,1.7-2.9,2.4c-1.5,0.7-2.9,1.3-2.9,3.2v7.5c0,1.6-1,2.7-2.4,2.7s-2.4-1.1-2.4-2.7V260.3z" fill="#005597"  /><path d="M324,260.6c0-1.6,1-2.7,2.4-2.7c1.3,0,2.1,0.7,2.2,1.8c1-1.3,2.4-2,4.7-2c3.8,0,6.7,2.4,6.7,6.6v9.4 c0,1.6-1,2.7-2.4,2.7s-2.4-1.1-2.4-2.7v-8.5c0-2.3-1.4-3.4-3.2-3.4c-2,0-3.1,1.5-3.1,3.4v8.5c0,1.6-1,2.7-2.4,2.7 c-1.4,0-2.4-1.1-2.4-2.7V260.6z" fill="#005597"  /><path d="M353.5,260.6c0-1.6,1-2.7,2.4-2.7s2.4,1.1,2.4,2.7v8.7c0,2,1.5,3.1,3.2,3.1c1.6,0,3.1-1.1,3.1-3.1v-8.7 c0-1.6,1-2.7,2.4-2.7s2.4,1.1,2.4,2.7v8.8c0,4.3-2.9,7.1-8,7.1c-5.1,0-8-2.8-8-7.1V260.6z" fill="#005597"  /><path d="M373.2,260.6c0-1.6,1-2.7,2.4-2.7c1.3,0,2.1,0.7,2.2,1.8c1-1.3,2.4-2,4.7-2c3.8,0,6.7,2.4,6.7,6.6v9.4 c0,1.6-1,2.7-2.4,2.7s-2.4-1.1-2.4-2.7v-8.5c0-2.3-1.4-3.4-3.2-3.4c-2,0-3.1,1.5-3.1,3.4v8.5c0,1.6-1,2.7-2.4,2.7 c-1.4,0-2.4-1.1-2.4-2.7V260.6z" fill="#005597"  /><path d="M409.6,273.1c0,1.3,0,3.2-2.3,3.2c-1.4,0-2-0.8-2.3-2.1c-1.3,1.5-2.8,2.3-4.6,2.3c-4.6,0-8.1-3.9-8.1-9.4 c0-5.3,3.6-9.5,8.1-9.5c1.8,0,3.6,0.7,4.6,2.2c0.1-1.2,1.2-2,2.3-2c2.3,0,2.3,1.9,2.3,3.2V273.1z M400.9,272c2.5,0,3.8-2.6,3.8-4.9 s-1.2-5-3.8-5c-2.7,0-3.9,2.6-3.9,5S398.3,272,400.9,272" fill="#005597"  /><path d="M413.2,252.7c0-1.6,1-2.7,2.4-2.7c1.4,0,2.4,1.1,2.4,2.7v6.6c1.3-1.1,2.9-1.7,4.6-1.7 c5.3,0,7.9,4.9,7.9,9.7c0,4.6-3.1,9.2-8,9.2c-1.7,0-3.6-0.7-4.5-2.2c-0.3,1.3-1.1,2-2.4,2c-1.4,0-2.4-1.1-2.4-2.7V252.7z M421.9,272c2.5,0,3.8-2.6,3.8-4.9c0-2.3-1.3-5-3.8-5c-2.6,0-3.8,2.4-3.8,4.8C418,269.3,419.2,272,421.9,272" fill="#005597"  /><path d="M433.4,252.7c0-1.6,1-2.7,2.4-2.7s2.4,1.1,2.4,2.7v20.9c0,1.6-1,2.7-2.4,2.7s-2.4-1.1-2.4-2.7V252.7z" fill="#005597"  /><path d="M445.7,268.7c0.3,2.4,2.3,3.5,4.6,3.5c2.5,0,4.2-2,5.5-2c1.1,0,2,1.1,2,2.1c0,2.1-4.3,4.1-8,4.1 c-5.5,0-9.1-4-9.1-9.4c0-4.9,3.6-9.5,8.7-9.5c5.3,0,8.8,4.8,8.8,8.9c0,1.5-0.6,2.2-2.1,2.2H445.7z M453.4,265.4 c-0.3-2.1-1.6-3.7-3.9-3.7c-2.2,0-3.6,1.7-3.9,3.7H453.4z" fill="#005597"  /><path d="M471.9,262.3h-1.1c-1.3,0-2.1-0.8-2.1-2.1c0-1.2,0.9-2.1,2.1-2.1h1.1v-2.9c0-1.6,1-2.7,2.4-2.7 s2.4,1.1,2.4,2.7v2.9h1.4c1.3,0,2.3,0.6,2.3,2.1c0,1.5-1.1,2.1-2.3,2.1h-1.4v11.2c0,1.6-1,2.7-2.4,2.7s-2.4-1.1-2.4-2.7V262.3z" fill="#005597"  /><path d="M498.4,267.1c0,5.1-3.5,9.4-8.7,9.4c-5.3,0-8.7-4.3-8.7-9.4c0-4.9,3.6-9.5,8.7-9.5 C494.8,257.7,498.4,262.2,498.4,267.1 M485.8,267.1c0,2.3,1.2,4.9,3.9,4.9c2.6,0,3.9-2.6,3.9-4.9c0-2.3-1.2-5-3.9-5 C487,262.1,485.8,264.8,485.8,267.1" fill="#005597"  /><path d="M521.5,263.3c-0.9,0-2.8-1.4-4.4-1.4c-0.9,0-1.7,0.4-1.7,1.4c0,2.3,8.5,1.9,8.5,7.5c0,3.3-2.7,5.7-6.9,5.7 c-2.7,0-6.8-1.6-6.8-3.8c0-0.7,0.7-2.2,2.1-2.2c1.9,0,2.7,1.7,5,1.7c1.5,0,1.9-0.5,1.9-1.4c0-2.2-8.5-1.9-8.5-7.5 c0-3.4,2.7-5.7,6.6-5.7c2.4,0,6.1,1.1,6.1,3.5C523.5,262.3,522.6,263.3,521.5,263.3" fill="#005597"  /><path d="M525.8,262.1c-0.3-1-0.5-1.6-0.5-2.3c0-1.1,1-2,2.4-2c1.2,0,2,0.8,2.3,1.9l2.8,9.3h0.1l2.8-9.1 c0.4-1.3,1.1-2.1,2.5-2.1c1.4,0,2.1,0.8,2.5,2.1l2.8,9.1h0.1l2.8-9.3c0.3-1.2,1.1-1.9,2.3-1.9c1.4,0,2.4,0.9,2.4,2.4 c0,0.5-0.2,1.1-0.5,1.8l-4.2,11.8c-0.5,1.4-1.4,2.5-2.9,2.5c-1.5,0-2.4-0.8-2.8-2.3l-2.5-7.9h-0.1l-2.5,7.9 c-0.4,1.4-1.3,2.3-2.8,2.3c-1.6,0-2.4-1.1-2.9-2.5L525.8,262.1z" fill="#005597"  /><path d="M570.3,273.1c0,1.3,0,3.2-2.3,3.2c-1.4,0-2-0.8-2.3-2.1c-1.3,1.5-2.8,2.3-4.6,2.3c-4.6,0-8.1-3.9-8.1-9.4 c0-5.3,3.6-9.5,8.1-9.5c1.8,0,3.6,0.7,4.6,2.2c0.1-1.2,1.2-2,2.3-2c2.3,0,2.3,1.9,2.3,3.2V273.1z M561.7,272c2.5,0,3.8-2.6,3.8-4.9 s-1.2-5-3.8-5c-2.7,0-3.9,2.6-3.9,5S559.1,272,561.7,272" fill="#005597"  /><path d="M573.9,252.7c0-1.6,1-2.7,2.4-2.7c1.4,0,2.4,1.1,2.4,2.7v20.9c0,1.6-1,2.7-2.4,2.7c-1.4,0-2.4-1.1-2.4-2.7 V252.7z" fill="#005597"  /><path d="M582.3,252.7c0-1.6,1-2.7,2.4-2.7c1.4,0,2.4,1.1,2.4,2.7v20.9c0,1.6-1,2.7-2.4,2.7c-1.4,0-2.4-1.1-2.4-2.7 V252.7z" fill="#005597"  /><path d="M607.5,267.1c0,5.1-3.5,9.4-8.7,9.4c-5.3,0-8.7-4.3-8.7-9.4c0-4.9,3.6-9.5,8.7-9.5 C603.9,257.7,607.5,262.2,607.5,267.1 M594.9,267.1c0,2.3,1.2,4.9,3.9,4.9c2.6,0,3.9-2.6,3.9-4.9c0-2.3-1.2-5-3.9-5 C596,262.1,594.9,264.8,594.9,267.1" fill="#005597"  /><path d="M609.7,262.1c-0.3-1-0.5-1.6-0.5-2.3c0-1.1,1-2,2.4-2c1.2,0,2,0.8,2.3,1.9l2.8,9.3h0.1l2.8-9.1 c0.4-1.3,1.1-2.1,2.5-2.1c1.4,0,2.1,0.8,2.5,2.1l2.8,9.1h0.1l2.8-9.3c0.3-1.2,1.1-1.9,2.3-1.9c1.4,0,2.4,0.9,2.4,2.4 c0,0.5-0.2,1.1-0.5,1.8l-4.2,11.8c-0.5,1.4-1.4,2.5-2.9,2.5c-1.5,0-2.4-0.8-2.8-2.3l-2.5-7.9h-0.1l-2.5,7.9 c-0.4,1.4-1.3,2.3-2.8,2.3c-1.6,0-2.4-1.1-2.9-2.5L609.7,262.1z" fill="#005597"  /><path d="M123.7,77.9c-9.6,0-14.5-4.4-14.5-13.1c0-8.6,4.8-13.1,14.5-13.1h5.8V33c0-13.9,5.8-20.7,17.8-20.7 c11.9,0,18,6.8,18,20.7v18.8h9.4c9.6,0,14.5,4.2,14.5,13.1c0,8.6-4.8,13.1-14.5,13.1h-9.1v76.9c0,6.3,1.5,8.6,7.9,8.6 c1.5,0,3.6-0.3,6.1-0.3c8.1,0,12.7,5,12.7,12.8c0,12-7.9,17-24.9,17c-31,0-37.8-11.2-37.8-40V77.9H123.7z" fill="#EF7A97"  /><path d="M325.5,121.1c0,46.3-25.9,74.3-68.3,74.3c-42.4,0-68.3-28-68.3-74.3s25.9-74.3,68.3-74.3 C299.6,46.8,325.5,74.8,325.5,121.1 M225.4,121.1c0,27.7,11.7,43.2,31.7,43.2c20.1,0,31.5-15.4,31.5-43.2S277,78.2,257.2,78.2 C237.1,78.2,225.4,93.4,225.4,121.1" fill="#F9B55C"  /><path d="M377.3,172.4c0,13.9-6.1,20.7-17.8,20.7c-11.9,0-17.5-6.8-17.5-20.7V77.9h-7.9c-9.7,0-14.5-4.4-14.5-13.1 c0-8.6,4.8-13.1,14.5-13.1h7.9V37.7C342,11.5,354.4,0,382.1,0c15.5,0,22.9,5.2,22.9,17.3c0,7.8-4.3,12.8-10.9,12.8 c-3,0-5.8-0.5-8.6-0.5c-6.6,0-8.4,2.9-8.4,11.2v11h11.2c9.6,0,14.5,4.2,14.5,13.1c0,8.6-4.8,13.1-14.5,13.1h-10.9V172.4z" fill="#BC90C1"  /><path d="M399.9,93.1c0-28,20.8-46.3,55.4-46.3c32.3,0,52.6,14.9,52.6,30.1c0,8.6-6.4,14.9-15,14.9 c-7.1,0-12.2-5-19.8-11c-3.6-2.9-11.2-5.5-17.8-5.5c-13.5,0-20.1,4.4-20.1,13.1c0,7.8,7.1,10.2,25.6,14.4l11.2,2.6 c31.5,7.1,46.5,17.3,46.5,41.6c0,31.4-21.8,48.4-63.2,48.4c-34.5,0-55.6-17-55.6-34.3c0-9.9,6.9-16.7,16.3-16.7 c9.6,0,13.5,7.1,19.8,13.6c6.1,6.3,13.5,8.4,24.1,8.4c14.7,0,22.3-5.2,22.3-13.9c0-8.9-5.8-10.2-21.6-14.1l-14-3.4 C414.7,127.1,399.9,115.9,399.9,93.1" fill="#8ACBC1"  /><polygon points="232.3,208.3 256.3,217.9 280.3,208.3 280.3,232.3 256.3,222.7 232.3,232.3" fill-rule="evenodd"  clip-rule="evenodd"  fill="#F39200"  />
    
    
    
    
    
    
    
    
    
    
    
    
    
    
    
    
    
    
    
    
    
    
    
    
    
    
    
    
    
    
    
    
    
    
    
    
    
    
    
  </g></svg>