<svg width="1306.1" height="283.5" viewBox="0 0 1306.1 283.5" role="img" focusable="false" aria-labelledby="university-of-southampton--title" xmlns="http://www.w3.org/2000/svg" xmlns:xlink="http://www.w3.org/1999/xlink"><title id="university-of-southampton--title">University of Southampton</title><path d="M57.8,116.8c12.2,6.1,21.3,10.9,27.2,14.5c5.9,3.6,11.1,8.6,15.6,15c4.4,6.5,6.7,15.3,6.7,26.4 c0,15.5-5.9,28.3-17.8,38.3c-11.9,10-25.2,15-40,15c-9.8,0-18-1.2-24.7-3.6c-6.7-2.4-14.7-6.1-23.9-10.9l-0.8-39 c3.7,11.8,9.3,21.8,17,30.1c7.7,8.3,17.9,12.5,30.6,12.5c12.6,0,21.6-3.7,27.2-11.1c5.6-7.4,8.4-15.4,8.4-23.9 c0-11.1-2.8-18.8-8.4-23c-5.6-4.2-17.5-10.8-35.8-19.9c-13.3-6.6-22.9-13.6-29-20.8c-6.1-7.2-9.2-16.1-9.2-26.5 c0-14.7,5.5-26,16.6-34.1C28.5,47.5,41,43.4,54.9,43.4c14.8,0,27.3,3.4,37.4,10.1l1.3,34.4c-1.9-8-6.6-15.6-14.1-22.9 C72,57.7,62.6,54.1,51.3,54.1c-9.9,0-17.3,2.9-22,8.8c-4.7,5.8-7.1,12.2-7.1,18.9c0,7.7,2.4,13.6,7.1,17.9 C34,104,43.5,109.7,57.8,116.8" fill="#3C3C3B"  /><path d="M172.5,109.6c-10.8,0.5-18.9,6.1-24.3,16.6c-5.4,10.5-7.8,23.3-7.3,38.5c0.5,14.8,4,27.1,10.3,37 c6.4,9.9,14.7,14.6,25,14.1c10.8-0.5,19-5.9,24.5-16c5.5-10.2,8-22.9,7.4-38.2c-0.5-9.9-2.1-18.7-4.8-26.3 c-2.7-7.7-6.6-13.9-11.6-18.6C186.6,111.7,180.2,109.4,172.5,109.6 M174.9,100.1c12.4,0,22.9,3,31.6,9.1 c8.7,6.1,15.1,13.9,19.2,23.5c4.1,9.6,6.1,19.8,6.1,30.6c0,10.1-2.4,20.1-7.3,30c-4.9,9.9-11.7,17.9-20.4,23.8 c-8.7,5.9-18.6,8.9-29.8,8.9c-18.8,0-33.1-6.4-42.8-19.2c-9.7-12.8-14.5-27.3-14.5-43.5c0-10.5,2.4-20.6,7.1-30.4 c4.7-9.9,11.5-17.8,20.4-23.8C153.5,103.1,163.6,100.1,174.9,100.1" fill="#3C3C3B"  /><path d="M392.3,79.2v24h36.1l-9.1,11h-27.5v73.6c0,18.1,7.9,27.2,23.8,27.2c4.5,0,7.8-0.5,9.7-1.6 c1.9-1.1,4.3-2.8,7.1-5.3c0,3.7-2.7,7.6-8.1,11.7c-5.4,4.1-11.5,6.2-18.3,6.2c-10.8,0-19.6-3.3-26.3-10.1 c-6.8-6.7-10.1-16-10.1-27.8v-73.9h-11.3L392.3,79.2z" fill="#3C3C3B"  /><path d="M510.9,100.1c11,0,20.3,3.2,27.9,9.5c7.6,6.4,11.4,15.3,11.4,26.8v77.4c0,2.8,0.4,4.7,1.3,5.7 c0.9,1.1,2.7,2.4,5.5,4.2h-36.1c4.7-2.6,7.1-5.9,7.1-10v-68.9c0-8.9-2.1-16.1-6.4-21.5c-4.3-5.4-11.5-8.1-21.6-8.1 c-5.9,0-11.5,1.4-16.6,4.1c-5.1,2.7-9.1,5.9-11.9,9.6v84.8c0,2.3,0.5,4.1,1.6,5.5c1.1,1.4,3,2.9,5.8,4.5h-36.9 c4.5-2.4,6.8-5.8,6.8-9.9V60.1c0-3.3-0.8-5.6-2.2-6.8c-1.5-1.2-3.8-2.4-6.9-3.7l32-6.3v75.3C485.7,106.3,498.9,100.1,510.9,100.1" fill="#3C3C3B"  /><path d="M822.2,100.1c10,0,18.9,3.1,26.8,9.4c7.9,6.3,11.9,15.1,11.9,26.4v77.9c0,2.3,0.6,4.1,1.7,5.6 c1.1,1.5,2.8,2.9,5.1,4.3h-36.4c4.9-2.9,7.3-6.3,7.3-9.9v-70.1c0-8.5-2.2-15.5-6.5-20.8c-4.4-5.3-11.3-8-20.9-8 c-11,0-20.4,5.5-28.2,16.5c0.3,0.9,0.5,2.2,0.5,3.9v78.5c0,2.3,0.6,4.1,1.7,5.6c1.1,1.5,2.8,2.9,5.1,4.3h-36.4 c4.5-2.6,6.8-5.9,6.8-9.9v-71.1c0-18.5-9.1-27.7-27.2-27.7c-10.3,0-19.1,4.4-26.4,13.3v85.5c0,2.4,0.5,4.3,1.6,5.5 c1.1,1.2,3,2.7,5.8,4.4h-36.6c4.5-2.6,6.8-5.9,6.8-9.9v-97c0-3.5-0.9-5.9-2.6-7.3c-1.7-1.4-4-2.4-6.8-3.1l31.9-6.3V118 c5.7-4.8,11.6-9,17.6-12.5c6-3.5,12.9-5.3,20.5-5.3c7.7,0,14.9,2,21.7,6c6.8,4,11.4,9.6,13.9,16.8c4.9-6.4,11-11.8,18.4-16.2 C806.7,102.3,814.3,100.1,822.2,100.1" fill="#3C3C3B"  /><path d="M1031.8,79.2v24h36.1l-9.1,11h-27.5v73.6c0,18.1,7.9,27.2,23.8,27.2c4.5,0,7.8-0.5,9.7-1.6 c1.9-1.1,4.3-2.8,7.1-5.3c0,3.7-2.7,7.6-8.1,11.7c-5.4,4.1-11.5,6.2-18.3,6.2c-10.8,0-19.6-3.3-26.3-10.1 c-6.7-6.7-10.1-16-10.1-27.8v-73.9h-11.3L1031.8,79.2z" fill="#3C3C3B"  /><path d="M1127.1,109.6c-10.8,0.5-18.9,6.1-24.3,16.6c-5.4,10.5-7.9,23.3-7.3,38.5c0.5,14.8,4,27.1,10.3,37 c6.4,9.9,14.7,14.6,25,14.1c10.8-0.5,19-5.9,24.5-16c5.5-10.2,8-22.9,7.4-38.2c-0.5-9.9-2.1-18.7-4.8-26.3 c-2.7-7.7-6.6-13.9-11.6-18.6C1141.2,111.7,1134.8,109.4,1127.1,109.6 M1129.5,100.1c12.4,0,22.9,3,31.6,9.1 c8.7,6.1,15.1,13.9,19.2,23.5c4.1,9.6,6.1,19.8,6.1,30.6c0,10.1-2.5,20.1-7.3,30c-4.9,9.9-11.7,17.9-20.4,23.8 c-8.7,5.9-18.7,8.9-29.8,8.9c-18.8,0-33.1-6.4-42.8-19.2c-9.7-12.8-14.5-27.3-14.5-43.5c0-10.5,2.3-20.6,7.1-30.4 c4.7-9.9,11.5-17.8,20.4-23.8C1108,103.1,1118.2,100.1,1129.5,100.1" fill="#3C3C3B"  /><path d="M1260.6,100.1c6.5,0,12.7,1.5,18.8,4.4c6.1,3,10.9,7.1,14.5,12.4c3.6,5.3,5.4,11.8,5.4,19.5v77.4 c0,2.3,0.4,3.9,1.2,5c0.8,1,2.7,2.7,5.6,4.9h-35.8c4.5-2.4,6.8-5.8,6.8-9.9v-68.1c0-20.2-9.3-30.4-27.7-30.4 c-4.9,0-9.7,1.3-14.5,3.9c-4.8,2.6-8.8,5.8-11.9,9.7v84.8c0,2.3,0.6,4.1,1.7,5.6c1.1,1.5,2.8,2.9,5.1,4.3h-36.2 c4.4-2.4,6.5-5.7,6.5-9.9v-97c0-5.2-2.9-8.9-8.6-11l31.4-5.7v18.6c4.2-4.5,9.7-8.8,16.6-12.7 C1246.4,102.1,1253.4,100.1,1260.6,100.1" fill="#3C3C3B"  /><path d="M986.6,134.7c-3.1-8.3-7.2-14.9-12.3-19.9c-5.1-5-10.5-8.7-16.2-11.1c-5.8-2.4-11.7-3.7-17.8-3.7 c-7.7,0-14.7,1.6-21,4.9c-6.4,3.3-11.3,6.9-14.8,11.1v-16l-31.2,6.8c5.7,1.7,8.6,5.4,8.6,11v155.6c0,4.7-2.3,8-6.8,9.9h36.4 c-4.5-2.1-6.8-5.4-6.8-10V127.3c3-3.6,6.7-6.7,11.2-9.1c4.5-2.4,9.6-3.7,15.2-3.7c8.9,0,17,3.7,24.5,11s11.1,19.9,11.1,37.8 c0,16.5-3.4,29.4-10.3,38.6c-6.9,9.2-16.2,13.8-27.9,13.8c-8.5,0-12.5-1.8-19.9-8l6,16.1c5.3,1.5,11,2.3,17,2.3 c18.3,0,32.8-6.6,43.5-19.9c10.7-13.2,16.1-27.8,16.1-43.9C991.3,152.2,989.7,143,986.6,134.7" fill="#3C3C3B"  /><path d="M310,207.4c-4.2,2.3-9.2,3.4-14.9,3.4c-7.7,0-14.1-3-19.2-8.9c-5.1-5.9-7.7-14.2-7.7-24.9v-76.9l-31.7,6.3 c5.9,1.9,8.9,5.4,8.9,10.5v60.1c0,17.2,4.2,29.7,12.6,37.5c8.4,7.7,17.5,11.6,27.2,11.6c11.3,0,21.5-3.8,30.8-11.3l4.6-15.3 C316.7,203.2,313.8,205.4,310,207.4" fill="#3C3C3B"  /><path d="M345.1,202.8V100.1l-31.4,6.3c2.8,0.7,5,1.8,6.7,3.1c1.7,1.4,2.5,3.8,2.5,7.3v79.7l0.4,11.3 c0,0,0.1-0.1,0.1-0.1c0,5.2,0.7,9,2.1,11.5c1.4,2.4,3.8,4.7,7.3,6.8l22.8-8.4C348.6,216.6,345.1,211.7,345.1,202.8" fill="#3C3C3B"  /><path d="M662.5,213.6c-0.8-1.7-1.2-4.5-1.2-8.3v-69.9c0-13.6-4.2-22.8-12.6-27.8c-8.4-5-17.9-7.4-28.5-7.4 c-14.1,0-27.9,4.3-41.3,13l0.5,32.3c3.7-10.9,8.4-19.6,14.1-25.9c5.8-6.3,13.6-9.5,23.5-9.5c7.7,0,13.3,2.2,17,6.7 c3.7,4.4,5.5,9.8,5.5,16.1c0,6.6-0.3,10.3-1,11c-2.3,2.6-5.6,4.6-9.9,6c-4.4,1.4-11.7,3.6-22.1,6.7c-10.4,3.1-17.5,5.8-21.3,8.2 c-11.7,7-17.5,16.8-17.5,29.5c0,7.1,2.7,14.2,8,21.3c5.3,7,13.1,10.6,23.4,10.6c12.1,0,23.3-4.1,33.4-12.4l4.8-13.7 c-8.1,7.5-17.3,11.3-27.5,11.3c-5.9,0-10.7-1.9-14.4-5.7c-3.7-3.8-5.5-9.1-5.5-15.8c0-6.1,1.8-10.9,5.5-14.5 c3.7-3.6,9.1-6.8,16.2-9.6c15-4.7,24.3-8,28-9.9v42c-0.1,0.1,0.2,9.1,0.3,9c0.2,6.2,0.9,10.3,2.1,12.4c1.2,2.1,3.6,4.5,7.1,7.1 l20.2-9C665.5,216.6,663.3,215.4,662.5,213.6" fill="#3C3C3B"  /><path d="M524.4,5.4v42.5c0,6.9,2.4,17.6,16.6,17.6c13.5,0,17.7-8.5,17.7-17.6l-0.4-42.5c0-2.3-1-3.7-2.6-4.5h11.1 c-1.6,0.8-2.7,2.2-2.7,4.5l-0.3,42.1c0,16.5-10.6,22.6-23.2,22.6c-11,0-25.8-5.4-25.8-22.4V5.4c0-2.3-1.6-3.7-3.1-4.5h16 C526.1,1.7,524.4,3.1,524.4,5.4" fill="#3C3C3B"  /><path d="M627,5.4c0-2.3-1.1-3.7-2.6-4.5h10.4c-1.6,0.8-2.7,2.2-2.7,4.5v65.7c0,0-48.1-58-48.1-59v52.6 c0,2.2,1,3.6,2.8,4.5h-10.6c1.5-0.9,2.6-2.3,2.6-4.5V9.3c0-2.9,0-3.1-1.2-4.7c-1.1-1.2-2.3-2.6-4.6-3.6h14.3L627,49.8V5.4z" fill="#3C3C3B"  /><path d="M659.5,0.9c-1.5,0.8-2.6,2.2-2.6,4.5v59.2c0,2.2,1.1,3.6,2.6,4.5h-14.9c1.6-0.9,2.7-2.3,2.7-4.5V5.4 c0-2.3-1.1-3.7-2.7-4.5H659.5z" fill="#3C3C3B"  /><path d="M717,5.7c0.9-2.4,0.7-3.8-1.7-4.8h11c-2.6,1.7-2.4,2.2-3.6,4.8c-1.6,3.9-25,66-25,66S672,9.5,670.3,5.7 c-1.1-2-1.9-3.6-5.2-4.8h18.3c-2.6,1-2.6,3.4-1.9,5.9c0.2,0.3,18,46.6,18,46.6S717,6.1,717,5.7" fill="#3C3C3B"  /><path d="M768.4,9.8c-2-2.3-4.1-3.5-8.4-3.5c-1.9,0-17.3-0.2-17.3-0.2v22.7h16.4c1.4,0,3-1.6,3.5-2.8v10.8 c-0.5-1.2-2.1-2.8-3.5-2.8h-16.4v29.6c2.2,0.2,6.9,0.7,11.6,0.6c10.8,0,14.7,0,18.4-6.3l-2.1,11.2h-40.3c1.8-0.9,3-2.1,3-4.5V5.5 c0-2.3-1.2-3.7-2.8-4.5h37.8L768.4,9.8z" fill="#3C3C3B"  /><path d="M790.1,5.2v27.2c0,0,3.2,0.2,5.8,0.2c7.6,0,15.2-4.1,15.2-14.7c0-4.7-2.8-13-13.4-13 C793.1,5,790.1,5.2,790.1,5.2 M805.3,34.6c5.4,1.1,8.2,5.3,9.7,7.5c0,0,10.6,18.4,15.1,23.1c2.1,2.4,6.4,4,6.4,4l-10.2,0.2 c-3.9,0-6.7-2.6-8.2-4.7c-5.1-7.5-8.7-13.1-12.3-18.7c-2.6-4-4.7-8.3-9.9-8.3h-5.8v27c0,2.2,1.3,3.6,2.8,4.5h-15 c1.5-0.9,2.7-2.3,2.7-4.5V5.4c0-2.3-1.2-3.7-2.7-4.5h18.9c20.1,0,24.4,10.4,24.4,16.8C821.2,28.5,811.6,34.1,805.3,34.6" fill="#3C3C3B"  /><path d="M877.8,49.6c0,12.5-11.4,20.5-22.2,20.5c-8.7,0-15-3.5-18.7-5.6l-0.3-15.1c2.1,7.2,7.5,16.5,18.3,16.5 c10.9,0,13.7-8.5,13.7-13.4c0-9.6-7.3-11.5-17-16.5c-9.7-4.8-14.7-9.9-14.7-18.2c0-12,11.3-17.8,20.8-17.8c3.7,0,9.6,0.7,14.4,3.8 l0.5,13.2c-1.2-4.8-6.8-13-16.3-13c-8.5,0-11.1,6.3-11.1,10.6c0,6.3,4,8.7,13.7,13.4C868.4,33.1,877.8,36.2,877.8,49.6" fill="#3C3C3B"  /><path d="M899.1,0.9c-1.5,0.8-2.6,2.2-2.6,4.5v59.2c0,2.2,1.1,3.6,2.6,4.5h-14.9c1.6-0.9,2.7-2.3,2.7-4.5V5.4 c0-2.3-1.1-3.7-2.7-4.5H899.1z" fill="#3C3C3B"  /><path d="M936.1,5.7v59c0,2.2,1,3.6,2.6,4.5h-14.9c1.7-0.9,2.6-2.3,2.6-4.5v-59c-7.5,0-16.5,0.7-16.5,0.7 c-2.4,0-4.3,2.3-5.2,3.9V0.9h52.8l0.1,9.4c-1-1.6-2.6-3.7-5.2-3.9C952.5,6.4,943.4,5.7,936.1,5.7" fill="#3C3C3B"  /><path d="M1016.6,0.9c-2.9,1.2-4.7,3.1-5.9,5.5l-16.3,30.4v27.8c0,2.2,1.9,3.6,3.7,4.5H981c1.6-0.9,3.7-2.1,3.7-4.5 V37.3L965.5,5.7c-1.6-2.4-2.8-3.4-5.6-4.8h19.4c-2.3,1-4.2,1.5-1.6,6.2l14.1,24.8l13.6-26.2c1.4-2.7,0.7-4-2.1-4.8H1016.6z" fill="#3C3C3B"  /><path d="M1057.9,33.6c0,22,10.9,31.9,21.5,31.9c12.8,0,20.8-11.4,20.8-29.5c0.2-19.4-8-31.7-20.9-31.7 C1066.4,4.2,1057.9,15.2,1057.9,33.6 M1078.5,70.1c-16.8-0.4-31.6-15.4-31.1-36c0.4-16.3,12.4-34.7,32.9-34 c14.3,0.3,31,12.8,30.6,35.7C1110.3,58.6,1092.9,70.6,1078.5,70.1" fill="#3C3C3B"  /><path d="M1132.5,69.2h-15.3c1.8-0.9,2.8-2.1,2.8-4.5V5.5c0-2.3-1.2-3.7-2.8-4.5h40l0,9.1c-1.4-2.4-3.6-3.8-8.5-3.8 c-2.4-0.2-19.2-0.4-19.2-0.4l0.1,23h16.6c1.4,0,3-1.6,3.5-2.8v10.9c-0.5-1.2-2.1-2.8-3.5-2.8h-16.6l-0.2,30.6 C1129.5,67.1,1130.7,68.3,1132.5,69.2" fill="#3C3C3B"  /></svg>