<svg viewBox="0 0 1231.8 283.5" role="img" focusable="false" aria-labelledby="university-of-liverpool--title" xmlns="http://www.w3.org/2000/svg" xmlns:xlink="http://www.w3.org/1999/xlink"><title id="university-of-liverpool--title">University of Liverpool</title><g><g><g><defs><rect id="SVGID_1_" width="1231.8" height="283.5" />
          
        </defs><clipPath id="SVGID_2_"><use xlink:href="#SVGID_1_" overflow="visible" ></use>
          
        </clipPath><path d="M277.5,253.4h1.7c3.1,0,5.9-1.2,8.3-3.7c2.4-2.5,3.6-5.9,3.6-10.4v-96.9 c0-5.4-1.3-9.1-4-11.2c-2.7-2.1-5.9-3.2-9.6-3.3v-1.5h41v1.5c-3.6,0.1-6.8,1.2-9.6,3.2c-2.8,2-4.2,5.8-4.2,11.2v93.7 c0,5.6,1.4,9.4,4.2,11.6c2.8,2.2,7.3,3.2,13.7,3.2h11.1c4.8,0,8.7-0.6,11.5-1.7c2.9-1.2,5.2-2.9,6.8-5.3 c1.7-2.4,3.4-5.8,5.1-10.1h1.5l-4.9,21.1h-76.3V253.4z" clip-path="url(#SVGID_2_)"  fill="#0C1968"  /><path d="M407.4,126.5v1.5c-3.8,0-7.1,1.1-9.8,3.2c-2.7,2.1-4,5.7-4,10.7v97.4 c0,4.9,1.4,8.5,4.3,10.7c2.9,2.2,6,3.3,9.5,3.3v1.5h-40.7v-1.5c3.7,0,6.9-1.1,9.6-3.3c2.7-2.2,4-5.8,4-10.8v-97.4 c0-5.3-1.4-9-4-11c-2.7-2-5.9-3-9.6-3v-1.5H407.4z" clip-path="url(#SVGID_2_)"  fill="#0C1968"  /><path d="M534.6,126.5v1.5c-3.2,0.4-6,1.5-8.1,3.3c-2.1,1.8-4,4.1-5.5,7 c-1.5,2.9-3.2,6.7-5.1,11.4c-0.3,0.3-0.6,1-0.9,2.1l-37.1,106.3h-1.2l-43.7-115c0-0.2-0.1-0.6-0.3-1c-1.7-4.9-3.9-8.5-6.7-10.8 c-2.8-2.3-6.2-3.4-10.3-3.3v-1.5h42.1v1.5c-3.5,0.3-6.4,1-8.5,2.1c-2.2,1-3.2,3.5-3.2,7.5c0,1,0.5,3.2,1.4,6.5 c0.1,0.3,0.2,0.6,0.3,0.9c0.1,0.3,0.2,0.6,0.2,0.7l33.7,90.1h0.4l28.9-83.9c2-5.7,3-10.1,3-13c0-4.6-1-7.5-2.9-8.7 c-1.9-1.2-4.8-1.9-8.7-2.2v-1.5H534.6z" clip-path="url(#SVGID_2_)"  fill="#0C1968"  /><path d="M542.9,128v-1.5h76.4v20.2h-1.2c0-10.8-7.2-16.2-21.6-16.2h-26.7v58.3h23.5 c4.6,0,8.8-0.8,12.4-2.3c3.7-1.5,5.7-5,6.3-10.4h1.3v29.1H612c-0.5-3.3-1.5-5.9-3-7.6c-1.4-1.8-2.9-2.9-4.3-3.5 c-1.4-0.6-2.7-0.9-3.8-0.9c-2.1-0.4-4.3-0.5-6.5-0.5h-24.6v45.5c0,3.4,0.6,6.4,2,8.9c1.3,2.5,4.3,3.7,9.1,3.7h19 c4.6,0,8.3-0.7,11.3-2c2.9-1.3,5.3-3.2,7-5.6c1.7-2.4,3.1-5.3,4.3-8.6h1.2l-4.5,20.1h-76.4v-1.4h1.7c2.7,0,5.4-1.1,8-3.3 c2.6-2.2,3.9-5.8,3.9-10.8v-96.7c0-3.9-0.9-7.4-2.7-10.3c-1.8-2.9-4.9-4.4-9.3-4.4H542.9z" clip-path="url(#SVGID_2_)"  fill="#0C1968"  /><path d="M631.7,128.3H630v-1.8h44.4c7.1,0,13.2,1.1,18.2,3.3c5,2.2,8.8,5,11.6,8.4 c2.8,3.4,4.7,7,5.9,10.8c1.2,3.8,1.8,7.5,1.8,11.1c0,4.7-1,9.1-2.9,13.4c-1.9,4.3-4.9,7.9-9,11c-4,3.1-9.1,5.2-15.1,6.3v0.3 c7.7,3.7,14.8,11.1,21.3,22.1l11.6,19.6c5.2,8.8,9.4,14.3,12.6,16.6c3.2,2.3,6.3,3.6,9.4,3.9v1.4h-23.3c-1-1.3-1.9-2.5-2.8-3.7 c-0.9-1.2-1.8-2.4-2.8-3.8c-0.6-0.9-1.4-2.2-2.6-4c-1.1-1.8-1.8-2.8-2.1-3L690.8,215c-3.1-5.2-6.2-9.3-9.4-12.6 c-3.2-3.2-6.2-5.5-9-6.9c-2.8-1.4-5.3-2.3-7.5-2.6c-2.2-0.3-4.9-0.5-7.9-0.5v46.9c0,9.1,4.6,13.8,13.9,14.1v1.4H630v-1.4 c2.6-0.1,4.8-0.6,6.8-1.4c2-0.8,3.6-2.3,4.9-4.4c1.3-2.1,2-4.8,2-8.3v-97.1c0-5.1-1.3-8.7-3.8-10.8 C637.4,129.4,634.7,128.3,631.7,128.3z M656.9,189h7.3c7.6,0,13.9-1.1,18.8-3.3c4.9-2.2,8.5-5.4,10.7-9.5 c2.2-4.1,3.3-9.1,3.3-15.1c0-4.9-1-9.8-3-14.5c-2-4.7-5.3-8.7-10.1-12c-4.7-3.2-11.1-4.8-19.1-4.8c-3.2,0-5.9,0.3-8,0.8V189z" clip-path="url(#SVGID_2_)"  fill="#0C1968"  /><path d="M744.1,128v-1.5h42.1c7,0,13.2,1,18.6,2.9c5.4,1.9,9.8,4.5,13.4,7.8 c3.6,3.3,6.3,7,8,11.2c1.8,4.2,2.7,8.5,2.7,13.1c0,4.5-0.8,8.8-2.5,12.9c-1.7,4.1-4.3,7.8-7.8,11c-3.5,3.2-8.2,5.8-14,7.7 c-5.7,1.9-12.4,2.9-19.9,2.9c-2.4,0-7-0.3-13.8-1v44.3c0,9.1,4.6,13.8,13.9,14.1v1.4h-40.9v-1.4c4-0.1,7.3-1.3,9.9-3.4 c2.6-2.2,3.9-5.7,3.9-10.7v-97c0-3-0.5-5.4-1.4-7.4c-0.9-2-2-3.4-3.3-4.2c-1.3-0.8-2.7-1.5-4.2-1.9c-1.5-0.4-2.6-0.7-3.2-0.8 H744.1z M771,131v60.5c4.5,0.8,8.9,1.2,13.2,1.2c8.3,0,15.4-2.1,21.1-6.4c5.8-4.3,8.7-12.2,8.7-23.8c0-9.5-2.6-17.4-7.6-23.5 c-5.1-6.1-12.8-9.2-23.1-9.2C779.3,129.8,775.2,130.2,771,131z" clip-path="url(#SVGID_2_)"  fill="#0C1968"  /><path d="M971.7,190.8c0,12-3,23.2-8.9,33.5c-6,10.3-14.1,18.6-24.3,24.7 c-10.3,6.1-21.7,9.2-34.1,9.2c-12.5,0-24-3.1-34.5-9.2c-10.4-6.1-18.7-14.4-24.7-24.8c-6-10.4-9-21.7-9-34 c0-9.4,1.8-18.2,5.3-26.5c3.6-8.3,8.6-15.5,15-21.6c6.4-6.1,13.7-10.9,22-14.3c8.2-3.4,16.8-5,25.7-5c8.8,0,17.2,1.6,25.2,4.8 c8.1,3.2,15.3,7.9,21.7,14c6.4,6.1,11.5,13.3,15.1,21.7C969.9,171.6,971.7,180.8,971.7,190.8z M956.4,191.2c0-17.1-3-30.4-9-40 c-6-9.6-13-16.1-20.9-19.4c-7.9-3.3-15.3-4.9-22.3-4.9c-5.4,0-11,0.9-16.8,2.7c-5.8,1.8-11.5,5-17,9.7 c-5.5,4.7-10,11.3-13.5,19.8c-3.5,8.5-5.3,19.1-5.3,31.6c0,11,1.5,20.6,4.4,28.8c2.9,8.2,7,14.9,12.1,20.1 c5.1,5.2,10.8,8.9,17,11.2c6.2,2.3,12.6,3.4,19.3,3.4c6,0,12-1.1,18.2-3.2c6.1-2.1,11.7-5.6,16.8-10.4 c5.1-4.8,9.2-11.3,12.4-19.5C954.9,213,956.4,203,956.4,191.2z" clip-path="url(#SVGID_2_)"  fill="#0C1968"  /><path d="M1118.9,190.8c0,12-3,23.2-8.9,33.5c-5.9,10.3-14.1,18.6-24.3,24.7 c-10.3,6.1-21.6,9.2-34.1,9.2c-12.5,0-24-3.1-34.5-9.2c-10.4-6.1-18.7-14.4-24.7-24.8c-6-10.4-9-21.7-9-34 c0-9.4,1.8-18.2,5.4-26.5c3.6-8.3,8.5-15.5,15-21.6c6.4-6.1,13.7-10.9,21.9-14.3c8.2-3.4,16.8-5,25.7-5c8.8,0,17.2,1.6,25.3,4.8 c8.1,3.2,15.3,7.9,21.7,14c6.4,6.1,11.4,13.3,15.1,21.7C1117.1,171.6,1118.9,180.8,1118.9,190.8z M1103.6,191.2 c0-17.1-3-30.4-9.1-40c-6-9.6-13-16.1-20.9-19.4c-7.9-3.3-15.3-4.9-22.3-4.9c-5.4,0-11,0.9-16.8,2.7c-5.8,1.8-11.5,5-17,9.7 c-5.5,4.7-10,11.3-13.5,19.8c-3.5,8.5-5.3,19.1-5.3,31.6c0,11,1.5,20.6,4.4,28.8c2.9,8.2,7,14.9,12.1,20.1 c5.1,5.2,10.8,8.9,17,11.2c6.2,2.3,12.6,3.4,19.3,3.4c6,0,12-1.1,18.2-3.2c6.1-2.1,11.7-5.6,16.8-10.4 c5.1-4.8,9.2-11.3,12.4-19.5C1102.1,213,1103.6,203,1103.6,191.2z" clip-path="url(#SVGID_2_)"  fill="#0C1968"  /><path d="M1115.1,253.4h1.7c3.1,0,5.9-1.2,8.3-3.7c2.4-2.5,3.6-5.9,3.6-10.4v-96.9 c0-5.4-1.3-9.1-4.1-11.2c-2.7-2.1-5.9-3.2-9.6-3.3v-1.5h41v1.5c-3.6,0.1-6.8,1.2-9.6,3.2c-2.8,2-4.2,5.8-4.2,11.2v93.7 c0,5.6,1.4,9.4,4.2,11.6c2.8,2.2,7.3,3.2,13.7,3.2h11.1c4.8,0,8.7-0.6,11.5-1.7c2.9-1.2,5.1-2.9,6.8-5.3 c1.7-2.4,3.4-5.8,5.1-10.1h1.5l-4.9,21.1h-76.3V253.4z" clip-path="url(#SVGID_2_)"  fill="#0C1968"  /><path d="M314.2,63.2c0,3.8-0.9,14-16.5,14c-14.4,0-15.7-10.1-15.7-14V30.7h4.5v30.6 c0,4.2,0.3,12.1,11.2,12.1c12,0,12-7.9,12-12.1V30.7h4.5V63.2z" clip-path="url(#SVGID_2_)"  fill="#945E01"  /><polygon points="364.6,30.7 370.7,30.7 392.8,71.6 392.9,71.6 392.9,30.7 397.4,30.7 397.4,76.4 391,76.4 369.3,36.6 369.1,36.6 369.1,76.4 364.6,76.4" clip-path="url(#SVGID_2_)"  fill="#945E01"  /><rect x="448.3" y="30.7" width="4.5" height="45.7" clip-path="url(#SVGID_2_)"  fill="#945E01"  /><polygon points="495.9,30.7 500.4,30.7 515.9,72.4 516,72.4 531.8,30.7 536.3,30.7 519,76.4 512.8,76.4" clip-path="url(#SVGID_2_)"  fill="#945E01"  /><polygon points="579.1,30.7 602.2,30.7 602.2,34.3 583.7,34.3 583.7,50.6 601.3,50.6 601.3,54.3 583.7,54.3 583.7,72.8 602.9,72.8 602.9,76.4 579.1,76.4" clip-path="url(#SVGID_2_)"  fill="#945E01"  /><path d="M650.2,30.7h10.9c6.4,0,16.6,1.4,16.6,11.7c0,10.2-9.4,11.1-10.4,11.4v0.1 c6.8,1.5,7.5,5.1,8.6,10.1l2.9,12.3h-4.5l-2.6-10.8c-1.5-6.3-2.9-9.9-10.7-9.9h-6.2v20.7h-4.5V30.7z M654.7,52.1h4.1 c7.3,0,14.4-2.1,14.4-9.7c0-8-9-8.1-12.6-8.1h-5.9V52.1z" clip-path="url(#SVGID_2_)"  fill="#945E01"  /><path d="M742.5,51.8c5.4,2.6,11.1,5.3,11.1,12.5c0,9.6-8.8,12.8-17.8,12.8 c-6.1,0-9.7-0.9-10.9-1.1v-4c1.7,0.5,5.1,1.4,12,1.4c6.2,0,12.1-3,12.1-8.4c0-6-6.1-8-9.3-9.5l-4.3-2.1 c-4.7-2.3-11.1-4.8-11.1-11.7c0-1.9,0.9-11.7,15.8-11.7c4.1,0,8.5,0.7,10.3,1.1v4.2c-1.7-0.5-5.6-1.5-10.3-1.5 c-7.8,0-11.3,3.3-11.3,7.6c0,4.3,5,6.4,9.2,8.5L742.5,51.8z" clip-path="url(#SVGID_2_)"  fill="#945E01"  /><rect x="800.7" y="30.7" width="4.5" height="45.7" clip-path="url(#SVGID_2_)"  fill="#945E01"  /><polygon points="862,34.3 849.7,34.3 849.7,30.7 878.9,30.7 878.9,34.3 866.6,34.3 866.6,76.4 862,76.4" clip-path="url(#SVGID_2_)"  fill="#945E01"  /><polygon points="932.4,55.5 916.6,30.7 921.5,30.7 934.5,51.5 947.9,30.7 952.8,30.7 936.9,55.5 936.9,76.4 932.4,76.4" clip-path="url(#SVGID_2_)"  fill="#945E01"  /><path d="M1049.9,53.5c0-10.9,3.7-23.6,18-23.6c14.3,0,17.5,12.7,17.5,23.6 c0,10.9-3.2,23.6-17.5,23.6C1053.6,77.1,1049.9,64.5,1049.9,53.5z M1067.7,73.4c11,0,12.8-11.9,12.8-20c0-8.1-1.8-19.6-12.8-19.6 c-11,0-12.8,11.5-12.8,19.6C1054.9,61.5,1056.7,73.4,1067.7,73.4z" clip-path="url(#SVGID_2_)"  fill="#945E01"  /><polygon points="1133.5,30.7 1157.2,30.7 1157.2,34.3 1138,34.3 1138,50.6 1156.4,50.6 1156.4,54.3 1138,54.3 1138,76.4 1133.5,76.4" clip-path="url(#SVGID_2_)"  fill="#945E01"  /><g clip-path="url(#SVGID_2_)" ><defs><rect id="SVGID_3_" x="0" y="0" width="1231.8" height="283.5" />
            
          </defs><clipPath id="SVGID_4_"><use xlink:href="#SVGID_3_" overflow="visible" ></use>
            
          </clipPath><rect x="219.6" y="98.6" width="1012.2" height="2.7" clip-path="url(#SVGID_4_)"  fill="#945E01"  /><path d="M184.4,5.6c0,0-34.8-5.6-90.6-5.6h0C38,0,3.1,5.6,3.1,5.6 S-15.7,144.3,39,227.5c18.6,28.2,54.6,55.9,54.7,56h0h0l0,0h0l0,0h0c0.1-0.1,36.2-27.8,54.7-56C203.3,144.3,184.4,5.6,184.4,5.6 z" clip-path="url(#SVGID_4_)"  fill="#0C1968"  />
          
          
          
          
        </g><path d="M15.3,37.8c0.2,0.6,0.4,1.1,0.4,1.1c1.1-1.8,3.4-2,5.1-1.8C19.6,36.9,17,36.6,15.3,37.8z" clip-path="url(#SVGID_2_)"  /><path d="M21.1,43.3c0.1,0,0.1,0,0.2,0c0.1,0,0.1,0,0.2,0.1c0,0,0,0,0.1,0c0.1,0,0.1,0,0.2,0 c0-0.1,0.1-0.2,0.1-0.2c-0.7-0.2-1.7-0.6-2-0.5c-0.1,0-0.2,0-0.3,0.1C19.9,42.9,20.6,43.1,21.1,43.3 C21.1,43.3,21.1,43.3,21.1,43.3z M19,50c-0.1,0-0.1,0-0.1,0c0,0-0.1,0-0.1,0c0,0,0,0,0,0c0,0,0,0-0.1,0c0,0,0,0-0.1,0 c0,0,0,0-0.1,0c0,0-0.1,0-0.1,0h0c0,0.1,0,0.2,0,0.3c0.3-0.1,0.5-0.3,0.8-0.3C19.1,50,19.1,50,19,50C19,50,19,50,19,50z M41.7,79.7c0.4,0.3,0.7,0.6,1,0.9c0,0,0.1,0.1,0.1,0.1c0.2,0.2,0.3,0.3,0.5,0.5c0.1,0.1,0.3,0.3,0.4,0.5c0,0,0.1,0.1,0.1,0.1 c0.5,0.7,0.9,1.4,0.9,2.1v-2.4c-0.5-0.6-1-1-1.4-1.3L41.7,79.7z M61.2,60.5l2.2,8.6c-0.2,0-0.4,0.1-0.6,0.1c0,0,0,0-0.1,0 c-0.2,0-0.4,0-0.5,0.1c-0.1,0-0.1,0-0.2,0c-0.1,0-0.3,0-0.4,0c-0.1,0-0.2,0-0.3,0c-0.1,0-0.2,0-0.3,0c-0.2,0-0.3,0-0.5,0 c0,0-0.1,0-0.1,0c-0.6,0-1.2,0-1.9,0c0.4,0,0.8,0.1,1.2,0.1c1.7,0.1,3.4,0.1,4.9-0.2L63.6,65L61.2,60.5z M35,34.3 c-0.1,0-1.4-0.3-2-0.5c-0.6-0.1-1.4-0.5-2.3-0.5c-0.8,0-4.3,1.8-4.3,1.8c0.2,0.1,2.4-0.7,2.8-0.8c0.5-0.1,0.4,0,0.7,0 c0,0.5,0.4,0.6,1.1,0.6c0.6,0,1-0.4,1.2-0.6c0.7,0.2,1.8,0.3,2.4,0.2C34.9,34.5,35.1,34.4,35,34.3z M39.2,49.8 c0.1,0,0.2,0.1,0.2,0.1c0,0,0.1,0,0.1,0c0.1,0,0.2,0.1,0.2,0.1c0.1,0.1,0.2,0.1,0.3,0.2c0.1,0,0.1,0.1,0.2,0.1 c0.1,0,0.2,0.1,0.3,0.2c0.1,0,0.1,0.1,0.2,0.1c0.2,0.1,0.3,0.2,0.5,0.3c0,0,0,0,0.1,0.1l0,0c0,0,0.1,0,0.1,0.1l0,0 c0.5,0.3,2.2,1.3,4.2,1.3C43.8,52,42.5,51,42.5,51c-2-1.2-3.2-1.6-3.8-1.4C38.9,49.7,39.1,49.8,39.2,49.8L39.2,49.8z M21.9,48.6 c0,0-0.1-0.1-0.1-0.1c0-0.1-0.1-0.1-0.3-0.2c-0.3,0.8-0.8,1.3-1.2,1.4c-0.1,0-0.1,0.1-0.2,0.1c0,0-0.1,0-0.1,0c0,0,0,0-0.1,0 c-0.1,0-0.1,0-0.2,0c0,0,0,0,0,0c-0.1,0-0.1,0-0.2,0c0.3,0,1.1-0.1,1.5-0.3c0.2-0.1,0.6-0.5,0.9-1C22,48.7,22,48.7,21.9,48.6 C22,48.6,21.9,48.6,21.9,48.6z M23.8,44.1c0.5-1.1,0.9-2.6,1-4.6l0,0l0-1.9c0-0.1,0-0.1,0-0.2h0l0-0.2c0,0-0.5-1-1.1-0.5 c0,0,0.4,0.2,0.4,0.9c0,0.7-0.1,2-0.1,2c-0.1,1.6-0.5,3.1-1,4.4c0.2,0.3,0.6,0.6,0.8,0.8c0.1,0.1,0.6,0.7,0.3,1.5 c-0.3,0.8-0.8,1.9-1.1,2.2c-0.1,0.1-0.1,0.2-0.2,0.3c0.2,0.3,0.4,0.7,0.4,0.7c0.2,0,0.2-0.7,0.5-1.1c0.3-0.3,0.8-1.4,1.1-2.2 c0.3-0.8-0.2-1.4-0.3-1.5C24.3,44.5,24,44.3,23.8,44.1z M71.7,56.9l4.6,4.6c-0.2,0.2-0.4,0.4-0.5,0.6c-0.1,0.1-0.1,0.1-0.2,0.2 c-0.1,0.1-0.3,0.3-0.4,0.4c-0.1,0.1-0.1,0.1-0.2,0.2c-0.1,0.1-0.2,0.2-0.4,0.4c-0.1,0.1-0.2,0.2-0.2,0.2 c-0.1,0.1-0.2,0.2-0.3,0.3c-0.1,0.1-0.2,0.2-0.3,0.2c-0.1,0.1-0.2,0.2-0.3,0.3c-0.1,0.1-0.2,0.2-0.3,0.3 c-0.1,0.1-0.2,0.2-0.3,0.2c-0.1,0.1-0.2,0.2-0.3,0.3c-0.1,0.1-0.2,0.1-0.3,0.2c-0.1,0.1-0.3,0.2-0.4,0.3 c-0.1,0.1-0.1,0.1-0.2,0.2c-0.1,0.1-0.3,0.2-0.4,0.3c-0.1,0-0.1,0.1-0.2,0.1c-0.2,0.1-0.3,0.2-0.5,0.3c0,0-0.1,0-0.1,0.1 c-1.3,0.8-2.6,1.4-4,1.9c0,0,0,0,0,0l0.2,0.5c4.4-1.2,7.9-3.9,10.8-7.2l-3.4-3.4L71.7,56.9z M87.5,35.7c-0.1,0.7-0.3,1.8-0.6,3 c0,0,0,0.1,0,0.1c0,0.2-0.1,0.4-0.1,0.6c0,0.1-0.1,0.2-0.1,0.4c0,0.1-0.1,0.2-0.1,0.3c0,0.2-0.1,0.3-0.1,0.5c0,0.1,0,0.1-0.1,0.2 c-0.1,0.2-0.1,0.5-0.2,0.7c0,0.1,0,0.1-0.1,0.2c-0.1,0.2-0.1,0.5-0.2,0.7c0,0,0,0.1,0,0.1c-0.1,0.3-0.2,0.6-0.3,0.8 c0,0,0,0.1,0,0.1c-0.2,0.6-0.4,1.2-0.6,1.8c0,0,0,0,0,0.1c-0.3,1-0.7,2-1.1,3l1.3,0.2C88,41.3,89,34.8,89,34.8 C88.5,35.1,88,35.4,87.5,35.7z M77.1,47.5l6,2.7c-0.2,0.4-0.3,0.8-0.5,1.2c-1.3,2.8-2.8,5.6-4.7,8.1c0,0,0,0,0,0l1,0.5 c2.3-3,4.2-6.5,5.6-9.8l-5.8-2.6L77.1,47.5z M49.3,79.4c-0.2,0-0.3,0-0.5,0c0,0-0.1,0-0.1,0c-0.2,0-0.3,0-0.5,0.1 c-0.1,0-0.2,0-0.3,0.1c-2.8,5.8-0.8,13.3-0.8,13.3c0.1,0,0.3,0.1,0.4,0.1c3.9,0.9,7.5,2.8,8.1,3.2c0.4,0,0.8,0,1.1,0.1 c0,0-4-2.3-8.4-3.2C48.3,93,46.3,85.2,49.3,79.4z M39.9,95.5c-0.2,0-0.4,0-0.6,0.1c0,0,0,0-0.1,0c-0.2,0-0.4,0.1-0.6,0.1 c0,0,0,0-0.1,0c-0.2,0-0.4,0.1-0.6,0.2c0,0,0,0,0,0c-0.2,0.1-0.4,0.1-0.6,0.2c0,0,0,0-0.1,0c-0.2,0.1-0.4,0.1-0.5,0.2 c0,0,0,0-0.1,0c-0.2,0.1-0.3,0.2-0.5,0.2c0,0,0,0,0,0c-0.4,0.2-0.7,0.3-1,0.5c-0.1,0.3-0.2,0.7-0.3,1c0,0,3.4-2.3,6.2-2.5 c4.7-0.4,7.5,0,13.1,0.4C47.7,95.3,44.9,95.1,39.9,95.5z" clip-path="url(#SVGID_2_)"  /><path d="M32.1,34.4c-0.1,0.2-0.5,0.6-1.2,0.6c-0.6,0-1-0.1-1.1-0.6 c-0.3,0-0.2-0.1-0.7,0c-0.5,0.1-2.7,0.9-2.8,0.8c0,0,3.5-1.8,4.3-1.8c0.9,0,1.7,0.4,2.3,0.5c0.6,0.1,1.9,0.5,2,0.5 c0.1,0.1-0.1,0.2-0.5,0.2C34,34.6,32.8,34.6,32.1,34.4z M44.7,83.9c0-0.7-0.4-1.4-0.9-2.1c0,0-0.1-0.1-0.1-0.1 c-0.1-0.2-0.3-0.3-0.4-0.5c-0.1-0.2-0.3-0.3-0.5-0.5c0,0-0.1-0.1-0.1-0.1c-0.3-0.3-0.6-0.6-1-0.9l2.9,0.7V83.9z M87.7,34.6 c-9.5,7.1-29.1,6.8-32.2,7.6c-3.1,0.8-2.1,3-2.1,3c-4.3,11.3-12.1,5.7-12.1,5.7c-5.9-3.7-4.9,0.2-2.5,4.8 c-9.2-1.1-1.6-13.9,1.7-16.4c3.5-2.6,7.3-9.9,7.3-9.9c-1.1,1.2-4.4,3.6-13.5,1.7c-4-0.8-6.8,1.7-6.8,1.7c-17.4-1.5-13,6-13,6 c1.9-2.9,7-1.5,7-1.5c0,1.1,0.6,1.6,1.2,1.9c-0.1,1.2-0.4,2.7-1,4.2c-0.6-0.1-2.2-0.8-2.7-0.7c-1.4,0.2-1.2,2.2-2.7,2.8 c0.1,0.3,0.8,0.8,1.5,0.9c-0.6,0.7-0.6,2-0.6,2.1c0,0.6,0.4,0.7,0.4,1c0,0.4,0,0.7,0,0.9c0.4-0.2,0.8-0.5,1.2-0.4 c0.3,0,1.1,0,1.6-0.3c0.3-0.2,0.8-0.7,1.2-1.4c0.1,0.1,0.2,0.1,0.3,0.2c0.3,0.3,0.6,1,0.7,1.1c0.2,0,0.2-0.7,0.5-1.1 c0.3-0.3,0.8-1.4,1.1-2.2c0.3-0.8-0.2-1.4-0.3-1.5c-0.2-0.2-0.6-0.5-0.8-0.8c0.5-1.3,0.8-2.8,1-4.4l0,0c0,0,0.1-1.3,0.1-2 c0-0.7-0.4-0.9-0.4-0.9c0.6-0.5,1.1,0.5,1.1,0.5l0,2.4c0.9-0.1,1.6-0.3,1.6-0.3s5.6-0.6,6.5,0.8c0.9,1.4,0.5,5-4.5,14.1 c-5.4,9.9,0.3,19.4,8.4,23.6c2.7,2,8.3,7,7.6,13.7c0,0-10.3,2.1-10.7,6.7c0,0,3.4-2.3,6.2-2.5c5.3-0.5,8.2-0.2,15.8,0.7 c0,0-4.2-2.4-8.6-3.3c0,0-2-7.5,0.8-13.3c0.1,0,0.2,0,0.3-0.1c3.4-0.7,9.4,2.6,9.4,2.6l-1.4-3.6c6.3,0.9,9.4,8.3,9.4,8.3 c-0.2-6.3-4.3-12.6-9.2-17.8c0.7,0.1,1.4,0.2,2,0.2c1.8,0.1,3.4,0,4.9-0.2l-2.2-8.6l4.3,8.1c4.4-1.2,7.9-3.9,10.8-7.2l-4.6-4.6 l5.8,3.2c2.3-3,4.2-6.4,5.6-9.8l-6-2.7l6.7,1C86.7,41.2,87.7,34.6,87.7,34.6z" clip-path="url(#SVGID_2_)"  fill="#FFFFFF"  /><path d="M40.4,39.3c-3.2,2.5-10.9,15.3-1.7,16.4c-7.3-2.3-0.2-13.9,2.9-16.3c3.5-2.6,7.3-9.9,7.3-9.9 c-0.3,0.3-1.2,0.8-2,1.2C45.6,33,42.9,37.3,40.4,39.3z M57.6,69.2c-0.4,0-0.7-0.1-1.1-0.2c0.2,0.3,0.5,0.5,0.7,0.8 c0,0,0.1,0.1,0.1,0.1c0.2,0.3,0.4,0.5,0.7,0.8c0,0,0.1,0.1,0.1,0.1c0.2,0.3,0.4,0.5,0.7,0.8c0,0,0,0.1,0.1,0.1 c0.2,0.3,0.4,0.6,0.7,0.8c0,0,0,0,0,0c0.2,0.3,0.4,0.6,0.7,0.9c0,0,0.1,0.1,0.1,0.1c0.2,0.3,0.4,0.6,0.6,0.8c0,0,0.1,0.1,0.1,0.1 c0.2,0.3,0.4,0.6,0.6,0.9c0,0,0,0,0,0.1c0.2,0.3,0.4,0.6,0.6,0.9c0,0,0,0,0,0.1c0.2,0.3,0.3,0.6,0.5,0.9c0,0,0.1,0.1,0.1,0.2 c0.2,0.3,0.3,0.6,0.5,0.8c0,0.1,0.1,0.1,0.1,0.2c0.1,0.3,0.3,0.6,0.4,0.8c0,0,0,0.1,0.1,0.1c0.1,0.3,0.2,0.5,0.3,0.8 c0,0.1,0.1,0.1,0.1,0.2c0.1,0.3,0.2,0.5,0.3,0.8c0,0.1,0.1,0.2,0.1,0.3c0.1,0.3,0.2,0.5,0.3,0.8c0,0.1,0.1,0.2,0.1,0.3 c0.1,0.2,0.1,0.4,0.2,0.6c0,0.1,0.1,0.3,0.1,0.4c0,0.2,0.1,0.4,0.1,0.6c0,0.1,0,0.2,0.1,0.2c1,1.5,1.6,2.8,1.6,2.8 C66.7,81.1,62.3,74.5,57.6,69.2z M56.2,78.6l1.2,3.1c0.9,0.4,1.4,0.7,1.4,0.7l-1.3-3.5C57.1,78.8,56.7,78.6,56.2,78.6z" clip-path="url(#SVGID_2_)"  /><path d="M102.9,37.8c0.1,0.6,0.4,1.1,0.4,1.1c1.1-1.8,3.4-2,5.1-1.8 C107.2,36.9,104.6,36.6,102.9,37.8z" clip-path="url(#SVGID_2_)"  /><path d="M108.7,43.3c0.1,0,0.1,0,0.2,0c0.1,0,0.1,0,0.2,0.1c0,0,0,0,0.1,0c0.1,0,0.1,0,0.2,0 c0-0.1,0.1-0.2,0.1-0.2c-0.7-0.2-1.7-0.6-2-0.5c-0.1,0-0.2,0-0.3,0.1C107.5,42.9,108.1,43.1,108.7,43.3 C108.7,43.3,108.7,43.3,108.7,43.3z M106.5,50c-0.1,0-0.1,0-0.1,0c0,0-0.1,0-0.1,0c0,0,0,0-0.1,0c0,0,0,0-0.1,0c0,0,0,0-0.1,0 c0,0,0,0-0.1,0c0,0-0.1,0-0.1,0l0,0c0,0.1,0,0.2,0,0.3c0.3-0.1,0.5-0.3,0.8-0.3C106.7,50,106.6,50,106.5,50 C106.6,50,106.5,50,106.5,50z M129.2,79.7c0.4,0.3,0.7,0.6,1,0.9c0,0,0.1,0.1,0.1,0.1c0.2,0.2,0.3,0.3,0.5,0.5 c0.1,0.1,0.3,0.3,0.4,0.5c0,0,0.1,0.1,0.1,0.1c0.5,0.7,0.9,1.4,0.9,2.1v-2.4c-0.5-0.6-1-1-1.4-1.3L129.2,79.7z M148.8,60.5 l2.2,8.6c-0.2,0-0.4,0.1-0.6,0.1c0,0,0,0-0.1,0c-0.2,0-0.4,0-0.5,0.1c-0.1,0-0.1,0-0.2,0c-0.1,0-0.3,0-0.4,0c-0.1,0-0.2,0-0.3,0 c-0.1,0-0.2,0-0.3,0c-0.2,0-0.3,0-0.5,0c0,0-0.1,0-0.1,0c-0.6,0-1.2,0-1.9,0c0.4,0,0.8,0.1,1.2,0.1c1.8,0.1,3.4,0.1,4.9-0.2 l-1.1-4.3L148.8,60.5z M122.6,34.3c-0.1,0-1.4-0.3-2-0.5c-0.6-0.1-1.4-0.5-2.3-0.5c-0.8,0-4.2,1.8-4.2,1.8 c0.2,0.1,2.4-0.7,2.8-0.8c0.5-0.1,0.4,0,0.7,0c0,0.5,0.4,0.6,1,0.6c0.6,0,1-0.4,1.2-0.6c0.7,0.2,1.8,0.3,2.4,0.2 C122.4,34.5,122.7,34.4,122.6,34.3z M126.8,49.8c0.1,0,0.2,0.1,0.3,0.1c0,0,0.1,0,0.1,0c0.1,0,0.2,0.1,0.2,0.1 c0.1,0.1,0.2,0.1,0.3,0.2c0.1,0,0.1,0.1,0.2,0.1c0.1,0,0.2,0.1,0.3,0.2c0.1,0,0.1,0.1,0.2,0.1c0.2,0.1,0.3,0.2,0.5,0.3 c0,0,0,0,0.1,0.1l0,0c0,0,0.1,0,0.1,0.1l0,0c0.5,0.3,2.2,1.3,4.2,1.3c-1.8-0.3-3.1-1.3-3.1-1.3c-2-1.2-3.2-1.6-3.8-1.4 C126.4,49.7,126.6,49.8,126.8,49.8L126.8,49.8z M109.5,48.6c0,0-0.1-0.1-0.1-0.1c0-0.1-0.1-0.1-0.3-0.2c-0.4,0.8-0.9,1.3-1.2,1.4 c-0.1,0-0.1,0.1-0.2,0.1c0,0-0.1,0-0.1,0c0,0,0,0-0.1,0c-0.1,0-0.1,0-0.2,0c0,0,0,0,0,0c-0.1,0-0.1,0-0.2,0 c0.3,0,1.1-0.1,1.5-0.3c0.2-0.1,0.6-0.5,0.9-1C109.6,48.7,109.5,48.7,109.5,48.6C109.5,48.6,109.5,48.6,109.5,48.6z M111.4,44.1 c0.5-1.1,0.9-2.6,1-4.6l0,0l0-1.9c0-0.1,0-0.1,0-0.2h0v-0.2c0,0-0.5-1-1.1-0.5c0,0,0.4,0.2,0.4,0.9c0,0.7-0.1,2-0.1,2 c-0.1,1.6-0.5,3.1-1,4.4c0.2,0.3,0.6,0.6,0.8,0.8c0.1,0.1,0.6,0.7,0.3,1.5c-0.3,0.8-0.8,1.9-1.1,2.2c-0.1,0.1-0.1,0.2-0.2,0.3 c0.2,0.3,0.4,0.7,0.4,0.7c0.2,0,0.2-0.7,0.5-1.1c0.3-0.3,0.8-1.4,1.1-2.2c0.3-0.8-0.2-1.4-0.3-1.5 C111.9,44.5,111.6,44.3,111.4,44.1z M159.3,56.9l4.6,4.6c-0.2,0.2-0.3,0.4-0.5,0.6c0,0.1-0.1,0.1-0.1,0.2 c-0.1,0.1-0.3,0.3-0.4,0.4c-0.1,0.1-0.1,0.1-0.2,0.2c-0.1,0.1-0.2,0.2-0.3,0.4c-0.1,0.1-0.2,0.2-0.2,0.2 c-0.1,0.1-0.2,0.2-0.3,0.3c-0.1,0.1-0.2,0.2-0.3,0.2c-0.1,0.1-0.2,0.2-0.3,0.3c-0.1,0.1-0.2,0.2-0.3,0.3 c-0.1,0.1-0.2,0.2-0.3,0.2c-0.1,0.1-0.2,0.2-0.3,0.3c-0.1,0.1-0.2,0.1-0.3,0.2c-0.1,0.1-0.2,0.2-0.4,0.3 c-0.1,0.1-0.2,0.1-0.2,0.2c-0.1,0.1-0.3,0.2-0.4,0.3c-0.1,0-0.1,0.1-0.2,0.1c-0.2,0.1-0.3,0.2-0.5,0.3c0,0-0.1,0-0.1,0.1 c-1.2,0.8-2.6,1.4-4,1.9c0,0,0,0,0,0l0.3,0.5c4.4-1.2,7.9-3.9,10.8-7.2l-3.4-3.4L159.3,56.9z M175.1,35.7c-0.1,0.7-0.4,1.8-0.7,3 c0,0,0,0.1,0,0.1c0,0.2-0.1,0.4-0.1,0.6c0,0.1-0.1,0.2-0.1,0.4c0,0.1-0.1,0.2-0.1,0.3c0,0.2-0.1,0.3-0.1,0.5c0,0.1,0,0.1-0.1,0.2 c-0.1,0.2-0.1,0.5-0.2,0.7c0,0.1,0,0.1-0.1,0.2c-0.1,0.2-0.1,0.5-0.2,0.7c0,0,0,0.1,0,0.1c-0.1,0.3-0.2,0.6-0.3,0.8 c0,0,0,0.1,0,0.1c-0.2,0.6-0.4,1.2-0.6,1.8c0,0,0,0,0,0.1c-0.3,1-0.7,2-1.1,3l1.3,0.2c2.9-7.4,3.8-13.9,3.8-13.9 C176.1,35.1,175.6,35.4,175.1,35.7z M164.6,47.5l6,2.7c-0.2,0.4-0.3,0.8-0.5,1.2c-1.3,2.8-2.8,5.6-4.7,8.1c0,0,0,0,0,0l1,0.5 c2.3-3,4.2-6.5,5.6-9.8l-5.8-2.6L164.6,47.5z M136.8,79.4c-0.2,0-0.3,0-0.5,0c0,0-0.1,0-0.1,0c-0.2,0-0.3,0-0.5,0.1 c-0.1,0-0.2,0-0.3,0.1c-2.8,5.8-0.8,13.3-0.8,13.3c0.1,0,0.3,0.1,0.4,0.1c3.9,0.9,7.5,2.8,8.1,3.2c0.4,0,0.8,0,1.1,0.1 c0,0-4-2.3-8.4-3.2C135.9,93,133.8,85.2,136.8,79.4z M127.5,95.5c-0.2,0-0.4,0-0.6,0.1c0,0,0,0-0.1,0c-0.2,0-0.4,0.1-0.6,0.1 c0,0,0,0-0.1,0c-0.2,0-0.4,0.1-0.6,0.2c0,0,0,0,0,0c-0.2,0.1-0.4,0.1-0.6,0.2c0,0,0,0-0.1,0c-0.2,0.1-0.4,0.1-0.5,0.2 c0,0,0,0-0.1,0c-0.2,0.1-0.4,0.2-0.5,0.2c0,0,0,0,0,0c-0.4,0.2-0.7,0.3-1,0.5c-0.1,0.3-0.2,0.7-0.3,1c0,0,3.4-2.3,6.2-2.5 c4.7-0.4,7.5,0,13.1,0.4C135.3,95.3,132.4,95.1,127.5,95.5z" clip-path="url(#SVGID_2_)"  /><path d="M119.7,34.4c-0.1,0.2-0.5,0.6-1.2,0.6c-0.6,0-1-0.1-1-0.6 c-0.3,0-0.2-0.1-0.7,0c-0.5,0.1-2.7,0.9-2.8,0.8c0,0,3.5-1.8,4.2-1.8c0.9,0,1.7,0.4,2.3,0.5c0.6,0.1,1.9,0.5,2,0.5 c0.1,0.1-0.1,0.2-0.5,0.2C121.5,34.6,120.4,34.6,119.7,34.4z M132.2,83.9c0-0.7-0.4-1.4-0.9-2.1c0,0-0.1-0.1-0.1-0.1 c-0.1-0.2-0.2-0.3-0.4-0.5c-0.2-0.2-0.3-0.3-0.5-0.5c0,0-0.1-0.1-0.1-0.1c-0.3-0.3-0.6-0.6-1-0.9l2.9,0.7V83.9z M175.2,34.6 c-9.5,7.1-29.1,6.8-32.2,7.6c-3.1,0.8-2.1,3-2.1,3c-4.3,11.3-12.1,5.7-12.1,5.7c-5.9-3.7-4.9,0.2-2.5,4.8 c-9.2-1.1-1.6-13.9,1.7-16.4c3.5-2.6,7.3-9.9,7.3-9.9c-1.1,1.2-4.4,3.6-13.5,1.7c-4-0.8-6.8,1.7-6.8,1.7c-17.4-1.5-13,6-13,6 c1.9-2.9,7-1.5,7-1.5c0,1.1,0.5,1.6,1.2,1.9c-0.1,1.2-0.4,2.7-1,4.2c-0.6-0.1-2.2-0.8-2.7-0.7c-1.4,0.2-1.2,2.2-2.7,2.8 c0.1,0.3,0.8,0.8,1.5,0.9c-0.7,0.7-0.6,2-0.6,2.1c0,0.6,0.4,0.7,0.4,1c0,0.4,0,0.7,0,0.9c0.4-0.2,0.8-0.5,1.2-0.4 c0.3,0,1.1,0,1.6-0.3c0.3-0.2,0.8-0.7,1.2-1.4c0.1,0.1,0.2,0.1,0.3,0.2c0.3,0.3,0.6,1,0.7,1.1c0.2,0,0.2-0.7,0.5-1.1 c0.3-0.3,0.8-1.4,1.1-2.2c0.3-0.8-0.2-1.4-0.3-1.5c-0.2-0.2-0.6-0.5-0.8-0.8c0.5-1.3,0.8-2.8,1-4.4l0,0c0,0,0.1-1.3,0.1-2 c0-0.7-0.4-0.9-0.4-0.9c0.6-0.5,1.1,0.5,1.1,0.5l0,2.4c0.9-0.1,1.6-0.3,1.6-0.3s5.6-0.6,6.4,0.8c0.9,1.4,0.5,5-4.4,14.1 c-5.4,9.9,0.4,19.4,8.4,23.6c2.7,2,8.3,7,7.6,13.7c0,0-10.3,2.1-10.7,6.7c0,0,3.4-2.3,6.2-2.5c5.3-0.5,8.2-0.2,15.8,0.7 c0,0-4.2-2.4-8.6-3.3c0,0-2-7.5,0.8-13.3c0.1,0,0.2,0,0.3-0.1c3.4-0.7,9.4,2.6,9.4,2.6l-1.4-3.6c6.3,0.9,9.4,8.3,9.4,8.3 c-0.2-6.3-4.3-12.6-9.2-17.8c0.7,0.1,1.4,0.2,2,0.2c1.8,0.1,3.4,0,4.9-0.2l-2.2-8.6l4.3,8.1c4.4-1.2,7.9-3.9,10.8-7.2l-4.6-4.6 l5.8,3.2c2.3-3,4.2-6.4,5.6-9.8l-6-2.7l6.7,1C174.3,41.2,175.2,34.6,175.2,34.6z" clip-path="url(#SVGID_2_)"  fill="#FFFFFF"  /><path d="M127.9,39.3c-3.3,2.5-10.9,15.3-1.7,16.4c-7.3-2.3-0.2-13.9,2.9-16.3 c3.5-2.6,7.3-9.9,7.3-9.9c-0.3,0.3-1.2,0.8-2,1.2C133.2,33,130.5,37.3,127.9,39.3z M145.1,69.2c-0.4,0-0.7-0.1-1.1-0.2 c0.2,0.3,0.5,0.5,0.7,0.8c0,0,0.1,0.1,0.1,0.1c0.2,0.3,0.4,0.5,0.7,0.8c0,0,0.1,0.1,0.1,0.1c0.2,0.3,0.4,0.5,0.7,0.8 c0,0,0,0.1,0.1,0.1c0.2,0.3,0.5,0.6,0.7,0.8c0,0,0,0,0,0c0.2,0.3,0.4,0.6,0.6,0.9c0,0,0.1,0.1,0.1,0.1c0.2,0.3,0.4,0.6,0.6,0.8 c0,0,0.1,0.1,0.1,0.1c0.2,0.3,0.4,0.6,0.6,0.9c0,0,0,0,0,0.1c0.2,0.3,0.4,0.6,0.6,0.9c0,0,0,0,0,0.1c0.2,0.3,0.3,0.6,0.5,0.9 c0,0,0.1,0.1,0.1,0.2c0.2,0.3,0.3,0.6,0.5,0.8c0,0.1,0.1,0.1,0.1,0.2c0.1,0.3,0.3,0.6,0.4,0.8c0,0,0,0.1,0.1,0.1 c0.1,0.3,0.2,0.5,0.3,0.8c0,0.1,0.1,0.1,0.1,0.2c0.1,0.3,0.2,0.5,0.3,0.8c0,0.1,0.1,0.2,0.1,0.3c0.1,0.3,0.2,0.5,0.2,0.8 c0,0.1,0.1,0.2,0.1,0.3c0.1,0.2,0.1,0.4,0.2,0.6c0,0.1,0.1,0.3,0.1,0.4c0,0.2,0.1,0.4,0.1,0.6c0,0.1,0,0.2,0.1,0.2 c1.1,1.5,1.6,2.8,1.6,2.8C154.2,81.1,149.9,74.5,145.1,69.2z M143.8,78.6l1.2,3.1c0.9,0.4,1.4,0.7,1.4,0.7l-1.3-3.5 C144.7,78.8,144.2,78.6,143.8,78.6z" clip-path="url(#SVGID_2_)"  /><path d="M52.1,180.3c0.2,0.8,0.5,1.4,0.5,1.4c1.4-2.2,4.3-2.4,6.4-2.3 C57.5,179.1,54.2,178.7,52.1,180.3z" clip-path="url(#SVGID_2_)"  /><path d="M59.4,187.1c0.1,0,0.1,0,0.2,0.1c0.1,0,0.2,0.1,0.2,0.1c0,0,0.1,0,0.1,0c0.1,0,0.2,0,0.2,0.1 c0-0.1,0.1-0.2,0.1-0.3c-0.9-0.3-2.1-0.7-2.5-0.7c-0.1,0-0.3,0.1-0.4,0.1C57.9,186.6,58.7,186.9,59.4,187.1 C59.4,187.1,59.4,187.1,59.4,187.1z M56.7,195.5c-0.1,0-0.1,0-0.2,0c0,0-0.1,0-0.1,0c0,0,0,0-0.1,0c0,0-0.1,0-0.1,0 c0,0-0.1,0-0.1,0c0,0,0,0-0.1,0c0,0-0.1,0-0.1,0c0,0,0,0,0,0c0,0.2,0,0.3,0,0.3c0.3-0.1,0.7-0.3,1-0.4 C56.9,195.5,56.8,195.5,56.7,195.5C56.7,195.5,56.7,195.5,56.7,195.5z M85.2,232.9c0.5,0.4,0.9,0.7,1.2,1.1c0,0,0.1,0.1,0.1,0.1 c0.2,0.2,0.4,0.4,0.6,0.6c0.2,0.2,0.3,0.4,0.5,0.6c0,0.1,0.1,0.1,0.1,0.2c0.6,0.8,1.1,1.8,1.1,2.6V235c-0.6-0.7-1.3-1.3-1.7-1.7 L85.2,232.9z M109.8,208.8l2.8,10.8c-0.2,0-0.5,0.1-0.7,0.1c0,0,0,0-0.1,0c-0.2,0-0.4,0.1-0.7,0.1c-0.1,0-0.2,0-0.2,0 c-0.2,0-0.3,0-0.5,0c-0.1,0-0.3,0-0.4,0c-0.1,0-0.2,0-0.3,0c-0.2,0-0.4,0-0.6,0c0,0-0.1,0-0.1,0c-0.8,0-1.5,0-2.3-0.1 c0.5,0.1,1,0.1,1.4,0.1c2.2,0.2,4.3,0.1,6.2-0.2l-1.4-5.4L109.8,208.8z M76.8,175.8c-0.2,0-1.8-0.4-2.6-0.6 c-0.8-0.2-1.8-0.7-2.9-0.7c-1,0-5.3,2.3-5.3,2.3c0.2,0.1,3-0.9,3.6-1c0.6-0.1,0.5,0,0.9,0c0,0.6,0.6,0.8,1.3,0.8 c0.8,0,1.3-0.5,1.4-0.7c0.9,0.3,2.3,0.3,3,0.2C76.7,176.1,77,175.9,76.8,175.8z M82.1,195.4c0.1,0,0.2,0.1,0.3,0.1 c0,0,0.1,0,0.1,0.1c0.1,0,0.2,0.1,0.3,0.1c0.1,0.1,0.3,0.2,0.4,0.2c0.1,0,0.1,0.1,0.2,0.1c0.1,0.1,0.2,0.1,0.4,0.2 c0.1,0,0.1,0.1,0.2,0.1c0.2,0.1,0.4,0.2,0.6,0.4c0,0,0,0,0.1,0.1l0,0c0,0,0.1,0,0.1,0.1l0,0c0.7,0.4,2.7,1.6,5.3,1.6 c-2.3-0.4-3.9-1.6-3.9-1.6c-2.5-1.5-4-2-4.8-1.7C81.7,195.2,81.9,195.3,82.1,195.4L82.1,195.4z M60.4,193.8 c0-0.1-0.1-0.1-0.1-0.1c-0.1-0.1-0.2-0.2-0.3-0.3c-0.4,1-1.1,1.6-1.4,1.8c-0.1,0-0.1,0.1-0.2,0.1c0,0-0.1,0-0.1,0.1 c0,0-0.1,0-0.1,0c-0.1,0-0.1,0-0.2,0.1c0,0,0,0,0,0c-0.1,0-0.2,0-0.2,0.1c0.4,0,1.3-0.1,1.9-0.3c0.3-0.2,0.7-0.6,1.1-1.2 C60.5,193.9,60.5,193.9,60.4,193.8C60.4,193.8,60.4,193.8,60.4,193.8z M62.8,188.1c0.6-1.4,1.1-3.3,1.2-5.7l0,0l0-2.4 c0-0.1,0-0.2,0-0.3h0v-0.3c0,0-0.6-1.3-1.4-0.6c0,0,0.5,0.3,0.5,1.2c0,0.9-0.1,2.6-0.1,2.6c-0.2,2-0.6,3.9-1.2,5.6 c0.3,0.3,0.7,0.7,1,1c0.1,0.2,0.7,0.9,0.4,1.9c-0.4,1-1,2.4-1.4,2.8c-0.1,0.1-0.2,0.3-0.2,0.4c0.3,0.4,0.5,0.9,0.5,0.9 c0.2,0,0.3-0.9,0.7-1.4c0.4-0.4,1-1.8,1.4-2.8c0.3-1-0.2-1.7-0.4-1.9C63.4,188.7,63.1,188.4,62.8,188.1z M122.9,204.2l5.8,5.8 c-0.2,0.2-0.4,0.5-0.7,0.7c-0.1,0.1-0.1,0.1-0.2,0.2c-0.2,0.2-0.3,0.3-0.5,0.5c-0.1,0.1-0.2,0.2-0.3,0.3 c-0.1,0.1-0.3,0.3-0.4,0.4c-0.1,0.1-0.2,0.2-0.3,0.3c-0.1,0.1-0.3,0.3-0.4,0.4c-0.1,0.1-0.2,0.2-0.3,0.3 c-0.1,0.1-0.2,0.2-0.4,0.3c-0.1,0.1-0.3,0.2-0.4,0.3c-0.1,0.1-0.2,0.2-0.4,0.3c-0.1,0.1-0.3,0.2-0.4,0.3 c-0.1,0.1-0.2,0.2-0.3,0.3c-0.2,0.1-0.3,0.2-0.5,0.4c-0.1,0.1-0.2,0.1-0.3,0.2c-0.2,0.1-0.4,0.2-0.5,0.4c-0.1,0-0.2,0.1-0.2,0.1 c-0.2,0.1-0.4,0.3-0.6,0.4c0,0-0.1,0-0.1,0.1c-1.6,1-3.2,1.8-5,2.4c0,0,0,0,0,0l0.3,0.6c5.5-1.5,9.9-4.9,13.6-9l-4.3-4.3 L122.9,204.2z M142.8,177.6c-0.2,0.9-0.4,2.2-0.8,3.8c0,0.1,0,0.1,0,0.2c-0.1,0.2-0.1,0.5-0.2,0.8c0,0.2-0.1,0.3-0.1,0.5 c0,0.1-0.1,0.2-0.1,0.4c-0.1,0.2-0.1,0.4-0.2,0.6c0,0.1-0.1,0.2-0.1,0.3c-0.1,0.3-0.2,0.6-0.2,0.9c0,0.1-0.1,0.2-0.1,0.3 c-0.1,0.3-0.2,0.6-0.3,0.9c0,0,0,0.1,0,0.1c-0.1,0.4-0.2,0.7-0.3,1.1c0,0,0,0.1-0.1,0.2c-0.2,0.8-0.5,1.5-0.7,2.3 c0,0,0,0.1,0,0.1c-0.4,1.2-0.9,2.5-1.4,3.8l1.6,0.2c3.6-9.3,4.8-17.5,4.8-17.5C144,176.8,143.4,177.2,142.8,177.6z M129.7,192.5 l7.6,3.4c-0.2,0.5-0.4,1-0.7,1.5c-1.6,3.5-3.6,7-5.9,10.2c0,0,0,0,0,0l1.3,0.7c2.9-3.8,5.2-8.1,7-12.3l-7.3-3.3L129.7,192.5z M94.7,232.5c-0.2,0-0.4,0-0.7,0c0,0-0.1,0-0.1,0c-0.2,0-0.4,0-0.6,0.1c-0.1,0-0.3,0-0.4,0.1c-3.5,7.3-1,16.7-1,16.7 c0.2,0,0.3,0.1,0.5,0.1c4.9,1.1,9.4,3.5,10.2,4c0.5,0,0.9,0.1,1.4,0.1c0,0-5-2.8-10.6-4C93.6,249.5,91,239.8,94.7,232.5z M83,252.7c-0.2,0-0.5,0-0.7,0.1c0,0,0,0-0.1,0c-0.2,0-0.5,0.1-0.7,0.2c0,0-0.1,0-0.1,0c-0.2,0.1-0.5,0.1-0.7,0.2c0,0,0,0,0,0 c-0.2,0.1-0.5,0.2-0.7,0.3c0,0-0.1,0-0.1,0c-0.2,0.1-0.4,0.2-0.7,0.3c0,0-0.1,0-0.1,0c-0.2,0.1-0.4,0.2-0.7,0.3c0,0,0,0,0,0 c-0.5,0.2-0.9,0.4-1.3,0.7c-0.2,0.4-0.3,0.8-0.3,1.3c0,0,4.3-2.9,7.8-3.2c5.9-0.5,9.4-0.1,16.5,0.5 C92.8,252.5,89.2,252.1,83,252.7z" clip-path="url(#SVGID_2_)"  /><path d="M73.2,175.9c-0.1,0.2-0.7,0.7-1.4,0.7c-0.8,0-1.3-0.2-1.3-0.8 c-0.3,0-0.3-0.1-0.9,0c-0.6,0.1-3.4,1.1-3.6,1c0,0,4.4-2.3,5.3-2.3c1.2,0,2.1,0.5,2.9,0.7c0.8,0.2,2.4,0.6,2.6,0.6 c0.1,0.1-0.2,0.2-0.7,0.3C75.5,176.2,74.1,176.2,73.2,175.9z M88.9,238.1c0-0.9-0.5-1.8-1.1-2.6c0-0.1-0.1-0.1-0.1-0.2 c-0.2-0.2-0.3-0.4-0.5-0.6c-0.2-0.2-0.4-0.4-0.6-0.6c0,0-0.1-0.1-0.1-0.1c-0.4-0.4-0.8-0.7-1.2-1.1l3.7,0.9V238.1z M143,176.2 c-12,8.9-36.6,8.5-40.5,9.5c-3.9,1-2.7,3.8-2.7,3.8c-5.4,14.2-15.2,7.2-15.2,7.2c-7.4-4.6-6.1,0.3-3.2,6 c-11.6-1.4-2-17.5,2.1-20.6c4.3-3.3,9.2-12.5,9.2-12.5c-1.4,1.6-5.6,4.5-16.9,2.2c-5-1-8.5,2.1-8.5,2.1 C45.4,172,51,181.5,51,181.5c2.3-3.7,8.8-1.9,8.8-1.9c0.1,1.3,0.7,2.1,1.5,2.4c-0.2,1.5-0.5,3.4-1.2,5.3c-0.8-0.2-2.8-1-3.4-0.9 c-1.7,0.3-1.5,2.8-3.4,3.5c0.2,0.4,1,1,1.9,1.2c-0.8,0.9-0.8,2.5-0.7,2.7c0,0.7,0.5,0.9,0.5,1.2c0,0.5-0.1,0.9,0,1.1 c0.5-0.2,1.1-0.6,1.4-0.5c0.3,0.1,1.4,0,2-0.3c0.4-0.2,1-0.8,1.4-1.8c0.2,0.1,0.3,0.2,0.3,0.3c0.4,0.3,0.8,1.3,0.8,1.4 c0.2,0,0.2-0.9,0.6-1.4c0.4-0.4,1-1.8,1.4-2.8c0.3-1-0.2-1.7-0.4-1.9c-0.3-0.3-0.7-0.7-1-1c0.6-1.6,1.1-3.5,1.2-5.6l0,0 c0,0,0.1-1.7,0.1-2.6c0-0.9-0.5-1.2-0.5-1.2c0.8-0.7,1.4,0.6,1.4,0.6l0,3c1.1-0.1,2-0.4,2-0.4s7-0.7,8.1,1 c1.1,1.7,0.6,6.3-5.6,17.7c-6.8,12.4,0.4,24.4,10.5,29.6c3.4,2.5,10.5,8.8,9.6,17.2c0,0-12.9,2.6-13.4,8.5c0,0,4.2-2.9,7.7-3.2 c6.7-0.6,10.3-0.2,19.8,0.8c0,0-5.2-3-10.8-4.2c0,0-2.5-9.4,1-16.7c0.1,0,0.3,0,0.4-0.1c4.3-0.9,11.8,3.3,11.8,3.3l-1.7-4.5 c7.9,1.2,11.8,10.5,11.8,10.5c-0.2-7.9-5.4-15.8-11.5-22.4c0.9,0.1,1.7,0.3,2.6,0.3c2.2,0.2,4.3,0,6.2-0.3l-2.8-10.8l5.4,10.2 c5.5-1.5,9.9-4.9,13.5-9l-5.8-5.8l7.3,4c2.9-3.8,5.2-8.1,7-12.3l-7.6-3.4l8.5,1.3C141.8,184.5,143,176.2,143,176.2z" clip-path="url(#SVGID_2_)"  fill="#FFFFFF"  /><path d="M83.6,182.1c-4.1,3.1-13.7,19.2-2.1,20.6c-9.2-2.9-0.2-17.5,3.6-20.4 c4.3-3.3,9.2-12.5,9.2-12.5c-0.4,0.4-1.5,1-2.5,1.5C90.2,174.2,86.8,179.7,83.6,182.1z M105.2,219.7c-0.5-0.1-0.9-0.1-1.4-0.2 c0.3,0.3,0.6,0.7,0.9,1c0,0.1,0.1,0.1,0.1,0.2c0.3,0.3,0.6,0.6,0.8,1c0,0.1,0.1,0.1,0.1,0.2c0.3,0.3,0.6,0.7,0.8,1 c0,0,0.1,0.1,0.1,0.1c0.3,0.4,0.6,0.7,0.8,1.1c0,0,0,0,0,0c0.3,0.4,0.5,0.7,0.8,1.1c0,0,0.1,0.1,0.1,0.1c0.3,0.4,0.5,0.7,0.8,1.1 c0,0.1,0.1,0.1,0.1,0.1c0.2,0.4,0.5,0.7,0.7,1.1c0,0,0,0,0.1,0.1c0.2,0.4,0.5,0.7,0.7,1.1c0,0,0,0,0,0.1c0.2,0.4,0.4,0.7,0.6,1.1 c0,0.1,0.1,0.1,0.1,0.2c0.2,0.4,0.4,0.7,0.6,1.1c0,0.1,0.1,0.2,0.1,0.2c0.2,0.3,0.4,0.7,0.5,1.1c0,0.1,0.1,0.1,0.1,0.2 c0.2,0.3,0.3,0.6,0.4,1c0,0.1,0.1,0.2,0.1,0.2c0.1,0.3,0.3,0.7,0.4,1c0,0.1,0.1,0.2,0.1,0.4c0.1,0.3,0.2,0.6,0.3,1 c0,0.1,0.1,0.3,0.1,0.4c0.1,0.3,0.2,0.5,0.2,0.8c0,0.2,0.1,0.3,0.1,0.5c0.1,0.2,0.1,0.5,0.2,0.7c0,0.1,0,0.2,0.1,0.3 c1.3,1.9,2,3.5,2,3.5C116.6,234.6,111.1,226.3,105.2,219.7z M103.4,231.4l1.5,3.9c1.1,0.5,1.8,0.9,1.8,0.9l-1.6-4.5 C104.6,231.7,104,231.5,103.4,231.4z" clip-path="url(#SVGID_2_)"  /><g clip-path="url(#SVGID_2_)" ><defs><path id="SVGID_5_" d="M68.1,143.3c-0.2,0-0.5-0.1-0.7-0.1c-0.4-0.1-0.7-0.1-1-0.1c-10.1-0.9-19,2.3-23.7,4.4l-1.5,3.8 c0,0,28.3-18.5,50,5.2C91.1,156.5,83.2,145.7,68.1,143.3z" />
            
          </defs><clipPath id="SVGID_6_"><use xlink:href="#SVGID_5_" overflow="visible" ></use>
            
          </clipPath><g clip-path="url(#SVGID_6_)" ><defs><rect id="SVGID_7_" x="41.1" y="132.7" width="50" height="23.8" />
              
            </defs><clipPath id="SVGID_8_"><use xlink:href="#SVGID_7_" overflow="visible" ></use>
              
            </clipPath><g clip-path="url(#SVGID_8_)" ><g><defs><rect id="SVGID_9_" x="41.9" y="132.4" width="50" height="23.7" />
                  
                </defs><clipPath id="SVGID_10_"><use xlink:href="#SVGID_9_" overflow="visible" ></use>
                  
                </clipPath><linearGradient id="SVGID_11_" gradientUnits="userSpaceOnUse" x1="678.1566" y1="489.8779" x2="679.1566" y2="489.8779" gradientTransform="matrix(49.9724 0 0 -49.9707 -33847.2656 24628.8965)"><stop offset="0" stop-color="#FFFFFF" ></stop><stop offset="0.3297" stop-color="#C8C8DC" ></stop><stop offset="0.9382" stop-color="#595995" ></stop><stop offset="1" stop-color="#595995" ></stop>
                  
                  
                  
                  
                </linearGradient><rect x="41.9" y="132.4" width="50" height="23.7" clip-path="url(#SVGID_10_)"  fill="url(#SVGID_11_)"  />
                
                
                
                
              </g>
              
            </g>
            
            
            
          </g>
          
          
          
        </g><g clip-path="url(#SVGID_2_)" ><defs><path id="SVGID_12_" d="M141,148.1c-4.8-2.1-14.7-5.7-25.6-4.2c14.6-0.8,26.8,7.2,26.8,7.2L141,148.1z" />
            
          </defs><clipPath id="SVGID_13_"><use xlink:href="#SVGID_12_" overflow="visible" ></use>
            
          </clipPath><g clip-path="url(#SVGID_13_)" ><defs><rect id="SVGID_14_" x="115.4" y="142.4" width="26.8" height="8.7" />
              
            </defs><clipPath id="SVGID_15_"><use xlink:href="#SVGID_14_" overflow="visible" ></use>
              
            </clipPath><g clip-path="url(#SVGID_15_)" ><g><defs><rect id="SVGID_16_" x="115.7" y="143.3" width="26.8" height="8.8" />
                  
                </defs><clipPath id="SVGID_17_"><use xlink:href="#SVGID_16_" overflow="visible" ></use>
                  
                </clipPath><linearGradient id="SVGID_18_" gradientUnits="userSpaceOnUse" x1="678.1566" y1="489.8779" x2="679.1566" y2="489.8779" gradientTransform="matrix(26.8054 0 0 -26.8044 -18062.5313 13279.123)"><stop offset="0" stop-color="#595995" ></stop><stop offset="9.550480e-02" stop-color="#595995" ></stop><stop offset="0.2098" stop-color="#66669D" ></stop><stop offset="0.421" stop-color="#8888B3" ></stop><stop offset="0.7057" stop-color="#BFBFD6" ></stop><stop offset="1" stop-color="#FFFFFF" ></stop>
                  
                  
                  
                  
                  
                  
                </linearGradient><rect x="115.7" y="143.3" width="26.8" height="8.8" clip-path="url(#SVGID_17_)"  fill="url(#SVGID_18_)"  />
                
                
                
                
              </g>
              
            </g>
            
            
            
          </g>
          
          
          
        </g><g clip-path="url(#SVGID_2_)" ><defs><path id="SVGID_19_" d="M40.8,145.8l-1.5,3.4c0,0,16.9-9.9,34.3-4.8C59.7,139.8,46.1,143.7,40.8,145.8z" />
            
          </defs><clipPath id="SVGID_20_"><use xlink:href="#SVGID_19_" overflow="visible" ></use>
            
          </clipPath><g clip-path="url(#SVGID_20_)" ><defs><rect id="SVGID_21_" x="39.3" y="139.4" width="34.3" height="9.9" />
              
            </defs><clipPath id="SVGID_22_"><use xlink:href="#SVGID_21_" overflow="visible" ></use>
              
            </clipPath><g clip-path="url(#SVGID_22_)" ><g><defs><rect id="SVGID_23_" x="38.6" y="138.8" width="34.3" height="9.8" />
                  
                </defs><clipPath id="SVGID_24_"><use xlink:href="#SVGID_23_" overflow="visible" ></use>
                  
                </clipPath><linearGradient id="SVGID_25_" gradientUnits="userSpaceOnUse" x1="678.1566" y1="489.8779" x2="679.1566" y2="489.8779" gradientTransform="matrix(34.2752 0 0 -34.2742 -23205.3008 16935.2949)"><stop offset="0" stop-color="#FFFFFF" ></stop><stop offset="0.3084" stop-color="#D4D3E3" ></stop><stop offset="0.9382" stop-color="#716FA4" ></stop><stop offset="1" stop-color="#716FA4" ></stop>
                  
                  
                  
                  
                </linearGradient><rect x="38.6" y="138.8" width="34.3" height="9.8" clip-path="url(#SVGID_24_)"  fill="url(#SVGID_25_)"  />
                
                
                
                
              </g>
              
            </g>
            
            
            
          </g>
          
          
          
        </g><g clip-path="url(#SVGID_2_)" ><defs><path id="SVGID_26_" d="M105.2,146.5c19.3-8,38.9,3.1,38.9,3.1l-1.3-3.1C137.4,144.3,121.3,139.1,105.2,146.5z" />
            
          </defs><clipPath id="SVGID_27_"><use xlink:href="#SVGID_26_" overflow="visible" ></use>
            
          </clipPath><g clip-path="url(#SVGID_27_)" ><defs><rect id="SVGID_28_" x="105.2" y="138.5" width="38.9" height="11.1" />
              
            </defs><clipPath id="SVGID_29_"><use xlink:href="#SVGID_28_" overflow="visible" ></use>
              
            </clipPath><g clip-path="url(#SVGID_29_)" ><g><defs><rect id="SVGID_30_" x="104.4" y="139.5" width="38.9" height="11" />
                  
                </defs><clipPath id="SVGID_31_"><use xlink:href="#SVGID_30_" overflow="visible" ></use>
                  
                </clipPath><linearGradient id="SVGID_32_" gradientUnits="userSpaceOnUse" x1="678.1566" y1="489.8779" x2="679.1566" y2="489.8779" gradientTransform="matrix(38.8931 0 0 -38.8919 -26271.2207 19199.4141)"><stop offset="0" stop-color="#716FA4" ></stop><stop offset="9.550480e-02" stop-color="#716FA4" ></stop><stop offset="0.2294" stop-color="#7F7DAD" ></stop><stop offset="0.4836" stop-color="#A4A3C5" ></stop><stop offset="0.8286" stop-color="#DFDFEB" ></stop><stop offset="1" stop-color="#FFFFFF" ></stop>
                  
                  
                  
                  
                  
                  
                </linearGradient><rect x="104.4" y="139.5" width="38.9" height="11" clip-path="url(#SVGID_31_)"  fill="url(#SVGID_32_)"  />
                
                
                
                
              </g>
              
            </g>
            
            
            
          </g>
          
          
          
        </g><path d="M91.1,156.3c-18.1-19.8-40.8-10.1-47.8-6.4l-0.7,1.8l1.3,0.9 c0,0,24-17,44.4,4c3.1,3.2,3.4,2.4,5.9,0c23.3-22.2,43.6-4.2,44.4-4.4c0.8-0.2,1.9-0.8,1.9-0.8l-0.6-1.6 c-7.1-3.9-29.8-13.8-48.2,5.7L91.1,156.3z" clip-path="url(#SVGID_2_)"  fill="#945E01"  /><g clip-path="url(#SVGID_2_)" ><defs><path id="SVGID_33_" d="M38.5,147.3c0,0,30.1-15.1,52.7,9.4l1.2-44.3c0,0-21.4-15.7-40.2,0.9L38.5,147.3z" />
            
          </defs><clipPath id="SVGID_34_"><use xlink:href="#SVGID_33_" overflow="visible" ></use>
            
          </clipPath><g clip-path="url(#SVGID_34_)" ><defs><rect id="SVGID_35_" x="38.5" y="96.7" width="53.9" height="60" />
              
            </defs><clipPath id="SVGID_36_"><use xlink:href="#SVGID_35_" overflow="visible" ></use>
              
            </clipPath><g clip-path="url(#SVGID_36_)" ><g><defs><rect id="SVGID_37_" x="39.1" y="96.3" width="53.9" height="60.1" />
                  
                </defs><clipPath id="SVGID_38_"><use xlink:href="#SVGID_37_" overflow="visible" ></use>
                  
                </clipPath><linearGradient id="SVGID_39_" gradientUnits="userSpaceOnUse" x1="678.1566" y1="489.8779" x2="679.1566" y2="489.8779" gradientTransform="matrix(53.9067 0 0 -53.905 -36518.0781 26537.6973)"><stop offset="0" stop-color="#FFFFFF" ></stop><stop offset="0.732" stop-color="#FFFFFF" ></stop><stop offset="0.8073" stop-color="#DBDAE7" ></stop><stop offset="0.9376" stop-color="#A29EC2" ></stop><stop offset="1" stop-color="#8B87B3" ></stop>
                  
                  
                  
                  
                  
                </linearGradient><rect x="39.1" y="96.3" width="53.9" height="60.1" clip-path="url(#SVGID_38_)"  fill="url(#SVGID_39_)"  />
                
                
                
                
              </g>
              
            </g>
            
            
            
          </g>
          
          
          
        </g><g clip-path="url(#SVGID_2_)" ><defs><path id="SVGID_40_" d="M144.7,147.4c0,0-30.3-15.2-53.5,9.4l1.2-44.3c0,0,23.1-16.5,39.3,0.7L144.7,147.4z" />
            
          </defs><clipPath id="SVGID_41_"><use xlink:href="#SVGID_40_" overflow="visible" ></use>
            
          </clipPath><g clip-path="url(#SVGID_41_)" ><defs><rect id="SVGID_42_" x="91.2" y="95.9" width="53.5" height="60.8" />
              
            </defs><clipPath id="SVGID_43_"><use xlink:href="#SVGID_42_" overflow="visible" ></use>
              
            </clipPath><g clip-path="url(#SVGID_43_)" ><g><defs><rect id="SVGID_44_" x="90.8" y="95.9" width="53.5" height="60.8" />
                  
                </defs><clipPath id="SVGID_45_"><use xlink:href="#SVGID_44_" overflow="visible" ></use>
                  
                </clipPath><linearGradient id="SVGID_46_" gradientUnits="userSpaceOnUse" x1="678.1566" y1="489.8779" x2="679.1566" y2="489.8779" gradientTransform="matrix(23.7931 0 0 -23.7923 -16051.6865 11786.3408)"><stop offset="0" stop-color="#716FA4" ></stop><stop offset="9.550480e-02" stop-color="#716FA4" ></stop><stop offset="0.2294" stop-color="#7F7DAD" ></stop><stop offset="0.4836" stop-color="#A4A3C5" ></stop><stop offset="0.8286" stop-color="#DFDFEB" ></stop><stop offset="1" stop-color="#FFFFFF" ></stop>
                  
                  
                  
                  
                  
                  
                </linearGradient><rect x="90.8" y="95.9" width="53.5" height="60.8" clip-path="url(#SVGID_45_)"  fill="url(#SVGID_46_)"  />
                
                
                
                
              </g>
              
            </g>
            
            
            
          </g>
          
          
          
        </g><path d="M57.7,122.7l0.7-0.1c0.8-0.2,1.2-0.7,1.6-2l0.5-0.1c-0.2,0.8-0.3,1.5-0.4,2.3 c-0.1,0.7-0.2,1.5-0.3,2.2l-0.6,0.1c0.1-1.1-0.1-1.8-1.1-1.6l-0.6,0.1l-1,3c-0.3,1.2,0,1.3,1.5,1l-0.1,0.6 c-1,0.2-2.1,0.4-3.3,0.7c-1,0.2-1.6,0.4-3.2,0.6l0.2-0.6c1.6-0.3,1.8-0.9,2.2-2.1l1.7-5.3c0.5-1.5,0.4-2.1-0.9-2l0.2-0.5 c1-0.1,2.5-0.2,3.8-0.5c1.7-0.3,3.2-0.7,4.8-1.2l-0.3,2.8l-0.8,0.1c0-1.9-0.7-1.6-2.5-1.2c-1.2,0.3-1.4,0.3-1.8,1.6L57.7,122.7z" clip-path="url(#SVGID_2_)"  /><path d="M66,119.7c0.3-1.3,0.4-1.9-0.9-1.7l0.2-0.7c0.8-0.1,1.4-0.2,2.3-0.3c1-0.1,1.6-0.3,2.5-0.3 l-0.1,0.7c-1.3,0.2-1.7,0.6-1.8,1.9l-1.3,5.3c-0.3,1.7-0.4,2.1,1,2.1l-0.1,0.7c-0.8,0-1.7,0-2.7,0c-0.8,0-2,0.2-2.9,0.2l0.2-0.7 c1.5-0.2,1.7-0.7,2.1-2.3L66,119.7z" clip-path="url(#SVGID_2_)"  /><path d="M72.3,124.7c-0.2,0.4-0.3,0.7-0.6,1.3c-0.4,0.9,0.5,1,1.1,1.1l-0.1,0.7 c-0.6-0.1-1.2-0.2-1.8-0.2c-0.5,0-1.1,0-1.7-0.1l0.1-0.7c1.2,0,1.9-1.5,2.4-2.6c1.5-3.3,3.5-7.6,3.5-7.6l1.2,0.1 c0,0,1.4,7,1.7,8.5c0.2,1.3,0.3,1.6,0.4,2.2c0.1,0.4,0.6,0.9,1,1l-0.1,0.7c-0.9-0.3-1.4-0.4-2.3-0.6c-0.7-0.2-1.5-0.3-2.5-0.4 l0.1-0.7c0.5,0.1,1.4,0,1.3-0.8c0-0.3-0.1-1.1-0.2-1.4l-0.2-0.7c0,0-0.8-0.2-1.6-0.3c-0.8-0.1-1.5-0.1-1.5-0.1L72.3,124.7z M74.2,123.3c0.8,0.1,1.4,0.2,1.4,0.2l-0.8-4l-1.8,3.8C73,123.2,73.5,123.3,74.2,123.3z" clip-path="url(#SVGID_2_)"  /><path d="M87.1,124.2l-0.6-0.2c0-1.5,0.1-2.9-0.8-3.3c-0.8-0.4-1,0-1.1,1.4l-0.6,5.8 c-0.2,1.6,0,2.2,1.1,2.9l-0.1,0.7c-0.9-0.5-1.7-0.8-2.4-1.1c-0.8-0.3-1.6-0.6-2.5-0.9l0.1-0.6c1.4,0.4,1.5-0.1,1.6-1.7l0.7-5.8 c0.1-1.3,0.3-1.9-0.6-2.2c-1.1-0.4-1.3,0.7-1.6,2.2l-0.6-0.2l0.4-3.4c0,0,2.2,0.5,4,1.3c1.9,0.8,3.3,1.8,3.3,1.8L87.1,124.2z" clip-path="url(#SVGID_2_)"  /><path d="M100.6,131.4c1.3-0.8,1.2-1.3,1.2-2.8l-0.3-5.9c-0.1-1.5,0-2.3-1.4-1.7l0-0.7 c0.9-0.4,1.4-0.7,2.1-0.9c0.9-0.3,1.8-0.6,2.8-0.9l0,0.8c-1.3,0.4-1.2,1.2-1.1,2.6l0.3,4.8c0.1,1.8,0.3,2.8,1.9,2.3 c2.1-0.7,2.9-1.5,3.1-3.7l0.6-0.1l0.1,3.6c-2.8,0.6-5.8,1.7-6.6,2c-0.8,0.4-1.7,0.8-2.5,1.2L100.6,131.4z" clip-path="url(#SVGID_2_)"  /><path d="M108.8,118.1c1.2-0.1,2-0.1,2.7-0.1c0.8,0,1.6,0,2.7,0l0.1,0.6c-1.3,0-1.3,0.9-1.2,2.4 l0.3,2.8c0.2,2.3,1,3.6,3,3.5c2.2-0.1,2.1-1.2,1.9-3.4l-0.3-2.4c-0.1-0.6-0.2-1.5-0.5-2c-0.3-0.5-0.7-0.7-1.2-0.8l-0.1-0.6 c0.6,0,1.2,0.1,1.7,0.2c0.6,0.1,0.9,0.1,1.6,0.1l0.1,0.6c-0.4,0-0.8,0.3-0.9,0.8c-0.2,0.6,0,1.3,0.1,2l0.2,1.6 c0.4,3.2,0.7,4.9-3.1,5c-2.4,0.1-4.9-0.9-5.2-4.6l-0.3-3c-0.2-1.5-0.2-2.2-1.5-2.2L108.8,118.1z" clip-path="url(#SVGID_2_)"  /><path d="M129.7,128.7c0.5,0.7,1,1.3,1.7,1.4l0.1,0.6c-1-0.2-1.5-0.3-2.5-0.4 c-0.8-0.1-1.6-0.2-2.5-0.4l-0.1-0.6c0.1,0,0.7,0,0.8,0c0.1-0.1,0.2-0.2,0.2-0.4c0-0.3-0.6-1.1-0.8-1.4l-1.4-2.1l-0.8,1.2 c-0.2,0.4-0.7,1.1-0.6,1.6c0.1,0.7,0.6,0.8,1.1,0.9l0.1,0.6c-0.8-0.1-1.3-0.3-1.9-0.4c-0.6-0.1-1.1-0.2-1.6-0.3l0-0.7 c0.8,0.1,1.2-0.6,1.7-1.2l1.7-2.6l-2-3c-0.2-0.4-0.5-0.8-0.7-1.1c-0.3-0.5-0.6-0.5-1-0.8l0-0.7c0.7,0.2,1.4,0.4,2.2,0.5 c0.8,0.1,1.5,0.2,2.2,0.3l0.1,0.7c-0.4,0-0.9-0.1-0.9,0.4c0,0.4,0.1,0.5,0.4,0.9l0.9,1.3l0.6-0.9c0.2-0.3,0.4-0.5,0.6-0.9 c0.3-0.4-0.4-0.8-1-0.9l0-0.7c0.6,0.1,1,0.1,1.5,0.2c0.5,0,0.9,0,1.3,0l0.2,0.7c-0.7,0-1,0.5-1.5,1.2l-1.3,1.9L129.7,128.7z" clip-path="url(#SVGID_2_)"  />
        
        
        
        
        
        
        
        
        
        
        
        
        
        
        
        
        
        
        
        
        
        
        
        
        
        
        
        
        
        
        
        
        
        
        
        
        
        
        
        
        
        
        
        
        
        
        
        
        
        
      </g>
      
    </g>
    
  </g></svg>