<svg width="1221.6" height="283.5" viewBox="0 0 1221.6 283.5" role="img" focusable="false" aria-labelledby="dolfin--title" xmlns="http://www.w3.org/2000/svg" xmlns:xlink="http://www.w3.org/1999/xlink"><title id="dolfin--title">DOLFIN</title><path d="M130.5,127.5c-8.6-7.8-18.5-14.2-29.7-18.5c-11.2-4.3-24.1-6.9-37.5-6.9H0v178.8h62.9  c13.4,0,25.8-2.2,37.5-6.9c11.6-4.3,21.5-10.8,29.7-18.5c8.2-7.8,15.1-17.2,19.8-28.4c4.7-10.8,7.3-22.8,7.3-35.3  c0-12.9-2.6-24.6-7.3-35.8C145.6,144.7,138.7,135.3,130.5,127.5z M124.5,217.1c-3.4,7.8-8.2,14.6-13.8,20.7  c-6,6-12.9,10.3-21.1,13.8c-8.2,3.4-16.8,5.2-25.8,5.2h-37V126.2h36.6c9,0,17.7,1.7,25.8,5.2s15.1,7.8,21.1,13.8  c6,6,10.3,12.9,13.8,21.1c3.4,8.2,5.2,16.8,5.2,25.8C129.7,200.8,127.9,209.4,124.5,217.1z" fill="#67B0E2"  /><polygon points="420.5,102.1 393.7,102.1 393.7,280.9 523.4,280.9 523.4,257.2 420.5,257.2" fill="#67B0E2"  /><rect x="708.7" y="102.1" width="26.7" height="178.8" fill="#67B0E2"  /><polygon points="897.8,102.1 897.8,234.4 798.3,102.1 772,102.1 772,280.9 797.4,280.9 797.4,143.9 899.5,280.9 923.2,280.9 923.2,102.1" fill="#67B0E2"  /><g><path d="M1143.3,45.2c3,7.3,5.2,15.1,7.8,22.8c0.9,2.6,1.3,5.6,2.6,7.8c3,5.2,10.8,9.5,16.4,14.2   c12.9,12.1,20.2,21.5,28.9,33.6c4.3,5.6,8.2,11.6,11.2,17.2c2.6,4.7,4.3,11.6,6,17.7c3,9.9,4.3,17.7,5.2,26.7   c1.3,15.5-2.2,29.3-5.6,44.8c-1.3,6.9-3.9,16.8-8.6,22c-2.2,9.5-0.4,18.5-7.8,28c-6.9,3-7.3-6.5-8.6-10.8   c-1.3-3.9-2.2-8.2-3.4-10.8c-7.8-14.6-28.4-25.4-36.2-39.6c-3-5.2-3.9-10.8-6.9-15.5c-2.6-4.7-7.3-5.6-11.2-7.3   c-2.2-0.9-4.3-1.3-6.5-1.7c-12.9-3.4-25.8-6.9-38.3-16.4c-10.3-7.3-15.1-17.7-20.7-26.3c-1.3-2.2-3.9-4.3-3.4-7.3   c7.3,4.3,14.2,6.9,22.8,10.3c11.2,4.3,19.4,8.6,29.3,4.7c-2.6-4.3-7.3-7.8-11.6-10.8c-4.7-3-9.5-6.5-13.8-9.9   c-19-13.4-36.2-20.7-54.7-26.7c-9-3-19-4.3-27.6-5.6c-17.7-3-35.3-3-53.8-1.7c-8.2,0.9-17.2,3-26.7,3.9c-4.3,0.4-8.6,1.3-13.4,2.2   c-4.3,0.9-10.8,1.3-13.4,3.4c-3,2.2-4.7,6.5-6.9,9.9c-3.9,6-8.6,12.5-13.8,17.2c-7.3,6-15.1,11.2-22.8,13.4c0-2.6,1.7-5.2,3-7.8   c1.3-7.3,1.3-15.9,8.6-23.3c-13.4-3.9-29.7-21.1-39.6-31.4c-3-3-6.5-5.6-7.8-9.5c8.6,2.2,16.8,1.7,25.4,2.2   c13.4,0.4,24.6,0.9,38.3,7.8c4.3,2.2,8.6,5.6,12.9,5.2c3,0,6.9-3.4,11.2-6c11.2-7.3,23.3-14.2,33.2-19.8   c29.7-16.4,60.7-26.7,90-29.3c15.1-1.3,29.7,0.4,46.1,1.7c3.9-0.9,10.3-1.7,14.6-4.7c4.7-3.4,6.9-8.2,7.3-12.9   c-0.9-9-8.6-17.2-6-26.7c7.8,0.9,14.2,5.6,20.2,10.3C1127.8,20.2,1137.7,32.3,1143.3,45.2" fill="#216092"  />
	
</g><path d="M923.2,146.5c-35.3,8.2-59,25-80.1,40.5c-28.4,20.2-54.7,39.6-109,39.6s-80.6-19.4-109-39.6  c-29.3-21.1-62.9-45.2-126.2-45.2s-96.9,24.1-126.2,45.2c-28.4,20.2-54.7,39.6-109,39.6s-80.6-19.4-109-39.6  c-29.3-21.1-62.9-45.2-126.2-45.2v29.7c53.8,0,80.6,19.4,109,39.6c29.3,21.1,62.9,45.2,126.2,45.2s96.9-24.1,126.2-45.2  c28.4-20.2,54.7-39.6,109-39.6s80.6,19.4,109,39.6c29.3,21.1,62.9,45.2,126.2,45.2c63.8,0,96.9-24.1,126.2-45.2  c19-13.8,37-26.7,62.9-34L923.2,146.5L923.2,146.5z" fill="#FFFFFF"  /><path d="M364.9,191.3c0,12.9-2.6,25-7.3,36.2c-4.7,11.2-11.6,21.1-19.8,29.3c-8.2,8.2-18.1,14.6-29.7,19.4  c-11.6,4.7-23.7,7.3-36.6,7.3s-25-2.6-36.6-7.3s-21.1-11.2-29.3-19.4c-8.2-8.2-14.6-18.1-19.8-29.3c-4.7-11.2-7.3-23.3-7.3-36.2  c0-12.9,2.6-25,7.3-36.2c4.7-11.2,11.6-21.1,19.8-29.3c8.2-8.2,18.1-14.6,29.3-19.4c11.6-4.7,23.7-7.3,36.6-7.3s25,2.6,36.6,7.3  c11.6,4.7,21.1,11.2,29.7,19.4c8.2,8.2,15.1,18.1,19.8,29.3C362.7,166.7,364.9,178.4,364.9,191.3z M337.7,191.3  c0-9.5-1.7-18.5-5.2-26.7c-3.4-8.2-8.2-15.5-13.8-21.5c-6-6-12.9-10.8-21.1-14.2c-8.2-3.4-16.8-5.2-25.8-5.2c-9,0-17.7,1.7-25.8,5.2  c-8.2,3.4-15.1,8.2-20.7,14.2c-6,6-10.3,13.4-13.8,21.5c-3.4,8.2-5.2,17.2-5.2,26.7s1.7,18.5,5.2,26.7c3.4,8.2,8.2,15.5,13.8,21.5  c6,6,12.9,10.8,20.7,14.2c8.2,3.4,16.8,5.2,25.8,5.2c9,0,17.7-1.7,25.8-5.2c8.2-3.4,15.1-8.2,21.1-14.2c6-6,10.3-12.9,13.8-21.5  C336,209.8,337.7,200.8,337.7,191.3z" fill="#216092"  /><polygon points="550.6,280.9 577.3,280.9 577.3,203.3 646.6,203.3 646.6,180.5 577.3,180.5 577.3,125.4 682.4,125.4 682.4,102.1 550.6,102.1" fill="#67B0E2"  /></svg>