<svg width="969.23" height="283.46" viewBox="0 0 969.23 283.46" role="img" focusable="false" aria-labelledby="express--title" xmlns="http://www.w3.org/2000/svg" xmlns:xlink="http://www.w3.org/1999/xlink"><title id="express--title">EXPRESS - Expressing in prematurity - Simple interventions</title><g><circle cx="134.73" cy="180.51" r="19.15" fill="#5E6DB1"  /><g><path d="M134.73,231.75c-28.25,0-51.24-22.99-51.24-51.24s22.99-51.24,51.24-51.24 c28.25,0,51.24,22.99,51.24,51.24S162.99,231.75,134.73,231.75z M134.73,147.13c-18.41,0-33.38,14.98-33.38,33.38 s14.98,33.38,33.38,33.38s33.38-14.98,33.38-33.38S153.14,147.13,134.73,147.13z" fill="#5E6DB1"  />
      
    </g><g><path d="M133,267.82c-73.34,0-133-59.66-133-133s59.67-133,133-133h23.94c4.93,0,8.93,4,8.93,8.93 s-4,8.93-8.93,8.93H133c-63.49,0-115.15,51.65-115.15,115.15c0,63.49,51.65,115.15,115.15,115.15c4.93,0,8.93,4,8.93,8.93 C141.93,263.82,137.93,267.82,133,267.82z" fill="#5E6DB1"  />
      
    </g><g><path d="M229.9,207.44c-0.52-0.52-0.78-1.22-0.78-2.11v-34.91c0-0.88,0.26-1.59,0.78-2.11 c0.52-0.52,1.24-0.78,2.16-0.78h21.24c0.88,0,1.57,0.21,2.05,0.63c0.48,0.42,0.72,1.02,0.72,1.79c0,0.77-0.24,1.36-0.72,1.76 c-0.48,0.4-1.16,0.61-2.05,0.61h-18.35v12.81h17.2c0.88,0,1.57,0.21,2.05,0.64c0.48,0.42,0.72,1.02,0.72,1.79 c0,0.77-0.24,1.37-0.72,1.79c-0.48,0.42-1.16,0.63-2.05,0.63h-17.2v13.45h18.35c1.85,0,2.77,0.79,2.77,2.37 c0,0.77-0.24,1.37-0.72,1.79c-0.48,0.42-1.16,0.63-2.05,0.63h-21.24C231.14,208.21,230.42,207.95,229.9,207.44z" fill="#8B8179"  /><path d="M293.98,205.73c0,0.73-0.29,1.38-0.87,1.93c-0.58,0.56-1.23,0.84-1.96,0.84c-0.81,0-1.5-0.35-2.08-1.04 l-12.52-15.75l-12.58,15.75c-0.58,0.69-1.25,1.04-2.02,1.04c-0.73,0-1.38-0.28-1.96-0.84c-0.58-0.56-0.87-1.2-0.87-1.93 c0-0.61,0.23-1.21,0.69-1.79l13.27-16.45l-12.64-15.7c-0.46-0.5-0.69-1.1-0.69-1.79c0-0.73,0.28-1.37,0.84-1.93 c0.56-0.56,1.2-0.84,1.93-0.84c0.81,0,1.5,0.35,2.08,1.04l11.95,15.06l11.95-15.06c0.54-0.69,1.23-1.04,2.08-1.04 c0.73,0,1.38,0.28,1.96,0.84c0.58,0.56,0.87,1.2,0.87,1.93c0,0.66-0.25,1.25-0.75,1.79l-12.64,15.7l13.22,16.45 C293.73,204.48,293.98,205.08,293.98,205.73z" fill="#8B8179"  /><path d="M321.08,181.21c1.9,1.23,3.39,2.96,4.44,5.19c1.06,2.23,1.59,4.81,1.59,7.73c0,2.89-0.52,5.43-1.56,7.62 c-1.04,2.19-2.51,3.89-4.41,5.08c-1.9,1.19-4.09,1.79-6.55,1.79c-2.12,0-3.98-0.45-5.6-1.36c-1.62-0.9-2.85-2.2-3.69-3.9v12.87 c0,0.81-0.26,1.45-0.78,1.93c-0.52,0.48-1.2,0.72-2.05,0.72c-0.89,0-1.61-0.25-2.16-0.75c-0.56-0.5-0.84-1.17-0.84-2.02V182.3 c0-0.85,0.27-1.53,0.81-2.05c0.54-0.52,1.25-0.78,2.13-0.78c0.85,0,1.54,0.26,2.08,0.78c0.54,0.52,0.81,1.2,0.81,2.05v2.37 c0.85-1.69,2.08-3,3.69-3.92c1.62-0.92,3.48-1.38,5.6-1.38C317.01,179.36,319.17,179.98,321.08,181.21z M319.09,201.43 c1.38-1.71,2.08-4.15,2.08-7.3c0-3.19-0.7-5.67-2.11-7.44c-1.4-1.77-3.36-2.65-5.86-2.65c-2.54,0-4.49,0.87-5.86,2.6 c-1.37,1.73-2.05,4.19-2.05,7.39c0,3.19,0.68,5.66,2.05,7.39c1.37,1.73,3.32,2.6,5.86,2.6C315.74,204,317.7,203.15,319.09,201.43z" fill="#8B8179"  /><path d="M351.12,181.84c0,0.85-0.21,1.48-0.63,1.9c-0.42,0.42-1.15,0.67-2.19,0.75l-1.73,0.17 c-2.42,0.23-4.22,1.08-5.4,2.54c-1.17,1.46-1.76,3.23-1.76,5.31v13.21c0,0.92-0.27,1.62-0.81,2.08c-0.54,0.46-1.23,0.69-2.08,0.69 c-0.85,0-1.55-0.23-2.11-0.69c-0.56-0.46-0.84-1.15-0.84-2.08v-23.49c0-0.88,0.28-1.57,0.84-2.05c0.56-0.48,1.26-0.72,2.11-0.72 c0.77,0,1.41,0.24,1.93,0.72c0.52,0.48,0.78,1.15,0.78,1.99v2.77c0.77-1.69,1.88-2.98,3.35-3.87c1.46-0.88,3.12-1.4,4.96-1.56 l0.81-0.06C350.19,179.36,351.12,180.15,351.12,181.84z" fill="#8B8179"  /><path d="M377.49,201.75c0.35,0.42,0.52,0.96,0.52,1.62c0,1.12-0.69,2.06-2.08,2.83c-1.35,0.77-2.82,1.37-4.41,1.79 c-1.6,0.42-3.13,0.64-4.59,0.64c-4.46,0-7.98-1.3-10.56-3.9c-2.58-2.6-3.87-6.15-3.87-10.65c0-2.88,0.57-5.44,1.7-7.68 c1.13-2.23,2.73-3.96,4.79-5.19c2.06-1.23,4.39-1.85,7.01-1.85c3.77,0,6.75,1.21,8.94,3.64c2.19,2.42,3.29,5.69,3.29,9.81 c0,1.54-0.69,2.31-2.08,2.31h-17.83c0.38,5.96,3.25,8.94,8.6,8.94c1.42,0,2.65-0.19,3.69-0.58c1.04-0.38,2.14-0.88,3.29-1.5 c0.12-0.08,0.43-0.24,0.95-0.49c0.52-0.25,0.95-0.37,1.3-0.37C376.7,201.12,377.14,201.33,377.49,201.75z M360.75,185.77 c-1.35,1.42-2.16,3.42-2.42,6h14.89c-0.12-2.62-0.78-4.63-1.99-6.03c-1.21-1.4-2.91-2.11-5.11-2.11 C363.89,183.63,362.1,184.34,360.75,185.77z" fill="#8B8179"  /><path d="M384.82,206.19c-0.69-0.42-1.18-0.86-1.47-1.33c-0.29-0.46-0.43-0.98-0.43-1.56 c0-0.61,0.17-1.13,0.52-1.56c0.35-0.42,0.79-0.63,1.33-0.63c0.5,0,1.29,0.31,2.37,0.92c1.15,0.62,2.28,1.12,3.38,1.5 c1.1,0.38,2.47,0.58,4.13,0.58c1.85,0,3.29-0.33,4.33-0.98c1.04-0.65,1.56-1.58,1.56-2.77c0-0.77-0.2-1.38-0.61-1.85 c-0.4-0.46-1.11-0.87-2.11-1.24c-1-0.37-2.48-0.76-4.44-1.18c-3.39-0.73-5.82-1.72-7.3-2.97c-1.48-1.25-2.22-2.95-2.22-5.11 c0-1.65,0.48-3.15,1.44-4.47c0.96-1.33,2.29-2.36,3.98-3.09c1.69-0.73,3.62-1.1,5.77-1.1c1.54,0,3.04,0.2,4.5,0.61 c1.46,0.4,2.75,0.99,3.87,1.76c1.27,0.85,1.9,1.83,1.9,2.94c0,0.62-0.18,1.14-0.55,1.56c-0.37,0.42-0.8,0.63-1.3,0.63 c-0.35,0-0.69-0.08-1.04-0.23s-0.81-0.4-1.38-0.75c-1.04-0.62-2.01-1.1-2.91-1.44c-0.9-0.35-2.03-0.52-3.38-0.52 c-1.62,0-2.91,0.35-3.9,1.04c-0.98,0.69-1.47,1.64-1.47,2.83c0,1.08,0.45,1.91,1.36,2.51c0.9,0.6,2.61,1.16,5.11,1.7 c2.58,0.54,4.6,1.15,6.06,1.85c1.46,0.69,2.51,1.55,3.15,2.57c0.63,1.02,0.95,2.32,0.95,3.9c0,2.5-1.05,4.51-3.15,6.03 c-2.1,1.52-4.9,2.28-8.4,2.28C390.53,208.62,387.32,207.81,384.82,206.19z" fill="#8B8179"  /><path d="M412.63,206.19c-0.69-0.42-1.18-0.86-1.47-1.33c-0.29-0.46-0.43-0.98-0.43-1.56 c0-0.61,0.17-1.13,0.52-1.56c0.35-0.42,0.79-0.63,1.33-0.63c0.5,0,1.29,0.31,2.37,0.92c1.15,0.62,2.28,1.12,3.38,1.5 c1.1,0.38,2.47,0.58,4.13,0.58c1.85,0,3.29-0.33,4.33-0.98c1.04-0.65,1.56-1.58,1.56-2.77c0-0.77-0.2-1.38-0.61-1.85 c-0.4-0.46-1.11-0.87-2.11-1.24c-1-0.37-2.48-0.76-4.44-1.18c-3.39-0.73-5.82-1.72-7.3-2.97c-1.48-1.25-2.22-2.95-2.22-5.11 c0-1.65,0.48-3.15,1.44-4.47c0.96-1.33,2.29-2.36,3.98-3.09c1.69-0.73,3.62-1.1,5.77-1.1c1.54,0,3.04,0.2,4.5,0.61 c1.46,0.4,2.75,0.99,3.87,1.76c1.27,0.85,1.9,1.83,1.9,2.94c0,0.62-0.18,1.14-0.55,1.56c-0.37,0.42-0.8,0.63-1.3,0.63 c-0.35,0-0.69-0.08-1.04-0.23s-0.81-0.4-1.38-0.75c-1.04-0.62-2.01-1.1-2.91-1.44c-0.9-0.35-2.03-0.52-3.38-0.52 c-1.62,0-2.91,0.35-3.9,1.04c-0.98,0.69-1.47,1.64-1.47,2.83c0,1.08,0.45,1.91,1.36,2.51c0.9,0.6,2.61,1.16,5.11,1.7 c2.58,0.54,4.6,1.15,6.06,1.85c1.46,0.69,2.51,1.55,3.15,2.57c0.63,1.02,0.95,2.32,0.95,3.9c0,2.5-1.05,4.51-3.15,6.03 c-2.1,1.52-4.9,2.28-8.4,2.28C418.35,208.62,415.13,207.81,412.63,206.19z" fill="#8B8179"  /><path d="M440.56,172.9c-0.65-0.62-0.98-1.42-0.98-2.42c0-1,0.33-1.8,0.98-2.4c0.65-0.6,1.54-0.89,2.65-0.89 c1.08,0,1.95,0.3,2.63,0.89c0.67,0.6,1.01,1.4,1.01,2.4c0,1-0.33,1.81-0.98,2.42c-0.65,0.62-1.54,0.92-2.65,0.92 C442.1,173.82,441.22,173.51,440.56,172.9z M441.11,207.81c-0.56-0.46-0.84-1.15-0.84-2.08V182.3c0-0.92,0.28-1.62,0.84-2.11 c0.56-0.48,1.26-0.72,2.11-0.72c0.85,0,1.54,0.24,2.08,0.72c0.54,0.48,0.81,1.18,0.81,2.11v23.43c0,0.92-0.27,1.62-0.81,2.08 c-0.54,0.46-1.23,0.69-2.08,0.69C442.37,208.5,441.67,208.27,441.11,207.81z" fill="#8B8179"  /><path d="M479.52,190.73v15c0,0.89-0.26,1.57-0.78,2.05c-0.52,0.48-1.24,0.72-2.16,0.72 c-0.89,0-1.59-0.25-2.11-0.75c-0.52-0.5-0.78-1.17-0.78-2.02v-14.72c0-2.38-0.47-4.13-1.41-5.25c-0.94-1.12-2.41-1.67-4.41-1.67 c-2.35,0-4.23,0.73-5.66,2.19c-1.42,1.46-2.14,3.42-2.14,5.89v13.56c0,0.85-0.26,1.52-0.78,2.02c-0.52,0.5-1.22,0.75-2.11,0.75 c-0.89,0-1.6-0.25-2.13-0.75c-0.54-0.5-0.81-1.17-0.81-2.02v-23.49c0-0.81,0.28-1.47,0.84-1.99c0.56-0.52,1.26-0.78,2.11-0.78 c0.85,0,1.52,0.25,2.02,0.75c0.5,0.5,0.75,1.15,0.75,1.96v2.37c0.92-1.69,2.21-2.98,3.87-3.87c1.65-0.88,3.52-1.33,5.6-1.33 C476.15,179.36,479.52,183.15,479.52,190.73z" fill="#8B8179"  /><path d="M512.9,180.25c0.52,0.52,0.78,1.2,0.78,2.05v23.66c0,4.31-1.15,7.56-3.43,9.75 c-2.29,2.19-5.67,3.29-10.13,3.29c-4.15,0-7.62-0.79-10.39-2.37c-1.42-0.81-2.13-1.77-2.13-2.89c0-0.65,0.18-1.19,0.55-1.62 c0.37-0.42,0.82-0.64,1.36-0.64c0.5,0,1.29,0.29,2.37,0.87c1.38,0.65,2.67,1.16,3.87,1.53c1.19,0.37,2.62,0.55,4.27,0.55 c5.31,0,7.96-2.67,7.96-8.02v-4.44c-0.81,1.69-2.04,3.01-3.69,3.95c-1.65,0.94-3.58,1.41-5.77,1.41c-2.46,0-4.66-0.58-6.58-1.73 c-1.92-1.15-3.41-2.79-4.47-4.91c-1.06-2.12-1.59-4.56-1.59-7.33c0-2.77,0.54-5.21,1.62-7.33c1.08-2.12,2.57-3.76,4.47-4.93 c1.9-1.17,4.09-1.76,6.55-1.76c2.15,0,4.05,0.46,5.68,1.38c1.64,0.92,2.88,2.23,3.72,3.92v-2.42c0-0.85,0.26-1.52,0.78-2.02 c0.52-0.5,1.22-0.75,2.11-0.75C511.68,179.47,512.38,179.73,512.9,180.25z M505.77,200.25c1.42-1.65,2.14-3.94,2.14-6.87 c0-2.89-0.7-5.16-2.11-6.84c-1.4-1.67-3.38-2.51-5.92-2.51s-4.53,0.83-5.97,2.48c-1.44,1.65-2.16,3.94-2.16,6.87 s0.73,5.21,2.19,6.87c1.46,1.65,3.44,2.48,5.94,2.48C502.39,202.73,504.35,201.9,505.77,200.25z" fill="#8B8179"  /><path d="M537.34,172.9c-0.66-0.62-0.98-1.42-0.98-2.42c0-1,0.33-1.8,0.98-2.4c0.65-0.6,1.54-0.89,2.65-0.89 c1.08,0,1.95,0.3,2.63,0.89c0.67,0.6,1.01,1.4,1.01,2.4c0,1-0.33,1.81-0.98,2.42c-0.66,0.62-1.54,0.92-2.65,0.92 C538.88,173.82,537.99,173.51,537.34,172.9z M537.89,207.81c-0.56-0.46-0.84-1.15-0.84-2.08V182.3c0-0.92,0.28-1.62,0.84-2.11 c0.56-0.48,1.26-0.72,2.11-0.72c0.85,0,1.54,0.24,2.08,0.72c0.54,0.48,0.81,1.18,0.81,2.11v23.43c0,0.92-0.27,1.62-0.81,2.08 c-0.54,0.46-1.23,0.69-2.08,0.69C539.15,208.5,538.45,208.27,537.89,207.81z" fill="#8B8179"  /><path d="M576.29,190.73v15c0,0.89-0.26,1.57-0.78,2.05c-0.52,0.48-1.24,0.72-2.16,0.72 c-0.89,0-1.59-0.25-2.11-0.75c-0.52-0.5-0.78-1.17-0.78-2.02v-14.72c0-2.38-0.47-4.13-1.41-5.25c-0.94-1.12-2.41-1.67-4.41-1.67 c-2.35,0-4.23,0.73-5.66,2.19c-1.42,1.46-2.14,3.42-2.14,5.89v13.56c0,0.85-0.26,1.52-0.78,2.02c-0.52,0.5-1.22,0.75-2.11,0.75 c-0.89,0-1.6-0.25-2.14-0.75c-0.54-0.5-0.81-1.17-0.81-2.02v-23.49c0-0.81,0.28-1.47,0.84-1.99c0.56-0.52,1.26-0.78,2.11-0.78 c0.85,0,1.52,0.25,2.02,0.75c0.5,0.5,0.75,1.15,0.75,1.96v2.37c0.92-1.69,2.21-2.98,3.87-3.87c1.65-0.88,3.52-1.33,5.6-1.33 C572.93,179.36,576.29,183.15,576.29,190.73z" fill="#8B8179"  /><path d="M600.99,207.69c-0.54-0.54-0.81-1.27-0.81-2.19v-35.09c0-0.88,0.26-1.59,0.78-2.11 c0.52-0.52,1.24-0.78,2.16-0.78h13.91c4.31,0,7.66,1.06,10.04,3.17c2.38,2.12,3.58,5.12,3.58,9c0,3.85-1.19,6.85-3.58,9 c-2.39,2.16-5.73,3.23-10.04,3.23h-10.91v13.56c0,0.92-0.26,1.65-0.78,2.19c-0.52,0.54-1.26,0.81-2.22,0.81 C602.24,208.5,601.53,208.23,600.99,207.69z M616.4,187.15c5.69,0,8.54-2.48,8.54-7.44c0-4.92-2.85-7.39-8.54-7.39h-10.27v14.83 H616.4z" fill="#8B8179"  /><path d="M670.07,206.14c0,0.69-0.28,1.28-0.84,1.76c-0.56,0.48-1.2,0.72-1.93,0.72c-1.08,0-1.94-0.48-2.6-1.44 l-7.73-12c-0.89-1.38-1.83-2.36-2.83-2.91c-1-0.56-2.31-0.84-3.92-0.84h-6.52v14.08c0,0.92-0.26,1.65-0.78,2.19 c-0.52,0.54-1.24,0.81-2.16,0.81c-0.89,0-1.6-0.27-2.14-0.81c-0.54-0.54-0.81-1.27-0.81-2.19v-35.09c0-0.88,0.26-1.59,0.78-2.11 c0.52-0.52,1.24-0.78,2.16-0.78h14.37c4.5,0,7.94,1,10.3,3c2.37,2,3.55,4.93,3.55,8.77c0,3.19-0.9,5.78-2.71,7.76 c-1.81,1.98-4.39,3.24-7.73,3.78c1,0.27,1.9,0.75,2.71,1.44c0.81,0.69,1.6,1.65,2.37,2.89l5.94,9.35 C669.9,205.02,670.07,205.56,670.07,206.14z M654.43,186.63c3,0,5.22-0.59,6.66-1.76c1.44-1.17,2.16-2.99,2.16-5.45 c0-2.46-0.71-4.26-2.14-5.4c-1.42-1.13-3.66-1.7-6.69-1.7h-10.79v14.31H654.43z" fill="#8B8179"  /><path d="M678.41,207.44c-0.52-0.52-0.78-1.22-0.78-2.11v-34.91c0-0.88,0.26-1.59,0.78-2.11 c0.52-0.52,1.24-0.78,2.16-0.78h21.24c0.88,0,1.57,0.21,2.05,0.63c0.48,0.42,0.72,1.02,0.72,1.79c0,0.77-0.24,1.36-0.72,1.76 c-0.48,0.4-1.16,0.61-2.05,0.61h-18.35v12.81h17.2c0.88,0,1.57,0.21,2.05,0.64c0.48,0.42,0.72,1.02,0.72,1.79 c0,0.77-0.24,1.37-0.72,1.79s-1.16,0.63-2.05,0.63h-17.2v13.45h18.35c1.85,0,2.77,0.79,2.77,2.37c0,0.77-0.24,1.37-0.72,1.79 c-0.48,0.42-1.16,0.63-2.05,0.63h-21.24C679.65,208.21,678.93,207.95,678.41,207.44z" fill="#8B8179"  /><path d="M752.48,190.73v15c0,0.89-0.27,1.57-0.81,2.05c-0.54,0.48-1.25,0.72-2.14,0.72 c-0.85,0-1.54-0.24-2.08-0.72c-0.54-0.48-0.81-1.16-0.81-2.05v-14.95c0-2.35-0.42-4.05-1.27-5.11c-0.85-1.06-2.17-1.59-3.98-1.59 c-2.12,0-3.79,0.72-5.02,2.16c-1.23,1.44-1.85,3.41-1.85,5.92v13.56c0,0.89-0.27,1.57-0.81,2.05c-0.54,0.48-1.25,0.72-2.14,0.72 c-0.85,0-1.54-0.24-2.08-0.72c-0.54-0.48-0.81-1.16-0.81-2.05v-14.95c0-2.35-0.42-4.05-1.27-5.11c-0.85-1.06-2.17-1.59-3.98-1.59 c-2.12,0-3.8,0.72-5.05,2.16c-1.25,1.44-1.88,3.41-1.88,5.92v13.56c0,0.89-0.27,1.57-0.81,2.05c-0.54,0.48-1.23,0.72-2.08,0.72 c-0.85,0-1.55-0.24-2.11-0.72c-0.56-0.48-0.84-1.16-0.84-2.05v-23.49c0-0.85,0.29-1.52,0.87-2.02c0.58-0.5,1.27-0.75,2.08-0.75 c0.81,0,1.47,0.24,1.99,0.72c0.52,0.48,0.78,1.15,0.78,1.99v2.13c0.85-1.62,2.02-2.85,3.52-3.69c1.5-0.85,3.23-1.27,5.19-1.27 c2.15,0,3.93,0.44,5.34,1.33c1.4,0.89,2.45,2.25,3.15,4.1c0.84-1.65,2.1-2.97,3.75-3.95c1.65-0.98,3.54-1.47,5.66-1.47 C749.32,179.36,752.48,183.15,752.48,190.73z" fill="#8B8179"  /><path d="M780.61,182.19c1.83,1.89,2.74,4.75,2.74,8.6v14.95c0,0.89-0.25,1.57-0.75,2.05 c-0.5,0.48-1.19,0.72-2.08,0.72c-0.85,0-1.52-0.25-2.02-0.75c-0.5-0.5-0.75-1.17-0.75-2.02v-2.13c-0.73,1.62-1.82,2.86-3.26,3.72 c-1.44,0.87-3.13,1.3-5.05,1.3c-1.85,0-3.54-0.37-5.08-1.13c-1.54-0.75-2.74-1.8-3.61-3.15c-0.87-1.35-1.3-2.85-1.3-4.5 c0-2.04,0.53-3.64,1.59-4.82c1.06-1.17,2.81-2.01,5.25-2.51c2.44-0.5,5.8-0.75,10.07-0.75h1.33v-1.67c0-2.15-0.44-3.71-1.33-4.67 c-0.89-0.96-2.31-1.44-4.27-1.44c-1.35,0-2.62,0.17-3.81,0.52c-1.19,0.35-2.5,0.85-3.92,1.5c-1.04,0.58-1.77,0.87-2.19,0.87 c-0.58,0-1.05-0.21-1.41-0.63c-0.37-0.42-0.55-0.96-0.55-1.62c0-0.58,0.16-1.09,0.49-1.53c0.33-0.44,0.86-0.87,1.59-1.3 c1.35-0.73,2.92-1.32,4.73-1.76c1.81-0.44,3.56-0.66,5.25-0.66C776,179.36,778.78,180.3,780.61,182.19z M775.68,202.13 c1.35-1.44,2.02-3.3,2.02-5.57v-1.5h-1.04c-3,0-5.31,0.14-6.92,0.4c-1.62,0.27-2.77,0.72-3.46,1.36 c-0.69,0.63-1.04,1.55-1.04,2.74c0,1.38,0.5,2.52,1.5,3.4c1,0.89,2.25,1.33,3.75,1.33C772.6,204.29,774.33,203.57,775.68,202.13z" fill="#8B8179"  /><path d="M806.93,204.72c0.36,0.37,0.55,0.88,0.55,1.53c0,0.77-0.3,1.36-0.89,1.76c-0.6,0.4-1.47,0.57-2.63,0.49 l-1.56-0.12c-3.12-0.23-5.44-1.18-6.98-2.86c-1.54-1.67-2.31-4.14-2.31-7.42v-13.56h-3.46c-1.69,0-2.54-0.75-2.54-2.25 c0-0.69,0.22-1.24,0.66-1.64c0.44-0.4,1.07-0.61,1.87-0.61h3.46v-5.94c0-0.88,0.26-1.58,0.78-2.08c0.52-0.5,1.22-0.75,2.11-0.75 c0.88,0,1.6,0.25,2.13,0.75c0.54,0.5,0.81,1.19,0.81,2.08v5.94h5.71c0.81,0,1.43,0.2,1.88,0.61c0.44,0.4,0.66,0.95,0.66,1.64 c0,0.73-0.22,1.29-0.66,1.67c-0.44,0.38-1.07,0.58-1.88,0.58h-5.71v13.97c0,1.81,0.38,3.14,1.13,3.98 c0.75,0.85,1.89,1.33,3.43,1.44l1.62,0.12C805.95,204.14,806.56,204.36,806.93,204.72z" fill="#8B8179"  /><path d="M835.61,180.22c0.52,0.5,0.78,1.19,0.78,2.08v23.49c0,0.81-0.27,1.46-0.81,1.96 c-0.54,0.5-1.25,0.75-2.14,0.75c-0.81,0-1.46-0.24-1.96-0.72c-0.5-0.48-0.75-1.13-0.75-1.93v-2.19c-0.89,1.62-2.11,2.85-3.66,3.69 c-1.56,0.85-3.3,1.27-5.22,1.27c-6.85,0-10.27-3.77-10.27-11.31v-15c0-0.88,0.26-1.58,0.78-2.08c0.52-0.5,1.24-0.75,2.16-0.75 c0.88,0,1.59,0.25,2.11,0.75c0.52,0.5,0.78,1.19,0.78,2.08v14.95c0,2.27,0.46,3.94,1.38,5.02s2.35,1.62,4.27,1.62 c2.27,0,4.09-0.73,5.45-2.19c1.37-1.46,2.05-3.4,2.05-5.83V182.3c0-0.85,0.27-1.53,0.81-2.05c0.54-0.52,1.25-0.78,2.14-0.78 C834.39,179.47,835.09,179.73,835.61,180.22z" fill="#8B8179"  /><path d="M862.07,181.84c0,0.85-0.21,1.48-0.63,1.9c-0.42,0.42-1.15,0.67-2.19,0.75l-1.73,0.17 c-2.42,0.23-4.22,1.08-5.4,2.54c-1.17,1.46-1.76,3.23-1.76,5.31v13.21c0,0.92-0.27,1.62-0.81,2.08c-0.54,0.46-1.23,0.69-2.08,0.69 c-0.85,0-1.55-0.23-2.11-0.69c-0.56-0.46-0.84-1.15-0.84-2.08v-23.49c0-0.88,0.28-1.57,0.84-2.05c0.56-0.48,1.26-0.72,2.11-0.72 c0.77,0,1.41,0.24,1.93,0.72c0.52,0.48,0.78,1.15,0.78,1.99v2.77c0.77-1.69,1.88-2.98,3.35-3.87c1.46-0.88,3.12-1.4,4.96-1.56 l0.81-0.06C861.14,179.36,862.07,180.15,862.07,181.84z" fill="#8B8179"  /><path d="M865.93,172.9c-0.66-0.62-0.98-1.42-0.98-2.42c0-1,0.33-1.8,0.98-2.4c0.65-0.6,1.54-0.89,2.65-0.89 c1.08,0,1.95,0.3,2.63,0.89c0.67,0.6,1.01,1.4,1.01,2.4c0,1-0.33,1.81-0.98,2.42c-0.66,0.62-1.54,0.92-2.65,0.92 C867.47,173.82,866.59,173.51,865.93,172.9z M866.48,207.81c-0.56-0.46-0.84-1.15-0.84-2.08V182.3c0-0.92,0.28-1.62,0.84-2.11 c0.56-0.48,1.26-0.72,2.11-0.72c0.85,0,1.54,0.24,2.08,0.72c0.54,0.48,0.81,1.18,0.81,2.11v23.43c0,0.92-0.27,1.62-0.81,2.08 c-0.54,0.46-1.23,0.69-2.08,0.69C867.74,208.5,867.04,208.27,866.48,207.81z" fill="#8B8179"  /><path d="M895.22,204.72c0.36,0.37,0.55,0.88,0.55,1.53c0,0.77-0.3,1.36-0.89,1.76c-0.6,0.4-1.47,0.57-2.63,0.49 l-1.56-0.12c-3.12-0.23-5.44-1.18-6.98-2.86c-1.54-1.67-2.31-4.14-2.31-7.42v-13.56h-3.46c-1.69,0-2.54-0.75-2.54-2.25 c0-0.69,0.22-1.24,0.66-1.64c0.44-0.4,1.07-0.61,1.87-0.61h3.46v-5.94c0-0.88,0.26-1.58,0.78-2.08c0.52-0.5,1.22-0.75,2.11-0.75 c0.88,0,1.6,0.25,2.13,0.75c0.54,0.5,0.81,1.19,0.81,2.08v5.94h5.71c0.81,0,1.43,0.2,1.88,0.61c0.44,0.4,0.66,0.95,0.66,1.64 c0,0.73-0.22,1.29-0.66,1.67c-0.44,0.38-1.07,0.58-1.88,0.58h-5.71v13.97c0,1.81,0.38,3.14,1.13,3.98 c0.75,0.85,1.89,1.33,3.43,1.44l1.62,0.12C894.25,204.14,894.85,204.36,895.22,204.72z" fill="#8B8179"  /><path d="M921.42,179.94c0.44-0.27,0.91-0.4,1.41-0.4c0.73,0,1.38,0.25,1.93,0.75c0.56,0.5,0.84,1.1,0.84,1.79 c0,0.39-0.08,0.75-0.23,1.1l-16.04,34.05c-0.23,0.54-0.57,0.95-1.01,1.24c-0.44,0.29-0.91,0.43-1.41,0.43 c-0.69,0-1.32-0.23-1.88-0.69c-0.56-0.46-0.84-1.04-0.84-1.73c0-0.31,0.1-0.69,0.29-1.15l3.98-8.48l-11.14-23.66 c-0.15-0.31-0.23-0.65-0.23-1.04c0-0.73,0.31-1.35,0.92-1.85c0.61-0.5,1.31-0.75,2.08-0.75c1.15,0,1.98,0.54,2.48,1.62l8.94,19.85 l8.89-19.79C920.64,180.63,920.98,180.21,921.42,179.94z" fill="#8B8179"  /><path d="M945.8,194.57c-0.46-0.4-0.69-0.97-0.69-1.7c0-0.73,0.23-1.31,0.69-1.73c0.46-0.42,1.13-0.64,2.02-0.64 h12.29c0.88,0,1.56,0.21,2.02,0.64c0.46,0.42,0.69,1,0.69,1.73c0,0.73-0.23,1.3-0.69,1.7c-0.46,0.4-1.13,0.61-2.02,0.61h-12.29 C946.93,195.17,946.26,194.97,945.8,194.57z" fill="#8B8179"  /><path d="M234.23,272.04c-2.64-0.81-4.74-1.92-6.32-3.35c-0.73-0.62-1.1-1.4-1.1-2.37c0-0.69,0.19-1.28,0.58-1.76 c0.38-0.48,0.85-0.72,1.39-0.72c0.54,0,1.19,0.25,1.96,0.75c3.42,2.54,7.33,3.81,11.71,3.81c3.08,0,5.44-0.58,7.1-1.73 c1.65-1.15,2.48-2.81,2.48-4.96c0-1.69-0.77-2.96-2.31-3.81c-1.54-0.85-4-1.65-7.39-2.42c-3.23-0.69-5.89-1.48-7.96-2.37 c-2.08-0.88-3.7-2.09-4.88-3.61c-1.17-1.52-1.76-3.45-1.76-5.8c0-2.35,0.64-4.43,1.93-6.26c1.29-1.83,3.09-3.25,5.4-4.27 c2.31-1.02,4.94-1.53,7.91-1.53c2.73,0,5.25,0.38,7.56,1.15c2.31,0.77,4.27,1.9,5.89,3.41c0.77,0.65,1.15,1.44,1.15,2.37 c0,0.66-0.2,1.23-0.61,1.73c-0.4,0.5-0.88,0.75-1.41,0.75c-0.5,0-1.14-0.25-1.9-0.75c-1.77-1.35-3.43-2.32-4.99-2.91 c-1.56-0.6-3.43-0.89-5.63-0.89c-2.96,0-5.27,0.61-6.93,1.82c-1.65,1.21-2.48,2.9-2.48,5.05c0,1.85,0.73,3.24,2.19,4.18 c1.46,0.94,3.81,1.8,7.04,2.57c3.38,0.77,6.13,1.57,8.22,2.4c2.1,0.83,3.77,1.96,5.02,3.41c1.25,1.44,1.88,3.3,1.88,5.57 c0,2.31-0.64,4.36-1.93,6.15c-1.29,1.79-3.1,3.17-5.42,4.15c-2.33,0.98-5.01,1.47-8.05,1.47 C239.64,273.25,236.86,272.85,234.23,272.04z" fill="#8B8179"  /><path d="M264.9,237.47c-0.65-0.62-0.98-1.42-0.98-2.42c0-1,0.33-1.8,0.98-2.4c0.65-0.6,1.54-0.89,2.65-0.89 c1.08,0,1.95,0.3,2.63,0.89c0.67,0.6,1.01,1.4,1.01,2.4c0,1-0.33,1.81-0.98,2.42c-0.65,0.62-1.54,0.92-2.65,0.92 C266.44,238.39,265.55,238.09,264.9,237.47z M265.45,272.38c-0.56-0.46-0.84-1.15-0.84-2.08v-23.43c0-0.92,0.28-1.62,0.84-2.11 c0.56-0.48,1.26-0.72,2.11-0.72c0.85,0,1.54,0.24,2.08,0.72c0.54,0.48,0.81,1.18,0.81,2.11v23.43c0,0.92-0.27,1.62-0.81,2.08 c-0.54,0.46-1.23,0.69-2.08,0.69C266.71,273.08,266.01,272.85,265.45,272.38z" fill="#8B8179"  /><path d="M320.36,255.3v15c0,0.89-0.27,1.57-0.81,2.05c-0.54,0.48-1.25,0.72-2.13,0.72c-0.85,0-1.54-0.24-2.08-0.72 c-0.54-0.48-0.81-1.16-0.81-2.05v-14.95c0-2.35-0.42-4.05-1.27-5.11c-0.85-1.06-2.17-1.59-3.98-1.59c-2.12,0-3.79,0.72-5.02,2.16 c-1.23,1.44-1.85,3.41-1.85,5.92v13.56c0,0.89-0.27,1.57-0.81,2.05c-0.54,0.48-1.25,0.72-2.14,0.72c-0.85,0-1.54-0.24-2.08-0.72 c-0.54-0.48-0.81-1.16-0.81-2.05v-14.95c0-2.35-0.42-4.05-1.27-5.11c-0.85-1.06-2.17-1.59-3.98-1.59c-2.12,0-3.8,0.72-5.05,2.16 c-1.25,1.44-1.88,3.41-1.88,5.92v13.56c0,0.89-0.27,1.57-0.81,2.05c-0.54,0.48-1.23,0.72-2.08,0.72c-0.85,0-1.55-0.24-2.11-0.72 c-0.56-0.48-0.84-1.16-0.84-2.05v-23.49c0-0.85,0.29-1.52,0.87-2.02c0.58-0.5,1.27-0.75,2.08-0.75c0.81,0,1.47,0.24,1.99,0.72 c0.52,0.48,0.78,1.15,0.78,1.99v2.13c0.85-1.62,2.02-2.85,3.52-3.69c1.5-0.85,3.23-1.27,5.19-1.27c2.15,0,3.93,0.44,5.34,1.33 c1.4,0.89,2.45,2.25,3.15,4.1c0.85-1.65,2.1-2.97,3.75-3.95c1.65-0.98,3.54-1.47,5.66-1.47 C317.2,243.93,320.36,247.72,320.36,255.3z" fill="#8B8179"  /><path d="M349.93,245.78c1.9,1.23,3.39,2.96,4.44,5.19c1.06,2.23,1.59,4.81,1.59,7.73c0,2.89-0.52,5.43-1.56,7.62 c-1.04,2.19-2.51,3.89-4.41,5.08c-1.9,1.19-4.09,1.79-6.55,1.79c-2.12,0-3.98-0.45-5.6-1.36c-1.62-0.9-2.85-2.2-3.69-3.9v12.87 c0,0.81-0.26,1.45-0.78,1.93c-0.52,0.48-1.2,0.72-2.05,0.72c-0.89,0-1.61-0.25-2.16-0.75c-0.56-0.5-0.84-1.17-0.84-2.02v-33.82 c0-0.85,0.27-1.53,0.81-2.05c0.54-0.52,1.25-0.78,2.13-0.78c0.85,0,1.54,0.26,2.08,0.78c0.54,0.52,0.81,1.2,0.81,2.05v2.37 c0.85-1.69,2.08-3,3.69-3.92c1.62-0.92,3.48-1.38,5.6-1.38C345.86,243.93,348.03,244.55,349.93,245.78z M347.94,266.01 c1.38-1.71,2.08-4.15,2.08-7.3c0-3.19-0.7-5.67-2.11-7.44c-1.4-1.77-3.36-2.65-5.86-2.65c-2.54,0-4.49,0.87-5.86,2.6 c-1.37,1.73-2.05,4.19-2.05,7.39c0,3.19,0.68,5.66,2.05,7.39c1.37,1.73,3.32,2.6,5.86,2.6 C344.59,268.58,346.56,267.72,347.94,266.01z" fill="#8B8179"  /><path d="M363.26,272.38c-0.56-0.46-0.84-1.15-0.84-2.08v-35.66c0-0.92,0.28-1.62,0.84-2.11 c0.56-0.48,1.26-0.72,2.11-0.72c0.85,0,1.54,0.24,2.08,0.72c0.54,0.48,0.81,1.18,0.81,2.11v35.66c0,0.92-0.27,1.62-0.81,2.08 c-0.54,0.46-1.23,0.69-2.08,0.69C364.52,273.08,363.82,272.85,363.26,272.38z" fill="#8B8179"  /><path d="M399.76,266.32c0.35,0.42,0.52,0.96,0.52,1.62c0,1.12-0.69,2.06-2.08,2.83c-1.35,0.77-2.82,1.37-4.41,1.79 c-1.6,0.42-3.13,0.64-4.59,0.64c-4.46,0-7.98-1.3-10.56-3.9c-2.58-2.6-3.87-6.15-3.87-10.65c0-2.88,0.57-5.44,1.7-7.68 c1.13-2.23,2.73-3.96,4.79-5.19c2.06-1.23,4.39-1.85,7.01-1.85c3.77,0,6.75,1.21,8.94,3.64c2.19,2.42,3.29,5.69,3.29,9.81 c0,1.54-0.69,2.31-2.08,2.31H380.6c0.38,5.96,3.25,8.94,8.6,8.94c1.42,0,2.65-0.19,3.69-0.58c1.04-0.38,2.14-0.88,3.29-1.5 c0.12-0.08,0.43-0.24,0.95-0.49c0.52-0.25,0.95-0.37,1.3-0.37C398.97,265.69,399.42,265.9,399.76,266.32z M383.03,250.34 c-1.35,1.42-2.16,3.42-2.42,6h14.89c-0.12-2.62-0.78-4.63-1.99-6.03c-1.21-1.4-2.91-2.11-5.11-2.11 C386.16,248.2,384.37,248.92,383.03,250.34z" fill="#8B8179"  /><path d="M422.44,237.47c-0.65-0.62-0.98-1.42-0.98-2.42c0-1,0.33-1.8,0.98-2.4c0.65-0.6,1.54-0.89,2.65-0.89 c1.08,0,1.95,0.3,2.63,0.89c0.67,0.6,1.01,1.4,1.01,2.4c0,1-0.33,1.81-0.98,2.42c-0.65,0.62-1.54,0.92-2.65,0.92 C423.98,238.39,423.1,238.09,422.44,237.47z M422.99,272.38c-0.56-0.46-0.84-1.15-0.84-2.08v-23.43c0-0.92,0.28-1.62,0.84-2.11 c0.56-0.48,1.26-0.72,2.11-0.72c0.85,0,1.54,0.24,2.08,0.72c0.54,0.48,0.81,1.18,0.81,2.11v23.43c0,0.92-0.27,1.62-0.81,2.08 c-0.54,0.46-1.23,0.69-2.08,0.69C424.25,273.08,423.55,272.85,422.99,272.38z" fill="#8B8179"  /><path d="M461.4,255.3v15c0,0.89-0.26,1.57-0.78,2.05c-0.52,0.48-1.24,0.72-2.16,0.72c-0.89,0-1.59-0.25-2.11-0.75 c-0.52-0.5-0.78-1.17-0.78-2.02v-14.72c0-2.38-0.47-4.13-1.41-5.25c-0.94-1.12-2.41-1.67-4.41-1.67c-2.35,0-4.23,0.73-5.66,2.19 c-1.42,1.46-2.14,3.42-2.14,5.89v13.56c0,0.85-0.26,1.52-0.78,2.02c-0.52,0.5-1.22,0.75-2.11,0.75c-0.89,0-1.6-0.25-2.13-0.75 c-0.54-0.5-0.81-1.17-0.81-2.02v-23.49c0-0.81,0.28-1.47,0.84-1.99c0.56-0.52,1.26-0.78,2.11-0.78c0.85,0,1.52,0.25,2.02,0.75 c0.5,0.5,0.75,1.15,0.75,1.96v2.37c0.92-1.69,2.21-2.98,3.87-3.87c1.65-0.88,3.52-1.33,5.6-1.33 C458.03,243.93,461.4,247.72,461.4,255.3z" fill="#8B8179"  /><path d="M484.97,269.3c0.37,0.37,0.55,0.88,0.55,1.53c0,0.77-0.3,1.36-0.89,1.76c-0.6,0.4-1.47,0.57-2.63,0.49 l-1.56-0.12c-3.12-0.23-5.44-1.18-6.98-2.86c-1.54-1.67-2.31-4.14-2.31-7.42v-13.56h-3.46c-1.69,0-2.54-0.75-2.54-2.25 c0-0.69,0.22-1.24,0.66-1.64c0.44-0.4,1.07-0.61,1.88-0.61h3.46v-5.94c0-0.88,0.26-1.58,0.78-2.08c0.52-0.5,1.22-0.75,2.11-0.75 c0.88,0,1.6,0.25,2.14,0.75c0.54,0.5,0.81,1.19,0.81,2.08v5.94h5.71c0.81,0,1.43,0.2,1.88,0.61c0.44,0.4,0.66,0.95,0.66,1.64 c0,0.73-0.22,1.29-0.66,1.67s-1.07,0.58-1.88,0.58h-5.71v13.97c0,1.81,0.38,3.14,1.13,3.98c0.75,0.85,1.89,1.33,3.43,1.44 l1.62,0.12C484,268.71,484.6,268.93,484.97,269.3z" fill="#8B8179"  /><path d="M513.1,266.32c0.35,0.42,0.52,0.96,0.52,1.62c0,1.12-0.69,2.06-2.08,2.83c-1.35,0.77-2.82,1.37-4.41,1.79 c-1.6,0.42-3.13,0.64-4.59,0.64c-4.46,0-7.98-1.3-10.56-3.9c-2.58-2.6-3.87-6.15-3.87-10.65c0-2.88,0.57-5.44,1.7-7.68 c1.13-2.23,2.73-3.96,4.79-5.19c2.06-1.23,4.39-1.85,7.01-1.85c3.77,0,6.75,1.21,8.95,3.64c2.19,2.42,3.29,5.69,3.29,9.81 c0,1.54-0.69,2.31-2.08,2.31h-17.83c0.38,5.96,3.25,8.94,8.6,8.94c1.42,0,2.65-0.19,3.69-0.58c1.04-0.38,2.14-0.88,3.29-1.5 c0.12-0.08,0.43-0.24,0.95-0.49c0.52-0.25,0.95-0.37,1.3-0.37C512.31,265.69,512.76,265.9,513.1,266.32z M496.37,250.34 c-1.35,1.42-2.16,3.42-2.42,6h14.89c-0.12-2.62-0.78-4.63-1.99-6.03c-1.21-1.4-2.91-2.11-5.11-2.11 C499.5,248.2,497.71,248.92,496.37,250.34z" fill="#8B8179"  /><path d="M537.8,246.42c0,0.85-0.21,1.48-0.63,1.9c-0.42,0.42-1.15,0.67-2.19,0.75l-1.73,0.17 c-2.42,0.23-4.22,1.08-5.4,2.54c-1.17,1.46-1.76,3.23-1.76,5.31v13.21c0,0.92-0.27,1.62-0.81,2.08c-0.54,0.46-1.23,0.69-2.08,0.69 c-0.85,0-1.55-0.23-2.11-0.69c-0.56-0.46-0.84-1.15-0.84-2.08v-23.49c0-0.88,0.28-1.57,0.84-2.05c0.56-0.48,1.26-0.72,2.11-0.72 c0.77,0,1.41,0.24,1.93,0.72c0.52,0.48,0.78,1.15,0.78,1.99v2.77c0.77-1.69,1.88-2.98,3.35-3.87c1.46-0.88,3.12-1.4,4.96-1.56 l0.81-0.06C536.88,243.93,537.8,244.72,537.8,246.42z" fill="#8B8179"  /><path d="M564.15,244.51c0.44-0.27,0.91-0.4,1.41-0.4c0.73,0,1.38,0.25,1.93,0.75c0.56,0.5,0.84,1.1,0.84,1.79 c0,0.39-0.08,0.75-0.23,1.1l-11.02,23.37c-0.27,0.62-0.68,1.09-1.24,1.41c-0.56,0.33-1.15,0.49-1.76,0.49 c-0.62,0-1.2-0.16-1.76-0.49c-0.56-0.33-0.97-0.8-1.24-1.41l-11.02-23.37c-0.15-0.31-0.23-0.67-0.23-1.1 c0-0.69,0.31-1.29,0.92-1.79c0.61-0.5,1.31-0.75,2.08-0.75c1.12,0,1.94,0.54,2.48,1.62l8.94,19.85l8.89-19.79 C563.37,245.2,563.7,244.78,564.15,244.51z" fill="#8B8179"  /><path d="M596.09,266.32c0.35,0.42,0.52,0.96,0.52,1.62c0,1.12-0.69,2.06-2.08,2.83c-1.35,0.77-2.82,1.37-4.41,1.79 c-1.6,0.42-3.13,0.64-4.59,0.64c-4.46,0-7.98-1.3-10.56-3.9c-2.58-2.6-3.87-6.15-3.87-10.65c0-2.88,0.57-5.44,1.7-7.68 c1.13-2.23,2.73-3.96,4.79-5.19c2.06-1.23,4.39-1.85,7.01-1.85c3.77,0,6.75,1.21,8.94,3.64c2.19,2.42,3.29,5.69,3.29,9.81 c0,1.54-0.69,2.31-2.08,2.31h-17.83c0.38,5.96,3.25,8.94,8.6,8.94c1.42,0,2.65-0.19,3.69-0.58c1.04-0.38,2.14-0.88,3.29-1.5 c0.12-0.08,0.43-0.24,0.95-0.49c0.52-0.25,0.95-0.37,1.3-0.37C595.3,265.69,595.74,265.9,596.09,266.32z M579.35,250.34 c-1.35,1.42-2.16,3.42-2.42,6h14.89c-0.12-2.62-0.78-4.63-1.99-6.03c-1.21-1.4-2.91-2.11-5.11-2.11 C582.49,248.2,580.7,248.92,579.35,250.34z" fill="#8B8179"  /><path d="M628.52,255.3v15c0,0.89-0.26,1.57-0.78,2.05c-0.52,0.48-1.24,0.72-2.16,0.72c-0.89,0-1.59-0.25-2.11-0.75 c-0.52-0.5-0.78-1.17-0.78-2.02v-14.72c0-2.38-0.47-4.13-1.41-5.25c-0.94-1.12-2.41-1.67-4.41-1.67c-2.35,0-4.23,0.73-5.66,2.19 c-1.42,1.46-2.14,3.42-2.14,5.89v13.56c0,0.85-0.26,1.52-0.78,2.02c-0.52,0.5-1.22,0.75-2.11,0.75c-0.89,0-1.6-0.25-2.14-0.75 c-0.54-0.5-0.81-1.17-0.81-2.02v-23.49c0-0.81,0.28-1.47,0.84-1.99c0.56-0.52,1.26-0.78,2.11-0.78c0.85,0,1.52,0.25,2.02,0.75 c0.5,0.5,0.75,1.15,0.75,1.96v2.37c0.92-1.69,2.21-2.98,3.87-3.87c1.65-0.88,3.52-1.33,5.6-1.33 C625.15,243.93,628.52,247.72,628.52,255.3z" fill="#8B8179"  /><path d="M652.09,269.3c0.36,0.37,0.55,0.88,0.55,1.53c0,0.77-0.3,1.36-0.89,1.76c-0.6,0.4-1.47,0.57-2.63,0.49 l-1.56-0.12c-3.12-0.23-5.44-1.18-6.98-2.86c-1.54-1.67-2.31-4.14-2.31-7.42v-13.56h-3.46c-1.69,0-2.54-0.75-2.54-2.25 c0-0.69,0.22-1.24,0.66-1.64c0.44-0.4,1.07-0.61,1.87-0.61h3.46v-5.94c0-0.88,0.26-1.58,0.78-2.08c0.52-0.5,1.22-0.75,2.11-0.75 c0.88,0,1.6,0.25,2.13,0.75c0.54,0.5,0.81,1.19,0.81,2.08v5.94h5.71c0.81,0,1.43,0.2,1.88,0.61c0.44,0.4,0.66,0.95,0.66,1.64 c0,0.73-0.22,1.29-0.66,1.67c-0.44,0.38-1.07,0.58-1.88,0.58h-5.71v13.97c0,1.81,0.38,3.14,1.13,3.98 c0.75,0.85,1.89,1.33,3.43,1.44l1.62,0.12C651.12,268.71,651.73,268.93,652.09,269.3z" fill="#8B8179"  /><path d="M657.14,237.47c-0.66-0.62-0.98-1.42-0.98-2.42c0-1,0.33-1.8,0.98-2.4c0.65-0.6,1.54-0.89,2.65-0.89 c1.08,0,1.95,0.3,2.63,0.89c0.67,0.6,1.01,1.4,1.01,2.4c0,1-0.33,1.81-0.98,2.42c-0.66,0.62-1.54,0.92-2.65,0.92 C658.68,238.39,657.8,238.09,657.14,237.47z M657.69,272.38c-0.56-0.46-0.84-1.15-0.84-2.08v-23.43c0-0.92,0.28-1.62,0.84-2.11 c0.56-0.48,1.26-0.72,2.11-0.72c0.85,0,1.54,0.24,2.08,0.72c0.54,0.48,0.81,1.18,0.81,2.11v23.43c0,0.92-0.27,1.62-0.81,2.08 c-0.54,0.46-1.23,0.69-2.08,0.69C658.95,273.08,658.25,272.85,657.69,272.38z" fill="#8B8179"  /><path d="M675.75,271.4c-2.1-1.19-3.71-2.89-4.85-5.11c-1.14-2.21-1.7-4.78-1.7-7.7c0-2.96,0.57-5.55,1.7-7.76 c1.13-2.21,2.75-3.91,4.85-5.11c2.1-1.19,4.53-1.79,7.3-1.79c2.77,0,5.2,0.6,7.3,1.79c2.1,1.19,3.71,2.9,4.85,5.11 c1.13,2.21,1.7,4.8,1.7,7.76c0,2.92-0.57,5.49-1.7,7.7c-1.13,2.21-2.75,3.92-4.85,5.11c-2.1,1.19-4.53,1.79-7.3,1.79 C680.28,273.19,677.85,272.6,675.75,271.4z M688.97,266.04c1.36-1.69,2.05-4.17,2.05-7.44c0-3.23-0.69-5.7-2.08-7.42 c-1.38-1.71-3.35-2.57-5.89-2.57c-2.54,0-4.5,0.86-5.89,2.57c-1.38,1.71-2.08,4.18-2.08,7.42c0,3.27,0.68,5.75,2.05,7.44 c1.36,1.69,3.34,2.54,5.92,2.54C685.63,268.58,687.6,267.73,688.97,266.04z" fill="#8B8179"  /><path d="M728.64,255.3v15c0,0.89-0.26,1.57-0.78,2.05c-0.52,0.48-1.24,0.72-2.16,0.72c-0.89,0-1.59-0.25-2.11-0.75 c-0.52-0.5-0.78-1.17-0.78-2.02v-14.72c0-2.38-0.47-4.13-1.41-5.25c-0.94-1.12-2.41-1.67-4.41-1.67c-2.35,0-4.23,0.73-5.66,2.19 c-1.42,1.46-2.14,3.42-2.14,5.89v13.56c0,0.85-0.26,1.52-0.78,2.02c-0.52,0.5-1.22,0.75-2.11,0.75c-0.89,0-1.6-0.25-2.14-0.75 c-0.54-0.5-0.81-1.17-0.81-2.02v-23.49c0-0.81,0.28-1.47,0.84-1.99c0.56-0.52,1.26-0.78,2.11-0.78c0.85,0,1.52,0.25,2.02,0.75 c0.5,0.5,0.75,1.15,0.75,1.96v2.37c0.92-1.69,2.21-2.98,3.87-3.87c1.65-0.88,3.52-1.33,5.6-1.33 C725.28,243.93,728.64,247.72,728.64,255.3z" fill="#8B8179"  /><path d="M742.41,272.04c-2.64-0.81-4.74-1.92-6.32-3.35c-0.73-0.62-1.1-1.4-1.1-2.37c0-0.69,0.19-1.28,0.58-1.76 c0.38-0.48,0.85-0.72,1.38-0.72c0.54,0,1.19,0.25,1.96,0.75c3.42,2.54,7.33,3.81,11.72,3.81c3.08,0,5.44-0.58,7.1-1.73 c1.65-1.15,2.48-2.81,2.48-4.96c0-1.69-0.77-2.96-2.31-3.81c-1.54-0.85-4-1.65-7.39-2.42c-3.23-0.69-5.89-1.48-7.96-2.37 c-2.08-0.88-3.7-2.09-4.88-3.61c-1.17-1.52-1.76-3.45-1.76-5.8c0-2.35,0.64-4.43,1.93-6.26c1.29-1.83,3.09-3.25,5.4-4.27 s4.94-1.53,7.91-1.53c2.73,0,5.25,0.38,7.56,1.15c2.31,0.77,4.27,1.9,5.89,3.41c0.77,0.65,1.15,1.44,1.15,2.37 c0,0.66-0.2,1.23-0.61,1.73c-0.4,0.5-0.88,0.75-1.41,0.75c-0.5,0-1.14-0.25-1.9-0.75c-1.77-1.35-3.43-2.32-4.99-2.91 c-1.56-0.6-3.43-0.89-5.63-0.89c-2.96,0-5.27,0.61-6.93,1.82c-1.65,1.21-2.48,2.9-2.48,5.05c0,1.85,0.73,3.24,2.19,4.18 c1.46,0.94,3.81,1.8,7.04,2.57c3.39,0.77,6.13,1.57,8.22,2.4c2.1,0.83,3.77,1.96,5.02,3.41c1.25,1.44,1.87,3.3,1.87,5.57 c0,2.31-0.64,4.36-1.93,6.15c-1.29,1.79-3.1,3.17-5.43,4.15s-5.01,1.47-8.05,1.47C747.82,273.25,745.04,272.85,742.41,272.04z" fill="#8B8179"  />
      
      
      
      
      
      
      
      
      
      
      
      
      
      
      
      
      
      
      
      
      
      
      
      
      
      
      
      
      
      
      
      
      
      
      
      
      
      
      
      
      
      
      
    </g><path d="M135.46,282.32l-0.14,0c-16.05-0.46-32.94-17.83-33.48-34.41l0-0.15l0-0.15 c0.41-12.59,9.88-28.97,19.03-44.82c3.57-6.17,6.94-12,9.66-17.41l4.19-8.31l4.2,8.3c2.87,5.67,6.42,11.77,10.17,18.23 c9.53,16.4,18.53,31.9,18.53,43.24c0,16.73-16.46,34.96-32.03,35.47L135.46,282.32z" fill="#FFFFFF"  /><path d="M111.25,247.75c0.48,11.42,13.27,24.72,24.19,25.15c10.26-0.46,22.78-14.76,22.78-26.06 c0-8.81-9.17-24.59-17.26-38.52c-2.09-3.6-4.22-7.27-6.23-10.86c-1.81,3.24-3.73,6.58-5.72,10.02 C120.88,221.57,111.66,237.52,111.25,247.75z" fill="#F49929"  /><path d="M197.77,124.64c-1.96-1.9-2.95-4.58-2.95-8.04V12.5c0-3.45,0.98-6.13,2.95-8.03 c1.96-1.9,4.67-2.86,8.12-2.86h64.46c3.45,0,6.13,0.78,8.04,2.32c1.9,1.55,2.85,3.75,2.85,6.61c0,2.98-0.95,5.27-2.85,6.87 c-1.91,1.61-4.59,2.41-8.04,2.41h-53.03v34.64h49.46c3.45,0,6.13,0.78,8.03,2.32c1.9,1.55,2.86,3.81,2.86,6.79 c0,2.86-0.96,5.06-2.86,6.61c-1.9,1.55-4.58,2.32-8.03,2.32h-49.46v36.78h53.03c3.45,0,6.13,0.8,8.04,2.41 c1.9,1.61,2.85,3.9,2.85,6.87c0,2.86-0.95,5.06-2.85,6.61c-1.91,1.55-4.59,2.32-8.04,2.32h-64.46 C202.44,127.49,199.73,126.54,197.77,124.64z" fill="#5E6DB1"  /><path d="M406.71,117.85c0,2.86-1.1,5.36-3.31,7.5c-2.2,2.14-4.73,3.21-7.59,3.21c-2.98,0-5.6-1.31-7.85-3.93 l-36.25-45l-36.43,45c-2.14,2.5-4.7,3.75-7.68,3.75c-2.86,0-5.39-1.04-7.59-3.13c-2.21-2.08-3.31-4.55-3.31-7.41 c0-2.38,0.89-4.64,2.68-6.79l38.93-47.5L301,18.03c-1.79-1.9-2.68-4.16-2.68-6.78c0-2.86,1.07-5.33,3.21-7.41 c2.15-2.08,4.64-3.13,7.5-3.13c2.97,0,5.59,1.31,7.85,3.93l34.82,43.03l34.82-43.03c2.14-2.62,4.7-3.93,7.68-3.93 c2.86,0,5.39,1.04,7.59,3.13c2.2,2.08,3.31,4.55,3.31,7.41c0,2.62-0.89,4.88-2.68,6.78l-37.32,45.53l38.75,47.5 C405.76,113.33,406.71,115.59,406.71,117.85z" fill="#5E6DB1"  /><path d="M425.31,125.44c-2.08-2.08-3.12-4.91-3.12-8.48V12.5c0-3.45,0.98-6.13,2.95-8.03 c1.96-1.9,4.67-2.86,8.12-2.86h43.93c13.45,0,23.93,3.37,31.43,10.09c7.5,6.73,11.25,16.16,11.25,28.3s-3.75,21.61-11.25,28.39 c-7.5,6.79-17.98,10.18-31.43,10.18h-31.96v38.39c0,3.57-1.04,6.4-3.12,8.48c-2.08,2.08-4.91,3.12-8.48,3.12 C430.16,128.56,427.39,127.52,425.31,125.44z M474.32,60.89c15.83,0,23.75-6.9,23.75-20.71c0-13.81-7.92-20.71-23.75-20.71h-29.11 v41.43H474.32z" fill="#5E6DB1"  /><path d="M638.18,119.28c0,2.74-1.1,5-3.31,6.79c-2.2,1.79-4.79,2.68-7.77,2.68c-1.9,0-3.72-0.45-5.44-1.34 c-1.73-0.89-3.19-2.23-4.37-4.02l-23.75-36.07c-2.38-3.81-4.91-6.49-7.59-8.03c-2.68-1.55-6.16-2.32-10.45-2.32h-17.5v40 c0,3.57-1.01,6.4-3.04,8.48c-2.02,2.08-4.76,3.12-8.21,3.12c-3.46,0-6.22-1.04-8.31-3.12c-2.08-2.08-3.12-4.91-3.12-8.48V12.5 c0-3.45,0.98-6.13,2.95-8.03c1.96-1.9,4.67-2.86,8.12-2.86h44.64c14.29,0,25.15,3.19,32.59,9.55c7.44,6.37,11.16,15.57,11.16,27.59 c0,9.76-2.77,17.77-8.31,24.02c-5.53,6.25-13.36,10.27-23.48,12.05c3.45,0.83,6.49,2.32,9.11,4.46c2.62,2.14,5.18,5.12,7.68,8.93 l16.25,24.82C637.47,115.17,638.18,117.26,638.18,119.28z M606.94,54.37c4.04-3.27,6.07-8.3,6.07-15.09 c0-6.9-2.02-11.93-6.07-15.09c-4.05-3.15-10.42-4.73-19.11-4.73h-30v39.82h30C596.51,59.28,602.89,57.65,606.94,54.37z" fill="#5E6DB1"  /><path d="M656.6,124.64c-1.96-1.9-2.95-4.58-2.95-8.04V12.5c0-3.45,0.98-6.13,2.95-8.03 c1.96-1.9,4.67-2.86,8.12-2.86h64.46c3.45,0,6.13,0.78,8.04,2.32c1.9,1.55,2.85,3.75,2.85,6.61c0,2.98-0.95,5.27-2.85,6.87 c-1.91,1.61-4.59,2.41-8.04,2.41h-53.03v34.64h49.46c3.45,0,6.13,0.78,8.03,2.32c1.9,1.55,2.86,3.81,2.86,6.79 c0,2.86-0.96,5.06-2.86,6.61c-1.9,1.55-4.58,2.32-8.03,2.32h-49.46v36.78h53.03c3.45,0,6.13,0.8,8.04,2.41 c1.9,1.61,2.85,3.9,2.85,6.87c0,2.86-0.95,5.06-2.85,6.61c-1.91,1.55-4.59,2.32-8.04,2.32h-64.46 C661.27,127.49,658.56,126.54,656.6,124.64z" fill="#5E6DB1"  /><path d="M779.57,125.44c-8.16-2.44-14.8-5.74-19.91-9.91c-2.74-2.02-4.11-4.88-4.11-8.57c0-2.5,0.74-4.67,2.23-6.52 c1.49-1.84,3.24-2.77,5.27-2.77c2.14,0,4.58,0.83,7.32,2.5c5.12,3.69,10.47,6.37,16.07,8.04c5.6,1.67,11.79,2.5,18.57,2.5 c8.69,0,15.36-1.52,20-4.55c4.64-3.03,6.96-7.47,6.96-13.3c0-4.52-2.18-8.01-6.52-10.45c-4.34-2.44-11.58-4.79-21.69-7.05 c-10.47-2.26-18.99-4.88-25.53-7.86c-6.55-2.97-11.49-6.79-14.82-11.43c-3.34-4.64-5-10.53-5-17.68c0-7.38,2.08-13.99,6.25-19.82 c4.17-5.83,9.97-10.38,17.41-13.66C789.5,1.64,797.87,0,807.15,0c17.02,0,30.89,4.53,41.6,13.57c1.55,1.31,2.65,2.59,3.31,3.84 c0.65,1.25,0.98,2.83,0.98,4.73c0,2.5-0.75,4.67-2.23,6.52c-1.49,1.85-3.24,2.77-5.27,2.77c-1.19,0-2.29-0.18-3.31-0.54 c-1.01-0.36-2.35-1.01-4.02-1.96c-4.88-3.57-9.61-6.22-14.19-7.95c-4.59-1.72-10.21-2.59-16.88-2.59c-8.1,0-14.49,1.64-19.19,4.91 c-4.7,3.28-7.05,7.83-7.05,13.66c0,4.88,2.08,8.63,6.25,11.25c4.16,2.62,11.25,5.06,21.25,7.32c10.6,2.38,19.2,5.03,25.8,7.95 c6.61,2.92,11.67,6.64,15.18,11.16c3.51,4.53,5.27,10.18,5.27,16.96c0,7.38-2.05,13.9-6.16,19.55 c-4.11,5.66-9.88,10.06-17.32,13.21c-7.44,3.15-15.98,4.73-25.63,4.73C796.38,129.1,787.72,127.88,779.57,125.44z" fill="#5E6DB1"  /><path d="M894.14,125.44c-8.16-2.44-14.8-5.74-19.91-9.91c-2.74-2.02-4.11-4.88-4.11-8.57c0-2.5,0.74-4.67,2.23-6.52 c1.49-1.84,3.24-2.77,5.27-2.77c2.14,0,4.58,0.83,7.32,2.5c5.12,3.69,10.47,6.37,16.07,8.04c5.6,1.67,11.79,2.5,18.57,2.5 c8.69,0,15.36-1.52,20-4.55c4.64-3.03,6.96-7.47,6.96-13.3c0-4.52-2.18-8.01-6.52-10.45c-4.34-2.44-11.58-4.79-21.69-7.05 c-10.47-2.26-18.99-4.88-25.53-7.86c-6.55-2.97-11.49-6.79-14.82-11.43c-3.34-4.64-5-10.53-5-17.68c0-7.38,2.08-13.99,6.25-19.82 c4.17-5.83,9.97-10.38,17.41-13.66C904.08,1.64,912.44,0,921.73,0c17.02,0,30.89,4.53,41.6,13.57c1.55,1.31,2.65,2.59,3.31,3.84 c0.65,1.25,0.98,2.83,0.98,4.73c0,2.5-0.75,4.67-2.23,6.52c-1.49,1.85-3.24,2.77-5.27,2.77c-1.19,0-2.29-0.18-3.31-0.54 c-1.01-0.36-2.35-1.01-4.02-1.96c-4.88-3.57-9.61-6.22-14.19-7.95c-4.59-1.72-10.21-2.59-16.88-2.59c-8.1,0-14.49,1.64-19.19,4.91 c-4.7,3.28-7.05,7.83-7.05,13.66c0,4.88,2.08,8.63,6.25,11.25c4.16,2.62,11.25,5.06,21.25,7.32c10.6,2.38,19.2,5.03,25.8,7.95 c6.61,2.92,11.67,6.64,15.18,11.16c3.51,4.53,5.27,10.18,5.27,16.96c0,7.38-2.05,13.9-6.16,19.55 c-4.11,5.66-9.88,10.06-17.32,13.21c-7.44,3.15-15.98,4.73-25.63,4.73C910.95,129.1,902.29,127.88,894.14,125.44z" fill="#5E6DB1"  />
    
    
    
    
    
    
    
    
    
    
    
    
    
  </g></svg>