<svg width="1223.8" height="283.5" viewBox="0 0 1223.8 283.5" role="img" focusable="false" aria-labelledby="toast--title" xmlns="http://www.w3.org/2000/svg" xmlns:xlink="http://www.w3.org/1999/xlink"><title id="toast--title">TOAST</title><path d="M310.5,283.5c-32.9,0-59.6-26.8-59.6-59.6v-56c0-5.2,4.3-9.5,9.5-9.5c5.2,0,9.5,4.3,9.5,9.5v56 c0,22.3,18.3,40.6,40.6,40.6h96.7c7.9,0,15.6-2.3,22.2-6.6c11.5-7.6,18.4-20.3,18.4-34v-56.7c0-5.2,4.3-9.5,9.5-9.5 c5.2,0,9.5,4.3,9.5,9.5v56.7c0,9.5-2.3,18.8-6.7,27.4c-2.7,5.1-6,9.5-9.9,13.8l-0.1,0.1l-0.1,0.1c-0.4,0.4-9,7.9-16.6,11.5 c-7.9,3.8-19.4,6.7-26.1,6.7L310.5,283.5L310.5,283.5L310.5,283.5z" fill="#8C827A"  /><path d="M310.5,255c-17.1,0-31.1-14-31.1-31.1V122.9c0-10.5-5.2-20.3-13.8-26.1c-7.7-5.2-16.9-13.4-16.9-22.6 c0-9.4,10.3-20.2,27.4-28.7c21.7-10.9,51.3-16.9,83-16.9c5.1,0,10.2,0.1,15.1,0.5c26.1,1.6,49.6,7.4,67.9,16.5 c16.9,8.4,27.3,19.3,27.3,28.5c0,9.4-9.1,17.4-16.9,22.6c-8.8,6-13.8,15.7-13.8,26.3v101c0,17.1-14,31.1-31.1,31.1h-97.1V255z" fill="#FF9E18"  /><path d="M260.3,145.1c-5.2,0-9.5-4.3-9.5-9.5v-12.7c0-1.1-0.5-2-1.3-2.7c-23.1-15.6-33.4-36.3-28.2-56.7 C229.8,31.1,274,6.4,334.2,1h0.3c0.1,0,7.6-0.3,17.9-0.3c17.6,0,41.5,0.6,54.8,3.6c21.6,3.2,34.1,8.9,47.2,15.5 c31.7,15.8,40.7,34.7,42.6,47.8c2.3,15.2-3.8,30.6-17.3,43.3l-0.3,0.3l-0.4,0.3c-6.2,3.8-12.3,9.3-12.4,11.3V135 c0,5.2-4.3,9.5-9.5,9.5s-9.5-4.3-9.5-9.5v-11.9c0-7.4,3.6-14.2,9.6-18.3c14.6-9.8,21.8-20.9,21.1-32c-0.9-12.9-12.4-25.6-32.6-35.8 c-16.2-8.1-36.8-13.8-59.3-16.4C377,19.5,367.5,19,358,19c-64.8,0-111.2,24.6-118.5,48.5c-4.9,16.1,8.2,29.2,20.3,37.3 c6.1,4.1,9.6,10.9,9.6,18.3v12.8C269.9,140.9,265.5,145.1,260.3,145.1z" fill="#8C827A"  /><g><path d="M102.5,277.6c-5.7,0-10-4.3-10-10V21.3H10c-5.6,0-10-4.2-10-9.5c0-5.5,4.6-10,10-10h184.9 c5.7,0,10,4.3,10,10c0,5.6-4.2,9.6-10,9.6h-82.3v246.3C112.5,273.3,107.2,277.6,102.5,277.6z" fill="#8C827A"  />
    
  </g><g><path d="M737.7,276.8c-3.6,0-7.1-2.3-9.3-5.8l-0.3-0.5l-24.4-65H577.8l-24.1,64.3c-1,3.9-4.9,7-9,7 c-0.9,0-1.6-0.3-2-0.4h-0.1h-0.9l-1-0.5c-4.7-2.4-6.7-7.9-4.7-12.8l95.5-255c1.5-4.4,5.6-7,10.2-6.3c3.4,0.1,6.9,2.3,8.8,5.5 l0.3,0.5l95.7,255.4c2,4.8-0.1,10.4-5.1,12.8l-1,0.5h-0.6C739.2,276.7,738.6,276.8,737.7,276.8z M585.4,185.5h110.7l-55.3-147 L585.4,185.5z" fill="#8C827A"  />
    
  </g><g><path d="M881.2,279.5c-58.9,0-101.9-39.5-102.3-39.8c-3.9-4.1-4.2-10.2-0.4-14c2-2,4.7-3.2,7.4-3.2 c2.5,0,4.8,1,6.6,2.7c0.4,0.3,39,34.6,88.7,34.6c48.2,0,86-26.6,86-60.7c0-38.2-38.7-47.2-79.6-56.6 c-43.8-10.2-93.5-21.8-93.5-74.4c0-37.6,39.2-68,87.4-68c52.8,0,81.3,30.3,84.5,33.8c3.8,3.8,3.6,9.9-0.4,14l-0.5,0.4l-0.3,0.3 c-1.9,1.3-4.1,1.9-6.3,1.9l0,0c-2.8,0-5.5-1.1-7.1-3.2c-2.5-2.8-26.5-27.2-69.8-27.2c-37.2,0-67.4,21.6-67.4,48.1 c0,36.8,37.9,45.7,78,55.1c44.3,10.2,94.5,21.6,94.5,75.9C986.7,244.2,940.3,279.5,881.2,279.5z" fill="#8C827A"  />
    
  </g><g><path d="M1121.5,277.6c-5.7,0-10-4.3-10-10V21.3h-82.6c-5.6,0-10-4.2-10-9.6s4.6-10,10-10h184.9c5.7,0,10,4.3,10,10 c0,5.6-4.2,9.6-10,9.6h-82.2v246.3C1131.5,273.3,1126.2,277.6,1121.5,277.6z" fill="#8C827A"  />
    
  </g><g><path d="M358.7,211.9c-15.9,0-30.8-6.5-41.9-18.4c-11-11.7-17.1-27.3-17.1-43.9c0.1-34.3,26.6-62.2,59.1-62.2 c15.9,0,30.8,6.5,41.9,18.3c11,11.7,17.1,27.2,17.3,43.8v0.1C417.6,184.6,391.5,211.9,358.7,211.9z M358.7,106.1 c-22.2,0-40.3,19.5-40.3,43.5c0,23.7,18.1,43.3,40.3,43.5c22.1-0.3,40.2-19.8,40.3-43.5C398.9,125.6,380.8,106.1,358.7,106.1z" fill="#FFFFFF"  />
    
  </g></svg>